# Blender v3.6.0 OBJ File: ''
# www.blender.org
mtllib Line_2003.mtl
o Line_2003
v -1450.522461 1423.912231 62.863968
v -1451.334961 1422.000000 61.740391
v -1451.334961 1423.912231 61.740391
v -1452.287109 1422.000000 60.732468
v -1452.287109 1423.912231 60.732468
v -1453.362671 1422.000000 59.857452
v -1453.362671 1423.912231 59.857452
v -1454.543335 1422.000000 59.130314
v -1454.543335 1423.912231 59.130314
v -1455.808716 1422.000000 58.563492
v -1455.808716 1423.912231 58.563492
v -1457.137207 1422.000000 58.166687
v -1457.137207 1423.912231 58.166687
v -1458.506226 1422.000000 57.946686
v -1458.506226 1423.912231 57.946686
v -1459.892212 1422.000000 57.907257
v -1459.892212 1423.912231 57.907257
v -1461.271484 1422.000000 58.049072
v -1461.271484 1423.912231 58.049072
v -1462.620483 1422.000000 58.369709
v -1462.620483 1423.912231 58.369709
v -1463.916016 1422.000000 58.863674
v -1463.916016 1423.912231 58.863674
v -1465.135986 1422.000000 59.522522
v -1465.135986 1423.912231 59.522522
v -1466.259644 1422.000000 60.334972
v -1466.259644 1423.912231 60.334972
v -1467.267578 1422.000000 61.287132
v -1467.267578 1423.912231 61.287132
v -1468.142578 1422.000000 62.362705
v -1468.142578 1423.912231 62.362705
v -1468.869629 1422.000000 63.543289
v -1468.869629 1423.912231 63.543289
v -1469.436523 1422.000000 64.808685
v -1469.436523 1423.912231 64.808685
v -1469.833374 1422.000000 66.137238
v -1469.833374 1423.912231 66.137238
v -1470.053345 1422.000000 67.506218
v -1470.053345 1423.912231 67.506218
v -1470.092773 1422.000000 68.892204
v -1470.092773 1423.912231 68.892204
v -1469.950928 1422.000000 70.271484
v -1469.950928 1423.912231 70.271484
v -1469.630249 1422.000000 71.620445
v -1469.630249 1423.912231 71.620445
v -1469.136353 1422.000000 72.916016
v -1469.136353 1423.912231 72.916016
v -1468.477539 1422.000000 74.136032
v -1468.477539 1423.912231 74.136032
v -1467.665039 1422.000000 75.259613
v -1467.665039 1423.912231 75.259613
v -1466.712891 1422.000000 76.267532
v -1466.712891 1423.912231 76.267532
v -1465.637329 1422.000000 77.142548
v -1465.637329 1423.912231 77.142548
v -1464.456665 1422.000000 77.869690
v -1464.456665 1423.912231 77.869690
v -1463.191284 1422.000000 78.436508
v -1463.191284 1423.912231 78.436508
v -1461.862793 1422.000000 78.833313
v -1461.862793 1423.912231 78.833313
v -1460.493774 1422.000000 79.053314
v -1460.493774 1423.912231 79.053314
v -1459.107788 1422.000000 79.092743
v -1459.107788 1423.912231 79.092743
v -1457.728516 1422.000000 78.950928
v -1457.728516 1423.912231 78.950928
v -1456.379517 1422.000000 78.630295
v -1456.379517 1423.912231 78.630295
v -1455.083984 1422.000000 78.136330
v -1455.083984 1423.912231 78.136330
v -1453.864014 1422.000000 77.477478
v -1453.864014 1423.912231 77.477478
v -1452.740356 1422.000000 76.665024
v -1452.740356 1423.912231 76.665024
v -1451.732422 1422.000000 75.712868
v -1451.732422 1423.912231 75.712868
v -1450.857422 1422.000000 74.637291
v -1450.857422 1423.912231 74.637291
v -1450.130371 1422.000000 73.456711
v -1450.130371 1423.912231 73.456711
v -1449.563477 1422.000000 72.191315
v -1449.563477 1423.912231 72.191315
v -1449.166626 1422.000000 70.862762
v -1449.166626 1423.912231 70.862762
v -1448.946655 1422.000000 69.493782
v -1448.946655 1423.912231 69.493782
v -1448.907227 1422.000000 68.107796
v -1448.907227 1423.912231 68.107796
v -1449.049072 1422.000000 66.728516
v -1449.049072 1423.912231 66.728516
v -1449.369751 1422.000000 65.379555
v -1449.369751 1423.912231 65.379555
v -1449.863647 1422.000000 64.083984
v -1449.863647 1423.912231 64.083984
v -1450.522461 1422.000000 62.863968
v -1452.746460 1416.000000 79.257484
v -1456.379517 1416.000000 78.630295
v -1455.083984 1416.000000 78.136330
v -1455.808716 1416.000000 58.563492
v -1457.137207 1416.000000 58.166687
v -1453.560547 1416.000000 57.272549
v -1462.620483 1416.000000 58.369709
v -1463.916016 1416.000000 58.863674
v -1466.253540 1416.000000 57.742519
v -1465.439453 1416.000000 79.727455
v -1472.192993 1416.000000 68.969971
v -1468.477539 1416.000000 74.136032
v -1467.665039 1416.000000 75.259613
v -1466.712891 1416.000000 76.267532
v -1465.637329 1416.000000 77.142548
v -1464.456665 1416.000000 77.869690
v -1463.191284 1416.000000 78.436508
v -1461.862793 1416.000000 78.833313
v -1453.864014 1416.000000 77.477478
v -1452.740356 1416.000000 76.665024
v -1451.732422 1416.000000 75.712868
v -1446.807007 1416.000000 68.030029
v -1449.166626 1416.000000 70.862762
v -1448.946655 1416.000000 69.493782
v -1458.506226 1416.000000 57.946686
v -1459.892212 1416.000000 57.907257
v -1461.271484 1416.000000 58.049072
v -1469.833374 1416.000000 66.137238
v -1470.053345 1416.000000 67.506218
v -1470.092773 1416.000000 68.892204
v -1469.950928 1416.000000 70.271484
v -1460.493774 1416.000000 79.053314
v -1459.107788 1416.000000 79.092743
v -1457.728516 1416.000000 78.950928
v -1450.857422 1416.000000 74.637291
v -1450.130371 1416.000000 73.456711
v -1449.563477 1416.000000 72.191315
v -1448.907227 1416.000000 68.107796
v -1449.049072 1416.000000 66.728516
v -1449.369751 1416.000000 65.379555
v -1469.630249 1416.000000 71.620445
v -1469.136353 1416.000000 72.916016
v -1465.135986 1416.000000 59.522522
v -1466.259644 1416.000000 60.334972
v -1467.267578 1416.000000 61.287132
v -1452.287109 1416.000000 60.732468
v -1453.362671 1416.000000 59.857452
v -1454.543335 1416.000000 59.130314
v -1468.142578 1416.000000 62.362705
v -1468.869629 1416.000000 63.543289
v -1469.436523 1416.000000 64.808685
v -1449.863647 1416.000000 64.083984
v -1450.522461 1416.000000 62.863968
v -1451.334961 1416.000000 61.740391
v -1466.253540 1422.000000 57.742519
v -1453.560547 1422.000000 57.272549
v -1472.192993 1422.000000 68.969971
v -1465.439453 1422.000000 79.727455
v -1452.746460 1422.000000 79.257484
v -1446.807007 1422.000000 68.030029
v -1463.758789 1436.000000 59.206741
v -1462.509399 1436.000000 58.730362
v -1461.208374 1436.000000 58.421143
v -1459.878296 1436.000000 58.284378
v -1458.541626 1436.000000 58.322403
v -1457.221313 1436.000000 58.534569
v -1455.940063 1436.000000 58.917248
v -1454.719727 1436.000000 59.463890
v -1453.581177 1436.000000 60.165142
v -1452.543945 1436.000000 61.009007
v -1451.625610 1436.000000 61.981041
v -1450.842163 1436.000000 63.064621
v -1450.206787 1436.000000 64.241196
v -1449.730347 1436.000000 65.490646
v -1449.421143 1436.000000 66.791588
v -1449.284424 1436.000000 68.121758
v -1449.322388 1436.000000 69.458397
v -1449.534546 1436.000000 70.778641
v -1449.917236 1436.000000 72.059898
v -1450.463867 1436.000000 73.280243
v -1451.165161 1436.000000 74.418800
v -1452.009033 1436.000000 75.456078
v -1452.981079 1436.000000 76.374336
v -1454.064575 1436.000000 77.157867
v -1455.241211 1436.000000 77.793259
v -1456.490601 1436.000000 78.269638
v -1457.791626 1436.000000 78.578857
v -1459.121704 1436.000000 78.715622
v -1460.458374 1436.000000 78.677597
v -1461.778687 1436.000000 78.465431
v -1463.059937 1436.000000 78.082756
v -1464.280273 1436.000000 77.536110
v -1465.418823 1436.000000 76.834862
v -1466.456055 1436.000000 75.990997
v -1467.374390 1436.000000 75.018959
v -1468.157837 1436.000000 73.935379
v -1468.793213 1436.000000 72.758804
v -1469.269653 1436.000000 71.509354
v -1469.578857 1436.000000 70.208412
v -1469.715576 1436.000000 68.878242
v -1469.677612 1436.000000 67.541603
v -1469.465454 1436.000000 66.221359
v -1469.082764 1436.000000 64.940102
v -1468.536133 1436.000000 63.719757
v -1467.834839 1436.000000 62.581203
v -1466.990967 1436.000000 61.543922
v -1466.018921 1436.000000 60.625660
v -1464.935425 1436.000000 59.842133
v -1453.864014 1414.087769 77.477478
v -1452.981079 1402.000000 76.374336
v -1452.740356 1414.087769 76.665024
v -1452.009033 1402.000000 75.456078
v -1451.732422 1414.087769 75.712868
v -1451.165161 1402.000000 74.418800
v -1450.857422 1414.087769 74.637291
v -1450.463867 1402.000000 73.280243
v -1450.130371 1414.087769 73.456711
v -1449.917236 1402.000000 72.059898
v -1449.563477 1414.087769 72.191315
v -1449.534546 1402.000000 70.778641
v -1449.166626 1414.087769 70.862762
v -1449.322388 1402.000000 69.458397
v -1448.946655 1414.087769 69.493782
v -1449.284424 1402.000000 68.121758
v -1448.907227 1414.087769 68.107796
v -1449.421143 1402.000000 66.791588
v -1449.049072 1414.087769 66.728516
v -1449.730347 1402.000000 65.490646
v -1449.369751 1414.087769 65.379555
v -1450.206787 1402.000000 64.241196
v -1449.863647 1414.087769 64.083984
v -1450.842163 1402.000000 63.064621
v -1450.522461 1414.087769 62.863968
v -1451.625610 1402.000000 61.981041
v -1451.334961 1414.087769 61.740391
v -1452.543945 1402.000000 61.009007
v -1452.287109 1414.087769 60.732468
v -1453.581177 1402.000000 60.165142
v -1453.362671 1414.087769 59.857452
v -1454.719727 1402.000000 59.463890
v -1454.543335 1414.087769 59.130314
v -1455.940063 1402.000000 58.917248
v -1455.808716 1414.087769 58.563492
v -1457.221313 1402.000000 58.534569
v -1457.137207 1414.087769 58.166687
v -1458.541626 1402.000000 58.322403
v -1458.506226 1414.087769 57.946686
v -1459.878296 1402.000000 58.284378
v -1459.892212 1414.087769 57.907257
v -1461.208374 1402.000000 58.421143
v -1461.271484 1414.087769 58.049072
v -1462.509399 1402.000000 58.730362
v -1462.620483 1414.087769 58.369709
v -1463.758789 1402.000000 59.206741
v -1463.916016 1414.087769 58.863674
v -1464.935425 1402.000000 59.842133
v -1465.135986 1414.087769 59.522522
v -1466.018921 1402.000000 60.625660
v -1466.259644 1414.087769 60.334972
v -1466.990967 1402.000000 61.543922
v -1467.267578 1414.087769 61.287132
v -1467.834839 1402.000000 62.581203
v -1468.142578 1414.087769 62.362705
v -1468.536133 1402.000000 63.719757
v -1468.869629 1414.087769 63.543289
v -1469.082764 1402.000000 64.940102
v -1469.436523 1414.087769 64.808685
v -1469.465454 1402.000000 66.221359
v -1469.833374 1414.087769 66.137238
v -1469.677612 1402.000000 67.541603
v -1470.053345 1414.087769 67.506218
v -1469.715576 1402.000000 68.878242
v -1470.092773 1414.087769 68.892204
v -1469.578857 1402.000000 70.208412
v -1469.950928 1414.087769 70.271484
v -1469.269653 1402.000000 71.509354
v -1469.630249 1414.087769 71.620445
v -1468.793213 1402.000000 72.758804
v -1469.136353 1414.087769 72.916016
v -1468.157837 1402.000000 73.935379
v -1468.477539 1414.087769 74.136032
v -1467.374390 1402.000000 75.018959
v -1467.665039 1414.087769 75.259613
v -1466.456055 1402.000000 75.990997
v -1466.712891 1414.087769 76.267532
v -1465.418823 1402.000000 76.834862
v -1465.637329 1414.087769 77.142548
v -1464.280273 1402.000000 77.536110
v -1464.456665 1414.087769 77.869690
v -1463.059937 1402.000000 78.082756
v -1463.191284 1414.087769 78.436508
v -1461.778687 1402.000000 78.465431
v -1461.862793 1414.087769 78.833313
v -1460.458374 1402.000000 78.677597
v -1460.493774 1414.087769 79.053314
v -1459.121704 1402.000000 78.715622
v -1459.107788 1414.087769 79.092743
v -1457.791626 1402.000000 78.578857
v -1457.728516 1414.087769 78.950928
v -1456.490601 1402.000000 78.269638
v -1456.379517 1414.087769 78.630295
v -1455.241211 1402.000000 77.793259
v -1455.083984 1414.087769 78.136330
v -1454.064575 1402.000000 77.157867
v -1453.571533 1402.000000 64.778091
v -1453.571533 1436.000000 64.778091
v -1454.245239 1402.000000 63.875286
v -1454.245239 1436.000000 63.875286
v -1455.055176 1402.000000 63.092262
v -1455.055176 1436.000000 63.092262
v -1455.980225 1402.000000 62.449291
v -1455.980225 1436.000000 62.449291
v -1456.996338 1402.000000 61.963032
v -1456.996338 1436.000000 61.963032
v -1458.077393 1402.000000 61.646076
v -1458.077393 1436.000000 61.646076
v -1459.195312 1402.000000 61.506634
v -1459.195312 1436.000000 61.506634
v -1460.321045 1402.000000 61.548317
v -1460.321045 1436.000000 61.548317
v -1461.425537 1402.000000 61.770046
v -1461.425537 1436.000000 61.770046
v -1462.480225 1402.000000 62.166073
v -1462.480225 1436.000000 62.166073
v -1463.457642 1402.000000 62.726151
v -1463.457642 1436.000000 62.726151
v -1464.332520 1402.000000 63.435764
v -1464.332520 1436.000000 63.435764
v -1465.082275 1402.000000 64.276543
v -1465.082275 1436.000000 64.276543
v -1465.687500 1402.000000 65.226700
v -1465.687500 1436.000000 65.226700
v -1466.132446 1402.000000 66.261642
v -1466.132446 1436.000000 66.261642
v -1466.405640 1402.000000 67.354546
v -1466.405640 1436.000000 67.354546
v -1466.500000 1402.000000 68.477127
v -1466.500000 1436.000000 68.477127
v -1466.412964 1402.000000 69.600296
v -1466.412964 1436.000000 69.600296
v -1466.146973 1402.000000 70.694969
v -1466.146973 1436.000000 70.694969
v -1465.708740 1402.000000 71.732788
v -1465.708740 1436.000000 71.732788
v -1465.109863 1402.000000 72.686890
v -1465.109863 1436.000000 72.686890
v -1464.365601 1402.000000 73.532547
v -1464.365601 1436.000000 73.532547
v -1463.495239 1402.000000 74.247864
v -1463.495239 1436.000000 74.247864
v -1462.521484 1402.000000 74.814316
v -1462.521484 1436.000000 74.814316
v -1461.469482 1402.000000 75.217224
v -1461.469482 1436.000000 75.217224
v -1460.366455 1402.000000 75.446167
v -1460.366455 1436.000000 75.446167
v -1459.240967 1402.000000 75.495209
v -1459.240967 1436.000000 75.495209
v -1458.122192 1402.000000 75.363075
v -1458.122192 1436.000000 75.363075
v -1457.039185 1402.000000 75.053192
v -1457.039185 1436.000000 75.053192
v -1456.019775 1402.000000 74.573586
v -1456.019775 1436.000000 74.573586
v -1455.090576 1402.000000 73.936676
v -1455.090576 1436.000000 73.936676
v -1454.275635 1402.000000 73.158958
v -1454.275635 1436.000000 73.158958
v -1453.595947 1402.000000 72.260574
v -1453.595947 1436.000000 72.260574
v -1453.069092 1402.000000 71.264793
v -1453.069092 1436.000000 71.264793
v -1452.708862 1402.000000 70.197411
v -1452.708862 1436.000000 70.197411
v -1452.524536 1402.000000 69.086060
v -1452.524536 1436.000000 69.086060
v -1452.520874 1402.000000 67.959534
v -1452.520874 1436.000000 67.959534
v -1452.697998 1402.000000 66.847008
v -1452.697998 1436.000000 66.847008
v -1453.051270 1402.000000 65.777290
v -1453.051270 1436.000000 65.777290
vn 0.8468 0.0156 -0.5316
vn 0.5329 0.7221 -0.4411
vn 0.7702 0.0156 -0.6376
vn 0.4707 0.7221 -0.5069
vn 0.6804 0.0156 -0.7327
vn 0.4005 0.7221 -0.5640
vn 0.5789 0.0156 -0.8152
vn 0.3235 0.7221 -0.6115
vn 0.4675 0.0156 -0.8838
vn 0.2409 0.7221 -0.6485
vn 0.3482 0.0156 -0.9373
vn 0.1542 0.7221 -0.6744
vn 0.2229 0.0156 -0.9747
vn 0.0649 0.7224 -0.6884
vn 0.0937 0.0156 -0.9955
vn -0.0256 0.7220 -0.6914
vn -0.0370 0.0156 -0.9992
vn -0.1156 0.7220 -0.6822
vn -0.1671 0.0156 -0.9858
vn -0.2036 0.7221 -0.6611
vn -0.2943 0.0156 -0.9556
vn -0.2882 0.7221 -0.6289
vn -0.4166 0.0156 -0.9090
vn -0.3678 0.7221 -0.5859
vn -0.5316 0.0156 -0.8468
vn -0.4411 0.7221 -0.5328
vn -0.6376 0.0156 -0.7702
vn -0.5069 0.7221 -0.4707
vn -0.7327 0.0156 -0.6804
vn -0.5640 0.7221 -0.4005
vn -0.8153 0.0156 -0.5789
vn -0.6115 0.7221 -0.3235
vn -0.8838 0.0156 -0.4676
vn -0.6485 0.7222 -0.2406
vn -0.9373 0.0156 -0.3482
vn -0.6744 0.7221 -0.1542
vn -0.9747 0.0156 -0.2229
vn -0.6887 0.7221 -0.0648
vn -0.9955 0.0156 -0.0937
vn -0.6913 0.7221 0.0256
vn -0.9992 0.0156 0.0370
vn -0.6820 0.7221 0.1156
vn -0.9858 0.0156 0.1671
vn -0.6611 0.7221 0.2036
vn -0.9556 0.0156 0.2943
vn -0.6289 0.7222 0.2879
vn -0.9090 0.0156 0.4165
vn -0.5859 0.7221 0.3678
vn -0.8468 0.0156 0.5316
vn -0.5329 0.7221 0.4411
vn -0.7702 0.0156 0.6376
vn -0.4707 0.7221 0.5069
vn -0.6804 0.0156 0.7327
vn -0.4005 0.7221 0.5640
vn -0.5789 0.0156 0.8152
vn -0.3235 0.7221 0.6115
vn -0.4675 0.0156 0.8838
vn -0.2409 0.7221 0.6485
vn -0.3482 0.0156 0.9373
vn -0.1542 0.7221 0.6744
vn -0.2229 0.0156 0.9747
vn -0.0649 0.7224 0.6884
vn -0.0937 0.0156 0.9955
vn 0.0256 0.7220 0.6914
vn 0.0370 0.0156 0.9992
vn 0.1156 0.7220 0.6822
vn 0.1671 0.0156 0.9858
vn 0.2036 0.7221 0.6611
vn 0.2943 0.0156 0.9556
vn 0.2882 0.7221 0.6289
vn 0.4166 0.0156 0.9090
vn 0.3678 0.7221 0.5859
vn 0.5316 0.0156 0.8468
vn 0.4411 0.7221 0.5328
vn 0.6376 0.0156 0.7702
vn 0.5069 0.7221 0.4707
vn 0.7327 0.0156 0.6804
vn 0.5640 0.7221 0.4005
vn 0.8153 0.0156 0.5789
vn 0.6115 0.7221 0.3235
vn 0.8838 0.0156 0.4676
vn 0.6485 0.7222 0.2406
vn 0.9373 0.0156 0.3482
vn 0.6744 0.7221 0.1542
vn 0.9747 0.0156 0.2229
vn 0.6887 0.7221 0.0648
vn 0.9955 0.0156 0.0937
vn 0.6913 0.7221 -0.0256
vn 0.9992 0.0156 -0.0370
vn 0.6820 0.7221 -0.1156
vn 0.9858 0.0156 -0.1671
vn 0.6611 0.7221 -0.2036
vn 0.9556 0.0156 -0.2943
vn 0.6289 0.7222 -0.2879
vn 0.9090 0.0156 -0.4165
vn 0.5859 0.7221 -0.3678
vn 0.4213 -0.6100 0.6711
vn 0.2036 -0.7221 0.6611
vn 0.2882 -0.7221 0.6289
vn 0.2409 -0.7221 -0.6485
vn 0.1542 -0.7221 -0.6744
vn 0.3705 -0.6100 -0.7004
vn -0.2036 -0.7221 -0.6611
vn -0.2882 -0.7221 -0.6289
vn -0.4213 -0.6100 -0.6711
vn -0.3705 -0.6100 0.7004
vn -0.7919 -0.6100 0.0293
vn -0.5859 -0.7221 0.3678
vn -0.5329 -0.7221 0.4411
vn -0.4707 -0.7221 0.5069
vn -0.4005 -0.7221 0.5640
vn -0.3235 -0.7221 0.6115
vn -0.2409 -0.7221 0.6485
vn -0.1542 -0.7221 0.6744
vn 0.3678 -0.7221 0.5859
vn 0.4411 -0.7221 0.5328
vn 0.5069 -0.7221 0.4707
vn 0.7919 -0.6100 -0.0293
vn 0.6744 -0.7221 0.1542
vn 0.6887 -0.7221 0.0648
vn 0.0649 -0.7221 -0.6887
vn -0.0256 -0.7223 -0.6912
vn -0.1156 -0.7221 -0.6820
vn -0.6744 -0.7221 -0.1542
vn -0.6887 -0.7221 -0.0648
vn -0.6913 -0.7221 0.0256
vn -0.6820 -0.7221 0.1156
vn -0.0649 -0.7221 0.6887
vn 0.0256 -0.7223 0.6912
vn 0.1156 -0.7221 0.6820
vn 0.5640 -0.7221 0.4005
vn 0.6115 -0.7221 0.3235
vn 0.6485 -0.7221 0.2409
vn 0.6913 -0.7221 -0.0256
vn 0.6820 -0.7221 -0.1156
vn 0.6611 -0.7221 -0.2036
vn -0.6611 -0.7221 0.2036
vn -0.6289 -0.7221 0.2882
vn -0.3678 -0.7221 -0.5859
vn -0.4411 -0.7221 -0.5328
vn -0.5069 -0.7221 -0.4707
vn 0.4707 -0.7221 -0.5069
vn 0.4005 -0.7221 -0.5640
vn 0.3235 -0.7221 -0.6115
vn -0.5640 -0.7221 -0.4005
vn -0.6115 -0.7221 -0.3235
vn -0.6485 -0.7221 -0.2409
vn 0.6289 -0.7221 -0.2882
vn 0.5859 -0.7221 -0.3678
vn 0.5329 -0.7221 -0.4411
vn -0.4213 0.6100 -0.6711
vn 0.3705 0.6100 -0.7004
vn -0.7919 0.6100 0.0293
vn -0.3705 0.6100 0.7004
vn 0.4213 0.6100 0.6711
vn 0.7919 0.6100 -0.0293
vn -0.2959 0.7038 -0.6458
vn -0.2091 0.7038 -0.6789
vn -0.1187 0.7038 -0.7004
vn -0.0263 0.7038 -0.7099
vn 0.0666 0.7038 -0.7072
vn 0.1583 0.7038 -0.6925
vn 0.2474 0.7038 -0.6659
vn 0.3322 0.7038 -0.6279
vn 0.4113 0.7038 -0.5792
vn 0.4834 0.7038 -0.5205
vn 0.5472 0.7038 -0.4530
vn 0.6016 0.7038 -0.3777
vn 0.6458 0.7038 -0.2959
vn 0.6789 0.7038 -0.2091
vn 0.7004 0.7038 -0.1187
vn 0.7099 0.7039 -0.0263
vn 0.7072 0.7038 0.0666
vn 0.6925 0.7038 0.1583
vn 0.6659 0.7038 0.2474
vn 0.6279 0.7038 0.3322
vn 0.5792 0.7038 0.4113
vn 0.5205 0.7038 0.4834
vn 0.4530 0.7038 0.5472
vn 0.3777 0.7038 0.6016
vn 0.2959 0.7038 0.6458
vn 0.2091 0.7038 0.6789
vn 0.1187 0.7038 0.7004
vn 0.0263 0.7038 0.7099
vn -0.0666 0.7038 0.7072
vn -0.1583 0.7038 0.6925
vn -0.2474 0.7038 0.6659
vn -0.3322 0.7038 0.6279
vn -0.4113 0.7038 0.5792
vn -0.4834 0.7038 0.5205
vn -0.5472 0.7038 0.4530
vn -0.6016 0.7038 0.3777
vn -0.6458 0.7038 0.2959
vn -0.6789 0.7038 0.2091
vn -0.7004 0.7038 0.1187
vn -0.7099 0.7039 0.0263
vn -0.7072 0.7038 -0.0666
vn -0.6925 0.7038 -0.1583
vn -0.6659 0.7038 -0.2474
vn -0.6279 0.7038 -0.3322
vn -0.5792 0.7038 -0.4113
vn -0.5205 0.7038 -0.4834
vn -0.4530 0.7039 -0.5472
vn -0.3777 0.7038 -0.6016
vn 0.5316 -0.0156 0.8468
vn 0.4530 -0.7038 0.5472
vn 0.6376 -0.0156 0.7702
vn 0.5205 -0.7038 0.4834
vn 0.7327 -0.0156 0.6804
vn 0.5792 -0.7038 0.4113
vn 0.8152 -0.0156 0.5789
vn 0.6279 -0.7038 0.3322
vn 0.8838 -0.0156 0.4676
vn 0.6659 -0.7038 0.2474
vn 0.9373 -0.0156 0.3482
vn 0.6925 -0.7038 0.1583
vn 0.9747 -0.0156 0.2229
vn 0.7072 -0.7038 0.0665
vn 0.9955 -0.0156 0.0937
vn 0.7099 -0.7039 -0.0263
vn 0.9992 -0.0156 -0.0370
vn 0.7004 -0.7038 -0.1187
vn 0.9858 -0.0156 -0.1671
vn 0.6789 -0.7038 -0.2091
vn 0.9556 -0.0156 -0.2944
vn 0.6458 -0.7039 -0.2959
vn 0.9090 -0.0156 -0.4165
vn 0.6016 -0.7039 -0.3777
vn 0.8468 -0.0156 -0.5316
vn 0.5472 -0.7038 -0.4530
vn 0.7702 -0.0156 -0.6376
vn 0.4834 -0.7038 -0.5205
vn 0.6804 -0.0156 -0.7327
vn 0.4113 -0.7038 -0.5792
vn 0.5789 -0.0156 -0.8152
vn 0.3322 -0.7038 -0.6279
vn 0.4675 -0.0156 -0.8838
vn 0.2474 -0.7038 -0.6659
vn 0.3482 -0.0156 -0.9373
vn 0.1583 -0.7038 -0.6925
vn 0.2229 -0.0156 -0.9747
vn 0.0666 -0.7038 -0.7072
vn 0.0937 -0.0156 -0.9955
vn -0.0263 -0.7038 -0.7099
vn -0.0370 -0.0156 -0.9992
vn -0.1187 -0.7038 -0.7004
vn -0.1671 -0.0156 -0.9858
vn -0.2091 -0.7038 -0.6789
vn -0.2943 -0.0156 -0.9556
vn -0.2959 -0.7038 -0.6458
vn -0.4166 -0.0156 -0.9090
vn -0.3777 -0.7038 -0.6016
vn -0.5316 -0.0156 -0.8468
vn -0.4530 -0.7038 -0.5472
vn -0.6376 -0.0156 -0.7702
vn -0.5205 -0.7039 -0.4833
vn -0.7327 -0.0156 -0.6804
vn -0.5792 -0.7039 -0.4113
vn -0.8152 -0.0156 -0.5789
vn -0.6279 -0.7038 -0.3322
vn -0.8838 -0.0156 -0.4676
vn -0.6659 -0.7038 -0.2474
vn -0.9373 -0.0156 -0.3482
vn -0.6925 -0.7038 -0.1583
vn -0.9747 -0.0156 -0.2229
vn -0.7072 -0.7038 -0.0666
vn -0.9955 -0.0156 -0.0937
vn -0.7099 -0.7039 0.0262
vn -0.9992 -0.0156 0.0370
vn -0.7004 -0.7038 0.1187
vn -0.9858 -0.0156 0.1671
vn -0.6789 -0.7038 0.2091
vn -0.9556 -0.0156 0.2944
vn -0.6458 -0.7038 0.2960
vn -0.9090 -0.0156 0.4165
vn -0.6016 -0.7038 0.3777
vn -0.8468 -0.0156 0.5316
vn -0.5472 -0.7038 0.4530
vn -0.7702 -0.0156 0.6376
vn -0.4834 -0.7038 0.5205
vn -0.6804 -0.0156 0.7327
vn -0.4113 -0.7038 0.5792
vn -0.5789 -0.0156 0.8152
vn -0.3322 -0.7038 0.6279
vn -0.4675 -0.0156 0.8838
vn -0.2474 -0.7038 0.6659
vn -0.3482 -0.0156 0.9373
vn -0.1583 -0.7038 0.6925
vn -0.2229 -0.0156 0.9747
vn -0.0666 -0.7038 0.7072
vn -0.0937 -0.0156 0.9955
vn 0.0263 -0.7038 0.7099
vn 0.0370 -0.0156 0.9992
vn 0.1187 -0.7038 0.7004
vn 0.1671 -0.0156 0.9858
vn 0.2091 -0.7038 0.6789
vn 0.2943 -0.0156 0.9556
vn 0.2959 -0.7038 0.6458
vn 0.4166 -0.0156 0.9090
vn 0.3777 -0.7038 0.6017
vn -0.5827 -0.7257 0.3658
vn -0.5827 0.7257 0.3658
vn -0.5165 -0.7257 0.4545
vn -0.5165 0.7257 0.4545
vn -0.4369 -0.7257 0.5315
vn -0.4369 0.7257 0.5315
vn -0.3460 -0.7257 0.5947
vn -0.3460 0.7257 0.5947
vn -0.2461 -0.7257 0.6425
vn -0.2461 0.7257 0.6425
vn -0.1398 -0.7257 0.6737
vn -0.1398 0.7257 0.6737
vn -0.0299 -0.7257 0.6874
vn -0.0299 0.7257 0.6874
vn 0.0807 -0.7257 0.6833
vn 0.0807 0.7257 0.6833
vn 0.1893 -0.7257 0.6615
vn 0.1893 0.7257 0.6615
vn 0.2929 -0.7257 0.6226
vn 0.2929 0.7257 0.6226
vn 0.3890 -0.7257 0.5675
vn 0.3890 0.7257 0.5675
vn 0.4750 -0.7257 0.4978
vn 0.4750 0.7257 0.4978
vn 0.5487 -0.7257 0.4151
vn 0.5487 0.7257 0.4151
vn 0.6082 -0.7257 0.3217
vn 0.6082 0.7257 0.3217
vn 0.6519 -0.7257 0.2199
vn 0.6519 0.7257 0.2200
vn 0.6788 -0.7257 0.1126
vn 0.6788 0.7257 0.1126
vn 0.6880 -0.7257 0.0023
vn 0.6880 0.7257 0.0022
vn 0.6795 -0.7257 -0.1081
vn 0.6795 0.7257 -0.1082
vn 0.6533 -0.7257 -0.2158
vn 0.6533 0.7257 -0.2158
vn 0.6103 -0.7257 -0.3178
vn 0.6103 0.7257 -0.3178
vn 0.5514 -0.7257 -0.4115
vn 0.5514 0.7257 -0.4115
vn 0.4782 -0.7257 -0.4947
vn 0.4782 0.7257 -0.4947
vn 0.3927 -0.7257 -0.5650
vn 0.3927 0.7257 -0.5650
vn 0.2970 -0.7257 -0.6206
vn 0.2970 0.7257 -0.6206
vn 0.1936 -0.7257 -0.6602
vn 0.1936 0.7257 -0.6602
vn 0.0852 -0.7257 -0.6827
vn 0.0852 0.7257 -0.6827
vn -0.0255 -0.7257 -0.6876
vn -0.0255 0.7257 -0.6876
vn -0.1354 -0.7257 -0.6746
vn -0.1354 0.7257 -0.6746
vn -0.2419 -0.7257 -0.6441
vn -0.2419 0.7257 -0.6441
vn -0.3421 -0.7257 -0.5970
vn -0.3421 0.7257 -0.5970
vn -0.4334 -0.7257 -0.5344
vn -0.4334 0.7257 -0.5344
vn -0.5135 -0.7257 -0.4579
vn -0.5135 0.7257 -0.4579
vn -0.5803 -0.7257 -0.3696
vn -0.5803 0.7257 -0.3697
vn -0.6321 -0.7257 -0.2718
vn -0.6321 0.7257 -0.2718
vn -0.6675 -0.7257 -0.1668
vn -0.6675 0.7257 -0.1668
vn -0.6856 -0.7257 -0.0575
vn -0.6856 0.7257 -0.0576
vn -0.6860 -0.7257 0.0532
vn -0.6860 0.7257 0.0531
vn -0.6686 -0.7257 0.1625
vn -0.6686 0.7257 0.1625
vn -0.6339 -0.7257 0.2676
vn -0.6339 0.7257 0.2676
usemtl None
s 1
f 1//1 2//2 3//3
f 3//3 2//2 4//4
f 3//3 4//4 5//5
f 5//5 4//4 6//6
f 5//5 6//6 7//7
f 7//7 6//6 8//8
f 7//7 8//8 9//9
f 9//9 8//8 10//10
f 9//9 10//10 11//11
f 11//11 10//10 12//12
f 11//11 12//12 13//13
f 13//13 12//12 14//14
f 13//13 14//14 15//15
f 15//15 14//14 16//16
f 15//15 16//16 17//17
f 17//17 16//16 18//18
f 17//17 18//18 19//19
f 19//19 18//18 20//20
f 19//19 20//20 21//21
f 21//21 20//20 22//22
f 21//21 22//22 23//23
f 23//23 22//22 24//24
f 23//23 24//24 25//25
f 25//25 24//24 26//26
f 25//25 26//26 27//27
f 27//27 26//26 28//28
f 27//27 28//28 29//29
f 29//29 28//28 30//30
f 29//29 30//30 31//31
f 31//31 30//30 32//32
f 31//31 32//32 33//33
f 33//33 32//32 34//34
f 33//33 34//34 35//35
f 35//35 34//34 36//36
f 35//35 36//36 37//37
f 37//37 36//36 38//38
f 37//37 38//38 39//39
f 39//39 38//38 40//40
f 39//39 40//40 41//41
f 41//41 40//40 42//42
f 41//41 42//42 43//43
f 43//43 42//42 44//44
f 43//43 44//44 45//45
f 45//45 44//44 46//46
f 45//45 46//46 47//47
f 47//47 46//46 48//48
f 47//47 48//48 49//49
f 49//49 48//48 50//50
f 49//49 50//50 51//51
f 51//51 50//50 52//52
f 51//51 52//52 53//53
f 53//53 52//52 54//54
f 53//53 54//54 55//55
f 55//55 54//54 56//56
f 55//55 56//56 57//57
f 57//57 56//56 58//58
f 57//57 58//58 59//59
f 59//59 58//58 60//60
f 59//59 60//60 61//61
f 61//61 60//60 62//62
f 61//61 62//62 63//63
f 63//63 62//62 64//64
f 63//63 64//64 65//65
f 65//65 64//64 66//66
f 65//65 66//66 67//67
f 67//67 66//66 68//68
f 67//67 68//68 69//69
f 69//69 68//68 70//70
f 69//69 70//70 71//71
f 71//71 70//70 72//72
f 71//71 72//72 73//73
f 73//73 72//72 74//74
f 73//73 74//74 75//75
f 75//75 74//74 76//76
f 75//75 76//76 77//77
f 77//77 76//76 78//78
f 77//77 78//78 79//79
f 79//79 78//78 80//80
f 79//79 80//80 81//81
f 81//81 80//80 82//82
f 81//81 82//82 83//83
f 83//83 82//82 84//84
f 83//83 84//84 85//85
f 85//85 84//84 86//86
f 85//85 86//86 87//87
f 87//87 86//86 88//88
f 87//87 88//88 89//89
f 89//89 88//88 90//90
f 89//89 90//90 91//91
f 91//91 90//90 92//92
f 91//91 92//92 93//93
f 93//93 92//92 94//94
f 93//93 94//94 95//95
f 95//95 94//94 96//96
f 95//95 96//96 1//1
f 1//1 96//96 2//2
f 97//97 98//98 99//99
f 100//100 101//101 102//102
f 103//103 104//104 105//105
f 106//106 107//107 108//108
f 108//108 109//109 106//106
f 106//106 109//109 110//110
f 106//106 110//110 111//111
f 111//111 112//112 106//106
f 106//106 112//112 113//113
f 106//106 113//113 114//114
f 99//99 115//115 97//97
f 97//97 115//115 116//116
f 97//97 116//116 117//117
f 118//118 119//119 120//120
f 101//101 121//121 102//102
f 102//102 121//121 122//122
f 102//102 122//122 105//105
f 105//105 122//122 123//123
f 105//105 123//123 103//103
f 124//124 125//125 107//107
f 107//107 125//125 126//126
f 107//107 126//126 127//127
f 114//114 128//128 106//106
f 106//106 128//128 129//129
f 106//106 129//129 97//97
f 97//97 129//129 130//130
f 97//97 130//130 98//98
f 117//117 131//131 97//97
f 97//97 131//131 132//132
f 97//97 132//132 118//118
f 118//118 132//132 133//133
f 118//118 133//133 119//119
f 120//120 134//134 118//118
f 118//118 134//134 135//135
f 118//118 135//135 136//136
f 127//127 137//137 107//107
f 107//107 137//137 138//138
f 107//107 138//138 108//108
f 104//104 139//139 105//105
f 105//105 139//139 140//140
f 105//105 140//140 141//141
f 142//142 143//143 102//102
f 102//102 143//143 144//144
f 102//102 144//144 100//100
f 141//141 145//145 105//105
f 105//105 145//145 146//146
f 105//105 146//146 107//107
f 107//107 146//146 147//147
f 107//107 147//147 124//124
f 136//136 148//148 118//118
f 118//118 148//148 149//149
f 118//118 149//149 102//102
f 102//102 149//149 150//150
f 102//102 150//150 142//142
f 105//105 151//151 102//102
f 102//102 151//151 152//152
f 107//107 153//153 105//105
f 105//105 153//153 151//151
f 106//106 154//154 107//107
f 107//107 154//154 153//153
f 97//97 155//155 106//106
f 106//106 155//155 154//154
f 118//118 156//156 97//97
f 97//97 156//156 155//155
f 25//25 157//157 23//23
f 23//23 157//157 158//158
f 23//23 158//158 21//21
f 21//21 158//158 159//159
f 21//21 159//159 19//19
f 19//19 159//159 160//160
f 19//19 160//160 17//17
f 17//17 160//160 161//161
f 17//17 161//161 15//15
f 15//15 161//161 162//162
f 15//15 162//162 13//13
f 13//13 162//162 163//163
f 13//13 163//163 11//11
f 11//11 163//163 164//164
f 11//11 164//164 9//9
f 9//9 164//164 165//165
f 9//9 165//165 7//7
f 7//7 165//165 166//166
f 7//7 166//166 5//5
f 5//5 166//166 167//167
f 5//5 167//167 3//3
f 3//3 167//167 168//168
f 3//3 168//168 1//1
f 1//1 168//168 169//169
f 1//1 169//169 95//95
f 95//95 169//169 170//170
f 95//95 170//170 93//93
f 93//93 170//170 171//171
f 93//93 171//171 91//91
f 91//91 171//171 172//172
f 91//91 172//172 89//89
f 89//89 172//172 173//173
f 89//89 173//173 87//87
f 87//87 173//173 174//174
f 87//87 174//174 85//85
f 85//85 174//174 175//175
f 85//85 175//175 83//83
f 83//83 175//175 176//176
f 83//83 176//176 81//81
f 81//81 176//176 177//177
f 81//81 177//177 79//79
f 79//79 177//177 178//178
f 79//79 178//178 77//77
f 77//77 178//178 179//179
f 77//77 179//179 75//75
f 75//75 179//179 180//180
f 75//75 180//180 73//73
f 73//73 180//180 181//181
f 73//73 181//181 71//71
f 71//71 181//181 182//182
f 71//71 182//182 69//69
f 69//69 182//182 183//183
f 69//69 183//183 67//67
f 67//67 183//183 184//184
f 67//67 184//184 65//65
f 65//65 184//184 185//185
f 65//65 185//185 63//63
f 63//63 185//185 186//186
f 63//63 186//186 61//61
f 61//61 186//186 187//187
f 61//61 187//187 59//59
f 59//59 187//187 188//188
f 59//59 188//188 57//57
f 57//57 188//188 189//189
f 57//57 189//189 55//55
f 55//55 189//189 190//190
f 55//55 190//190 53//53
f 53//53 190//190 191//191
f 53//53 191//191 51//51
f 51//51 191//191 192//192
f 51//51 192//192 49//49
f 49//49 192//192 193//193
f 49//49 193//193 47//47
f 47//47 193//193 194//194
f 47//47 194//194 45//45
f 45//45 194//194 195//195
f 45//45 195//195 43//43
f 43//43 195//195 196//196
f 43//43 196//196 41//41
f 41//41 196//196 197//197
f 41//41 197//197 39//39
f 39//39 197//197 198//198
f 39//39 198//198 37//37
f 37//37 198//198 199//199
f 37//37 199//199 35//35
f 35//35 199//199 200//200
f 35//35 200//200 33//33
f 33//33 200//200 201//201
f 33//33 201//201 31//31
f 31//31 201//201 202//202
f 31//31 202//202 29//29
f 29//29 202//202 203//203
f 29//29 203//203 27//27
f 27//27 203//203 204//204
f 27//27 204//204 25//25
f 25//25 204//204 157//157
f 205//205 206//206 207//207
f 207//207 206//206 208//208
f 207//207 208//208 209//209
f 209//209 208//208 210//210
f 209//209 210//210 211//211
f 211//211 210//210 212//212
f 211//211 212//212 213//213
f 213//213 212//212 214//214
f 213//213 214//214 215//215
f 215//215 214//214 216//216
f 215//215 216//216 217//217
f 217//217 216//216 218//218
f 217//217 218//218 219//219
f 219//219 218//218 220//220
f 219//219 220//220 221//221
f 221//221 220//220 222//222
f 221//221 222//222 223//223
f 223//223 222//222 224//224
f 223//223 224//224 225//225
f 225//225 224//224 226//226
f 225//225 226//226 227//227
f 227//227 226//226 228//228
f 227//227 228//228 229//229
f 229//229 228//228 230//230
f 229//229 230//230 231//231
f 231//231 230//230 232//232
f 231//231 232//232 233//233
f 233//233 232//232 234//234
f 233//233 234//234 235//235
f 235//235 234//234 236//236
f 235//235 236//236 237//237
f 237//237 236//236 238//238
f 237//237 238//238 239//239
f 239//239 238//238 240//240
f 239//239 240//240 241//241
f 241//241 240//240 242//242
f 241//241 242//242 243//243
f 243//243 242//242 244//244
f 243//243 244//244 245//245
f 245//245 244//244 246//246
f 245//245 246//246 247//247
f 247//247 246//246 248//248
f 247//247 248//248 249//249
f 249//249 248//248 250//250
f 249//249 250//250 251//251
f 251//251 250//250 252//252
f 251//251 252//252 253//253
f 253//253 252//252 254//254
f 253//253 254//254 255//255
f 255//255 254//254 256//256
f 255//255 256//256 257//257
f 257//257 256//256 258//258
f 257//257 258//258 259//259
f 259//259 258//258 260//260
f 259//259 260//260 261//261
f 261//261 260//260 262//262
f 261//261 262//262 263//263
f 263//263 262//262 264//264
f 263//263 264//264 265//265
f 265//265 264//264 266//266
f 265//265 266//266 267//267
f 267//267 266//266 268//268
f 267//267 268//268 269//269
f 269//269 268//268 270//270
f 269//269 270//270 271//271
f 271//271 270//270 272//272
f 271//271 272//272 273//273
f 273//273 272//272 274//274
f 273//273 274//274 275//275
f 275//275 274//274 276//276
f 275//275 276//276 277//277
f 277//277 276//276 278//278
f 277//277 278//278 279//279
f 279//279 278//278 280//280
f 279//279 280//280 281//281
f 281//281 280//280 282//282
f 281//281 282//282 283//283
f 283//283 282//282 284//284
f 283//283 284//284 285//285
f 285//285 284//284 286//286
f 285//285 286//286 287//287
f 287//287 286//286 288//288
f 287//287 288//288 289//289
f 289//289 288//288 290//290
f 289//289 290//290 291//291
f 291//291 290//290 292//292
f 291//291 292//292 293//293
f 293//293 292//292 294//294
f 293//293 294//294 295//295
f 295//295 294//294 296//296
f 295//295 296//296 297//297
f 297//297 296//296 298//298
f 297//297 298//298 299//299
f 299//299 298//298 300//300
f 299//299 300//300 205//205
f 205//205 300//300 206//206
f 156//156 92//92 90//90
f 90//90 88//88 156//156
f 156//156 88//88 86//86
f 156//156 86//86 84//84
f 76//76 74//74 155//155
f 74//74 72//72 155//155
f 155//155 72//72 70//70
f 155//155 70//70 68//68
f 44//44 42//42 153//153
f 42//42 40//40 153//153
f 153//153 40//40 38//38
f 153//153 38//38 36//36
f 28//28 26//26 151//151
f 84//84 82//82 156//156
f 156//156 82//82 80//80
f 156//156 80//80 155//155
f 155//155 80//80 78//78
f 155//155 78//78 76//76
f 68//68 66//66 155//155
f 155//155 66//66 64//64
f 155//155 64//64 154//154
f 64//64 62//62 154//154
f 154//154 62//62 60//60
f 154//154 60//60 58//58
f 152//152 12//12 10//10
f 10//10 8//8 152//152
f 152//152 8//8 6//6
f 152//152 6//6 4//4
f 58//58 56//56 154//154
f 154//154 56//56 54//54
f 154//154 54//54 52//52
f 26//26 24//24 151//151
f 151//151 24//24 22//22
f 151//151 22//22 20//20
f 4//4 2//2 152//152
f 152//152 2//2 96//96
f 152//152 96//96 156//156
f 156//156 96//96 94//94
f 156//156 94//94 92//92
f 36//36 34//34 153//153
f 153//153 34//34 32//32
f 153//153 32//32 151//151
f 151//151 32//32 30//30
f 151//151 30//30 28//28
f 20//20 18//18 151//151
f 151//151 18//18 16//16
f 151//151 16//16 152//152
f 152//152 16//16 14//14
f 152//152 14//14 12//12
f 52//52 50//50 154//154
f 154//154 50//50 48//48
f 154//154 48//48 153//153
f 153//153 48//48 46//46
f 153//153 46//46 44//44
f 102//102 152//152 118//118
f 118//118 152//152 156//156
f 301//301 302//302 303//303
f 303//303 302//302 304//304
f 303//303 304//304 305//305
f 305//305 304//304 306//306
f 305//305 306//306 307//307
f 307//307 306//306 308//308
f 307//307 308//308 309//309
f 309//309 308//308 310//310
f 309//309 310//310 311//311
f 311//311 310//310 312//312
f 311//311 312//312 313//313
f 313//313 312//312 314//314
f 313//313 314//314 315//315
f 315//315 314//314 316//316
f 315//315 316//316 317//317
f 317//317 316//316 318//318
f 317//317 318//318 319//319
f 319//319 318//318 320//320
f 319//319 320//320 321//321
f 321//321 320//320 322//322
f 321//321 322//322 323//323
f 323//323 322//322 324//324
f 323//323 324//324 325//325
f 325//325 324//324 326//326
f 325//325 326//326 327//327
f 327//327 326//326 328//328
f 327//327 328//328 329//329
f 329//329 328//328 330//330
f 329//329 330//330 331//331
f 331//331 330//330 332//332
f 331//331 332//332 333//333
f 333//333 332//332 334//334
f 333//333 334//334 335//335
f 335//335 334//334 336//336
f 335//335 336//336 337//337
f 337//337 336//336 338//338
f 337//337 338//338 339//339
f 339//339 338//338 340//340
f 339//339 340//340 341//341
f 341//341 340//340 342//342
f 341//341 342//342 343//343
f 343//343 342//342 344//344
f 343//343 344//344 345//345
f 345//345 344//344 346//346
f 345//345 346//346 347//347
f 347//347 346//346 348//348
f 347//347 348//348 349//349
f 349//349 348//348 350//350
f 349//349 350//350 351//351
f 351//351 350//350 352//352
f 351//351 352//352 353//353
f 353//353 352//352 354//354
f 353//353 354//354 355//355
f 355//355 354//354 356//356
f 355//355 356//356 357//357
f 357//357 356//356 358//358
f 357//357 358//358 359//359
f 359//359 358//358 360//360
f 359//359 360//360 361//361
f 361//361 360//360 362//362
f 361//361 362//362 363//363
f 363//363 362//362 364//364
f 363//363 364//364 365//365
f 365//365 364//364 366//366
f 365//365 366//366 367//367
f 367//367 366//366 368//368
f 367//367 368//368 369//369
f 369//369 368//368 370//370
f 369//369 370//370 371//371
f 371//371 370//370 372//372
f 371//371 372//372 373//373
f 373//373 372//372 374//374
f 373//373 374//374 375//375
f 375//375 374//374 376//376
f 375//375 376//376 377//377
f 377//377 376//376 378//378
f 377//377 378//378 301//301
f 301//301 378//378 302//302
f 375//375 222//222 373//373
f 373//373 222//222 220//220
f 373//373 220//220 371//371
f 371//371 220//220 218//218
f 371//371 218//218 369//369
f 369//369 218//218 216//216
f 369//369 216//216 367//367
f 216//216 214//214 367//367
f 367//367 214//214 212//212
f 367//367 212//212 365//365
f 365//365 212//212 210//210
f 365//365 210//210 363//363
f 363//363 210//210 208//208
f 363//363 208//208 361//361
f 361//361 208//208 206//206
f 361//361 206//206 359//359
f 341//341 276//276 339//339
f 339//339 276//276 274//274
f 339//339 274//274 337//337
f 337//337 274//274 272//272
f 337//337 272//272 335//335
f 335//335 272//272 270//270
f 335//335 270//270 333//333
f 349//349 286//286 347//347
f 347//347 286//286 284//284
f 347//347 284//284 345//345
f 345//345 284//284 282//282
f 345//345 282//282 343//343
f 343//343 282//282 280//280
f 343//343 280//280 341//341
f 341//341 280//280 278//278
f 341//341 278//278 276//276
f 206//206 300//300 359//359
f 359//359 300//300 298//298
f 359//359 298//298 357//357
f 357//357 298//298 296//296
f 357//357 296//296 355//355
f 355//355 296//296 294//294
f 355//355 294//294 353//353
f 353//353 294//294 292//292
f 353//353 292//292 351//351
f 351//351 292//292 290//290
f 351//351 290//290 349//349
f 349//349 290//290 288//288
f 349//349 288//288 286//286
f 307//307 234//234 305//305
f 305//305 234//234 232//232
f 305//305 232//232 303//303
f 303//303 232//232 230//230
f 303//303 230//230 301//301
f 301//301 230//230 228//228
f 301//301 228//228 377//377
f 377//377 228//228 226//226
f 377//377 226//226 375//375
f 375//375 226//226 224//224
f 375//375 224//224 222//222
f 315//315 244//244 313//313
f 313//313 244//244 242//242
f 313//313 242//242 311//311
f 311//311 242//242 240//240
f 311//311 240//240 309//309
f 309//309 240//240 238//238
f 309//309 238//238 307//307
f 307//307 238//238 236//236
f 307//307 236//236 234//234
f 323//323 254//254 321//321
f 321//321 254//254 252//252
f 321//321 252//252 319//319
f 319//319 252//252 250//250
f 319//319 250//250 317//317
f 317//317 250//250 248//248
f 317//317 248//248 315//315
f 315//315 248//248 246//246
f 315//315 246//246 244//244
f 270//270 268//268 333//333
f 333//333 268//268 266//266
f 333//333 266//266 331//331
f 331//331 266//266 264//264
f 331//331 264//264 329//329
f 329//329 264//264 262//262
f 329//329 262//262 327//327
f 327//327 262//262 260//260
f 327//327 260//260 325//325
f 325//325 260//260 258//258
f 325//325 258//258 323//323
f 323//323 258//258 256//256
f 323//323 256//256 254//254
f 366//366 176//176 368//368
f 368//368 176//176 175//175
f 368//368 175//175 370//370
f 370//370 175//175 174//174
f 370//370 174//174 372//372
f 372//372 174//174 173//173
f 372//372 173//173 374//374
f 314//314 160//160 316//316
f 316//316 160//160 159//159
f 316//316 159//159 318//318
f 318//318 159//159 158//158
f 318//318 158//158 320//320
f 320//320 158//158 157//157
f 320//320 157//157 322//322
f 358//358 181//181 360//360
f 360//360 181//181 180//180
f 360//360 180//180 362//362
f 362//362 180//180 179//179
f 362//362 179//179 364//364
f 364//364 179//179 178//178
f 364//364 178//178 366//366
f 366//366 178//178 177//177
f 366//366 177//177 176//176
f 340//340 192//192 342//342
f 342//342 192//192 191//191
f 342//342 191//191 344//344
f 344//344 191//191 190//190
f 344//344 190//190 346//346
f 346//346 190//190 189//189
f 346//346 189//189 348//348
f 189//189 188//188 348//348
f 348//348 188//188 187//187
f 348//348 187//187 350//350
f 350//350 187//187 186//186
f 350//350 186//186 352//352
f 352//352 186//186 185//185
f 352//352 185//185 354//354
f 354//354 185//185 184//184
f 354//354 184//184 356//356
f 356//356 184//184 183//183
f 356//356 183//183 358//358
f 358//358 183//183 182//182
f 358//358 182//182 181//181
f 306//306 165//165 308//308
f 308//308 165//165 164//164
f 308//308 164//164 310//310
f 310//310 164//164 163//163
f 310//310 163//163 312//312
f 312//312 163//163 162//162
f 312//312 162//162 314//314
f 314//314 162//162 161//161
f 314//314 161//161 160//160
f 173//173 172//172 374//374
f 374//374 172//172 171//171
f 374//374 171//171 376//376
f 376//376 171//171 170//170
f 376//376 170//170 378//378
f 378//378 170//170 169//169
f 378//378 169//169 302//302
f 302//302 169//169 168//168
f 302//302 168//168 304//304
f 304//304 168//168 167//167
f 304//304 167//167 306//306
f 306//306 167//167 166//166
f 306//306 166//166 165//165
f 157//157 204//204 322//322
f 322//322 204//204 203//203
f 322//322 203//203 324//324
f 324//324 203//203 202//202
f 324//324 202//202 326//326
f 326//326 202//202 201//201
f 326//326 201//201 328//328
f 328//328 201//201 200//200
f 328//328 200//200 330//330
f 330//330 200//200 199//199
f 330//330 199//199 332//332
f 199//199 198//198 332//332
f 332//332 198//198 197//197
f 332//332 197//197 334//334
f 334//334 197//197 196//196
f 334//334 196//196 336//336
f 336//336 196//196 195//195
f 336//336 195//195 338//338
f 338//338 195//195 194//194
f 338//338 194//194 340//340
f 340//340 194//194 193//193
f 340//340 193//193 192//192
f 149//149 231//231 150//150
f 150//150 231//231 233//233
f 150//150 233//233 142//142
f 142//142 233//233 235//235
f 142//142 235//235 143//143
f 143//143 235//235 237//237
f 143//143 237//237 144//144
f 144//144 237//237 239//239
f 144//144 239//239 100//100
f 100//100 239//239 241//241
f 100//100 241//241 101//101
f 101//101 241//241 243//243
f 101//101 243//243 121//121
f 121//121 243//243 245//245
f 121//121 245//245 122//122
f 122//122 245//245 247//247
f 122//122 247//247 123//123
f 123//123 247//247 249//249
f 123//123 249//249 103//103
f 103//103 249//249 251//251
f 103//103 251//251 104//104
f 104//104 251//251 253//253
f 104//104 253//253 139//139
f 139//139 253//253 255//255
f 139//139 255//255 140//140
f 140//140 255//255 257//257
f 140//140 257//257 141//141
f 141//141 257//257 259//259
f 141//141 259//259 145//145
f 145//145 259//259 261//261
f 145//145 261//261 146//146
f 146//146 261//261 263//263
f 146//146 263//263 147//147
f 147//147 263//263 265//265
f 147//147 265//265 124//124
f 124//124 265//265 267//267
f 124//124 267//267 125//125
f 125//125 267//267 269//269
f 125//125 269//269 126//126
f 126//126 269//269 271//271
f 126//126 271//271 127//127
f 127//127 271//271 273//273
f 127//127 273//273 137//137
f 137//137 273//273 275//275
f 137//137 275//275 138//138
f 138//138 275//275 277//277
f 138//138 277//277 108//108
f 108//108 277//277 279//279
f 108//108 279//279 109//109
f 109//109 279//279 281//281
f 109//109 281//281 110//110
f 110//110 281//281 283//283
f 110//110 283//283 111//111
f 111//111 283//283 285//285
f 111//111 285//285 112//112
f 112//112 285//285 287//287
f 112//112 287//287 113//113
f 113//113 287//287 289//289
f 113//113 289//289 114//114
f 114//114 289//289 291//291
f 114//114 291//291 128//128
f 128//128 291//291 293//293
f 128//128 293//293 129//129
f 129//129 293//293 295//295
f 129//129 295//295 130//130
f 130//130 295//295 297//297
f 130//130 297//297 98//98
f 98//98 297//297 299//299
f 98//98 299//299 99//99
f 99//99 299//299 205//205
f 99//99 205//205 115//115
f 115//115 205//205 207//207
f 115//115 207//207 116//116
f 116//116 207//207 209//209
f 116//116 209//209 117//117
f 117//117 209//209 211//211
f 117//117 211//211 131//131
f 131//131 211//211 213//213
f 131//131 213//213 132//132
f 132//132 213//213 215//215
f 132//132 215//215 133//133
f 133//133 215//215 217//217
f 133//133 217//217 119//119
f 119//119 217//217 219//219
f 119//119 219//219 120//120
f 120//120 219//219 221//221
f 120//120 221//221 134//134
f 134//134 221//221 223//223
f 134//134 223//223 135//135
f 135//135 223//223 225//225
f 135//135 225//225 136//136
f 136//136 225//225 227//227
f 136//136 227//227 148//148
f 148//148 227//227 229//229
f 148//148 229//229 149//149
f 149//149 229//229 231//231
