# Blender v3.6.0 OBJ File: ''
# www.blender.org
mtllib Line_1019.mtl
o Line_1019
v -566.850037 359.299988 0.000005
v -566.841370 414.299988 0.540068
v -566.772156 414.299988 -1.617993
v -566.772156 359.299988 -1.617993
v -566.427551 414.299988 -3.749485
v -566.427551 359.299988 -3.749485
v -565.813171 414.299988 -5.819406
v -565.813171 359.299988 -5.819406
v -564.939209 414.299988 -7.793765
v -564.939209 359.299988 -7.793765
v -563.819885 414.299988 -9.640167
v -563.819885 359.299988 -9.640167
v -562.473694 414.299988 -11.328276
v -562.473694 359.299988 -11.328276
v -560.922668 414.299988 -12.830357
v -560.922668 359.299988 -12.830357
v -559.192261 414.299988 -14.121781
v -559.192261 359.299988 -14.121781
v -557.310913 414.299988 -15.181328
v -557.310913 359.299988 -15.181328
v -555.309570 414.299988 -15.991593
v -555.309570 359.299988 -15.991593
v -553.221008 414.299988 -16.539270
v -553.221008 359.299988 -16.539270
v -551.079590 414.299988 -16.815374
v -551.079590 359.299988 -16.815374
v -548.920410 414.299988 -16.815374
v -548.920410 359.299988 -16.815374
v -546.778992 414.299988 -16.539270
v -546.778992 359.299988 -16.539270
v -544.690430 414.299988 -15.991593
v -544.690430 359.299988 -15.991593
v -542.689026 414.299988 -15.181328
v -542.689026 359.299988 -15.181328
v -540.807739 414.299988 -14.121781
v -540.807739 359.299988 -14.121781
v -539.077332 414.299988 -12.830357
v -539.077332 359.299988 -12.830357
v -537.526306 414.299988 -11.328276
v -537.526306 359.299988 -11.328276
v -536.180115 414.299988 -9.640167
v -536.180115 359.299988 -9.640167
v -535.060791 414.299988 -7.793765
v -535.060791 359.299988 -7.793765
v -534.186829 414.299988 -5.819406
v -534.186829 359.299988 -5.819406
v -533.572449 414.299988 -3.749485
v -533.572449 359.299988 -3.749485
v -533.227844 414.299988 -1.617993
v -533.227844 359.299988 -1.617993
v -533.150024 414.299988 0.000005
v -533.158630 359.299988 0.540068
v -566.841370 359.299988 0.540068
v -566.634033 359.299988 2.689262
v -566.634033 414.299988 2.689262
v -566.153564 359.299988 4.794290
v -566.153564 414.299988 4.794290
v -565.407837 359.299988 6.820594
v -565.407837 414.299988 6.820594
v -564.409180 359.299988 8.734917
v -564.409180 414.299988 8.734917
v -563.173889 359.299988 10.505800
v -563.173889 414.299988 10.505800
v -561.722229 359.299988 12.104188
v -561.722229 414.299988 12.104188
v -560.078186 359.299988 13.503824
v -560.078186 414.299988 13.503824
v -558.268616 359.299988 14.681717
v -558.268616 414.299988 14.681717
v -556.323242 359.299988 15.618552
v -556.323242 414.299988 15.618552
v -554.274109 359.299988 16.298925
v -554.274109 414.299988 16.298925
v -552.154724 359.299988 16.711657
v -552.154724 414.299988 16.711657
v -550.000000 359.299988 16.849998
v -550.000000 414.299988 16.849998
v -547.845276 359.299988 16.711657
v -547.845276 414.299988 16.711657
v -545.725952 359.299988 16.298925
v -545.725952 414.299988 16.298925
v -543.676758 359.299988 15.618552
v -543.676758 414.299988 15.618552
v -541.731384 359.299988 14.681717
v -541.731384 414.299988 14.681717
v -539.921814 359.299988 13.503824
v -539.921814 414.299988 13.503824
v -538.277771 359.299988 12.104188
v -538.277771 414.299988 12.104188
v -536.826111 359.299988 10.505800
v -536.826111 414.299988 10.505800
v -535.590820 359.299988 8.734917
v -535.590820 414.299988 8.734917
v -534.592163 359.299988 6.820594
v -534.592163 414.299988 6.820594
v -533.846436 359.299988 4.794290
v -533.846436 414.299988 4.794290
v -533.365967 359.299988 2.689262
v -533.365967 414.299988 2.689262
v -533.158630 414.299988 0.540068
v -534.826599 359.299988 1.526465
v -534.750000 414.299988 0.000005
v -534.758545 359.299988 -0.509585
v -534.758545 414.299988 -0.509585
v -534.962402 359.299988 -2.536516
v -534.962402 414.299988 -2.536516
v -535.434692 359.299988 -4.518206
v -535.434692 414.299988 -4.518206
v -536.166870 359.299988 -6.419251
v -536.166870 414.299988 -6.419251
v -537.145874 359.299988 -8.205751
v -537.145874 414.299988 -8.205751
v -538.354309 359.299988 -9.845819
v -538.354309 414.299988 -9.845819
v -539.770508 359.299988 -11.310200
v -539.770508 414.299988 -11.310200
v -541.369324 359.299988 -12.572731
v -541.369324 414.299988 -12.572731
v -543.122070 359.299988 -13.610909
v -543.122070 414.299988 -13.610909
v -544.997620 359.299988 -14.406199
v -544.997620 414.299988 -14.406199
v -546.962402 359.299988 -14.944414
v -546.962402 414.299988 -14.944414
v -548.981384 359.299988 -15.215943
v -548.981384 414.299988 -15.215943
v -551.018555 359.299988 -15.215943
v -551.018555 414.299988 -15.215943
v -553.037598 359.299988 -14.944414
v -553.037598 414.299988 -14.944414
v -555.002380 359.299988 -14.406199
v -555.002380 414.299988 -14.406199
v -556.877930 359.299988 -13.610909
v -556.877930 414.299988 -13.610909
v -558.630676 359.299988 -12.572731
v -558.630676 414.299988 -12.572731
v -560.229492 359.299988 -11.310200
v -560.229492 414.299988 -11.310200
v -561.645691 359.299988 -9.845819
v -561.645691 414.299988 -9.845819
v -562.854126 359.299988 -8.205751
v -562.854126 414.299988 -8.205751
v -563.833130 359.299988 -6.419251
v -563.833130 414.299988 -6.419251
v -564.565308 359.299988 -4.518206
v -564.565308 414.299988 -4.518206
v -565.037598 359.299988 -2.536516
v -565.037598 414.299988 -2.536516
v -565.241516 359.299988 -0.509585
v -565.241516 414.299988 -0.509585
v -565.250000 359.299988 0.000005
v -565.173401 414.299988 1.526465
v -565.173401 359.299988 1.526465
v -564.834595 359.299988 3.535260
v -564.834595 414.299988 3.535260
v -564.231018 359.299988 5.480965
v -564.231018 414.299988 5.480965
v -563.373474 359.299988 7.328873
v -563.373474 414.299988 7.328873
v -562.277344 359.299988 9.045993
v -562.277344 414.299988 9.045993
v -560.962036 359.299988 10.601689
v -560.962036 414.299988 10.601689
v -559.451172 359.299988 11.968185
v -559.451172 414.299988 11.968185
v -557.771667 359.299988 13.121118
v -557.771667 414.299988 13.121118
v -555.953430 359.299988 14.039908
v -555.953430 414.299988 14.039908
v -554.028992 359.299988 14.708151
v -554.028992 414.299988 14.708151
v -552.032593 359.299988 15.113925
v -552.032593 414.299988 15.113925
v -550.000000 359.299988 15.250002
v -550.000000 414.299988 15.250002
v -547.967346 359.299988 15.113925
v -547.967346 414.299988 15.113925
v -545.971008 359.299988 14.708151
v -545.971008 414.299988 14.708151
v -544.046570 359.299988 14.039908
v -544.046570 414.299988 14.039908
v -542.228333 359.299988 13.121118
v -542.228333 414.299988 13.121118
v -540.548828 359.299988 11.968185
v -540.548828 414.299988 11.968185
v -539.037964 359.299988 10.601689
v -539.037964 414.299988 10.601689
v -537.722656 359.299988 9.045993
v -537.722656 414.299988 9.045993
v -536.626526 359.299988 7.328873
v -536.626526 414.299988 7.328873
v -535.768982 359.299988 5.480965
v -535.768982 414.299988 5.480965
v -535.165405 359.299988 3.535260
v -535.165405 414.299988 3.535260
v -534.826599 414.299988 1.526465
v -561.308777 414.299988 -7.995911
v -563.180542 414.299988 -10.497457
v -560.217407 414.299988 -9.350224
v -561.897949 414.299988 -11.931498
v -558.964966 414.299988 -10.557077
v -560.460327 414.299988 -13.209991
v -557.571106 414.299988 -11.597440
v -558.886353 414.299988 -14.316274
v -556.057861 414.299988 -12.454904
v -557.196472 414.299988 -15.235922
v -554.449097 414.299988 -13.115946
v -555.412781 414.299988 -15.956945
v -552.770142 414.299988 -13.570143
v -553.558533 414.299988 -16.469946
v -551.047485 414.299988 -13.810330
v -551.657959 414.299988 -16.768236
v -549.308350 414.299988 -13.832720
v -549.735718 414.299988 -16.847927
v -547.580139 414.299988 -13.636959
v -547.816895 414.299988 -16.707979
v -545.890015 414.299988 -13.226136
v -561.099182 414.299988 8.284391
v -564.056702 414.299988 9.291520
v -562.049927 414.299988 6.827973
v -565.024231 414.299988 7.628614
v -562.810730 414.299988 5.263874
v -565.795898 414.299988 5.866258
v -563.369446 414.299988 3.616759
v -566.361633 414.299988 4.027428
v -563.717285 414.299988 1.912607
v -566.714050 414.299988 2.136092
v -563.848877 414.299988 0.178291
v -566.848633 414.299988 0.216910
v -563.762024 414.299988 -1.558836
v -566.763489 414.299988 -1.705100
v -563.458130 414.299988 -3.271380
v -566.459900 414.299988 -3.604882
v -562.941956 414.299988 -4.932332
v -565.941650 414.299988 -5.457668
v -562.221741 414.299988 -6.515498
v -565.215637 414.299988 -7.239305
v -564.291199 414.299988 -8.926566
v -545.550903 414.299988 13.115946
v -545.507019 414.299988 16.239931
v -547.229858 414.299988 13.570143
v -547.387512 414.299988 16.646240
v -548.952515 414.299988 13.810330
v -549.302063 414.299988 16.835539
v -550.691650 414.299988 13.832720
v -551.225708 414.299988 16.805361
v -552.419861 414.299988 13.636959
v -553.133362 414.299988 16.556099
v -554.109985 414.299988 13.226136
v -555.000183 414.299988 16.091003
v -555.735229 414.299988 12.606729
v -556.801880 414.299988 15.416137
v -557.270081 414.299988 11.788506
v -558.514832 414.299988 14.540298
v -558.690186 414.299988 10.784371
v -560.116821 414.299988 13.474903
v -559.973328 414.299988 9.610161
v -561.586853 414.299988 12.233843
v -562.905884 414.299988 10.833295
v -536.151123 414.299988 -0.178291
v -533.166504 414.299988 0.745310
v -536.237976 414.299988 1.558836
v -533.361145 414.299988 2.659328
v -536.541870 414.299988 3.271380
v -533.772766 414.299988 4.538677
v -537.058044 414.299988 4.932332
v -534.395935 414.299988 6.358857
v -537.778259 414.299988 6.515498
v -535.222473 414.299988 8.096140
v -538.691223 414.299988 7.995911
v -536.241699 414.299988 9.727878
v -539.782593 414.299988 9.350224
v -537.440247 414.299988 11.232797
v -541.035034 414.299988 10.557077
v -538.802551 414.299988 12.591279
v -542.428894 414.299988 11.597440
v -540.310852 414.299988 13.785616
v -543.942139 414.299988 12.454904
v -541.945435 414.299988 14.800236
v -543.685059 414.299988 15.621911
v -545.926575 414.299988 -16.350216
v -544.089355 414.299988 -15.779304
v -544.264771 414.299988 -12.606729
v -542.329163 414.299988 -15.002686
v -542.729919 414.299988 -11.788506
v -540.668945 414.299988 -14.030482
v -541.309814 414.299988 -10.784371
v -539.130432 414.299988 -12.875371
v -540.026672 414.299988 -9.610161
v -537.733582 414.299988 -11.552410
v -538.900818 414.299988 -8.284391
v -536.496704 414.299988 -10.078844
v -537.950073 414.299988 -6.827973
v -535.435791 414.299988 -8.473887
v -537.189270 414.299988 -5.263874
v -534.564819 414.299988 -6.758458
v -536.630554 414.299988 -3.616759
v -533.895020 414.299988 -4.954924
v -536.282715 414.299988 -1.912607
v -533.435181 414.299988 -3.086794
v -533.191284 414.299988 -1.178423
v -544.999817 429.299988 -16.091003
v -545.926575 429.299988 -16.350216
v -545.926575 446.299988 -16.350216
v -547.816895 429.299988 -16.707979
v -547.816895 446.299988 -16.707979
v -549.735718 429.299988 -16.847927
v -549.735718 446.299988 -16.847927
v -551.657959 429.299988 -16.768236
v -551.657959 446.299988 -16.768236
v -553.558533 429.299988 -16.469946
v -553.558533 446.299988 -16.469946
v -555.412781 429.299988 -15.956945
v -555.412781 446.299988 -15.956945
v -557.196472 429.299988 -15.235922
v -557.196472 446.299988 -15.235922
v -558.886353 429.299988 -14.316274
v -558.886353 446.299988 -14.316274
v -560.460327 429.299988 -13.209991
v -560.460327 446.299988 -13.209991
v -561.897949 429.299988 -11.931498
v -561.897949 446.299988 -11.931498
v -563.180542 429.299988 -10.497457
v -563.180542 446.299988 -10.497457
v -564.291199 429.299988 -8.926566
v -564.291199 446.299988 -8.926566
v -565.215637 429.299988 -7.239305
v -565.215637 446.299988 -7.239305
v -565.941650 429.299988 -5.457668
v -565.941650 446.299988 -5.457668
v -566.459900 429.299988 -3.604882
v -566.459900 446.299988 -3.604882
v -566.763489 429.299988 -1.705100
v -566.763489 446.299988 -1.705100
v -566.848633 429.299988 0.216910
v -566.848633 446.299988 0.216910
v -566.714050 429.299988 2.136092
v -566.714050 446.299988 2.136092
v -566.361633 429.299988 4.027428
v -566.361633 446.299988 4.027428
v -565.795898 429.299988 5.866258
v -565.795898 446.299988 5.866258
v -565.024231 429.299988 7.628614
v -565.024231 446.299988 7.628614
v -564.056702 429.299988 9.291520
v -564.056702 446.299988 9.291520
v -562.905884 429.299988 10.833295
v -562.905884 446.299988 10.833295
v -561.586853 429.299988 12.233843
v -561.586853 446.299988 12.233843
v -560.116821 429.299988 13.474903
v -560.116821 446.299988 13.474903
v -558.514832 429.299988 14.540298
v -558.514832 446.299988 14.540298
v -556.801880 429.299988 15.416137
v -556.801880 446.299988 15.416137
v -555.000183 429.299988 16.091003
v -555.000183 446.299988 16.091003
v -553.133362 429.299988 16.556099
v -553.133362 446.299988 16.556099
v -551.225708 429.299988 16.805361
v -551.225708 446.299988 16.805361
v -549.302063 429.299988 16.835539
v -549.302063 446.299988 16.835539
v -547.387512 429.299988 16.646240
v -547.387512 446.299988 16.646240
v -545.507019 429.299988 16.239931
v -545.507019 446.299988 16.239931
v -543.685059 429.299988 15.621911
v -543.685059 446.299988 15.621911
v -541.945435 429.299988 14.800236
v -541.945435 446.299988 14.800236
v -540.310852 429.299988 13.785616
v -540.310852 446.299988 13.785616
v -538.802551 429.299988 12.591279
v -538.802551 446.299988 12.591279
v -537.440247 429.299988 11.232797
v -537.440247 446.299988 11.232797
v -536.241699 429.299988 9.727878
v -536.241699 446.299988 9.727878
v -535.222473 429.299988 8.096140
v -535.222473 446.299988 8.096140
v -534.395935 429.299988 6.358857
v -534.395935 446.299988 6.358857
v -533.772766 429.299988 4.538677
v -533.772766 446.299988 4.538677
v -533.361145 429.299988 2.659328
v -533.361145 446.299988 2.659328
v -533.166504 429.299988 0.745310
v -533.166504 446.299988 0.745310
v -533.191284 429.299988 -1.178423
v -533.191284 446.299988 -1.178423
v -533.435181 429.299988 -3.086794
v -533.435181 446.299988 -3.086794
v -533.895020 429.299988 -4.954924
v -533.895020 446.299988 -4.954924
v -534.564819 429.299988 -6.758458
v -534.564819 446.299988 -6.758458
v -535.435791 429.299988 -8.473887
v -535.435791 446.299988 -8.473887
v -536.496704 429.299988 -10.078844
v -536.496704 446.299988 -10.078844
v -537.733582 429.299988 -11.552410
v -537.733582 446.299988 -11.552410
v -539.130432 429.299988 -12.875371
v -539.130432 446.299988 -12.875371
v -540.668945 429.299988 -14.030482
v -540.668945 446.299988 -14.030482
v -542.329163 429.299988 -15.002686
v -542.329163 446.299988 -15.002686
v -544.089355 429.299988 -15.779304
v -544.089355 446.299988 -15.779304
v -562.049927 446.299988 6.827973
v -561.099182 446.299988 8.284391
v -559.973328 446.299988 9.610161
v -558.690186 446.299988 10.784371
v -557.270081 446.299988 11.788506
v -555.735229 446.299988 12.606729
v -554.109985 446.299988 13.226136
v -552.419861 446.299988 13.636959
v -550.691650 446.299988 13.832720
v -548.952515 446.299988 13.810330
v -547.229858 446.299988 13.570143
v -560.217407 446.299988 -9.350224
v -561.308777 446.299988 -7.995911
v -562.221741 446.299988 -6.515498
v -562.941956 446.299988 -4.932332
v -563.458130 446.299988 -3.271380
v -563.762024 446.299988 -1.558836
v -563.848877 446.299988 0.178291
v -563.717285 446.299988 1.912607
v -563.369446 446.299988 3.616759
v -562.810730 446.299988 5.263874
v -544.264771 446.299988 -12.606729
v -545.890015 446.299988 -13.226136
v -547.580139 446.299988 -13.636959
v -549.308350 446.299988 -13.832720
v -551.047485 446.299988 -13.810330
v -552.770142 446.299988 -13.570143
v -554.449097 446.299988 -13.115946
v -556.057861 446.299988 -12.454904
v -557.571106 446.299988 -11.597440
v -558.964966 446.299988 -10.557077
v -536.237976 446.299988 1.558836
v -536.151123 446.299988 -0.178291
v -536.282715 446.299988 -1.912607
v -536.630554 446.299988 -3.616759
v -537.189270 446.299988 -5.263874
v -537.950073 446.299988 -6.827973
v -538.900818 446.299988 -8.284391
v -540.026672 446.299988 -9.610161
v -541.309814 446.299988 -10.784371
v -542.729919 446.299988 -11.788506
v -545.550903 446.299988 13.115946
v -543.942139 446.299988 12.454904
v -542.428894 446.299988 11.597440
v -541.035034 446.299988 10.557077
v -539.782593 446.299988 9.350224
v -538.691223 446.299988 7.995911
v -537.778259 446.299988 6.515498
v -537.058044 446.299988 4.932332
v -536.541870 446.299988 3.271380
vn -0.7141 -0.7000 -0.0114
vn -0.7205 0.6930 0.0232
vn -0.7175 0.6931 -0.0693
vn -0.7154 -0.6947 -0.0748
vn -0.7029 0.6930 -0.1604
vn -0.7029 -0.6930 -0.1604
vn -0.6766 0.6930 -0.2490
vn -0.6766 -0.6930 -0.2490
vn -0.6392 0.6930 -0.3335
vn -0.6392 -0.6930 -0.3335
vn -0.5913 0.6930 -0.4125
vn -0.5913 -0.6930 -0.4125
vn -0.5337 0.6930 -0.4847
vn -0.5337 -0.6930 -0.4847
vn -0.4674 0.6930 -0.5490
vn -0.4674 -0.6930 -0.5490
vn -0.3933 0.6930 -0.6042
vn -0.3933 -0.6930 -0.6042
vn -0.3128 0.6930 -0.6496
vn -0.3128 -0.6930 -0.6496
vn -0.2272 0.6930 -0.6842
vn -0.2272 -0.6930 -0.6842
vn -0.1378 0.6930 -0.7077
vn -0.1378 -0.6930 -0.7077
vn -0.0462 0.6930 -0.7195
vn -0.0462 -0.6930 -0.7195
vn 0.0462 0.6930 -0.7195
vn 0.0462 -0.6930 -0.7195
vn 0.1378 0.6930 -0.7077
vn 0.1378 -0.6930 -0.7077
vn 0.2272 0.6930 -0.6842
vn 0.2272 -0.6930 -0.6842
vn 0.3128 0.6930 -0.6496
vn 0.3128 -0.6930 -0.6496
vn 0.3933 0.6930 -0.6042
vn 0.3933 -0.6930 -0.6042
vn 0.4674 0.6930 -0.5490
vn 0.4674 -0.6930 -0.5490
vn 0.5337 0.6930 -0.4847
vn 0.5337 -0.6930 -0.4847
vn 0.5913 0.6930 -0.4125
vn 0.5913 -0.6930 -0.4125
vn 0.6392 0.6930 -0.3335
vn 0.6392 -0.6930 -0.3335
vn 0.6766 0.6930 -0.2490
vn 0.6766 -0.6930 -0.2490
vn 0.7029 0.6930 -0.1604
vn 0.7029 -0.6930 -0.1604
vn 0.7154 0.6947 -0.0748
vn 0.7175 -0.6930 -0.0693
vn 0.7141 0.7000 -0.0115
vn 0.7205 -0.6930 0.0232
vn -0.7148 -0.6982 0.0402
vn -0.7117 -0.6930 0.1151
vn -0.7117 0.6930 0.1151
vn -0.6912 -0.6930 0.2051
vn -0.6912 0.6930 0.2051
vn -0.6593 -0.6930 0.2918
vn -0.6593 0.6930 0.2918
vn -0.6165 -0.6930 0.3737
vn -0.6165 0.6930 0.3737
vn -0.5637 -0.6930 0.4495
vn -0.5637 0.6930 0.4495
vn -0.5016 -0.6930 0.5179
vn -0.5016 0.6930 0.5179
vn -0.4312 -0.6930 0.5778
vn -0.4312 0.6930 0.5778
vn -0.3538 -0.6930 0.6282
vn -0.3538 0.6930 0.6282
vn -0.2706 -0.6930 0.6683
vn -0.2706 0.6930 0.6683
vn -0.1829 -0.6930 0.6974
vn -0.1829 0.6930 0.6974
vn -0.0922 -0.6930 0.7151
vn -0.0922 0.6930 0.7151
vn 0.0000 -0.6930 0.7210
vn -0.0000 0.6930 0.7210
vn 0.0922 -0.6930 0.7151
vn 0.0922 0.6930 0.7151
vn 0.1829 -0.6930 0.6974
vn 0.1829 0.6930 0.6974
vn 0.2706 -0.6930 0.6683
vn 0.2706 0.6930 0.6683
vn 0.3538 -0.6930 0.6282
vn 0.3538 0.6930 0.6282
vn 0.4312 -0.6930 0.5778
vn 0.4312 0.6930 0.5778
vn 0.5016 -0.6930 0.5179
vn 0.5016 0.6930 0.5179
vn 0.5637 -0.6930 0.4495
vn 0.5637 0.6930 0.4495
vn 0.6165 -0.6930 0.3737
vn 0.6165 0.6930 0.3737
vn 0.6593 -0.6930 0.2918
vn 0.6593 0.6930 0.2918
vn 0.6912 -0.6930 0.2051
vn 0.6912 0.6930 0.2051
vn 0.7117 -0.6930 0.1151
vn 0.7117 0.6930 0.1151
vn 0.7148 0.6982 0.0401
vn -0.6880 -0.7224 -0.0693
vn -0.6993 0.7147 -0.0117
vn -0.6911 -0.7224 0.0232
vn -0.6963 0.7166 0.0408
vn -0.6818 -0.7225 0.1150
vn -0.6818 0.7225 0.1150
vn -0.6604 -0.7225 0.2049
vn -0.6604 0.7225 0.2049
vn -0.6272 -0.7225 0.2910
vn -0.6272 0.7225 0.2910
vn -0.5828 -0.7225 0.3720
vn -0.5828 0.7225 0.3720
vn -0.5280 -0.7224 0.4464
vn -0.5280 0.7224 0.4464
vn -0.4638 -0.7225 0.5128
vn -0.4638 0.7225 0.5128
vn -0.3913 -0.7225 0.5700
vn -0.3913 0.7225 0.5700
vn -0.3118 -0.7225 0.6171
vn -0.3118 0.7224 0.6171
vn -0.2268 -0.7225 0.6532
vn -0.2268 0.7225 0.6532
vn -0.1377 -0.7224 0.6776
vn -0.1377 0.7225 0.6776
vn -0.0462 -0.7225 0.6899
vn -0.0462 0.7225 0.6899
vn 0.0462 -0.7225 0.6899
vn 0.0462 0.7225 0.6899
vn 0.1377 -0.7225 0.6776
vn 0.1377 0.7225 0.6776
vn 0.2268 -0.7225 0.6532
vn 0.2268 0.7225 0.6532
vn 0.3118 -0.7225 0.6171
vn 0.3118 0.7225 0.6171
vn 0.3913 -0.7225 0.5700
vn 0.3913 0.7225 0.5700
vn 0.4638 -0.7225 0.5128
vn 0.4638 0.7225 0.5128
vn 0.5280 -0.7225 0.4464
vn 0.5280 0.7225 0.4464
vn 0.5828 -0.7225 0.3720
vn 0.5828 0.7225 0.3720
vn 0.6272 -0.7225 0.2910
vn 0.6272 0.7225 0.2910
vn 0.6604 -0.7225 0.2049
vn 0.6604 0.7225 0.2049
vn 0.6818 -0.7225 0.1150
vn 0.6818 0.7225 0.1150
vn 0.6963 -0.7166 0.0407
vn 0.6911 0.7224 0.0232
vn 0.6993 -0.7147 -0.0117
vn 0.6880 0.7224 -0.0693
vn 0.6894 -0.7205 -0.0752
vn 0.6726 -0.7225 -0.1603
vn 0.6726 0.7225 -0.1603
vn 0.6452 -0.7225 -0.2485
vn 0.6452 0.7225 -0.2485
vn 0.6063 -0.7225 -0.3323
vn 0.6063 0.7225 -0.3323
vn 0.5566 -0.7225 -0.4101
vn 0.5566 0.7225 -0.4101
vn 0.4970 -0.7225 -0.4807
vn 0.4970 0.7225 -0.4807
vn 0.4285 -0.7225 -0.5426
vn 0.4285 0.7225 -0.5426
vn 0.3524 -0.7225 -0.5949
vn 0.3524 0.7225 -0.5949
vn 0.2699 -0.7225 -0.6366
vn 0.2699 0.7225 -0.6365
vn 0.1827 -0.7225 -0.6669
vn 0.1827 0.7225 -0.6668
vn 0.0922 -0.7225 -0.6853
vn 0.0922 0.7225 -0.6853
vn -0.0000 -0.7225 -0.6914
vn 0.0000 0.7225 -0.6914
vn -0.0922 -0.7225 -0.6853
vn -0.0922 0.7225 -0.6852
vn -0.1827 -0.7224 -0.6669
vn -0.1827 0.7225 -0.6669
vn -0.2699 -0.7224 -0.6366
vn -0.2699 0.7225 -0.6366
vn -0.3524 -0.7225 -0.5949
vn -0.3524 0.7225 -0.5949
vn -0.4285 -0.7225 -0.5426
vn -0.4285 0.7225 -0.5426
vn -0.4970 -0.7225 -0.4807
vn -0.4970 0.7225 -0.4807
vn -0.5566 -0.7225 -0.4101
vn -0.5566 0.7225 -0.4101
vn -0.6063 -0.7225 -0.3323
vn -0.6063 0.7225 -0.3323
vn -0.6452 -0.7225 -0.2485
vn -0.6452 0.7225 -0.2485
vn -0.6726 -0.7225 -0.1603
vn -0.6726 0.7225 -0.1603
vn -0.6894 0.7205 -0.0751
vn 0.5653 -0.7215 0.3997
vn -0.5628 -0.6945 -0.4483
vn 0.5108 -0.7215 0.4674
vn -0.5080 -0.6945 -0.5095
vn 0.4482 -0.7215 0.5278
vn -0.4467 -0.6945 -0.5641
vn 0.3785 -0.7215 0.5798
vn -0.3795 -0.6945 -0.6113
vn 0.3028 -0.7215 0.6227
vn -0.3073 -0.6945 -0.6506
vn 0.2224 -0.7215 0.6557
vn -0.2311 -0.6945 -0.6814
vn 0.1385 -0.7215 0.6784
vn -0.1520 -0.6945 -0.7033
vn 0.0524 -0.7215 0.6904
vn -0.0708 -0.6945 -0.7160
vn -0.0346 -0.7215 0.6915
vn 0.0113 -0.6945 -0.7194
vn -0.1210 -0.7215 0.6817
vn 0.0932 -0.6945 -0.7134
vn -0.2055 -0.7215 0.6612
vn 0.5549 -0.7215 -0.4142
vn -0.6002 -0.6945 0.3968
vn 0.6024 -0.7215 -0.3414
vn -0.6415 -0.6945 0.3257
vn 0.6404 -0.7215 -0.2632
vn -0.6745 -0.6945 0.2505
vn 0.6684 -0.7215 -0.1808
vn -0.6987 -0.6945 0.1720
vn 0.6858 -0.7215 -0.0956
vn -0.7137 -0.6945 0.0912
vn 0.6923 -0.7215 -0.0089
vn -0.7195 -0.6945 0.0093
vn 0.6880 -0.7215 0.0779
vn -0.7158 -0.6945 -0.0728
vn 0.6728 -0.7215 0.1636
vn -0.7029 -0.6945 -0.1539
vn 0.6470 -0.7215 0.2466
vn -0.6807 -0.6945 -0.2331
vn 0.6110 -0.7215 0.3257
vn -0.6497 -0.6945 -0.3091
vn -0.6102 -0.6945 -0.3812
vn -0.2224 -0.7215 -0.6557
vn 0.1919 -0.6945 0.6935
vn -0.1385 -0.7215 -0.6784
vn 0.1116 -0.6945 0.7108
vn -0.0524 -0.7215 -0.6904
vn 0.0298 -0.6945 0.7189
vn 0.0346 -0.7215 -0.6915
vn -0.0523 -0.6945 0.7176
vn 0.1210 -0.7215 -0.6817
vn -0.1338 -0.6945 0.7070
vn 0.2055 -0.7215 -0.6612
vn -0.2135 -0.6945 0.6871
vn 0.2867 -0.7215 -0.6302
vn -0.2904 -0.6945 0.6583
vn 0.3634 -0.7215 -0.5893
vn -0.3636 -0.6945 0.6209
vn 0.4345 -0.7215 -0.5391
vn -0.4320 -0.6945 0.5754
vn 0.4986 -0.7215 -0.4804
vn -0.4948 -0.6945 0.5224
vn -0.5511 -0.6945 0.4626
vn -0.6923 -0.7215 0.0089
vn 0.7188 -0.6945 0.0318
vn -0.6880 -0.7215 -0.0779
vn 0.7105 -0.6945 0.1136
vn -0.6728 -0.7215 -0.1636
vn 0.6929 -0.6945 0.1938
vn -0.6470 -0.7215 -0.2466
vn 0.6663 -0.6945 0.2715
vn -0.6110 -0.7215 -0.3257
vn 0.6310 -0.6945 0.3457
vn -0.5653 -0.7215 -0.3997
vn 0.5875 -0.6945 0.4154
vn -0.5108 -0.7215 -0.4675
vn 0.5363 -0.6945 0.4796
vn -0.4482 -0.7215 -0.5278
vn 0.4781 -0.6945 0.5377
vn -0.3785 -0.7215 -0.5798
vn 0.4137 -0.6945 0.5887
vn -0.3028 -0.7215 -0.6227
vn 0.3439 -0.6945 0.6320
vn 0.2696 -0.6945 0.6671
vn 0.1735 -0.6948 -0.6980
vn 0.2527 -0.6948 -0.6734
vn -0.2867 -0.7215 0.6302
vn 0.3275 -0.6945 -0.6406
vn -0.3634 -0.7215 0.5893
vn 0.3984 -0.6945 -0.5991
vn -0.4345 -0.7215 0.5391
vn 0.4641 -0.6945 -0.5498
vn -0.4986 -0.7215 0.4804
vn 0.5238 -0.6945 -0.4933
vn -0.5549 -0.7215 0.4142
vn 0.5766 -0.6945 -0.4304
vn -0.6024 -0.7215 0.3414
vn 0.6219 -0.6945 -0.3618
vn -0.6404 -0.7215 0.2632
vn 0.6591 -0.6945 -0.2886
vn -0.6684 -0.7215 0.1808
vn 0.6877 -0.6945 -0.2116
vn -0.6858 -0.7215 0.0956
vn 0.7073 -0.6945 -0.1318
vn 0.7177 -0.6945 -0.0503
vn 0.2968 -0.0000 -0.9550
vn 0.2279 0.0000 -0.9737
vn 0.1735 0.6948 -0.6980
vn 0.1296 0.0000 -0.9916
vn 0.0932 0.6945 -0.7134
vn 0.0157 0.0000 -0.9999
vn 0.0113 0.6945 -0.7194
vn -0.0984 0.0000 -0.9951
vn -0.0708 0.6945 -0.7160
vn -0.2112 0.0000 -0.9774
vn -0.1520 0.6945 -0.7033
vn -0.3212 0.0000 -0.9470
vn -0.2311 0.6945 -0.6814
vn -0.4271 0.0000 -0.9042
vn -0.3073 0.6945 -0.6506
vn -0.5274 0.0000 -0.8496
vn -0.3795 0.6945 -0.6113
vn -0.6208 0.0000 -0.7840
vn -0.4467 0.6945 -0.5641
vn -0.7061 0.0000 -0.7081
vn -0.5080 0.6945 -0.5095
vn -0.7822 0.0000 -0.6230
vn -0.5628 0.6945 -0.4482
vn -0.8481 0.0000 -0.5298
vn -0.6102 0.6945 -0.3812
vn -0.9030 0.0000 -0.4296
vn -0.6497 0.6945 -0.3091
vn -0.9461 0.0000 -0.3239
vn -0.6807 0.6945 -0.2330
vn -0.9768 0.0000 -0.2139
vn -0.7029 0.6945 -0.1539
vn -0.9949 0.0000 -0.1012
vn -0.7158 0.6945 -0.0728
vn -0.9999 0.0000 0.0129
vn -0.7195 0.6945 0.0093
vn -0.9919 0.0000 0.1268
vn -0.7137 0.6945 0.0912
vn -0.9710 0.0000 0.2390
vn -0.6987 0.6945 0.1720
vn -0.9374 0.0000 0.3481
vn -0.6745 0.6945 0.2505
vn -0.8916 0.0000 0.4527
vn -0.6415 0.6945 0.3258
vn -0.8342 0.0000 0.5514
vn -0.6002 0.6945 0.3968
vn -0.7659 0.0000 0.6429
vn -0.5511 0.6945 0.4626
vn -0.6877 0.0000 0.7260
vn -0.4948 0.6945 0.5224
vn -0.6004 0.0000 0.7997
vn -0.4320 0.6945 0.5754
vn -0.5053 0.0000 0.8629
vn -0.3636 0.6945 0.6209
vn -0.4037 0.0000 0.9149
vn -0.2904 0.6945 0.6583
vn -0.2967 0.0000 0.9550
vn -0.2135 0.6945 0.6871
vn -0.1860 0.0000 0.9826
vn -0.1338 0.6945 0.7070
vn -0.0727 0.0000 0.9974
vn -0.0523 0.6945 0.7176
vn 0.0414 0.0000 0.9991
vn 0.0298 0.6945 0.7189
vn 0.1550 0.0000 0.9879
vn 0.1116 0.6945 0.7108
vn 0.2666 0.0000 0.9638
vn 0.1919 0.6945 0.6935
vn 0.3748 0.0000 0.9271
vn 0.2697 0.6945 0.6671
vn 0.4780 0.0000 0.8784
vn 0.3439 0.6945 0.6320
vn 0.5750 0.0000 0.8181
vn 0.4137 0.6945 0.5887
vn 0.6645 0.0000 0.7473
vn 0.4781 0.6945 0.5377
vn 0.7454 0.0000 0.6666
vn 0.5363 0.6945 0.4796
vn 0.8165 0.0000 0.5773
vn 0.5875 0.6945 0.4154
vn 0.8770 0.0000 0.4805
vn 0.6310 0.6945 0.3457
vn 0.9261 0.0000 0.3774
vn 0.6663 0.6945 0.2715
vn 0.9630 0.0000 0.2694
vn 0.6929 0.6945 0.1938
vn 0.9875 0.0000 0.1578
vn 0.7105 0.6945 0.1136
vn 0.9990 0.0000 0.0442
vn 0.7188 0.6945 0.0318
vn 0.9976 0.0000 -0.0699
vn 0.7177 0.6945 -0.0503
vn 0.9831 0.0000 -0.1832
vn 0.7073 0.6945 -0.1318
vn 0.9558 0.0000 -0.2941
vn 0.6877 0.6945 -0.2116
vn 0.9160 0.0000 -0.4011
vn 0.6591 0.6945 -0.2886
vn 0.8643 0.0000 -0.5029
vn 0.6219 0.6945 -0.3618
vn 0.8014 0.0000 -0.5981
vn 0.5766 0.6945 -0.4304
vn 0.7280 0.0000 -0.6856
vn 0.5238 0.6945 -0.4933
vn 0.6451 0.0000 -0.7641
vn 0.4641 0.6945 -0.5498
vn 0.5538 0.0000 -0.8327
vn 0.3984 0.6945 -0.5991
vn 0.4552 0.0000 -0.8904
vn 0.3275 0.6945 -0.6406
vn 0.3641 0.0000 -0.9314
vn 0.2526 0.6948 -0.6734
vn 0.6024 0.7215 -0.3413
vn 0.5549 0.7215 -0.4142
vn 0.4986 0.7215 -0.4804
vn 0.4345 0.7215 -0.5391
vn 0.3635 0.7215 -0.5893
vn 0.2867 0.7215 -0.6302
vn 0.2055 0.7215 -0.6612
vn 0.1210 0.7215 -0.6817
vn 0.0346 0.7215 -0.6915
vn -0.0524 0.7215 -0.6904
vn -0.1385 0.7215 -0.6784
vn 0.5108 0.7215 0.4674
vn 0.5653 0.7215 0.3997
vn 0.6110 0.7215 0.3257
vn 0.6470 0.7215 0.2466
vn 0.6728 0.7215 0.1636
vn 0.6880 0.7215 0.0779
vn 0.6923 0.7215 -0.0089
vn 0.6858 0.7215 -0.0956
vn 0.6684 0.7215 -0.1808
vn 0.6404 0.7215 -0.2632
vn -0.2867 0.7215 0.6302
vn -0.2055 0.7215 0.6612
vn -0.1210 0.7215 0.6818
vn -0.0346 0.7215 0.6915
vn 0.0524 0.7215 0.6904
vn 0.1385 0.7215 0.6784
vn 0.2224 0.7215 0.6557
vn 0.3029 0.7215 0.6227
vn 0.3785 0.7215 0.5798
vn 0.4482 0.7215 0.5278
vn -0.6880 0.7215 -0.0779
vn -0.6923 0.7215 0.0089
vn -0.6858 0.7215 0.0956
vn -0.6684 0.7215 0.1808
vn -0.6404 0.7215 0.2631
vn -0.6024 0.7215 0.3413
vn -0.5549 0.7215 0.4142
vn -0.4986 0.7215 0.4804
vn -0.4345 0.7215 0.5391
vn -0.3635 0.7215 0.5893
vn -0.2224 0.7215 -0.6557
vn -0.3029 0.7215 -0.6227
vn -0.3785 0.7215 -0.5798
vn -0.4482 0.7215 -0.5278
vn -0.5108 0.7215 -0.4674
vn -0.5653 0.7215 -0.3997
vn -0.6110 0.7215 -0.3257
vn -0.6470 0.7215 -0.2466
vn -0.6728 0.7215 -0.1636
usemtl None
s 1
f 1//1 2//2 3//3
f 1//1 3//3 4//4
f 4//4 3//3 5//5
f 4//4 5//5 6//6
f 6//6 5//5 7//7
f 6//6 7//7 8//8
f 8//8 7//7 9//9
f 8//8 9//9 10//10
f 10//10 9//9 11//11
f 10//10 11//11 12//12
f 12//12 11//11 13//13
f 12//12 13//13 14//14
f 14//14 13//13 15//15
f 14//14 15//15 16//16
f 16//16 15//15 17//17
f 16//16 17//17 18//18
f 18//18 17//17 19//19
f 18//18 19//19 20//20
f 20//20 19//19 21//21
f 20//20 21//21 22//22
f 22//22 21//21 23//23
f 22//22 23//23 24//24
f 24//24 23//23 25//25
f 24//24 25//25 26//26
f 26//26 25//25 27//27
f 26//26 27//27 28//28
f 28//28 27//27 29//29
f 28//28 29//29 30//30
f 30//30 29//29 31//31
f 30//30 31//31 32//32
f 32//32 31//31 33//33
f 32//32 33//33 34//34
f 34//34 33//33 35//35
f 34//34 35//35 36//36
f 36//36 35//35 37//37
f 36//36 37//37 38//38
f 38//38 37//37 39//39
f 38//38 39//39 40//40
f 40//40 39//39 41//41
f 40//40 41//41 42//42
f 42//42 41//41 43//43
f 42//42 43//43 44//44
f 44//44 43//43 45//45
f 44//44 45//45 46//46
f 46//46 45//45 47//47
f 46//46 47//47 48//48
f 48//48 47//47 49//49
f 48//48 49//49 50//50
f 50//50 49//49 51//51
f 50//50 51//51 52//52
f 1//1 53//53 2//2
f 2//2 53//53 54//54
f 2//2 54//54 55//55
f 55//55 54//54 56//56
f 55//55 56//56 57//57
f 57//57 56//56 58//58
f 57//57 58//58 59//59
f 59//59 58//58 60//60
f 59//59 60//60 61//61
f 61//61 60//60 62//62
f 61//61 62//62 63//63
f 63//63 62//62 64//64
f 63//63 64//64 65//65
f 65//65 64//64 66//66
f 65//65 66//66 67//67
f 67//67 66//66 68//68
f 67//67 68//68 69//69
f 69//69 68//68 70//70
f 69//69 70//70 71//71
f 71//71 70//70 72//72
f 71//71 72//72 73//73
f 73//73 72//72 74//74
f 73//73 74//74 75//75
f 75//75 74//74 76//76
f 75//75 76//76 77//77
f 77//77 76//76 78//78
f 77//77 78//78 79//79
f 79//79 78//78 80//80
f 79//79 80//80 81//81
f 81//81 80//80 82//82
f 81//81 82//82 83//83
f 83//83 82//82 84//84
f 83//83 84//84 85//85
f 85//85 84//84 86//86
f 85//85 86//86 87//87
f 87//87 86//86 88//88
f 87//87 88//88 89//89
f 89//89 88//88 90//90
f 89//89 90//90 91//91
f 91//91 90//90 92//92
f 91//91 92//92 93//93
f 93//93 92//92 94//94
f 93//93 94//94 95//95
f 95//95 94//94 96//96
f 95//95 96//96 97//97
f 97//97 96//96 98//98
f 97//97 98//98 99//99
f 99//99 98//98 52//52
f 99//99 52//52 100//100
f 100//100 52//52 51//51
f 101//101 102//102 103//103
f 103//103 102//102 104//104
f 103//103 104//104 105//105
f 105//105 104//104 106//106
f 105//105 106//106 107//107
f 107//107 106//106 108//108
f 107//107 108//108 109//109
f 109//109 108//108 110//110
f 109//109 110//110 111//111
f 111//111 110//110 112//112
f 111//111 112//112 113//113
f 113//113 112//112 114//114
f 113//113 114//114 115//115
f 115//115 114//114 116//116
f 115//115 116//116 117//117
f 117//117 116//116 118//118
f 117//117 118//118 119//119
f 119//119 118//118 120//120
f 119//119 120//120 121//121
f 121//121 120//120 122//122
f 121//121 122//122 123//123
f 123//123 122//122 124//124
f 123//123 124//124 125//125
f 125//125 124//124 126//126
f 125//125 126//126 127//127
f 127//127 126//126 128//128
f 127//127 128//128 129//129
f 129//129 128//128 130//130
f 129//129 130//130 131//131
f 131//131 130//130 132//132
f 131//131 132//132 133//133
f 133//133 132//132 134//134
f 133//133 134//134 135//135
f 135//135 134//134 136//136
f 135//135 136//136 137//137
f 137//137 136//136 138//138
f 137//137 138//138 139//139
f 139//139 138//138 140//140
f 139//139 140//140 141//141
f 141//141 140//140 142//142
f 141//141 142//142 143//143
f 143//143 142//142 144//144
f 143//143 144//144 145//145
f 145//145 144//144 146//146
f 145//145 146//146 147//147
f 147//147 146//146 148//148
f 147//147 148//148 149//149
f 149//149 148//148 150//150
f 149//149 150//150 151//151
f 151//151 150//150 152//152
f 151//151 152//152 153//153
f 153//153 152//152 154//154
f 154//154 152//152 155//155
f 154//154 155//155 156//156
f 156//156 155//155 157//157
f 156//156 157//157 158//158
f 158//158 157//157 159//159
f 158//158 159//159 160//160
f 160//160 159//159 161//161
f 160//160 161//161 162//162
f 162//162 161//161 163//163
f 162//162 163//163 164//164
f 164//164 163//163 165//165
f 164//164 165//165 166//166
f 166//166 165//165 167//167
f 166//166 167//167 168//168
f 168//168 167//167 169//169
f 168//168 169//169 170//170
f 170//170 169//169 171//171
f 170//170 171//171 172//172
f 172//172 171//171 173//173
f 172//172 173//173 174//174
f 174//174 173//173 175//175
f 174//174 175//175 176//176
f 176//176 175//175 177//177
f 176//176 177//177 178//178
f 178//178 177//177 179//179
f 178//178 179//179 180//180
f 180//180 179//179 181//181
f 180//180 181//181 182//182
f 182//182 181//181 183//183
f 182//182 183//183 184//184
f 184//184 183//183 185//185
f 184//184 185//185 186//186
f 186//186 185//185 187//187
f 186//186 187//187 188//188
f 188//188 187//187 189//189
f 188//188 189//189 190//190
f 190//190 189//189 191//191
f 190//190 191//191 192//192
f 192//192 191//191 193//193
f 192//192 193//193 194//194
f 194//194 193//193 195//195
f 194//194 195//195 101//101
f 101//101 195//195 196//196
f 101//101 196//196 102//102
f 103//103 52//52 101//101
f 101//101 52//52 98//98
f 101//101 98//98 194//194
f 194//194 98//98 96//96
f 194//194 96//96 192//192
f 192//192 96//96 94//94
f 192//192 94//94 190//190
f 190//190 94//94 92//92
f 190//190 92//92 188//188
f 188//188 92//92 90//90
f 188//188 90//90 186//186
f 186//186 90//90 88//88
f 186//186 88//88 184//184
f 184//184 88//88 86//86
f 184//184 86//86 182//182
f 182//182 86//86 84//84
f 182//182 84//84 180//180
f 180//180 84//84 82//82
f 180//180 82//82 178//178
f 178//178 82//82 80//80
f 178//178 80//80 176//176
f 176//176 80//80 78//78
f 176//176 78//78 174//174
f 174//174 78//78 76//76
f 174//174 76//76 172//172
f 172//172 76//76 74//74
f 172//172 74//74 170//170
f 170//170 74//74 72//72
f 170//170 72//72 168//168
f 168//168 72//72 70//70
f 168//168 70//70 166//166
f 166//166 70//70 68//68
f 166//166 68//68 164//164
f 164//164 68//68 66//66
f 164//164 66//66 162//162
f 162//162 66//66 64//64
f 162//162 64//64 160//160
f 160//160 64//64 62//62
f 160//160 62//62 158//158
f 158//158 62//62 60//60
f 158//158 60//60 156//156
f 156//156 60//60 58//58
f 156//156 58//58 154//154
f 154//154 58//58 56//56
f 154//154 56//56 153//153
f 153//153 56//56 54//54
f 153//153 54//54 151//151
f 54//54 53//53 151//151
f 151//151 53//53 1//1
f 151//151 1//1 149//149
f 149//149 1//1 4//4
f 149//149 4//4 147//147
f 147//147 4//4 6//6
f 147//147 6//6 145//145
f 145//145 6//6 8//8
f 145//145 8//8 143//143
f 143//143 8//8 10//10
f 143//143 10//10 141//141
f 141//141 10//10 12//12
f 141//141 12//12 139//139
f 139//139 12//12 14//14
f 139//139 14//14 137//137
f 137//137 14//14 16//16
f 137//137 16//16 135//135
f 135//135 16//16 18//18
f 135//135 18//18 133//133
f 133//133 18//18 20//20
f 133//133 20//20 131//131
f 131//131 20//20 22//22
f 131//131 22//22 129//129
f 129//129 22//22 24//24
f 129//129 24//24 127//127
f 127//127 24//24 26//26
f 127//127 26//26 125//125
f 125//125 26//26 28//28
f 125//125 28//28 123//123
f 123//123 28//28 30//30
f 123//123 30//30 121//121
f 121//121 30//30 32//32
f 121//121 32//32 119//119
f 119//119 32//32 34//34
f 119//119 34//34 117//117
f 117//117 34//34 36//36
f 117//117 36//36 115//115
f 115//115 36//36 38//38
f 115//115 38//38 113//113
f 113//113 38//38 40//40
f 113//113 40//40 111//111
f 111//111 40//40 42//42
f 111//111 42//42 109//109
f 109//109 42//42 44//44
f 109//109 44//44 107//107
f 107//107 44//44 46//46
f 107//107 46//46 105//105
f 105//105 46//46 48//48
f 105//105 48//48 103//103
f 103//103 48//48 50//50
f 103//103 50//50 52//52
f 150//150 2//2 152//152
f 152//152 2//2 55//55
f 152//152 55//55 155//155
f 155//155 55//55 57//57
f 155//155 57//57 157//157
f 157//157 57//57 59//59
f 157//157 59//59 159//159
f 159//159 59//59 61//61
f 159//159 61//61 161//161
f 161//161 61//61 63//63
f 161//161 63//63 163//163
f 163//163 63//63 65//65
f 163//163 65//65 165//165
f 165//165 65//65 67//67
f 165//165 67//67 167//167
f 167//167 67//67 69//69
f 167//167 69//69 169//169
f 169//169 69//69 71//71
f 169//169 71//71 171//171
f 171//171 71//71 73//73
f 171//171 73//73 173//173
f 173//173 73//73 75//75
f 173//173 75//75 175//175
f 175//175 75//75 77//77
f 175//175 77//77 177//177
f 177//177 77//77 79//79
f 177//177 79//79 179//179
f 179//179 79//79 81//81
f 179//179 81//81 181//181
f 181//181 81//81 83//83
f 181//181 83//83 183//183
f 183//183 83//83 85//85
f 183//183 85//85 185//185
f 185//185 85//85 87//87
f 185//185 87//87 187//187
f 187//187 87//87 89//89
f 187//187 89//89 189//189
f 189//189 89//89 91//91
f 189//189 91//91 191//191
f 191//191 91//91 93//93
f 191//191 93//93 193//193
f 193//193 93//93 95//95
f 193//193 95//95 195//195
f 195//195 95//95 97//97
f 195//195 97//97 196//196
f 196//196 97//97 99//99
f 196//196 99//99 102//102
f 99//99 100//100 102//102
f 102//102 100//100 51//51
f 102//102 51//51 104//104
f 104//104 51//51 49//49
f 104//104 49//49 106//106
f 106//106 49//49 47//47
f 106//106 47//47 108//108
f 108//108 47//47 45//45
f 108//108 45//45 110//110
f 110//110 45//45 43//43
f 110//110 43//43 112//112
f 112//112 43//43 41//41
f 112//112 41//41 114//114
f 114//114 41//41 39//39
f 114//114 39//39 116//116
f 116//116 39//39 37//37
f 116//116 37//37 118//118
f 118//118 37//37 35//35
f 118//118 35//35 120//120
f 120//120 35//35 33//33
f 120//120 33//33 122//122
f 122//122 33//33 31//31
f 122//122 31//31 124//124
f 124//124 31//31 29//29
f 124//124 29//29 126//126
f 126//126 29//29 27//27
f 126//126 27//27 128//128
f 128//128 27//27 25//25
f 128//128 25//25 130//130
f 130//130 25//25 23//23
f 130//130 23//23 132//132
f 132//132 23//23 21//21
f 132//132 21//21 134//134
f 134//134 21//21 19//19
f 134//134 19//19 136//136
f 136//136 19//19 17//17
f 136//136 17//17 138//138
f 138//138 17//17 15//15
f 138//138 15//15 140//140
f 140//140 15//15 13//13
f 140//140 13//13 142//142
f 142//142 13//13 11//11
f 142//142 11//11 144//144
f 144//144 11//11 9//9
f 144//144 9//9 146//146
f 146//146 9//9 7//7
f 146//146 7//7 148//148
f 148//148 7//7 5//5
f 148//148 5//5 150//150
f 150//150 5//5 3//3
f 150//150 3//3 2//2
f 197//197 198//198 199//199
f 199//199 198//198 200//200
f 199//199 200//200 201//201
f 201//201 200//200 202//202
f 201//201 202//202 203//203
f 203//203 202//202 204//204
f 203//203 204//204 205//205
f 205//205 204//204 206//206
f 205//205 206//206 207//207
f 207//207 206//206 208//208
f 207//207 208//208 209//209
f 209//209 208//208 210//210
f 209//209 210//210 211//211
f 211//211 210//210 212//212
f 211//211 212//212 213//213
f 213//213 212//212 214//214
f 213//213 214//214 215//215
f 215//215 214//214 216//216
f 215//215 216//216 217//217
f 218//218 219//219 220//220
f 220//220 219//219 221//221
f 220//220 221//221 222//222
f 222//222 221//221 223//223
f 222//222 223//223 224//224
f 224//224 223//223 225//225
f 224//224 225//225 226//226
f 226//226 225//225 227//227
f 226//226 227//227 228//228
f 228//228 227//227 229//229
f 228//228 229//229 230//230
f 230//230 229//229 231//231
f 230//230 231//231 232//232
f 232//232 231//231 233//233
f 232//232 233//233 234//234
f 234//234 233//233 235//235
f 234//234 235//235 236//236
f 236//236 235//235 237//237
f 236//236 237//237 197//197
f 197//197 237//237 238//238
f 197//197 238//238 198//198
f 239//239 240//240 241//241
f 241//241 240//240 242//242
f 241//241 242//242 243//243
f 243//243 242//242 244//244
f 243//243 244//244 245//245
f 245//245 244//244 246//246
f 245//245 246//246 247//247
f 247//247 246//246 248//248
f 247//247 248//248 249//249
f 249//249 248//248 250//250
f 249//249 250//250 251//251
f 251//251 250//250 252//252
f 251//251 252//252 253//253
f 253//253 252//252 254//254
f 253//253 254//254 255//255
f 255//255 254//254 256//256
f 255//255 256//256 257//257
f 257//257 256//256 258//258
f 257//257 258//258 218//218
f 218//218 258//258 259//259
f 218//218 259//259 219//219
f 260//260 261//261 262//262
f 262//262 261//261 263//263
f 262//262 263//263 264//264
f 264//264 263//263 265//265
f 264//264 265//265 266//266
f 266//266 265//265 267//267
f 266//266 267//267 268//268
f 268//268 267//267 269//269
f 268//268 269//269 270//270
f 270//270 269//269 271//271
f 270//270 271//271 272//272
f 272//272 271//271 273//273
f 272//272 273//273 274//274
f 274//274 273//273 275//275
f 274//274 275//275 276//276
f 276//276 275//275 277//277
f 276//276 277//277 278//278
f 278//278 277//277 279//279
f 278//278 279//279 239//239
f 239//239 279//279 280//280
f 239//239 280//280 240//240
f 216//216 281//281 217//217
f 217//217 281//281 282//282
f 217//217 282//282 283//283
f 283//283 282//282 284//284
f 283//283 284//284 285//285
f 285//285 284//284 286//286
f 285//285 286//286 287//287
f 287//287 286//286 288//288
f 287//287 288//288 289//289
f 289//289 288//288 290//290
f 289//289 290//290 291//291
f 291//291 290//290 292//292
f 291//291 292//292 293//293
f 293//293 292//292 294//294
f 293//293 294//294 295//295
f 295//295 294//294 296//296
f 295//295 296//296 297//297
f 297//297 296//296 298//298
f 297//297 298//298 299//299
f 299//299 298//298 300//300
f 299//299 300//300 260//260
f 260//260 300//300 301//301
f 260//260 301//301 261//261
f 302//302 303//303 304//304
f 304//304 303//303 305//305
f 304//304 305//305 306//306
f 306//306 305//305 307//307
f 306//306 307//307 308//308
f 308//308 307//307 309//309
f 308//308 309//309 310//310
f 310//310 309//309 311//311
f 310//310 311//311 312//312
f 312//312 311//311 313//313
f 312//312 313//313 314//314
f 314//314 313//313 315//315
f 314//314 315//315 316//316
f 316//316 315//315 317//317
f 316//316 317//317 318//318
f 318//318 317//317 319//319
f 318//318 319//319 320//320
f 320//320 319//319 321//321
f 320//320 321//321 322//322
f 322//322 321//321 323//323
f 322//322 323//323 324//324
f 324//324 323//323 325//325
f 324//324 325//325 326//326
f 326//326 325//325 327//327
f 326//326 327//327 328//328
f 328//328 327//327 329//329
f 328//328 329//329 330//330
f 330//330 329//329 331//331
f 330//330 331//331 332//332
f 332//332 331//331 333//333
f 332//332 333//333 334//334
f 334//334 333//333 335//335
f 334//334 335//335 336//336
f 336//336 335//335 337//337
f 336//336 337//337 338//338
f 338//338 337//337 339//339
f 338//338 339//339 340//340
f 340//340 339//339 341//341
f 340//340 341//341 342//342
f 342//342 341//341 343//343
f 342//342 343//343 344//344
f 344//344 343//343 345//345
f 344//344 345//345 346//346
f 346//346 345//345 347//347
f 346//346 347//347 348//348
f 348//348 347//347 349//349
f 348//348 349//349 350//350
f 350//350 349//349 351//351
f 350//350 351//351 352//352
f 352//352 351//351 353//353
f 352//352 353//353 354//354
f 354//354 353//353 355//355
f 354//354 355//355 356//356
f 356//356 355//355 357//357
f 356//356 357//357 358//358
f 358//358 357//357 359//359
f 358//358 359//359 360//360
f 360//360 359//359 361//361
f 360//360 361//361 362//362
f 362//362 361//361 363//363
f 362//362 363//363 364//364
f 364//364 363//363 365//365
f 364//364 365//365 366//366
f 366//366 365//365 367//367
f 366//366 367//367 368//368
f 368//368 367//367 369//369
f 368//368 369//369 370//370
f 370//370 369//369 371//371
f 370//370 371//371 372//372
f 372//372 371//371 373//373
f 372//372 373//373 374//374
f 374//374 373//373 375//375
f 374//374 375//375 376//376
f 376//376 375//375 377//377
f 376//376 377//377 378//378
f 378//378 377//377 379//379
f 378//378 379//379 380//380
f 380//380 379//379 381//381
f 380//380 381//381 382//382
f 382//382 381//381 383//383
f 382//382 383//383 384//384
f 384//384 383//383 385//385
f 384//384 385//385 386//386
f 386//386 385//385 387//387
f 386//386 387//387 388//388
f 388//388 387//387 389//389
f 388//388 389//389 390//390
f 390//390 389//389 391//391
f 390//390 391//391 392//392
f 392//392 391//391 393//393
f 392//392 393//393 394//394
f 394//394 393//393 395//395
f 394//394 395//395 396//396
f 396//396 395//395 397//397
f 396//396 397//397 398//398
f 398//398 397//397 399//399
f 398//398 399//399 400//400
f 400//400 399//399 401//401
f 400//400 401//401 402//402
f 402//402 401//401 403//403
f 402//402 403//403 404//404
f 404//404 403//403 405//405
f 404//404 405//405 406//406
f 406//406 405//405 407//407
f 406//406 407//407 408//408
f 408//408 407//407 409//409
f 408//408 409//409 410//410
f 410//410 409//409 411//411
f 410//410 411//411 412//412
f 412//412 411//411 302//302
f 412//412 302//302 304//304
f 413//413 346//346 414//414
f 414//414 346//346 348//348
f 414//414 348//348 415//415
f 415//415 348//348 350//350
f 415//415 350//350 416//416
f 416//416 350//350 352//352
f 416//416 352//352 417//417
f 417//417 352//352 354//354
f 417//417 354//354 418//418
f 418//418 354//354 356//356
f 418//418 356//356 419//419
f 419//419 356//356 358//358
f 419//419 358//358 420//420
f 420//420 358//358 360//360
f 420//420 360//360 421//421
f 421//421 360//360 362//362
f 421//421 362//362 422//422
f 422//422 362//362 364//364
f 422//422 364//364 423//423
f 424//424 324//324 425//425
f 425//425 324//324 326//326
f 425//425 326//326 426//426
f 426//426 326//326 328//328
f 426//426 328//328 427//427
f 427//427 328//328 330//330
f 427//427 330//330 428//428
f 428//428 330//330 332//332
f 428//428 332//332 429//429
f 429//429 332//332 334//334
f 429//429 334//334 430//430
f 430//430 334//334 336//336
f 430//430 336//336 431//431
f 431//431 336//336 338//338
f 431//431 338//338 432//432
f 432//432 338//338 340//340
f 432//432 340//340 433//433
f 433//433 340//340 342//342
f 433//433 342//342 413//413
f 413//413 342//342 344//344
f 413//413 344//344 346//346
f 434//434 412//412 435//435
f 435//435 412//412 304//304
f 435//435 304//304 436//436
f 436//436 304//304 306//306
f 436//436 306//306 437//437
f 437//437 306//306 308//308
f 437//437 308//308 438//438
f 438//438 308//308 310//310
f 438//438 310//310 439//439
f 439//439 310//310 312//312
f 439//439 312//312 440//440
f 440//440 312//312 314//314
f 440//440 314//314 441//441
f 441//441 314//314 316//316
f 441//441 316//316 442//442
f 442//442 316//316 318//318
f 442//442 318//318 443//443
f 443//443 318//318 320//320
f 443//443 320//320 424//424
f 424//424 320//320 322//322
f 424//424 322//322 324//324
f 444//444 390//390 445//445
f 445//445 390//390 392//392
f 445//445 392//392 446//446
f 446//446 392//392 394//394
f 446//446 394//394 447//447
f 447//447 394//394 396//396
f 447//447 396//396 448//448
f 448//448 396//396 398//398
f 448//448 398//398 449//449
f 449//449 398//398 400//400
f 449//449 400//400 450//450
f 450//450 400//400 402//402
f 450//450 402//402 451//451
f 451//451 402//402 404//404
f 451//451 404//404 452//452
f 452//452 404//404 406//406
f 452//452 406//406 453//453
f 453//453 406//406 408//408
f 453//453 408//408 434//434
f 434//434 408//408 410//410
f 434//434 410//410 412//412
f 364//364 366//366 423//423
f 423//423 366//366 368//368
f 423//423 368//368 454//454
f 454//454 368//368 370//370
f 454//454 370//370 455//455
f 455//455 370//370 372//372
f 455//455 372//372 456//456
f 456//456 372//372 374//374
f 456//456 374//374 457//457
f 457//457 374//374 376//376
f 457//457 376//376 458//458
f 458//458 376//376 378//378
f 458//458 378//378 459//459
f 459//459 378//378 380//380
f 459//459 380//380 460//460
f 460//460 380//380 382//382
f 460//460 382//382 461//461
f 461//461 382//382 384//384
f 461//461 384//384 462//462
f 462//462 384//384 386//386
f 462//462 386//386 444//444
f 444//444 386//386 388//388
f 444//444 388//388 390//390
f 249//249 419//419 247//247
f 247//247 419//419 420//420
f 247//247 420//420 245//245
f 245//245 420//420 421//421
f 245//245 421//421 243//243
f 243//243 421//421 422//422
f 243//243 422//422 241//241
f 241//241 422//422 423//423
f 241//241 423//423 239//239
f 239//239 423//423 454//454
f 239//239 454//454 278//278
f 278//278 454//454 455//455
f 278//278 455//455 276//276
f 276//276 455//455 456//456
f 276//276 456//456 274//274
f 274//274 456//456 457//457
f 274//274 457//457 272//272
f 272//272 457//457 458//458
f 272//272 458//458 270//270
f 270//270 458//458 459//459
f 270//270 459//459 268//268
f 268//268 459//459 460//460
f 268//268 460//460 266//266
f 266//266 460//460 461//461
f 266//266 461//461 264//264
f 264//264 461//461 462//462
f 264//264 462//462 262//262
f 262//262 462//462 444//444
f 262//262 444//444 260//260
f 260//260 444//444 445//445
f 260//260 445//445 299//299
f 299//299 445//445 446//446
f 299//299 446//446 297//297
f 297//297 446//446 447//447
f 297//297 447//447 295//295
f 295//295 447//447 448//448
f 295//295 448//448 293//293
f 293//293 448//448 449//449
f 293//293 449//449 291//291
f 291//291 449//449 450//450
f 291//291 450//450 289//289
f 289//289 450//450 451//451
f 289//289 451//451 287//287
f 287//287 451//451 452//452
f 287//287 452//452 285//285
f 285//285 452//452 453//453
f 285//285 453//453 283//283
f 283//283 453//453 434//434
f 283//283 434//434 217//217
f 217//217 434//434 435//435
f 217//217 435//435 215//215
f 215//215 435//435 436//436
f 215//215 436//436 213//213
f 213//213 436//436 437//437
f 213//213 437//437 211//211
f 211//211 437//437 438//438
f 211//211 438//438 209//209
f 209//209 438//438 439//439
f 209//209 439//439 207//207
f 207//207 439//439 440//440
f 207//207 440//440 205//205
f 205//205 440//440 441//441
f 205//205 441//441 203//203
f 203//203 441//441 442//442
f 203//203 442//442 201//201
f 201//201 442//442 443//443
f 201//201 443//443 199//199
f 199//199 443//443 424//424
f 199//199 424//424 197//197
f 197//197 424//424 425//425
f 197//197 425//425 236//236
f 236//236 425//425 426//426
f 236//236 426//426 234//234
f 234//234 426//426 427//427
f 234//234 427//427 232//232
f 232//232 427//427 428//428
f 232//232 428//428 230//230
f 230//230 428//428 429//429
f 230//230 429//429 228//228
f 228//228 429//429 430//430
f 228//228 430//430 226//226
f 226//226 430//430 431//431
f 226//226 431//431 224//224
f 224//224 431//431 432//432
f 224//224 432//432 222//222
f 222//222 432//432 433//433
f 222//222 433//433 220//220
f 220//220 433//433 413//413
f 220//220 413//413 218//218
f 218//218 413//413 414//414
f 218//218 414//414 257//257
f 257//257 414//414 415//415
f 257//257 415//415 255//255
f 255//255 415//415 416//416
f 255//255 416//416 253//253
f 253//253 416//416 417//417
f 253//253 417//417 251//251
f 251//251 417//417 418//418
f 251//251 418//418 249//249
f 249//249 418//418 419//419
f 302//302 411//411 282//282
f 282//282 411//411 409//409
f 282//282 409//409 284//284
f 284//284 409//409 407//407
f 284//284 407//407 286//286
f 286//286 407//407 405//405
f 286//286 405//405 288//288
f 288//288 405//405 403//403
f 288//288 403//403 290//290
f 290//290 403//403 401//401
f 290//290 401//401 292//292
f 292//292 401//401 399//399
f 292//292 399//399 294//294
f 294//294 399//399 397//397
f 294//294 397//397 296//296
f 296//296 397//397 395//395
f 296//296 395//395 298//298
f 298//298 395//395 393//393
f 298//298 393//393 300//300
f 300//300 393//393 391//391
f 300//300 391//391 301//301
f 301//301 391//391 389//389
f 301//301 389//389 261//261
f 261//261 389//389 387//387
f 261//261 387//387 263//263
f 263//263 387//387 385//385
f 263//263 385//385 265//265
f 265//265 385//385 383//383
f 265//265 383//383 267//267
f 267//267 383//383 381//381
f 267//267 381//381 269//269
f 269//269 381//381 379//379
f 269//269 379//379 271//271
f 271//271 379//379 377//377
f 271//271 377//377 273//273
f 273//273 377//377 375//375
f 273//273 375//375 275//275
f 275//275 375//375 373//373
f 275//275 373//373 277//277
f 277//277 373//373 371//371
f 277//277 371//371 279//279
f 279//279 371//371 369//369
f 279//279 369//369 280//280
f 280//280 369//369 367//367
f 280//280 367//367 240//240
f 240//240 367//367 365//365
f 240//240 365//365 242//242
f 242//242 365//365 363//363
f 242//242 363//363 244//244
f 244//244 363//363 361//361
f 244//244 361//361 246//246
f 246//246 361//361 359//359
f 246//246 359//359 248//248
f 248//248 359//359 357//357
f 248//248 357//357 250//250
f 250//250 357//357 355//355
f 250//250 355//355 252//252
f 252//252 355//355 353//353
f 252//252 353//353 254//254
f 254//254 353//353 351//351
f 254//254 351//351 256//256
f 256//256 351//351 349//349
f 256//256 349//349 258//258
f 258//258 349//349 347//347
f 258//258 347//347 259//259
f 259//259 347//347 345//345
f 259//259 345//345 219//219
f 219//219 345//345 343//343
f 219//219 343//343 221//221
f 221//221 343//343 341//341
f 221//221 341//341 223//223
f 223//223 341//341 339//339
f 223//223 339//339 225//225
f 225//225 339//339 337//337
f 225//225 337//337 227//227
f 227//227 337//337 335//335
f 227//227 335//335 229//229
f 229//229 335//335 333//333
f 229//229 333//333 231//231
f 231//231 333//333 331//331
f 231//231 331//331 233//233
f 233//233 331//331 329//329
f 233//233 329//329 235//235
f 235//235 329//329 327//327
f 235//235 327//327 237//237
f 237//237 327//327 325//325
f 237//237 325//325 238//238
f 238//238 325//325 323//323
f 238//238 323//323 198//198
f 198//198 323//323 321//321
f 198//198 321//321 200//200
f 200//200 321//321 319//319
f 200//200 319//319 202//202
f 202//202 319//319 317//317
f 202//202 317//317 204//204
f 204//204 317//317 315//315
f 204//204 315//315 206//206
f 206//206 315//315 313//313
f 206//206 313//313 208//208
f 208//208 313//313 311//311
f 208//208 311//311 210//210
f 210//210 311//311 309//309
f 210//210 309//309 212//212
f 212//212 309//309 307//307
f 212//212 307//307 214//214
f 214//214 307//307 305//305
f 214//214 305//305 216//216
f 216//216 305//305 303//303
f 216//216 303//303 281//281
f 281//281 303//303 302//302
f 281//281 302//302 282//282
