# Blender v3.6.0 OBJ File: ''
# www.blender.org
mtllib Line_1001.mtl
o Line_1001
v -786.299988 263.335968 13.749674
v -786.299988 262.023865 16.585087
v -786.299988 261.625793 13.432695
v -786.299988 260.152710 16.137726
v -786.299988 259.968842 12.903876
v -786.299988 258.344727 15.479985
v -786.299988 258.391235 12.171555
v -786.299988 256.623535 14.620440
v -786.299988 256.917847 11.247281
v -786.299988 255.011520 13.570295
v -786.299988 255.571915 10.145631
v -786.299988 253.529739 12.343240
v -786.299988 254.374680 8.883978
v -786.299988 252.197479 10.955272
v -786.299988 253.345001 7.482219
v -786.299988 251.032120 9.424486
v -786.299988 252.499146 5.962461
v -786.299988 250.048859 7.770836
v -786.299988 251.850418 4.348672
v -786.299988 249.260513 6.015882
v -786.299988 251.409073 2.666301
v -786.299988 277.562500 5.831464
v -786.299988 279.853668 7.955550
v -786.299988 276.732574 7.359981
v -786.299988 278.850006 9.596886
v -786.299988 275.717590 8.772426
v -786.299988 277.665741 11.113111
v -786.299988 274.533630 10.046524
v -786.299988 276.316406 12.484459
v -786.299988 273.199280 11.162183
v -786.299988 274.819519 13.693054
v -786.299988 271.735626 12.101809
v -786.299988 273.194611 14.723140
v -786.299988 270.165771 12.850580
v -786.299988 271.462891 15.561285
v -786.299988 268.514435 13.396691
v -786.299988 269.646912 16.196568
v -786.299988 266.807648 13.731528
v -786.299988 267.770355 16.620701
v -786.299988 265.072388 13.849811
v -786.299988 265.857666 16.828157
v -786.299988 263.933807 16.816235
v -786.299988 274.428070 -10.145631
v -786.299988 277.156219 -11.668286
v -786.299988 275.625336 -8.883978
v -786.299988 278.407074 -10.206525
v -786.299988 276.654999 -7.482219
v -786.299988 279.483124 -8.611706
v -786.299988 277.500854 -5.962461
v -786.299988 280.370392 -6.904620
v -786.299988 278.149597 -4.348672
v -786.299988 281.057251 -5.107522
v -786.299988 278.590942 -2.666301
v -786.299988 281.534821 -3.243840
v -786.299988 278.817932 -0.941882
v -786.299988 281.796814 -1.337869
v -786.299988 278.827026 0.797392
v -786.299988 281.839813 0.585543
v -786.299988 278.618042 2.524090
v -786.299988 281.663300 2.501321
v -786.299988 278.194336 4.210982
v -786.299988 281.269562 4.384491
v -786.299988 280.663727 6.210503
v -786.299988 258.264374 -12.101809
v -786.299988 257.659271 -15.166947
v -786.299988 259.834229 -12.850580
v -786.299988 259.436035 -15.904865
v -786.299988 261.485565 -13.396691
v -786.299988 261.285309 -16.435438
v -786.299988 263.192352 -13.731528
v -786.299988 263.183014 -16.751749
v -786.299988 264.927612 -13.849811
v -786.299988 265.104431 -16.849676
v -786.299988 266.664032 -13.749674
v -786.299988 267.024475 -16.727943
v -786.299988 268.374207 -13.432695
v -786.299988 268.918121 -16.388134
v -786.299988 270.031158 -12.903876
v -786.299988 270.760681 -15.834681
v -786.299988 271.608765 -12.171555
v -786.299988 272.528137 -15.074799
v -786.299988 273.082153 -11.247281
v -786.299988 274.197479 -14.118394
v -786.299988 275.746887 -12.977933
v -786.299988 248.677338 4.182502
v -786.299988 248.306961 2.294597
v -786.299988 251.182068 0.941882
v -786.299988 248.154205 0.376778
v -786.299988 251.172974 -0.797392
v -786.299988 248.221069 -1.545954
v -786.299988 251.381943 -2.524090
v -786.299988 248.506668 -3.448530
v -786.299988 251.805679 -4.210982
v -786.299988 249.007278 -5.306150
v -786.299988 252.437500 -5.831464
v -786.299988 249.716370 -7.094597
v -786.299988 253.267426 -7.359981
v -786.299988 250.624725 -8.790554
v -786.299988 254.282394 -8.772426
v -786.299988 251.720474 -10.371914
v -786.299988 255.466385 -10.046524
v -786.299988 252.989334 -11.818059
v -786.299988 256.800720 -11.162183
v -786.299988 254.414780 -13.110138
v -786.299988 255.978226 -14.231306
v -801.299988 248.465195 3.243840
v -801.299988 248.677338 4.182502
v -818.299988 248.677338 4.182502
v -801.299988 249.260513 6.015882
v -818.299988 249.260513 6.015882
v -801.299988 250.048859 7.770836
v -818.299988 250.048859 7.770836
v -801.299988 251.032120 9.424486
v -818.299988 251.032120 9.424486
v -801.299988 252.197479 10.955272
v -818.299988 252.197479 10.955272
v -801.299988 253.529739 12.343240
v -818.299988 253.529739 12.343240
v -801.299988 255.011520 13.570295
v -818.299988 255.011520 13.570295
v -801.299988 256.623535 14.620440
v -818.299988 256.623535 14.620440
v -801.299988 258.344727 15.479985
v -818.299988 258.344727 15.479985
v -801.299988 260.152710 16.137726
v -818.299988 260.152710 16.137726
v -801.299988 262.023865 16.585087
v -818.299988 262.023865 16.585087
v -801.299988 263.933807 16.816235
v -818.299988 263.933807 16.816235
v -801.299988 265.857666 16.828157
v -818.299988 265.857666 16.828157
v -801.299988 267.770355 16.620701
v -818.299988 267.770355 16.620701
v -801.299988 269.646912 16.196568
v -818.299988 269.646912 16.196568
v -801.299988 271.462891 15.561285
v -818.299988 271.462891 15.561285
v -801.299988 273.194611 14.723140
v -818.299988 273.194611 14.723140
v -801.299988 274.819519 13.693054
v -818.299988 274.819519 13.693054
v -801.299988 276.316406 12.484459
v -818.299988 276.316406 12.484459
v -801.299988 277.665741 11.113111
v -818.299988 277.665741 11.113111
v -801.299988 278.850006 9.596886
v -818.299988 278.850006 9.596886
v -801.299988 279.853668 7.955550
v -818.299988 279.853668 7.955550
v -801.299988 280.663727 6.210503
v -818.299988 280.663727 6.210503
v -801.299988 281.269562 4.384491
v -818.299988 281.269562 4.384491
v -801.299988 281.663300 2.501321
v -818.299988 281.663300 2.501321
v -801.299988 281.839813 0.585543
v -818.299988 281.839813 0.585543
v -801.299988 281.796814 -1.337869
v -818.299988 281.796814 -1.337869
v -801.299988 281.534821 -3.243840
v -818.299988 281.534821 -3.243840
v -801.299988 281.057251 -5.107522
v -818.299988 281.057251 -5.107522
v -801.299988 280.370392 -6.904620
v -818.299988 280.370392 -6.904620
v -801.299988 279.483124 -8.611706
v -818.299988 279.483124 -8.611706
v -801.299988 278.407074 -10.206525
v -818.299988 278.407074 -10.206525
v -801.299988 277.156219 -11.668286
v -818.299988 277.156219 -11.668286
v -801.299988 275.746887 -12.977933
v -818.299988 275.746887 -12.977933
v -801.299988 274.197479 -14.118394
v -818.299988 274.197479 -14.118394
v -801.299988 272.528137 -15.074799
v -818.299988 272.528137 -15.074799
v -801.299988 270.760681 -15.834681
v -818.299988 270.760681 -15.834681
v -801.299988 268.918121 -16.388134
v -818.299988 268.918121 -16.388134
v -801.299988 267.024475 -16.727943
v -818.299988 267.024475 -16.727943
v -801.299988 265.104431 -16.849676
v -818.299988 265.104431 -16.849676
v -801.299988 263.183014 -16.751749
v -818.299988 263.183014 -16.751749
v -801.299988 261.285309 -16.435438
v -818.299988 261.285309 -16.435438
v -801.299988 259.436035 -15.904865
v -818.299988 259.436035 -15.904865
v -801.299988 257.659271 -15.166947
v -818.299988 257.659271 -15.166947
v -801.299988 255.978226 -14.231306
v -818.299988 255.978226 -14.231306
v -801.299988 254.414780 -13.110138
v -818.299988 254.414780 -13.110138
v -801.299988 252.989334 -11.818059
v -818.299988 252.989334 -11.818059
v -801.299988 251.720474 -10.371914
v -818.299988 251.720474 -10.371914
v -801.299988 250.624725 -8.790554
v -818.299988 250.624725 -8.790554
v -801.299988 249.716370 -7.094597
v -818.299988 249.716370 -7.094597
v -801.299988 249.007278 -5.306150
v -818.299988 249.007278 -5.306150
v -801.299988 248.506668 -3.448530
v -818.299988 248.506668 -3.448530
v -801.299988 248.221069 -1.545954
v -818.299988 248.221069 -1.545954
v -801.299988 248.154205 0.376778
v -818.299988 248.154205 0.376778
v -801.299988 248.306961 2.294597
v -818.299988 248.306961 2.294597
v -818.299988 276.732574 7.359981
v -818.299988 277.562500 5.831464
v -818.299988 278.194336 4.210982
v -818.299988 278.618042 2.524090
v -818.299988 278.827026 0.797392
v -818.299988 278.817932 -0.941882
v -818.299988 278.590942 -2.666301
v -818.299988 278.149597 -4.348672
v -818.299988 277.500854 -5.962461
v -818.299988 276.654999 -7.482219
v -818.299988 275.625336 -8.883978
v -818.299988 261.625793 13.432695
v -818.299988 263.335968 13.749674
v -818.299988 265.072388 13.849811
v -818.299988 266.807648 13.731528
v -818.299988 268.514435 13.396691
v -818.299988 270.165771 12.850580
v -818.299988 271.735626 12.101809
v -818.299988 273.199280 11.162183
v -818.299988 274.533630 10.046524
v -818.299988 275.717590 8.772426
v -818.299988 251.182068 0.941882
v -818.299988 251.409073 2.666301
v -818.299988 251.850418 4.348672
v -818.299988 252.499146 5.962461
v -818.299988 253.345001 7.482219
v -818.299988 254.374680 8.883978
v -818.299988 255.571915 10.145631
v -818.299988 256.917847 11.247281
v -818.299988 258.391235 12.171555
v -818.299988 259.968842 12.903876
v -818.299988 259.834229 -12.850580
v -818.299988 258.264374 -12.101809
v -818.299988 256.800720 -11.162183
v -818.299988 255.466385 -10.046524
v -818.299988 254.282394 -8.772426
v -818.299988 253.267426 -7.359981
v -818.299988 252.437500 -5.831464
v -818.299988 251.805679 -4.210982
v -818.299988 251.381943 -2.524090
v -818.299988 251.172974 -0.797392
v -818.299988 274.428070 -10.145631
v -818.299988 273.082153 -11.247281
v -818.299988 271.608765 -12.171555
v -818.299988 270.031158 -12.903876
v -818.299988 268.374207 -13.432695
v -818.299988 266.664032 -13.749674
v -818.299988 264.927612 -13.849811
v -818.299988 263.192352 -13.731528
v -818.299988 261.485565 -13.396691
vn 0.7215 0.0832 -0.6874
vn 0.6945 -0.1271 0.7082
vn 0.7215 0.1687 -0.6715
vn 0.6945 -0.2070 0.6891
vn 0.7215 0.2515 -0.6451
vn 0.6945 -0.2842 0.6610
vn 0.7215 0.3304 -0.6085
vn 0.6945 -0.3577 0.6243
vn 0.7215 0.4040 -0.5623
vn 0.6945 -0.4265 0.5795
vn 0.7215 0.4713 -0.5072
vn 0.6945 -0.4898 0.5271
vn 0.7215 0.5312 -0.4441
vn 0.6945 -0.5467 0.4678
vn 0.7215 0.5827 -0.3741
vn 0.6945 -0.5964 0.4024
vn 0.7215 0.6250 -0.2981
vn 0.6945 -0.6384 0.3318
vn 0.7215 0.6574 -0.2174
vn 0.6945 -0.6721 0.2569
vn 0.7215 0.6794 -0.1333
vn 0.7215 -0.6280 -0.2915
vn 0.6945 0.6343 0.3397
vn 0.7215 -0.5865 -0.3679
vn 0.6945 0.5914 0.4098
vn 0.7215 -0.5358 -0.4386
vn 0.6945 0.5408 0.4745
vn 0.7215 -0.4766 -0.5022
vn 0.6945 0.4832 0.5331
vn 0.7215 -0.4099 -0.5580
vn 0.6945 0.4193 0.5847
vn 0.7215 -0.3367 -0.6050
vn 0.6945 0.3499 0.6287
vn 0.7215 -0.2583 -0.6424
vn 0.6945 0.2760 0.6645
vn 0.7215 -0.1757 -0.6697
vn 0.6945 0.1984 0.6916
vn 0.7215 -0.0904 -0.6865
vn 0.6945 0.1183 0.7097
vn 0.7215 -0.0036 -0.6924
vn 0.6945 0.0366 0.7186
vn 0.6945 -0.0455 0.7181
vn 0.7215 -0.4713 0.5072
vn 0.6945 0.5191 -0.4983
vn 0.7215 -0.5312 0.4441
vn 0.6945 0.5725 -0.4358
vn 0.7215 -0.5827 0.3740
vn 0.6945 0.6184 -0.3677
vn 0.7215 -0.6250 0.2981
vn 0.6945 0.6563 -0.2948
vn 0.7215 -0.6574 0.2174
vn 0.6945 0.6857 -0.2181
vn 0.7215 -0.6794 0.1333
vn 0.6945 0.7061 -0.1385
vn 0.7215 -0.6908 0.0471
vn 0.6945 0.7172 -0.0571
vn 0.7215 -0.6913 -0.0399
vn 0.6945 0.7191 0.0250
vn 0.7215 -0.6808 -0.1262
vn 0.6945 0.7115 0.1068
vn 0.7215 -0.6596 -0.2105
vn 0.6945 0.6947 0.1872
vn 0.6945 0.6689 0.2652
vn 0.7215 0.3367 0.6050
vn 0.6945 -0.3135 -0.6476
vn 0.7215 0.2583 0.6424
vn 0.6945 -0.2376 -0.6792
vn 0.7215 0.1757 0.6697
vn 0.6945 -0.1586 -0.7018
vn 0.7215 0.0903 0.6865
vn 0.6945 -0.0776 -0.7153
vn 0.7215 0.0036 0.6924
vn 0.6945 0.0044 -0.7195
vn 0.7215 -0.0832 0.6874
vn 0.6945 0.0864 -0.7143
vn 0.7215 -0.1687 0.6715
vn 0.6945 0.1673 -0.6998
vn 0.7215 -0.2515 0.6451
vn 0.6945 0.2460 -0.6762
vn 0.7215 -0.3304 0.6085
vn 0.6945 0.3215 -0.6437
vn 0.7215 -0.4041 0.5623
vn 0.6945 0.3927 -0.6029
vn 0.6945 0.4589 -0.5542
vn 0.6948 -0.6966 0.1789
vn 0.6948 -0.7126 0.0975
vn 0.7215 0.6908 -0.0471
vn 0.6945 -0.7193 0.0161
vn 0.7215 0.6912 0.0399
vn 0.6945 -0.7165 -0.0660
vn 0.7215 0.6808 0.1262
vn 0.6945 -0.7043 -0.1473
vn 0.7215 0.6596 0.2105
vn 0.6945 -0.6829 -0.2266
vn 0.7215 0.6280 0.2915
vn 0.6945 -0.6526 -0.3030
vn 0.7215 0.5865 0.3679
vn 0.6945 -0.6138 -0.3754
vn 0.7215 0.5358 0.4386
vn 0.6945 -0.5670 -0.4429
vn 0.7215 0.4766 0.5023
vn 0.6945 -0.5129 -0.5046
vn 0.7215 0.4099 0.5580
vn 0.6945 -0.4520 -0.5598
vn 0.6945 -0.3852 -0.6077
vn 0.0000 -0.9813 0.1925
vn 0.0000 -0.9651 0.2620
vn -0.6948 -0.6966 0.1789
vn 0.0000 -0.9341 0.3570
vn -0.6945 -0.6721 0.2569
vn 0.0000 -0.8873 0.4612
vn -0.6945 -0.6384 0.3318
vn 0.0000 -0.8290 0.5593
vn -0.6945 -0.5964 0.4024
vn 0.0000 -0.7598 0.6502
vn -0.6945 -0.5467 0.4678
vn 0.0000 -0.6807 0.7325
vn -0.6945 -0.4898 0.5271
vn 0.0000 -0.5928 0.8054
vn -0.6945 -0.4265 0.5795
vn 0.0000 -0.4971 0.8677
vn -0.6945 -0.3577 0.6243
vn 0.0000 -0.3950 0.9187
vn -0.6945 -0.2842 0.6610
vn 0.0000 -0.2877 0.9577
vn -0.6945 -0.2070 0.6891
vn 0.0000 -0.1766 0.9843
vn -0.6945 -0.1271 0.7082
vn 0.0000 -0.0633 0.9980
vn -0.6945 -0.0455 0.7181
vn 0.0000 0.0509 0.9987
vn -0.6945 0.0366 0.7186
vn 0.0000 0.1644 0.9864
vn -0.6945 0.1183 0.7097
vn 0.0000 0.2758 0.9612
vn -0.6945 0.1984 0.6916
vn 0.0000 0.3836 0.9235
vn -0.6945 0.2760 0.6645
vn 0.0000 0.4863 0.8738
vn -0.6945 0.3499 0.6287
vn 0.0000 0.5828 0.8126
vn -0.6945 0.4193 0.5847
vn 0.0000 0.6716 0.7409
vn -0.6945 0.4832 0.5331
vn 0.0000 0.7517 0.6595
vn -0.6945 0.5409 0.4745
vn 0.0000 0.8220 0.5696
vn -0.6945 0.5914 0.4098
vn 0.0000 0.8815 0.4721
vn -0.6945 0.6343 0.3397
vn 0.0000 0.9296 0.3686
vn -0.6945 0.6689 0.2652
vn 0.0000 0.9656 0.2602
vn -0.6945 0.6947 0.1872
vn 0.0000 0.9889 0.1484
vn -0.6945 0.7115 0.1068
vn 0.0000 0.9994 0.0348
vn -0.6945 0.7191 0.0250
vn 0.0000 0.9968 -0.0794
vn -0.6945 0.7172 -0.0571
vn 0.0000 0.9813 -0.1925
vn -0.6945 0.7061 -0.1385
vn 0.0000 0.9530 -0.3031
vn -0.6945 0.6857 -0.2181
vn 0.0000 0.9122 -0.4098
vn -0.6945 0.6563 -0.2948
vn 0.0000 0.8595 -0.5111
vn -0.6945 0.6184 -0.3677
vn 0.0000 0.7957 -0.6057
vn -0.6945 0.5725 -0.4358
vn 0.0000 0.7214 -0.6925
vn -0.6945 0.5191 -0.4982
vn 0.0000 0.6378 -0.7702
vn -0.6945 0.4589 -0.5542
vn 0.0000 0.5458 -0.8379
vn -0.6945 0.3928 -0.6029
vn 0.0000 0.4468 -0.8946
vn -0.6945 0.3215 -0.6437
vn 0.0000 0.3419 -0.9397
vn -0.6945 0.2460 -0.6762
vn 0.0000 0.2325 -0.9726
vn -0.6945 0.1673 -0.6998
vn 0.0000 0.1201 -0.9928
vn -0.6945 0.0864 -0.7143
vn 0.0000 0.0062 -1.0000
vn -0.6945 0.0045 -0.7195
vn 0.0000 -0.1078 -0.9942
vn -0.6945 -0.0776 -0.7153
vn 0.0000 -0.2205 -0.9754
vn -0.6945 -0.1586 -0.7018
vn 0.0000 -0.3302 -0.9439
vn -0.6945 -0.2376 -0.6792
vn 0.0000 -0.4357 -0.9001
vn -0.6945 -0.3135 -0.6476
vn 0.0000 -0.5354 -0.8446
vn -0.6945 -0.3852 -0.6077
vn 0.0000 -0.6282 -0.7780
vn -0.6945 -0.4520 -0.5598
vn 0.0000 -0.7128 -0.7014
vn -0.6945 -0.5129 -0.5046
vn 0.0000 -0.7881 -0.6155
vn -0.6945 -0.5670 -0.4429
vn 0.0000 -0.8531 -0.5217
vn -0.6945 -0.6138 -0.3754
vn 0.0000 -0.9070 -0.4210
vn -0.6945 -0.6526 -0.3029
vn 0.0000 -0.9491 -0.3149
vn -0.6945 -0.6829 -0.2266
vn 0.0000 -0.9788 -0.2047
vn -0.6945 -0.7043 -0.1473
vn 0.0000 -0.9958 -0.0918
vn -0.6945 -0.7165 -0.0660
vn 0.0000 -0.9998 0.0224
vn -0.6945 -0.7193 0.0161
vn 0.0000 -0.9925 0.1220
vn -0.6948 -0.7126 0.0976
vn -0.7215 -0.5865 -0.3679
vn -0.7215 -0.6280 -0.2915
vn -0.7215 -0.6596 -0.2105
vn -0.7215 -0.6808 -0.1262
vn -0.7215 -0.6912 -0.0399
vn -0.7215 -0.6908 0.0471
vn -0.7215 -0.6794 0.1333
vn -0.7215 -0.6574 0.2174
vn -0.7215 -0.6250 0.2981
vn -0.7215 -0.5827 0.3741
vn -0.7215 -0.5312 0.4441
vn -0.7215 0.1687 -0.6715
vn -0.7215 0.0832 -0.6874
vn -0.7215 -0.0036 -0.6924
vn -0.7215 -0.0904 -0.6865
vn -0.7215 -0.1757 -0.6697
vn -0.7215 -0.2582 -0.6424
vn -0.7215 -0.3367 -0.6050
vn -0.7215 -0.4099 -0.5580
vn -0.7215 -0.4766 -0.5022
vn -0.7215 -0.5358 -0.4385
vn -0.7215 0.6908 -0.0471
vn -0.7215 0.6794 -0.1333
vn -0.7215 0.6574 -0.2174
vn -0.7215 0.6250 -0.2981
vn -0.7215 0.5827 -0.3741
vn -0.7215 0.5312 -0.4441
vn -0.7215 0.4713 -0.5072
vn -0.7215 0.4040 -0.5623
vn -0.7215 0.3304 -0.6085
vn -0.7215 0.2515 -0.6451
vn -0.7215 0.2582 0.6424
vn -0.7215 0.3368 0.6050
vn -0.7215 0.4099 0.5580
vn -0.7215 0.4766 0.5023
vn -0.7215 0.5358 0.4386
vn -0.7215 0.5865 0.3679
vn -0.7215 0.6280 0.2915
vn -0.7215 0.6596 0.2105
vn -0.7215 0.6808 0.1262
vn -0.7215 0.6912 0.0399
vn -0.7215 -0.4713 0.5072
vn -0.7215 -0.4041 0.5623
vn -0.7215 -0.3304 0.6085
vn -0.7215 -0.2515 0.6451
vn -0.7215 -0.1687 0.6715
vn -0.7215 -0.0832 0.6874
vn -0.7215 0.0036 0.6924
vn -0.7215 0.0903 0.6865
vn -0.7215 0.1757 0.6697
usemtl None
s 1
f 1//1 2//2 3//3
f 3//3 2//2 4//4
f 3//3 4//4 5//5
f 5//5 4//4 6//6
f 5//5 6//6 7//7
f 7//7 6//6 8//8
f 7//7 8//8 9//9
f 9//9 8//8 10//10
f 9//9 10//10 11//11
f 11//11 10//10 12//12
f 11//11 12//12 13//13
f 13//13 12//12 14//14
f 13//13 14//14 15//15
f 15//15 14//14 16//16
f 15//15 16//16 17//17
f 17//17 16//16 18//18
f 17//17 18//18 19//19
f 19//19 18//18 20//20
f 19//19 20//20 21//21
f 22//22 23//23 24//24
f 24//24 23//23 25//25
f 24//24 25//25 26//26
f 26//26 25//25 27//27
f 26//26 27//27 28//28
f 28//28 27//27 29//29
f 28//28 29//29 30//30
f 30//30 29//29 31//31
f 30//30 31//31 32//32
f 32//32 31//31 33//33
f 32//32 33//33 34//34
f 34//34 33//33 35//35
f 34//34 35//35 36//36
f 36//36 35//35 37//37
f 36//36 37//37 38//38
f 38//38 37//37 39//39
f 38//38 39//39 40//40
f 40//40 39//39 41//41
f 40//40 41//41 1//1
f 1//1 41//41 42//42
f 1//1 42//42 2//2
f 43//43 44//44 45//45
f 45//45 44//44 46//46
f 45//45 46//46 47//47
f 47//47 46//46 48//48
f 47//47 48//48 49//49
f 49//49 48//48 50//50
f 49//49 50//50 51//51
f 51//51 50//50 52//52
f 51//51 52//52 53//53
f 53//53 52//52 54//54
f 53//53 54//54 55//55
f 55//55 54//54 56//56
f 55//55 56//56 57//57
f 57//57 56//56 58//58
f 57//57 58//58 59//59
f 59//59 58//58 60//60
f 59//59 60//60 61//61
f 61//61 60//60 62//62
f 61//61 62//62 22//22
f 22//22 62//62 63//63
f 22//22 63//63 23//23
f 64//64 65//65 66//66
f 66//66 65//65 67//67
f 66//66 67//67 68//68
f 68//68 67//67 69//69
f 68//68 69//69 70//70
f 70//70 69//69 71//71
f 70//70 71//71 72//72
f 72//72 71//71 73//73
f 72//72 73//73 74//74
f 74//74 73//73 75//75
f 74//74 75//75 76//76
f 76//76 75//75 77//77
f 76//76 77//77 78//78
f 78//78 77//77 79//79
f 78//78 79//79 80//80
f 80//80 79//79 81//81
f 80//80 81//81 82//82
f 82//82 81//81 83//83
f 82//82 83//83 43//43
f 43//43 83//83 84//84
f 43//43 84//84 44//44
f 20//20 85//85 21//21
f 21//21 85//85 86//86
f 21//21 86//86 87//87
f 87//87 86//86 88//88
f 87//87 88//88 89//89
f 89//89 88//88 90//90
f 89//89 90//90 91//91
f 91//91 90//90 92//92
f 91//91 92//92 93//93
f 93//93 92//92 94//94
f 93//93 94//94 95//95
f 95//95 94//94 96//96
f 95//95 96//96 97//97
f 97//97 96//96 98//98
f 97//97 98//98 99//99
f 99//99 98//98 100//100
f 99//99 100//100 101//101
f 101//101 100//100 102//102
f 101//101 102//102 103//103
f 103//103 102//102 104//104
f 103//103 104//104 64//64
f 64//64 104//104 105//105
f 64//64 105//105 65//65
f 106//106 107//107 108//108
f 108//108 107//107 109//109
f 108//108 109//109 110//110
f 110//110 109//109 111//111
f 110//110 111//111 112//112
f 112//112 111//111 113//113
f 112//112 113//113 114//114
f 114//114 113//113 115//115
f 114//114 115//115 116//116
f 116//116 115//115 117//117
f 116//116 117//117 118//118
f 118//118 117//117 119//119
f 118//118 119//119 120//120
f 120//120 119//119 121//121
f 120//120 121//121 122//122
f 122//122 121//121 123//123
f 122//122 123//123 124//124
f 124//124 123//123 125//125
f 124//124 125//125 126//126
f 126//126 125//125 127//127
f 126//126 127//127 128//128
f 128//128 127//127 129//129
f 128//128 129//129 130//130
f 130//130 129//129 131//131
f 130//130 131//131 132//132
f 132//132 131//131 133//133
f 132//132 133//133 134//134
f 134//134 133//133 135//135
f 134//134 135//135 136//136
f 136//136 135//135 137//137
f 136//136 137//137 138//138
f 138//138 137//137 139//139
f 138//138 139//139 140//140
f 140//140 139//139 141//141
f 140//140 141//141 142//142
f 142//142 141//141 143//143
f 142//142 143//143 144//144
f 144//144 143//143 145//145
f 144//144 145//145 146//146
f 146//146 145//145 147//147
f 146//146 147//147 148//148
f 148//148 147//147 149//149
f 148//148 149//149 150//150
f 150//150 149//149 151//151
f 150//150 151//151 152//152
f 152//152 151//151 153//153
f 152//152 153//153 154//154
f 154//154 153//153 155//155
f 154//154 155//155 156//156
f 156//156 155//155 157//157
f 156//156 157//157 158//158
f 158//158 157//157 159//159
f 158//158 159//159 160//160
f 160//160 159//159 161//161
f 160//160 161//161 162//162
f 162//162 161//161 163//163
f 162//162 163//163 164//164
f 164//164 163//163 165//165
f 164//164 165//165 166//166
f 166//166 165//165 167//167
f 166//166 167//167 168//168
f 168//168 167//167 169//169
f 168//168 169//169 170//170
f 170//170 169//169 171//171
f 170//170 171//171 172//172
f 172//172 171//171 173//173
f 172//172 173//173 174//174
f 174//174 173//173 175//175
f 174//174 175//175 176//176
f 176//176 175//175 177//177
f 176//176 177//177 178//178
f 178//178 177//177 179//179
f 178//178 179//179 180//180
f 180//180 179//179 181//181
f 180//180 181//181 182//182
f 182//182 181//181 183//183
f 182//182 183//183 184//184
f 184//184 183//183 185//185
f 184//184 185//185 186//186
f 186//186 185//185 187//187
f 186//186 187//187 188//188
f 188//188 187//187 189//189
f 188//188 189//189 190//190
f 190//190 189//189 191//191
f 190//190 191//191 192//192
f 192//192 191//191 193//193
f 192//192 193//193 194//194
f 194//194 193//193 195//195
f 194//194 195//195 196//196
f 196//196 195//195 197//197
f 196//196 197//197 198//198
f 198//198 197//197 199//199
f 198//198 199//199 200//200
f 200//200 199//199 201//201
f 200//200 201//201 202//202
f 202//202 201//201 203//203
f 202//202 203//203 204//204
f 204//204 203//203 205//205
f 204//204 205//205 206//206
f 206//206 205//205 207//207
f 206//206 207//207 208//208
f 208//208 207//207 209//209
f 208//208 209//209 210//210
f 210//210 209//209 211//211
f 210//210 211//211 212//212
f 212//212 211//211 213//213
f 212//212 213//213 214//214
f 214//214 213//213 215//215
f 214//214 215//215 216//216
f 216//216 215//215 106//106
f 216//216 106//106 108//108
f 217//217 150//150 218//218
f 218//218 150//150 152//152
f 218//218 152//152 219//219
f 219//219 152//152 154//154
f 219//219 154//154 220//220
f 220//220 154//154 156//156
f 220//220 156//156 221//221
f 221//221 156//156 158//158
f 221//221 158//158 222//222
f 222//222 158//158 160//160
f 222//222 160//160 223//223
f 223//223 160//160 162//162
f 223//223 162//162 224//224
f 224//224 162//162 164//164
f 224//224 164//164 225//225
f 225//225 164//164 166//166
f 225//225 166//166 226//226
f 226//226 166//166 168//168
f 226//226 168//168 227//227
f 228//228 128//128 229//229
f 229//229 128//128 130//130
f 229//229 130//130 230//230
f 230//230 130//130 132//132
f 230//230 132//132 231//231
f 231//231 132//132 134//134
f 231//231 134//134 232//232
f 232//232 134//134 136//136
f 232//232 136//136 233//233
f 233//233 136//136 138//138
f 233//233 138//138 234//234
f 234//234 138//138 140//140
f 234//234 140//140 235//235
f 235//235 140//140 142//142
f 235//235 142//142 236//236
f 236//236 142//142 144//144
f 236//236 144//144 237//237
f 237//237 144//144 146//146
f 237//237 146//146 217//217
f 217//217 146//146 148//148
f 217//217 148//148 150//150
f 238//238 216//216 239//239
f 239//239 216//216 108//108
f 239//239 108//108 240//240
f 240//240 108//108 110//110
f 240//240 110//110 241//241
f 241//241 110//110 112//112
f 241//241 112//112 242//242
f 242//242 112//112 114//114
f 242//242 114//114 243//243
f 243//243 114//114 116//116
f 243//243 116//116 244//244
f 244//244 116//116 118//118
f 244//244 118//118 245//245
f 245//245 118//118 120//120
f 245//245 120//120 246//246
f 246//246 120//120 122//122
f 246//246 122//122 247//247
f 247//247 122//122 124//124
f 247//247 124//124 228//228
f 228//228 124//124 126//126
f 228//228 126//126 128//128
f 248//248 194//194 249//249
f 249//249 194//194 196//196
f 249//249 196//196 250//250
f 250//250 196//196 198//198
f 250//250 198//198 251//251
f 251//251 198//198 200//200
f 251//251 200//200 252//252
f 252//252 200//200 202//202
f 252//252 202//202 253//253
f 253//253 202//202 204//204
f 253//253 204//204 254//254
f 254//254 204//204 206//206
f 254//254 206//206 255//255
f 255//255 206//206 208//208
f 255//255 208//208 256//256
f 256//256 208//208 210//210
f 256//256 210//210 257//257
f 257//257 210//210 212//212
f 257//257 212//212 238//238
f 238//238 212//212 214//214
f 238//238 214//214 216//216
f 168//168 170//170 227//227
f 227//227 170//170 172//172
f 227//227 172//172 258//258
f 258//258 172//172 174//174
f 258//258 174//174 259//259
f 259//259 174//174 176//176
f 259//259 176//176 260//260
f 260//260 176//176 178//178
f 260//260 178//178 261//261
f 261//261 178//178 180//180
f 261//261 180//180 262//262
f 262//262 180//180 182//182
f 262//262 182//182 263//263
f 263//263 182//182 184//184
f 263//263 184//184 264//264
f 264//264 184//184 186//186
f 264//264 186//186 265//265
f 265//265 186//186 188//188
f 265//265 188//188 266//266
f 266//266 188//188 190//190
f 266//266 190//190 248//248
f 248//248 190//190 192//192
f 248//248 192//192 194//194
f 53//53 223//223 51//51
f 51//51 223//223 224//224
f 51//51 224//224 49//49
f 49//49 224//224 225//225
f 49//49 225//225 47//47
f 47//47 225//225 226//226
f 47//47 226//226 45//45
f 45//45 226//226 227//227
f 45//45 227//227 43//43
f 43//43 227//227 258//258
f 43//43 258//258 82//82
f 82//82 258//258 259//259
f 82//82 259//259 80//80
f 80//80 259//259 260//260
f 80//80 260//260 78//78
f 78//78 260//260 261//261
f 78//78 261//261 76//76
f 76//76 261//261 262//262
f 76//76 262//262 74//74
f 74//74 262//262 263//263
f 74//74 263//263 72//72
f 72//72 263//263 264//264
f 72//72 264//264 70//70
f 70//70 264//264 265//265
f 70//70 265//265 68//68
f 68//68 265//265 266//266
f 68//68 266//266 66//66
f 66//66 266//266 248//248
f 66//66 248//248 64//64
f 64//64 248//248 249//249
f 64//64 249//249 103//103
f 103//103 249//249 250//250
f 103//103 250//250 101//101
f 101//101 250//250 251//251
f 101//101 251//251 99//99
f 99//99 251//251 252//252
f 99//99 252//252 97//97
f 97//97 252//252 253//253
f 97//97 253//253 95//95
f 95//95 253//253 254//254
f 95//95 254//254 93//93
f 93//93 254//254 255//255
f 93//93 255//255 91//91
f 91//91 255//255 256//256
f 91//91 256//256 89//89
f 89//89 256//256 257//257
f 89//89 257//257 87//87
f 87//87 257//257 238//238
f 87//87 238//238 21//21
f 21//21 238//238 239//239
f 21//21 239//239 19//19
f 19//19 239//239 240//240
f 19//19 240//240 17//17
f 17//17 240//240 241//241
f 17//17 241//241 15//15
f 15//15 241//241 242//242
f 15//15 242//242 13//13
f 13//13 242//242 243//243
f 13//13 243//243 11//11
f 11//11 243//243 244//244
f 11//11 244//244 9//9
f 9//9 244//244 245//245
f 9//9 245//245 7//7
f 7//7 245//245 246//246
f 7//7 246//246 5//5
f 5//5 246//246 247//247
f 5//5 247//247 3//3
f 3//3 247//247 228//228
f 3//3 228//228 1//1
f 1//1 228//228 229//229
f 1//1 229//229 40//40
f 40//40 229//229 230//230
f 40//40 230//230 38//38
f 38//38 230//230 231//231
f 38//38 231//231 36//36
f 36//36 231//231 232//232
f 36//36 232//232 34//34
f 34//34 232//232 233//233
f 34//34 233//233 32//32
f 32//32 233//233 234//234
f 32//32 234//234 30//30
f 30//30 234//234 235//235
f 30//30 235//235 28//28
f 28//28 235//235 236//236
f 28//28 236//236 26//26
f 26//26 236//236 237//237
f 26//26 237//237 24//24
f 24//24 237//237 217//217
f 24//24 217//217 22//22
f 22//22 217//217 218//218
f 22//22 218//218 61//61
f 61//61 218//218 219//219
f 61//61 219//219 59//59
f 59//59 219//219 220//220
f 59//59 220//220 57//57
f 57//57 220//220 221//221
f 57//57 221//221 55//55
f 55//55 221//221 222//222
f 55//55 222//222 53//53
f 53//53 222//222 223//223
f 106//106 215//215 86//86
f 86//86 215//215 213//213
f 86//86 213//213 88//88
f 88//88 213//213 211//211
f 88//88 211//211 90//90
f 90//90 211//211 209//209
f 90//90 209//209 92//92
f 92//92 209//209 207//207
f 92//92 207//207 94//94
f 94//94 207//207 205//205
f 94//94 205//205 96//96
f 96//96 205//205 203//203
f 96//96 203//203 98//98
f 98//98 203//203 201//201
f 98//98 201//201 100//100
f 100//100 201//201 199//199
f 100//100 199//199 102//102
f 102//102 199//199 197//197
f 102//102 197//197 104//104
f 104//104 197//197 195//195
f 104//104 195//195 105//105
f 105//105 195//195 193//193
f 105//105 193//193 65//65
f 65//65 193//193 191//191
f 65//65 191//191 67//67
f 67//67 191//191 189//189
f 67//67 189//189 69//69
f 69//69 189//189 187//187
f 69//69 187//187 71//71
f 71//71 187//187 185//185
f 71//71 185//185 73//73
f 73//73 185//185 183//183
f 73//73 183//183 75//75
f 75//75 183//183 181//181
f 75//75 181//181 77//77
f 77//77 181//181 179//179
f 77//77 179//179 79//79
f 79//79 179//179 177//177
f 79//79 177//177 81//81
f 81//81 177//177 175//175
f 81//81 175//175 83//83
f 83//83 175//175 173//173
f 83//83 173//173 84//84
f 84//84 173//173 171//171
f 84//84 171//171 44//44
f 44//44 171//171 169//169
f 44//44 169//169 46//46
f 46//46 169//169 167//167
f 46//46 167//167 48//48
f 48//48 167//167 165//165
f 48//48 165//165 50//50
f 50//50 165//165 163//163
f 50//50 163//163 52//52
f 52//52 163//163 161//161
f 52//52 161//161 54//54
f 54//54 161//161 159//159
f 54//54 159//159 56//56
f 56//56 159//159 157//157
f 56//56 157//157 58//58
f 58//58 157//157 155//155
f 58//58 155//155 60//60
f 60//60 155//155 153//153
f 60//60 153//153 62//62
f 62//62 153//153 151//151
f 62//62 151//151 63//63
f 63//63 151//151 149//149
f 63//63 149//149 23//23
f 23//23 149//149 147//147
f 23//23 147//147 25//25
f 25//25 147//147 145//145
f 25//25 145//145 27//27
f 27//27 145//145 143//143
f 27//27 143//143 29//29
f 29//29 143//143 141//141
f 29//29 141//141 31//31
f 31//31 141//141 139//139
f 31//31 139//139 33//33
f 33//33 139//139 137//137
f 33//33 137//137 35//35
f 35//35 137//137 135//135
f 35//35 135//135 37//37
f 37//37 135//135 133//133
f 37//37 133//133 39//39
f 39//39 133//133 131//131
f 39//39 131//131 41//41
f 41//41 131//131 129//129
f 41//41 129//129 42//42
f 42//42 129//129 127//127
f 42//42 127//127 2//2
f 2//2 127//127 125//125
f 2//2 125//125 4//4
f 4//4 125//125 123//123
f 4//4 123//123 6//6
f 6//6 123//123 121//121
f 6//6 121//121 8//8
f 8//8 121//121 119//119
f 8//8 119//119 10//10
f 10//10 119//119 117//117
f 10//10 117//117 12//12
f 12//12 117//117 115//115
f 12//12 115//115 14//14
f 14//14 115//115 113//113
f 14//14 113//113 16//16
f 16//16 113//113 111//111
f 16//16 111//111 18//18
f 18//18 111//111 109//109
f 18//18 109//109 20//20
f 20//20 109//109 107//107
f 20//20 107//107 85//85
f 85//85 107//107 106//106
f 85//85 106//106 86//86
