# Blender v3.6.0 OBJ File: 'RemainingParts.blend'
# www.blender.org
mtllib InstrumentFlowTransmitter.mtl
o TransmitterFlow
v -8.761696 55.000000 -3.188995
v -9.182350 55.000000 -1.619095
v 0.000000 55.000000 0.000000
v -9.323997 55.000000 0.000000
v -9.182350 55.000000 1.619095
v -5.993355 55.000000 -7.142593
v -7.142601 55.000000 -5.993347
v -8.074821 55.000000 -4.662003
v -1.619095 55.000000 -9.182343
v -3.188995 55.000000 -8.761688
v -4.662003 55.000000 -8.074814
v 3.188995 55.000000 -8.761688
v 1.619095 55.000000 -9.182343
v 0.000000 55.000000 -9.324005
v 7.142601 55.000000 -5.993347
v 5.993355 55.000000 -7.142593
v 4.662003 55.000000 -8.074814
v 9.182350 55.000000 -1.619095
v 8.761696 55.000000 -3.188995
v 8.074821 55.000000 -4.662003
v 8.761696 55.000000 3.188995
v 9.182350 55.000000 1.619095
v 9.323997 55.000000 0.000000
v 5.993355 55.000000 7.142593
v 7.142601 55.000000 5.993347
v 8.074821 55.000000 4.662003
v 1.619095 55.000000 9.182343
v 3.188995 55.000000 8.761688
v 4.662003 55.000000 8.074814
v -3.188995 55.000000 8.761688
v -1.619095 55.000000 9.182343
v 0.000000 55.000000 9.324005
v -7.142601 55.000000 5.993347
v -5.993355 55.000000 7.142593
v -4.662003 55.000000 8.074814
v -8.761696 55.000000 3.188995
v -8.074821 55.000000 4.662003
v -9.323997 40.946167 0.000000
v -9.182350 40.000000 1.619095
v -9.182350 40.946167 1.619095
v -8.761696 40.000000 3.188995
v -8.761696 40.946167 3.188995
v -8.074821 40.000000 4.662003
v -8.074821 40.946167 4.662003
v -7.142601 40.000000 5.993347
v -7.142601 40.946167 5.993347
v -5.993355 40.000000 7.142593
v -5.993355 40.946167 7.142593
v -4.662003 40.000000 8.074814
v -4.662003 40.946167 8.074814
v -3.188995 40.000000 8.761688
v -3.188995 40.946167 8.761688
v -1.619095 40.000000 9.182343
v -1.619095 40.946167 9.182343
v 0.000000 40.000000 9.324005
v 0.000000 40.946167 9.324005
v 1.619095 40.000000 9.182343
v 1.619095 40.946167 9.182343
v 3.188995 40.000000 8.761688
v 3.188995 40.946167 8.761688
v 4.662003 40.000000 8.074814
v 4.662003 40.946167 8.074814
v 5.993355 40.000000 7.142593
v 5.993355 40.946167 7.142593
v 7.142601 40.000000 5.993347
v 7.142601 40.946167 5.993347
v 8.074821 40.000000 4.662003
v 8.074821 40.946167 4.662003
v 8.761696 40.000000 3.188995
v 8.761696 40.946167 3.188995
v 9.182350 40.000000 1.619095
v 9.182350 40.946167 1.619095
v 9.323997 40.000000 0.000000
v 9.323997 40.946167 0.000000
v 9.182350 40.000000 -1.619095
v 9.182350 40.946167 -1.619095
v 8.761696 40.000000 -3.188995
v 8.761696 40.946167 -3.188995
v 8.074821 40.000000 -4.662003
v 8.074821 40.946167 -4.662003
v 7.142601 40.000000 -5.993347
v 7.142601 40.946167 -5.993347
v 5.993355 40.000000 -7.142593
v 5.993355 40.946167 -7.142593
v 4.662003 40.000000 -8.074814
v 4.662003 40.946167 -8.074814
v 3.188995 40.000000 -8.761688
v 3.188995 40.946167 -8.761688
v 1.619095 40.000000 -9.182343
v 1.619095 40.946167 -9.182343
v 0.000000 40.000000 -9.324005
v 0.000000 40.946167 -9.324005
v -1.619095 40.000000 -9.182343
v -1.619095 40.946167 -9.182343
v -3.188995 40.000000 -8.761688
v -3.188995 40.946167 -8.761688
v -4.662003 40.000000 -8.074814
v -4.662003 40.946167 -8.074814
v -5.993355 40.000000 -7.142593
v -5.993355 40.946167 -7.142593
v -7.142601 40.000000 -5.993347
v -7.142601 40.946167 -5.993347
v -8.074821 40.000000 -4.662003
v -8.074821 40.946167 -4.662003
v -8.761696 40.000000 -3.188995
v -8.761696 40.946167 -3.188995
v -9.182350 40.000000 -1.619095
v -9.182350 40.946167 -1.619095
v -9.323997 40.000000 0.000000
v -8.761696 -55.000000 3.188995
v -9.182350 -55.000000 1.619095
v 0.000000 -55.000000 0.000000
v -9.323997 -55.000000 0.000000
v -9.182350 -55.000000 -1.619095
v -5.993355 -55.000000 7.142593
v -7.142601 -55.000000 5.993347
v -8.074821 -55.000000 4.662003
v -1.619095 -55.000000 9.182343
v -3.188995 -55.000000 8.761688
v -4.662003 -55.000000 8.074814
v 3.188995 -55.000000 8.761688
v 1.619095 -55.000000 9.182343
v 0.000000 -55.000000 9.324005
v 7.142601 -55.000000 5.993347
v 5.993355 -55.000000 7.142593
v 4.662003 -55.000000 8.074814
v 9.182350 -55.000000 1.619095
v 8.761696 -55.000000 3.188995
v 8.074821 -55.000000 4.662003
v 8.761696 -55.000000 -3.188995
v 9.182350 -55.000000 -1.619095
v 9.323997 -55.000000 0.000000
v 5.993355 -55.000000 -7.142593
v 7.142601 -55.000000 -5.993347
v 8.074821 -55.000000 -4.662003
v 1.619095 -55.000000 -9.182343
v 3.188995 -55.000000 -8.761688
v 4.662003 -55.000000 -8.074814
v -3.188995 -55.000000 -8.761688
v -1.619095 -55.000000 -9.182343
v 0.000000 -55.000000 -9.324005
v -7.142601 -55.000000 -5.993347
v -5.993355 -55.000000 -7.142593
v -4.662003 -55.000000 -8.074814
v -8.761696 -55.000000 -3.188995
v -8.074821 -55.000000 -4.662003
v -24.000000 40.000000 53.000000
v -24.000000 40.000000 -20.000000
v -24.000000 -40.000000 53.000000
v -24.000000 -40.000000 -20.000000
v 24.000000 40.000000 -20.000000
v 24.000000 -40.000000 -20.000000
v 24.000000 40.000000 53.000000
v 24.000000 -40.000000 53.000000
v 9.182350 -40.000000 -1.619095
v 8.761696 -40.000000 -3.188995
v 8.074821 -40.000000 -4.662003
v -9.323997 -40.000000 0.000000
v -9.182350 -40.000000 1.619095
v 3.188995 -40.000000 8.761688
v 4.662003 -40.000000 8.074814
v 7.142601 -40.000000 -5.993347
v 5.993355 -40.000000 -7.142593
v 4.662003 -40.000000 -8.074814
v -3.188995 -40.000000 8.761688
v -1.619095 -40.000000 9.182343
v 0.000000 -40.000000 9.324005
v 1.619095 -40.000000 9.182343
v 5.993355 -40.000000 7.142593
v 7.142601 -40.000000 5.993347
v 8.074821 -40.000000 4.662003
v -4.662003 -40.000000 -8.074814
v -3.188995 -40.000000 -8.761688
v -1.619095 -40.000000 -9.182343
v -5.993355 -40.000000 -7.142593
v -7.142601 -40.000000 -5.993347
v -8.074821 -40.000000 -4.662003
v -8.761696 -40.000000 -3.188995
v -9.182350 -40.000000 -1.619095
v -8.761696 -40.000000 3.188995
v -8.074821 -40.000000 4.662003
v -7.142601 -40.000000 5.993347
v 8.761696 -40.000000 3.188995
v 9.182350 -40.000000 1.619095
v 9.323997 -40.000000 0.000000
v 3.188995 -40.000000 -8.761688
v 1.619095 -40.000000 -9.182343
v 0.000000 -40.000000 -9.324005
v -5.993355 -40.000000 7.142593
v -4.662003 -40.000000 8.074814
v -9.323997 -40.946167 0.000000
v -9.182350 -40.946167 1.619095
v -8.761696 -40.946167 3.188995
v -8.074821 -40.946167 4.662003
v -7.142601 -40.946167 5.993347
v -5.993355 -40.946167 7.142593
v -4.662003 -40.946167 8.074814
v -3.188995 -40.946167 8.761688
v -1.619095 -40.946167 9.182343
v 0.000000 -40.946167 9.324005
v 1.619095 -40.946167 9.182343
v 3.188995 -40.946167 8.761688
v 4.662003 -40.946167 8.074814
v 5.993355 -40.946167 7.142593
v 7.142601 -40.946167 5.993347
v 8.074821 -40.946167 4.662003
v 8.761696 -40.946167 3.188995
v 9.182350 -40.946167 1.619095
v 9.323997 -40.946167 0.000000
v 9.182350 -40.946167 -1.619095
v 8.761696 -40.946167 -3.188995
v 8.074821 -40.946167 -4.662003
v 7.142601 -40.946167 -5.993347
v 5.993355 -40.946167 -7.142593
v 4.662003 -40.946167 -8.074814
v 3.188995 -40.946167 -8.761688
v 1.619095 -40.946167 -9.182343
v 0.000000 -40.946167 -9.324005
v -1.619095 -40.946167 -9.182343
v -3.188995 -40.946167 -8.761688
v -4.662003 -40.946167 -8.074814
v -5.993355 -40.946167 -7.142593
v -7.142601 -40.946167 -5.993347
v -8.074821 -40.946167 -4.662003
v -8.761696 -40.946167 -3.188995
v -9.182350 -40.946167 -1.619095
vn -0.6819 0.6880 -0.2482
vn -0.7147 0.6880 -0.1260
vn 0.0000 1.0000 0.0000
vn -0.7257 0.6880 -0.0000
vn -0.7147 0.6880 0.1260
vn -0.4665 0.6880 -0.5559
vn -0.5559 0.6880 -0.4665
vn -0.6285 0.6880 -0.3629
vn -0.1260 0.6880 -0.7147
vn -0.2482 0.6880 -0.6819
vn -0.3629 0.6880 -0.6285
vn 0.2482 0.6880 -0.6819
vn 0.1260 0.6880 -0.7147
vn 0.0000 0.6880 -0.7257
vn 0.5559 0.6880 -0.4665
vn 0.4665 0.6880 -0.5559
vn 0.3629 0.6880 -0.6285
vn 0.7147 0.6880 -0.1260
vn 0.6819 0.6880 -0.2482
vn 0.6285 0.6880 -0.3629
vn 0.6819 0.6880 0.2482
vn 0.7147 0.6880 0.1260
vn 0.7257 0.6880 0.0000
vn 0.4665 0.6880 0.5559
vn 0.5559 0.6880 0.4665
vn 0.6285 0.6880 0.3629
vn 0.1260 0.6880 0.7147
vn 0.2482 0.6880 0.6819
vn 0.3629 0.6880 0.6285
vn -0.2482 0.6880 0.6819
vn -0.1260 0.6880 0.7147
vn 0.0000 0.6880 0.7257
vn -0.5559 0.6880 0.4665
vn -0.4665 0.6880 0.5559
vn -0.3629 0.6880 0.6285
vn -0.6819 0.6880 0.2482
vn -0.6285 0.6880 0.3629
vn -1.0000 0.0000 -0.0000
vn -0.6759 0.7273 0.1192
vn -0.9848 0.0000 0.1736
vn -0.6450 0.7273 0.2347
vn -0.9397 0.0000 0.3420
vn -0.5944 0.7273 0.3432
vn -0.8660 0.0000 0.5000
vn -0.5258 0.7273 0.4412
vn -0.7660 0.0000 0.6428
vn -0.4412 0.7273 0.5258
vn -0.6428 0.0000 0.7660
vn -0.3432 0.7273 0.5944
vn -0.5000 0.0000 0.8660
vn -0.2347 0.7273 0.6450
vn -0.3420 0.0000 0.9397
vn -0.1192 0.7273 0.6759
vn -0.1737 0.0000 0.9848
vn 0.0000 0.7273 0.6864
vn -0.0000 0.0000 1.0000
vn 0.1192 0.7273 0.6759
vn 0.1737 0.0000 0.9848
vn 0.2347 0.7273 0.6450
vn 0.3420 0.0000 0.9397
vn 0.3432 0.7273 0.5944
vn 0.5000 0.0000 0.8660
vn 0.4412 0.7273 0.5258
vn 0.6428 0.0000 0.7660
vn 0.5258 0.7273 0.4412
vn 0.7660 0.0000 0.6428
vn 0.5944 0.7273 0.3432
vn 0.8660 0.0000 0.5000
vn 0.6450 0.7273 0.2347
vn 0.9397 0.0000 0.3420
vn 0.6759 0.7273 0.1192
vn 0.9848 0.0000 0.1736
vn 0.6864 0.7273 0.0000
vn 1.0000 0.0000 0.0000
vn 0.6759 0.7273 -0.1192
vn 0.9848 0.0000 -0.1736
vn 0.6450 0.7273 -0.2347
vn 0.9397 0.0000 -0.3420
vn 0.5944 0.7273 -0.3432
vn 0.8660 0.0000 -0.5000
vn 0.5258 0.7273 -0.4412
vn 0.7660 0.0000 -0.6428
vn 0.4412 0.7273 -0.5258
vn 0.6428 0.0000 -0.7660
vn 0.3432 0.7273 -0.5944
vn 0.5000 0.0000 -0.8660
vn 0.2347 0.7273 -0.6450
vn 0.3420 0.0000 -0.9397
vn 0.1192 0.7273 -0.6759
vn 0.1737 0.0000 -0.9848
vn -0.0000 0.7273 -0.6864
vn 0.0000 0.0000 -1.0000
vn -0.1192 0.7273 -0.6759
vn -0.1737 0.0000 -0.9848
vn -0.2347 0.7273 -0.6450
vn -0.3420 0.0000 -0.9397
vn -0.3432 0.7273 -0.5944
vn -0.5000 0.0000 -0.8660
vn -0.4412 0.7273 -0.5258
vn -0.6428 0.0000 -0.7660
vn -0.5258 0.7273 -0.4412
vn -0.7660 0.0000 -0.6428
vn -0.5944 0.7273 -0.3432
vn -0.8660 0.0000 -0.5000
vn -0.6450 0.7273 -0.2347
vn -0.9397 0.0000 -0.3420
vn -0.6759 0.7273 -0.1192
vn -0.9848 0.0000 -0.1736
vn -0.6864 0.7273 -0.0000
vn -0.6819 -0.6880 0.2482
vn -0.7147 -0.6880 0.1260
vn 0.0000 -1.0000 0.0000
vn -0.7257 -0.6880 0.0000
vn -0.7147 -0.6880 -0.1260
vn -0.4665 -0.6880 0.5559
vn -0.5559 -0.6880 0.4665
vn -0.6285 -0.6880 0.3629
vn -0.1260 -0.6880 0.7147
vn -0.2482 -0.6880 0.6819
vn -0.3629 -0.6880 0.6285
vn 0.2482 -0.6880 0.6819
vn 0.1260 -0.6880 0.7147
vn 0.0000 -0.6880 0.7257
vn 0.5559 -0.6880 0.4665
vn 0.4665 -0.6880 0.5559
vn 0.3629 -0.6880 0.6285
vn 0.7147 -0.6880 0.1260
vn 0.6819 -0.6880 0.2482
vn 0.6285 -0.6880 0.3629
vn 0.6819 -0.6880 -0.2482
vn 0.7147 -0.6880 -0.1260
vn 0.7257 -0.6880 0.0000
vn 0.4665 -0.6880 -0.5559
vn 0.5559 -0.6880 -0.4665
vn 0.6285 -0.6880 -0.3629
vn 0.1260 -0.6880 -0.7147
vn 0.2482 -0.6880 -0.6819
vn 0.3629 -0.6880 -0.6285
vn -0.2482 -0.6880 -0.6819
vn -0.1260 -0.6880 -0.7147
vn 0.0000 -0.6880 -0.7257
vn -0.5559 -0.6880 -0.4665
vn -0.4665 -0.6880 -0.5559
vn -0.3629 -0.6880 -0.6285
vn -0.6819 -0.6880 -0.2482
vn -0.6285 -0.6880 -0.3629
vn -0.5773 0.5774 0.5773
vn -0.5774 0.5773 -0.5774
vn -0.5774 -0.5773 0.5774
vn -0.5774 -0.5773 -0.5774
vn 0.5774 0.5773 -0.5774
vn 0.5774 -0.5773 -0.5774
vn 0.5774 0.5773 0.5774
vn 0.5773 -0.5774 0.5773
vn 0.6759 -0.7273 -0.1192
vn 0.6450 -0.7273 -0.2347
vn 0.5944 -0.7273 -0.3432
vn -0.6864 -0.7273 0.0000
vn -0.6759 -0.7273 0.1192
vn 0.2347 -0.7273 0.6450
vn 0.3432 -0.7273 0.5944
vn 0.5258 -0.7273 -0.4412
vn 0.4412 -0.7273 -0.5258
vn 0.3432 -0.7273 -0.5944
vn -0.2347 -0.7273 0.6450
vn -0.1192 -0.7273 0.6759
vn -0.0000 -0.7273 0.6864
vn 0.1192 -0.7273 0.6759
vn 0.4412 -0.7273 0.5258
vn 0.5258 -0.7273 0.4412
vn 0.5944 -0.7273 0.3432
vn -0.3432 -0.7273 -0.5944
vn -0.2347 -0.7273 -0.6450
vn -0.1192 -0.7273 -0.6759
vn -0.4412 -0.7273 -0.5258
vn -0.5258 -0.7273 -0.4412
vn -0.5944 -0.7273 -0.3432
vn -0.6450 -0.7273 -0.2347
vn -0.6759 -0.7273 -0.1192
vn -0.6450 -0.7273 0.2347
vn -0.5944 -0.7273 0.3432
vn -0.5258 -0.7273 0.4412
vn 0.6450 -0.7273 0.2347
vn 0.6759 -0.7273 0.1192
vn 0.6864 -0.7273 -0.0000
vn 0.2347 -0.7273 -0.6450
vn 0.1192 -0.7273 -0.6759
vn 0.0000 -0.7273 -0.6864
vn -0.4412 -0.7273 0.5258
vn -0.3432 -0.7273 0.5944
usemtl None
s 1
f 1//1 2//2 3//3
f 3//3 2//2 4//4
f 3//3 4//4 5//5
f 6//6 7//7 3//3
f 3//3 7//7 8//8
f 3//3 8//8 1//1
f 9//9 10//10 3//3
f 3//3 10//10 11//11
f 3//3 11//11 6//6
f 12//12 13//13 3//3
f 3//3 13//13 14//14
f 3//3 14//14 9//9
f 15//15 16//16 3//3
f 3//3 16//16 17//17
f 3//3 17//17 12//12
f 18//18 19//19 3//3
f 3//3 19//19 20//20
f 3//3 20//20 15//15
f 21//21 22//22 3//3
f 3//3 22//22 23//23
f 3//3 23//23 18//18
f 24//24 25//25 3//3
f 3//3 25//25 26//26
f 3//3 26//26 21//21
f 27//27 28//28 3//3
f 3//3 28//28 29//29
f 3//3 29//29 24//24
f 30//30 31//31 3//3
f 3//3 31//31 32//32
f 3//3 32//32 27//27
f 33//33 34//34 3//3
f 3//3 34//34 35//35
f 3//3 35//35 30//30
f 5//5 36//36 3//3
f 3//3 36//36 37//37
f 3//3 37//37 33//33
f 38//38 39//39 40//40
f 40//40 39//39 41//41
f 40//40 41//41 42//42
f 42//42 41//41 43//43
f 42//42 43//43 44//44
f 44//44 43//43 45//45
f 44//44 45//45 46//46
f 46//46 45//45 47//47
f 46//46 47//47 48//48
f 48//48 47//47 49//49
f 48//48 49//49 50//50
f 50//50 49//49 51//51
f 50//50 51//51 52//52
f 52//52 51//51 53//53
f 52//52 53//53 54//54
f 54//54 53//53 55//55
f 54//54 55//55 56//56
f 56//56 55//55 57//57
f 56//56 57//57 58//58
f 58//58 57//57 59//59
f 58//58 59//59 60//60
f 60//60 59//59 61//61
f 60//60 61//61 62//62
f 62//62 61//61 63//63
f 62//62 63//63 64//64
f 64//64 63//63 65//65
f 64//64 65//65 66//66
f 66//66 65//65 67//67
f 66//66 67//67 68//68
f 68//68 67//67 69//69
f 68//68 69//69 70//70
f 70//70 69//69 71//71
f 70//70 71//71 72//72
f 72//72 71//71 73//73
f 72//72 73//73 74//74
f 74//74 73//73 75//75
f 74//74 75//75 76//76
f 76//76 75//75 77//77
f 76//76 77//77 78//78
f 78//78 77//77 79//79
f 78//78 79//79 80//80
f 80//80 79//79 81//81
f 80//80 81//81 82//82
f 82//82 81//81 83//83
f 82//82 83//83 84//84
f 84//84 83//83 85//85
f 84//84 85//85 86//86
f 86//86 85//85 87//87
f 86//86 87//87 88//88
f 88//88 87//87 89//89
f 88//88 89//89 90//90
f 90//90 89//89 91//91
f 90//90 91//91 92//92
f 92//92 91//91 93//93
f 92//92 93//93 94//94
f 94//94 93//93 95//95
f 94//94 95//95 96//96
f 96//96 95//95 97//97
f 96//96 97//97 98//98
f 98//98 97//97 99//99
f 98//98 99//99 100//100
f 100//100 99//99 101//101
f 100//100 101//101 102//102
f 102//102 101//101 103//103
f 102//102 103//103 104//104
f 104//104 103//103 105//105
f 104//104 105//105 106//106
f 106//106 105//105 107//107
f 106//106 107//107 108//108
f 108//108 107//107 109//109
f 108//108 109//109 38//38
f 38//38 109//109 39//39
f 110//110 111//111 112//112
f 112//112 111//111 113//113
f 112//112 113//113 114//114
f 115//115 116//116 112//112
f 112//112 116//116 117//117
f 112//112 117//117 110//110
f 118//118 119//119 112//112
f 112//112 119//119 120//120
f 112//112 120//120 115//115
f 121//121 122//122 112//112
f 112//112 122//122 123//123
f 112//112 123//123 118//118
f 124//124 125//125 112//112
f 112//112 125//125 126//126
f 112//112 126//126 121//121
f 127//127 128//128 112//112
f 112//112 128//128 129//129
f 112//112 129//129 124//124
f 130//130 131//131 112//112
f 112//112 131//131 132//132
f 112//112 132//132 127//127
f 133//133 134//134 112//112
f 112//112 134//134 135//135
f 112//112 135//135 130//130
f 136//136 137//137 112//112
f 112//112 137//137 138//138
f 112//112 138//138 133//133
f 139//139 140//140 112//112
f 112//112 140//140 141//141
f 112//112 141//141 136//136
f 142//142 143//143 112//112
f 112//112 143//143 144//144
f 112//112 144//144 139//139
f 114//114 145//145 112//112
f 112//112 145//145 146//146
f 112//112 146//146 142//142
f 147//147 148//148 149//149
f 149//149 148//148 150//150
f 151//151 152//152 148//148
f 148//148 152//152 150//150
f 153//153 154//154 151//151
f 151//151 154//154 152//152
f 155//155 156//156 152//152
f 152//152 156//156 157//157
f 150//150 158//158 149//149
f 149//149 158//158 159//159
f 154//154 160//160 161//161
f 157//157 162//162 152//152
f 152//152 162//162 163//163
f 152//152 163//163 164//164
f 165//165 166//166 149//149
f 149//149 166//166 167//167
f 149//149 167//167 154//154
f 154//154 167//167 168//168
f 154//154 168//168 160//160
f 161//161 169//169 154//154
f 154//154 169//169 170//170
f 154//154 170//170 171//171
f 172//172 150//150 173//173
f 173//173 150//150 174//174
f 172//172 175//175 150//150
f 150//150 175//175 176//176
f 150//150 176//176 177//177
f 177//177 178//178 150//150
f 150//150 178//178 179//179
f 150//150 179//179 158//158
f 159//159 180//180 149//149
f 149//149 180//180 181//181
f 149//149 181//181 182//182
f 171//171 183//183 154//154
f 154//154 183//183 184//184
f 154//154 184//184 152//152
f 152//152 184//184 185//185
f 152//152 185//185 155//155
f 164//164 186//186 152//152
f 152//152 186//186 187//187
f 152//152 187//187 150//150
f 150//150 187//187 188//188
f 150//150 188//188 174//174
f 182//182 189//189 149//149
f 149//149 189//189 190//190
f 149//149 190//190 165//165
f 147//147 149//149 153//153
f 153//153 149//149 154//154
f 79//79 77//77 151//151
f 109//109 148//148 39//39
f 39//39 148//148 147//147
f 39//39 147//147 41//41
f 61//61 59//59 153//153
f 109//109 107//107 148//148
f 148//148 107//107 105//105
f 148//148 105//105 103//103
f 103//103 101//101 148//148
f 148//148 101//101 99//99
f 148//148 99//99 97//97
f 153//153 69//69 67//67
f 67//67 65//65 153//153
f 153//153 65//65 63//63
f 153//153 63//63 61//61
f 89//89 87//87 151//151
f 151//151 87//87 85//85
f 85//85 83//83 151//151
f 151//151 83//83 81//81
f 151//151 81//81 79//79
f 77//77 75//75 151//151
f 151//151 75//75 73//73
f 151//151 73//73 153//153
f 153//153 73//73 71//71
f 153//153 71//71 69//69
f 59//59 57//57 153//153
f 153//153 57//57 55//55
f 153//153 55//55 147//147
f 147//147 55//55 53//53
f 53//53 51//51 147//147
f 147//147 51//51 49//49
f 147//147 49//49 47//47
f 97//97 95//95 148//148
f 148//148 95//95 93//93
f 148//148 93//93 151//151
f 151//151 93//93 91//91
f 151//151 91//91 89//89
f 47//47 45//45 147//147
f 147//147 45//45 43//43
f 147//147 43//43 41//41
f 4//4 40//40 5//5
f 5//5 40//40 42//42
f 5//5 42//42 36//36
f 36//36 42//42 44//44
f 36//36 44//44 37//37
f 37//37 44//44 46//46
f 37//37 46//46 33//33
f 33//33 46//46 48//48
f 33//33 48//48 34//34
f 34//34 48//48 50//50
f 34//34 50//50 35//35
f 35//35 50//50 52//52
f 35//35 52//52 30//30
f 30//30 52//52 54//54
f 30//30 54//54 31//31
f 31//31 54//54 56//56
f 31//31 56//56 32//32
f 32//32 56//56 58//58
f 32//32 58//58 27//27
f 27//27 58//58 60//60
f 27//27 60//60 28//28
f 28//28 60//60 62//62
f 28//28 62//62 29//29
f 29//29 62//62 64//64
f 29//29 64//64 24//24
f 24//24 64//64 66//66
f 24//24 66//66 25//25
f 25//25 66//66 68//68
f 25//25 68//68 26//26
f 26//26 68//68 70//70
f 26//26 70//70 21//21
f 21//21 70//70 72//72
f 21//21 72//72 22//22
f 22//22 72//72 74//74
f 22//22 74//74 23//23
f 23//23 74//74 76//76
f 23//23 76//76 18//18
f 18//18 76//76 78//78
f 18//18 78//78 19//19
f 19//19 78//78 80//80
f 19//19 80//80 20//20
f 20//20 80//80 82//82
f 20//20 82//82 15//15
f 15//15 82//82 84//84
f 15//15 84//84 16//16
f 16//16 84//84 86//86
f 16//16 86//86 17//17
f 17//17 86//86 88//88
f 17//17 88//88 12//12
f 12//12 88//88 90//90
f 12//12 90//90 13//13
f 13//13 90//90 92//92
f 13//13 92//92 14//14
f 14//14 92//92 94//94
f 14//14 94//94 9//9
f 9//9 94//94 96//96
f 9//9 96//96 10//10
f 10//10 96//96 98//98
f 10//10 98//98 11//11
f 11//11 98//98 100//100
f 11//11 100//100 6//6
f 6//6 100//100 102//102
f 6//6 102//102 7//7
f 7//7 102//102 104//104
f 7//7 104//104 8//8
f 8//8 104//104 106//106
f 8//8 106//106 1//1
f 1//1 106//106 108//108
f 1//1 108//108 2//2
f 2//2 108//108 38//38
f 2//2 38//38 4//4
f 4//4 38//38 40//40
f 191//38 111//111 192//40
f 192//40 111//111 110//110
f 192//40 110//110 193//42
f 193//42 110//110 117//117
f 193//42 117//117 194//44
f 194//44 117//117 116//116
f 194//44 116//116 195//46
f 195//46 116//116 115//115
f 195//46 115//115 196//48
f 196//48 115//115 120//120
f 196//48 120//120 197//50
f 197//50 120//120 119//119
f 197//50 119//119 198//52
f 198//52 119//119 118//118
f 198//52 118//118 199//54
f 199//54 118//118 123//123
f 199//54 123//123 200//56
f 200//56 123//123 122//122
f 200//56 122//122 201//58
f 201//58 122//122 121//121
f 201//58 121//121 202//60
f 202//60 121//121 126//126
f 202//60 126//126 203//62
f 203//62 126//126 125//125
f 203//62 125//125 204//64
f 204//64 125//125 124//124
f 204//64 124//124 205//66
f 205//66 124//124 129//129
f 205//66 129//129 206//68
f 206//68 129//129 128//128
f 206//68 128//128 207//70
f 207//70 128//128 127//127
f 207//70 127//127 208//72
f 208//72 127//127 132//132
f 208//72 132//132 209//74
f 209//74 132//132 131//131
f 209//74 131//131 210//76
f 210//76 131//131 130//130
f 210//76 130//130 211//78
f 211//78 130//130 135//135
f 211//78 135//135 212//80
f 212//80 135//135 134//134
f 212//80 134//134 213//82
f 213//82 134//134 133//133
f 213//82 133//133 214//84
f 214//84 133//133 138//138
f 214//84 138//138 215//86
f 215//86 138//138 137//137
f 215//86 137//137 216//88
f 216//88 137//137 136//136
f 216//88 136//136 217//90
f 217//90 136//136 141//141
f 217//90 141//141 218//92
f 218//92 141//141 140//140
f 218//92 140//140 219//94
f 219//94 140//140 139//139
f 219//94 139//139 220//96
f 220//96 139//139 144//144
f 220//96 144//144 221//98
f 221//98 144//144 143//143
f 221//98 143//143 222//100
f 222//100 143//143 142//142
f 222//100 142//142 223//102
f 223//102 142//142 146//146
f 223//102 146//146 224//104
f 224//104 146//146 145//145
f 224//104 145//145 225//106
f 225//106 145//145 114//114
f 225//106 114//114 226//108
f 226//108 114//114 113//113
f 226//108 113//113 191//38
f 191//38 113//113 111//111
f 158//158 192//40 159//159
f 159//159 192//40 193//42
f 159//159 193//42 180//180
f 180//180 193//42 194//44
f 180//180 194//44 181//181
f 181//181 194//44 195//46
f 181//181 195//46 182//182
f 182//182 195//46 196//48
f 182//182 196//48 189//189
f 189//189 196//48 197//50
f 189//189 197//50 190//190
f 190//190 197//50 198//52
f 190//190 198//52 165//165
f 165//165 198//52 199//54
f 165//165 199//54 166//166
f 166//166 199//54 200//56
f 166//166 200//56 167//167
f 167//167 200//56 201//58
f 167//167 201//58 168//168
f 168//168 201//58 202//60
f 168//168 202//60 160//160
f 160//160 202//60 203//62
f 160//160 203//62 161//161
f 161//161 203//62 204//64
f 161//161 204//64 169//169
f 169//169 204//64 205//66
f 169//169 205//66 170//170
f 170//170 205//66 206//68
f 170//170 206//68 171//171
f 171//171 206//68 207//70
f 171//171 207//70 183//183
f 183//183 207//70 208//72
f 183//183 208//72 184//184
f 184//184 208//72 209//74
f 184//184 209//74 185//185
f 185//185 209//74 210//76
f 185//185 210//76 155//155
f 155//155 210//76 211//78
f 155//155 211//78 156//156
f 156//156 211//78 212//80
f 156//156 212//80 157//157
f 157//157 212//80 213//82
f 157//157 213//82 162//162
f 162//162 213//82 214//84
f 162//162 214//84 163//163
f 163//163 214//84 215//86
f 163//163 215//86 164//164
f 164//164 215//86 216//88
f 164//164 216//88 186//186
f 186//186 216//88 217//90
f 186//186 217//90 187//187
f 187//187 217//90 218//92
f 187//187 218//92 188//188
f 188//188 218//92 219//94
f 188//188 219//94 174//174
f 174//174 219//94 220//96
f 174//174 220//96 173//173
f 173//173 220//96 221//98
f 173//173 221//98 172//172
f 172//172 221//98 222//100
f 172//172 222//100 175//175
f 175//175 222//100 223//102
f 175//175 223//102 176//176
f 176//176 223//102 224//104
f 176//176 224//104 177//177
f 177//177 224//104 225//106
f 177//177 225//106 178//178
f 178//178 225//106 226//108
f 178//178 226//108 179//179
f 179//179 226//108 191//38
f 179//179 191//38 158//158
f 158//158 191//38 192//40
