# Blender v3.6.0 OBJ File: 'RemainingParts.blend'
# www.blender.org
mtllib InstrumentTemperatureTransmitter.mtl
o TransmitterTemperature
v -6.499702 23.199951 3.211899
v -7.923798 23.199951 1.595840
v -6.610580 23.199951 2.977036
v -6.980446 23.199951 1.958527
v -7.236298 23.199951 -0.445480
v -7.247612 23.199951 -0.186005
v -7.194389 23.199951 0.896271
v -6.031441 23.199951 -4.022964
v -7.138939 23.199951 -1.264130
v -6.449165 23.199951 -3.312210
v -6.870796 23.199951 -2.314011
v -4.003952 23.199951 6.044083
v -4.664238 23.199951 5.550446
v -6.093040 23.199951 3.929047
v -5.439392 23.199951 4.793274
v 1.431404 20.199951 7.107285
v 0.356125 20.199951 7.241241
v 2.474701 20.199951 6.814575
v -0.468262 20.199951 7.234863
v 3.232346 20.199951 6.489563
v -5.439392 20.199951 4.793274
v -6.093040 20.199951 3.929047
v -4.664238 20.199951 5.550446
v -6.499702 20.199951 3.211899
v -4.003952 20.199951 6.044083
v 5.186356 20.199951 5.065979
v 5.343941 20.199951 6.064285
v 5.883476 20.199951 4.236420
v 6.031441 20.199951 4.022964
v 4.373390 20.199951 5.782379
v 3.462723 20.199951 6.369629
v -1.794090 20.199951 7.024506
v -2.579857 20.199951 7.660141
v -0.727104 20.199951 7.213440
v -2.820999 20.199951 6.678650
v -3.784897 20.199951 6.183609
v 1.794090 20.199951 -7.024506
v 2.579857 20.199951 -7.660141
v 0.727104 20.199951 -7.213440
v 0.468262 20.199951 -7.234863
v 2.820999 20.199951 -6.678650
v 3.784897 20.199951 -6.183609
v 4.003952 20.199951 -6.044083
v -6.980446 20.199951 1.958527
v -7.923798 20.199951 1.595840
v -6.610580 20.199951 2.977036
v -7.194389 20.199951 0.896271
v -7.247612 20.199951 -0.186005
v -7.236298 20.199951 -0.445480
v -6.031441 20.199951 -4.022964
v -6.449165 20.199951 -3.312210
v -7.138939 20.199951 -1.264130
v -6.870796 20.199951 -2.314011
v -1.431404 20.199951 -7.107285
v -0.356125 20.199951 -7.241241
v -2.474701 20.199951 -6.814575
v -3.232346 20.199951 -6.489563
v 6.870796 20.199951 2.314011
v 6.449165 20.199951 3.312210
v 7.138939 20.199951 1.264130
v 7.236298 20.199951 0.445480
v 2.579857 23.199951 -7.660141
v 2.579857 37.900024 -7.660141
v 4.003952 23.199951 -6.044083
v 7.923798 37.900024 -1.595840
v 6.499702 23.199951 -3.211899
v 7.923798 23.199951 -1.595840
v -7.923798 37.900024 1.595840
v -5.343941 37.900024 -6.064285
v -5.343941 23.199951 -6.064285
v -2.579857 23.199951 7.660141
v -2.579857 37.900024 7.660141
v 5.343941 23.199951 6.064285
v 5.343941 37.900024 6.064285
v 3.232346 23.199951 6.489563
v -0.468262 23.199951 7.234863
v 7.236298 23.199951 0.445480
v 6.031441 23.199951 4.022964
v 5.439392 20.199951 -4.793274
v 6.093040 20.199951 -3.929047
v 4.664238 20.199951 -5.550446
v 6.499702 20.199951 -3.211899
v 7.923798 20.199951 -1.595840
v 7.923798 11.349976 -1.595840
v 2.579857 11.349976 -7.660141
v 5.343941 11.349976 6.064285
v -2.579857 11.349976 7.660141
v -7.923798 11.349976 1.595840
v -5.343941 20.199951 -6.064285
v -5.343941 11.349976 -6.064285
v 2.474701 23.199951 6.814575
v 0.356125 23.199951 7.241241
v 1.431404 23.199951 7.107285
v 7.138939 23.199951 1.264130
v 6.449165 23.199951 3.312210
v 6.870796 23.199951 2.314011
v -3.232346 23.199951 -6.489563
v 0.468262 23.199951 -7.234863
v -2.474701 23.199951 -6.814575
v -0.356125 23.199951 -7.241241
v -1.431404 23.199951 -7.107285
v 5.439392 23.199951 -4.793274
v 4.664238 23.199951 -5.550446
v 6.093040 23.199951 -3.929047
v -2.820999 23.199951 6.678650
v -3.784897 23.199951 6.183609
v -1.794090 23.199951 7.024506
v -0.727104 23.199951 7.213440
v 6.980446 20.199951 -1.958527
v 6.610580 20.199951 -2.977036
v 7.194389 20.199951 -0.896271
v 7.247612 20.199951 0.186005
v 6.610580 23.199951 -2.977036
v 6.980446 23.199951 -1.958527
v 7.247612 23.199951 0.186005
v 7.194389 23.199951 -0.896271
v -0.449280 37.900024 2.966171
v -0.957527 37.900024 2.843094
v -1.983421 37.900024 -2.250778
v -1.562447 37.900024 -2.561005
v -2.250786 37.900024 1.983429
v -2.561005 37.900024 1.562454
v -2.793419 37.900024 1.093994
v -2.940948 37.900024 0.592300
v -2.999123 37.900024 0.072617
v -2.344139 37.900024 -1.872177
v 2.633621 37.900024 1.436676
v 2.344139 37.900024 1.872177
v 1.983421 37.900024 2.250778
v 1.562447 37.900024 2.561005
v -1.436676 37.900024 2.633621
v -1.872169 37.900024 2.344131
v -2.966164 37.900024 -0.449280
v -2.843086 37.900024 -0.957520
v -2.633621 37.900024 -1.436676
v 1.093994 37.900024 2.793411
v 0.592300 37.900024 2.940948
v 0.072617 37.900024 2.999115
v 2.793419 37.900024 -1.093994
v 2.940948 37.900024 -0.592300
v -1.093994 37.900024 -2.793411
v -0.592300 37.900024 -2.940948
v -0.072617 37.900024 -2.999115
v 2.999123 37.900024 -0.072617
v 2.966164 37.900024 0.449280
v 2.843086 37.900024 0.957520
v 0.449280 37.900024 -2.966171
v 0.957527 37.900024 -2.843094
v 1.436676 37.900024 -2.633621
v 1.872169 37.900024 -2.344131
v 2.250786 37.900024 -1.983429
v 2.561005 37.900024 -1.562454
v 3.784897 23.199951 -6.183609
v 2.820999 23.199951 -6.678650
v 1.794090 23.199951 -7.024506
v 0.727104 23.199951 -7.213440
v -3.462723 23.199951 -6.369629
v -3.462723 20.199951 -6.369629
v -4.373390 20.199951 -5.782379
v -4.373390 23.199951 -5.782379
v -5.186356 20.199951 -5.065979
v -5.186356 23.199951 -5.065979
v -5.883476 20.199951 -4.236420
v -5.883476 23.199951 -4.236420
v 3.462723 23.199951 6.369629
v 4.373390 23.199951 5.782379
v 5.186356 23.199951 5.065979
v 5.883476 23.199951 4.236420
v 5.064262 11.349976 -4.462708
v 4.303795 11.349976 -5.199982
v 3.437347 11.349976 -5.809235
v 2.486267 11.349976 -6.275421
v 1.473961 11.349976 -6.587097
v 0.425369 11.349976 -6.736588
v -0.633705 11.349976 -6.720184
v -1.677170 11.349976 -6.538315
v -2.679344 11.349976 -6.195450
v -3.615540 11.349976 -5.700027
v -4.462708 11.349976 -5.064270
v -5.199989 11.349976 -4.303787
v 6.587105 11.349976 1.473969
v 6.736588 11.349976 0.425369
v 6.720184 11.349976 -0.633698
v 6.538315 11.349976 -1.677170
v -5.809227 11.349976 -3.437347
v -6.275429 11.349976 -2.486267
v -6.587105 11.349976 -1.473969
v -6.736588 11.349976 -0.425369
v -6.720184 11.349976 0.633698
v -6.538315 11.349976 1.677170
v -6.195450 11.349976 2.679337
v 6.195450 11.349976 -2.679337
v 5.700035 11.349976 -3.615540
v 6.275429 11.349976 2.486267
v 5.809227 11.349976 3.437347
v -5.700035 11.349976 3.615540
v -5.064262 11.349976 4.462708
v -4.303795 11.349976 5.199982
v -3.437347 11.349976 5.809235
v -2.486267 11.349976 6.275421
v -1.473961 11.349976 6.587097
v -0.425369 11.349976 6.736588
v 3.615540 11.349976 5.700027
v 4.462708 11.349976 5.064270
v 5.199989 11.349976 4.303787
v 0.633705 11.349976 6.720184
v 1.677170 11.349976 6.538315
v 2.679344 11.349976 6.195450
v 5.064262 0.000000 -4.462708
v 5.700035 0.000000 -3.615540
v 6.195450 0.000000 -2.679337
v 6.538315 0.000000 -1.677170
v 6.720184 0.000000 -0.633698
v 6.736588 0.000000 0.425369
v 6.587105 0.000000 1.473969
v 6.275429 0.000000 2.486267
v 5.809227 0.000000 3.437347
v 5.199989 0.000000 4.303787
v 4.462708 0.000000 5.064270
v 3.615540 0.000000 5.700027
v 2.679344 0.000000 6.195450
v 1.677170 0.000000 6.538315
v 0.633705 0.000000 6.720184
v -0.425369 0.000000 6.736588
v -1.473961 0.000000 6.587097
v -2.486267 0.000000 6.275421
v -3.437347 0.000000 5.809235
v -4.303795 0.000000 5.199982
v -5.064262 0.000000 4.462708
v -5.700035 0.000000 3.615540
v -6.195450 0.000000 2.679337
v -6.538315 0.000000 1.677170
v -6.720184 0.000000 0.633698
v -6.736588 0.000000 -0.425369
v -6.587105 0.000000 -1.473969
v -6.275429 0.000000 -2.486267
v -5.809227 0.000000 -3.437347
v -5.199989 0.000000 -4.303787
v -4.462708 0.000000 -5.064270
v -3.615540 0.000000 -5.700027
v -2.679344 0.000000 -6.195450
v -1.677170 0.000000 -6.538315
v -0.633705 0.000000 -6.720184
v 0.425369 0.000000 -6.736588
v 1.473961 0.000000 -6.587097
v 2.486267 0.000000 -6.275421
v 3.437347 0.000000 -5.809235
v 4.303795 0.000000 -5.199982
v -0.072617 0.000000 -2.999115
v 0.449280 0.000000 -2.966171
v 0.957527 0.000000 -2.843094
v 1.436676 0.000000 -2.633621
v 1.872169 0.000000 -2.344131
v 2.250786 0.000000 -1.983429
v 2.561005 0.000000 -1.562454
v 2.793419 0.000000 -1.093994
v 2.940948 0.000000 -0.592300
v 2.999123 0.000000 -0.072617
v -2.999123 0.000000 0.072617
v -2.966164 0.000000 -0.449280
v -2.843086 0.000000 -0.957520
v -2.633621 0.000000 -1.436676
v -2.344139 0.000000 -1.872177
v -1.983421 0.000000 -2.250778
v -1.562447 0.000000 -2.561005
v -1.093994 0.000000 -2.793411
v -0.592300 0.000000 -2.940948
v 0.072617 0.000000 2.999115
v -0.449280 0.000000 2.966171
v -0.957527 0.000000 2.843094
v -1.436676 0.000000 2.633621
v -1.872169 0.000000 2.344131
v -2.250786 0.000000 1.983429
v -2.561005 0.000000 1.562454
v -2.793419 0.000000 1.093994
v -2.940948 0.000000 0.592300
v 2.966164 0.000000 0.449280
v 2.843086 0.000000 0.957520
v 2.633621 0.000000 1.436676
v 2.344139 0.000000 1.872177
v 1.983421 0.000000 2.250778
v 1.562447 0.000000 2.561005
v 1.093994 0.000000 2.793411
v 0.592300 0.000000 2.940948
v -0.944130 47.900024 -2.847565
v -1.424263 -102.099976 -2.640350
v -1.424263 47.900024 -2.640350
v -1.861122 -102.099976 -2.352921
v -1.861122 47.900024 -2.352921
v -2.241425 -102.099976 -1.993988
v -2.241425 47.900024 -1.993988
v -2.553627 -102.099976 -1.574478
v -2.553627 47.900024 -1.574478
v -2.788239 -102.099976 -1.107132
v -2.788239 47.900024 -1.107132
v -2.938126 -102.099976 -0.606140
v -2.938126 47.900024 -0.606140
v -2.998749 -102.099976 -0.086731
v -2.998749 47.900024 -0.086731
v -2.968246 -102.099976 0.435318
v -2.968246 47.900024 0.435318
v -2.847565 -102.099976 0.944138
v -2.847565 47.900024 0.944138
v -2.640358 -102.099976 1.424271
v -2.640358 47.900024 1.424271
v -2.352921 -102.099976 1.861115
v -2.352921 47.900024 1.861115
v -1.993996 -102.099976 2.241425
v -1.993996 47.900024 2.241425
v -1.574486 -102.099976 2.553619
v -1.574486 47.900024 2.553619
v -1.107132 -102.099976 2.788239
v -1.107132 47.900024 2.788239
v -0.606140 -102.099976 2.938126
v -0.606140 47.900024 2.938126
v -0.086731 -102.099976 2.998749
v -0.086731 47.900024 2.998749
v 0.435318 -102.099976 2.968246
v 0.435318 47.900024 2.968246
v 0.944130 -102.099976 2.847565
v 0.944130 47.900024 2.847565
v 1.424263 -102.099976 2.640350
v 1.424263 47.900024 2.640350
v 1.861122 -102.099976 2.352921
v 1.861122 47.900024 2.352921
v 2.241425 -102.099976 1.993988
v 2.241425 47.900024 1.993988
v 2.553627 -102.099976 1.574478
v 2.553627 47.900024 1.574478
v 2.788239 -102.099976 1.107132
v 2.788239 47.900024 1.107132
v 2.938126 -102.099976 0.606140
v 2.938126 47.900024 0.606140
v 2.998749 -102.099976 0.086731
v 2.998749 47.900024 0.086731
v 2.968246 -102.099976 -0.435318
v 2.968246 47.900024 -0.435318
v 2.847565 -102.099976 -0.944138
v 2.847565 47.900024 -0.944138
v 2.640358 -102.099976 -1.424271
v 2.640358 47.900024 -1.424271
v 2.352921 -102.099976 -1.861115
v 2.352921 47.900024 -1.861115
v 1.993996 -102.099976 -2.241425
v 1.993996 47.900024 -2.241425
v 1.574486 -102.099976 -2.553619
v 1.574486 47.900024 -2.553619
v 1.107132 -102.099976 -2.788239
v 1.107132 47.900024 -2.788239
v 0.606140 -102.099976 -2.938126
v 0.606140 47.900024 -2.938126
v 0.086731 -102.099976 -2.998749
v 0.086731 47.900024 -2.998749
v -0.435318 -102.099976 -2.968246
v -0.435318 47.900024 -2.968246
v -0.944130 -102.099976 -2.847565
v 0.000000 -102.099976 0.000000
v 0.108414 77.900024 -3.748428
v -0.544144 77.900024 -3.710312
v 0.000000 77.900024 0.000000
v -1.180168 77.900024 -3.559448
v -1.780327 77.900024 -3.300446
v 1.968102 77.900024 -3.192032
v 1.383911 77.900024 -3.485291
v 0.757675 77.900024 -3.672653
v 3.300446 77.900024 -1.780334
v 2.941154 77.900024 -2.326401
v 2.492493 77.900024 -2.801773
v 3.748436 77.900024 0.108414
v 3.710312 77.900024 -0.544144
v 3.559456 77.900024 -1.180161
v 3.192032 77.900024 1.968109
v 3.485298 77.900024 1.383911
v 3.672661 77.900024 0.757675
v 1.780327 77.900024 3.300446
v 2.326401 77.900024 2.941147
v 2.801781 77.900024 2.492493
v -0.108414 77.900024 3.748428
v 0.544144 77.900024 3.710312
v 1.180168 77.900024 3.559448
v -1.968102 77.900024 3.192032
v -1.383911 77.900024 3.485291
v -0.757675 77.900024 3.672653
v -3.300446 77.900024 1.780334
v -2.941154 77.900024 2.326401
v -2.492493 77.900024 2.801773
v -3.748436 77.900024 -0.108414
v -3.710312 77.900024 0.544144
v -3.559456 77.900024 1.180161
v -3.192032 77.900024 -1.968109
v -3.485298 77.900024 -1.383911
v -3.672661 77.900024 -0.757675
v -2.326401 77.900024 -2.941147
v -2.801781 77.900024 -2.492493
v -1.780327 47.900024 -3.300446
v -2.326401 47.900024 -2.941147
v -2.801781 47.900024 -2.492493
v -3.192032 47.900024 -1.968109
v -3.485298 47.900024 -1.383911
v -3.672661 47.900024 -0.757675
v -3.748436 47.900024 -0.108414
v -3.710312 47.900024 0.544144
v -3.559456 47.900024 1.180161
v -3.300446 47.900024 1.780334
v -2.941154 47.900024 2.326401
v -2.492493 47.900024 2.801773
v -1.968102 47.900024 3.192032
v -1.383911 47.900024 3.485291
v -0.757675 47.900024 3.672653
v -0.108414 47.900024 3.748428
v 0.544144 47.900024 3.710312
v 1.180168 47.900024 3.559448
v 1.780327 47.900024 3.300446
v 2.326401 47.900024 2.941147
v 2.801781 47.900024 2.492493
v 3.192032 47.900024 1.968109
v 3.485298 47.900024 1.383911
v 3.672661 47.900024 0.757675
v 3.748436 47.900024 0.108414
v 3.710312 47.900024 -0.544144
v 3.559456 47.900024 -1.180161
v 3.300446 47.900024 -1.780334
v 2.941154 47.900024 -2.326401
v 2.492493 47.900024 -2.801773
v 1.968102 47.900024 -3.192032
v 1.383911 47.900024 -3.485291
v 0.757675 47.900024 -3.672653
v 0.108414 47.900024 -3.748428
v -0.544144 47.900024 -3.710312
v -1.180168 47.900024 -3.559448
vn -0.8250 -0.0120 0.5650
vn -0.7768 -0.6100 0.1564
vn -0.6428 -0.7177 0.2678
vn -0.6638 -0.7243 0.1863
vn -0.9794 -0.0120 -0.2016
vn -0.6964 -0.7177 0.0019
vn -0.6842 -0.7243 0.0852
vn -0.9018 -0.0120 -0.4320
vn -0.7091 0.6926 -0.1321
vn -0.6446 0.6926 -0.3238
vn -0.6853 0.6907 -0.2308
vn -0.6642 -0.0120 0.7474
vn -0.4690 0.6926 0.5481
vn -0.6027 0.6926 0.3963
vn -0.5426 0.6907 0.4781
vn 0.1428 -0.6907 0.7090
vn 0.0419 -0.6926 0.7201
vn 0.2401 -0.6926 0.6802
vn 0.0768 0.0120 0.9970
vn 0.3151 0.0120 0.9490
vn -0.5426 -0.6907 0.4781
vn -0.6027 -0.6926 0.3963
vn -0.4690 -0.6926 0.5481
vn -0.8250 0.0120 0.5650
vn -0.6642 0.0120 0.7474
vn 0.4932 0.7243 0.4818
vn 0.5239 0.6100 0.5945
vn 0.5533 0.7177 0.4228
vn 0.9018 0.0120 0.4320
vn 0.4159 0.7243 0.5499
vn 0.3498 0.7177 0.6021
vn -0.1706 0.7243 0.6680
vn -0.2529 0.6100 0.7510
vn -0.0895 0.7177 0.6906
vn -0.2683 0.7243 0.6351
vn -0.3465 0.7177 0.6040
vn 0.1706 0.7243 -0.6680
vn 0.2529 0.6100 -0.7510
vn 0.0895 0.7177 -0.6906
vn -0.0768 0.0120 -0.9970
vn 0.2683 0.7243 -0.6351
vn 0.3465 0.7177 -0.6040
vn 0.6642 0.0120 -0.7474
vn -0.6638 0.7243 0.1863
vn -0.7768 0.6100 0.1564
vn -0.6428 0.7177 0.2678
vn -0.6842 0.7243 0.0852
vn -0.6964 0.7177 0.0019
vn -0.9794 0.0120 -0.2016
vn -0.9018 0.0120 -0.4320
vn -0.6446 -0.6926 -0.3238
vn -0.7091 -0.6926 -0.1321
vn -0.6853 -0.6907 -0.2308
vn -0.1428 -0.6907 -0.7090
vn -0.0419 -0.6926 -0.7201
vn -0.2401 -0.6926 -0.6802
vn -0.3151 0.0120 -0.9490
vn 0.6853 -0.6907 0.2308
vn 0.6446 -0.6926 0.3238
vn 0.7091 -0.6926 0.1321
vn 0.9794 0.0120 0.2016
vn 0.2529 -0.6100 -0.7510
vn 0.6642 -0.0120 -0.7474
vn 0.7768 0.6100 -0.1564
vn 0.8250 -0.0120 -0.5650
vn 0.7768 -0.6100 -0.1564
vn -0.5239 0.6100 -0.5945
vn -0.5239 -0.6100 -0.5945
vn -0.2529 -0.6100 0.7510
vn 0.5239 -0.6100 0.5945
vn 0.3151 -0.0120 0.9490
vn 0.0768 -0.0120 0.9970
vn 0.9794 -0.0120 0.2016
vn 0.9018 -0.0120 0.4320
vn 0.5426 -0.6907 -0.4781
vn 0.6027 -0.6926 -0.3963
vn 0.4690 -0.6926 -0.5481
vn 0.8250 0.0120 -0.5650
vn 0.2401 0.6926 0.6802
vn 0.0419 0.6926 0.7201
vn 0.1428 0.6907 0.7089
vn 0.7091 0.6926 0.1321
vn 0.6446 0.6926 0.3238
vn 0.6853 0.6907 0.2308
vn -0.3151 -0.0120 -0.9490
vn -0.0768 -0.0120 -0.9970
vn -0.2401 0.6926 -0.6802
vn -0.0419 0.6926 -0.7201
vn -0.1428 0.6907 -0.7089
vn 0.5426 0.6907 -0.4781
vn 0.4690 0.6926 -0.5481
vn 0.6027 0.6926 -0.3963
vn -0.2683 -0.7243 0.6351
vn -0.3465 -0.7177 0.6040
vn -0.1706 -0.7243 0.6680
vn -0.0895 -0.7177 0.6906
vn 0.6638 0.7243 -0.1863
vn 0.6428 0.7177 -0.2678
vn 0.6842 0.7243 -0.0852
vn 0.6964 0.7177 -0.0019
vn 0.6428 -0.7177 -0.2678
vn 0.6638 -0.7243 -0.1863
vn 0.6964 -0.7177 -0.0019
vn 0.6842 -0.7243 -0.0852
vn 0.1028 0.7273 -0.6786
vn 0.2191 0.7273 -0.6505
vn 0.4538 0.7273 0.5150
vn 0.3575 0.7273 0.5859
vn 0.5149 0.7273 -0.4538
vn 0.5859 0.7273 -0.3575
vn 0.6391 0.7273 -0.2503
vn 0.6729 0.7273 -0.1355
vn 0.6862 0.7273 -0.0166
vn 0.5363 0.7273 0.4283
vn -0.6025 0.7273 -0.3287
vn -0.5363 0.7273 -0.4283
vn -0.4538 0.7273 -0.5150
vn -0.3575 0.7273 -0.5859
vn 0.3287 0.7273 -0.6025
vn 0.4283 0.7273 -0.5363
vn 0.6786 0.7273 0.1028
vn 0.6505 0.7273 0.2191
vn 0.6025 0.7273 0.3287
vn -0.2503 0.7273 -0.6391
vn -0.1355 0.7273 -0.6728
vn -0.0166 0.7273 -0.6862
vn -0.6391 0.7273 0.2503
vn -0.6729 0.7273 0.1355
vn 0.2503 0.7273 0.6391
vn 0.1355 0.7273 0.6728
vn 0.0166 0.7273 0.6862
vn -0.6862 0.7273 0.0166
vn -0.6786 0.7273 -0.1028
vn -0.6505 0.7273 -0.2191
vn -0.1028 0.7273 0.6786
vn -0.2191 0.7273 0.6505
vn -0.3287 0.7273 0.6025
vn -0.4283 0.7273 0.5363
vn -0.5149 0.7273 0.4538
vn -0.5859 0.7273 0.3575
vn 0.3465 -0.7177 -0.6040
vn 0.2683 -0.7243 -0.6351
vn 0.1706 -0.7243 -0.6680
vn 0.0895 -0.7177 -0.6906
vn -0.3499 -0.7177 -0.6021
vn -0.3498 0.7177 -0.6021
vn -0.4159 0.7243 -0.5499
vn -0.4159 -0.7243 -0.5499
vn -0.4932 0.7243 -0.4818
vn -0.4932 -0.7243 -0.4818
vn -0.5533 0.7177 -0.4228
vn -0.5533 -0.7177 -0.4228
vn 0.3499 -0.7177 0.6021
vn 0.4159 -0.7243 0.5499
vn 0.4932 -0.7243 0.4818
vn 0.5533 -0.7177 0.4228
vn 0.5166 -0.7252 -0.4552
vn 0.4390 -0.7252 -0.5304
vn 0.3506 -0.7252 -0.5926
vn 0.2536 -0.7252 -0.6401
vn 0.1504 -0.7252 -0.6719
vn 0.0434 -0.7252 -0.6872
vn -0.0646 -0.7252 -0.6855
vn -0.1711 -0.7252 -0.6669
vn -0.2733 -0.7252 -0.6320
vn -0.3688 -0.7252 -0.5814
vn -0.4552 -0.7252 -0.5166
vn -0.5304 -0.7252 -0.4390
vn 0.6719 -0.7252 0.1504
vn 0.6872 -0.7252 0.0434
vn 0.6855 -0.7252 -0.0646
vn 0.6669 -0.7252 -0.1711
vn -0.5926 -0.7252 -0.3506
vn -0.6401 -0.7252 -0.2536
vn -0.6719 -0.7252 -0.1504
vn -0.6872 -0.7252 -0.0434
vn -0.6855 -0.7252 0.0646
vn -0.6669 -0.7252 0.1711
vn -0.6320 -0.7252 0.2733
vn 0.6320 -0.7252 -0.2733
vn 0.5814 -0.7252 -0.3688
vn 0.6401 -0.7252 0.2536
vn 0.5926 -0.7252 0.3506
vn -0.5814 -0.7252 0.3688
vn -0.5166 -0.7252 0.4552
vn -0.4390 -0.7252 0.5304
vn -0.3506 -0.7252 0.5926
vn -0.2536 -0.7252 0.6401
vn -0.1504 -0.7252 0.6719
vn -0.0434 -0.7252 0.6872
vn 0.3688 -0.7252 0.5814
vn 0.4552 -0.7252 0.5166
vn 0.5304 -0.7252 0.4390
vn 0.0646 -0.7252 0.6855
vn 0.1711 -0.7252 0.6669
vn 0.2733 -0.7252 0.6320
vn 0.5431 -0.6899 -0.4786
vn 0.6113 -0.6899 -0.3878
vn 0.6645 -0.6899 -0.2874
vn 0.7012 -0.6899 -0.1799
vn 0.7207 -0.6899 -0.0680
vn 0.7225 -0.6899 0.0456
vn 0.7065 -0.6899 0.1581
vn 0.6730 -0.6899 0.2667
vn 0.6230 -0.6899 0.3687
vn 0.5577 -0.6899 0.4616
vn 0.4786 -0.6899 0.5431
vn 0.3878 -0.6899 0.6113
vn 0.2874 -0.6899 0.6645
vn 0.1799 -0.6899 0.7012
vn 0.0680 -0.6899 0.7207
vn -0.0456 -0.6899 0.7225
vn -0.1581 -0.6899 0.7065
vn -0.2666 -0.6899 0.6730
vn -0.3687 -0.6899 0.6230
vn -0.4616 -0.6899 0.5577
vn -0.5431 -0.6899 0.4786
vn -0.6113 -0.6899 0.3878
vn -0.6645 -0.6899 0.2874
vn -0.7012 -0.6899 0.1799
vn -0.7207 -0.6899 0.0680
vn -0.7225 -0.6899 -0.0456
vn -0.7065 -0.6899 -0.1581
vn -0.6730 -0.6899 -0.2667
vn -0.6230 -0.6899 -0.3687
vn -0.5577 -0.6899 -0.4616
vn -0.4786 -0.6899 -0.5431
vn -0.3878 -0.6899 -0.6113
vn -0.2874 -0.6899 -0.6645
vn -0.1799 -0.6899 -0.7012
vn -0.0680 -0.6899 -0.7207
vn 0.0456 -0.6899 -0.7225
vn 0.1581 -0.6899 -0.7065
vn 0.2666 -0.6899 -0.6730
vn 0.3687 -0.6899 -0.6230
vn 0.4616 -0.6899 -0.5577
vn 0.0166 -0.7273 0.6862
vn -0.1028 -0.7273 0.6786
vn -0.2191 -0.7273 0.6505
vn -0.3287 -0.7273 0.6025
vn -0.4283 -0.7273 0.5363
vn -0.5149 -0.7273 0.4538
vn -0.5859 -0.7273 0.3575
vn -0.6391 -0.7273 0.2503
vn -0.6729 -0.7273 0.1355
vn -0.6862 -0.7273 0.0166
vn 0.6862 -0.7273 -0.0166
vn 0.6786 -0.7273 0.1028
vn 0.6505 -0.7273 0.2191
vn 0.6025 -0.7273 0.3287
vn 0.5363 -0.7273 0.4283
vn 0.4538 -0.7273 0.5150
vn 0.3575 -0.7273 0.5859
vn 0.2503 -0.7273 0.6391
vn 0.1355 -0.7273 0.6728
vn -0.0166 -0.7273 -0.6862
vn 0.1028 -0.7273 -0.6786
vn 0.2191 -0.7273 -0.6505
vn 0.3287 -0.7273 -0.6025
vn 0.4283 -0.7273 -0.5363
vn 0.5149 -0.7273 -0.4538
vn 0.5859 -0.7273 -0.3575
vn 0.6391 -0.7273 -0.2503
vn 0.6729 -0.7273 -0.1355
vn -0.6786 -0.7273 -0.1028
vn -0.6505 -0.7273 -0.2191
vn -0.6025 -0.7273 -0.3287
vn -0.5363 -0.7273 -0.4283
vn -0.4538 -0.7273 -0.5150
vn -0.3575 -0.7273 -0.5859
vn -0.2503 -0.7273 -0.6391
vn -0.1355 -0.7273 -0.6728
vn -0.2160 -0.7273 -0.6515
vn -0.3445 -0.6880 -0.6387
vn -0.3259 -0.7273 -0.6041
vn -0.4502 -0.6880 -0.5692
vn -0.4258 -0.7273 -0.5383
vn -0.5422 -0.6880 -0.4823
vn -0.5128 -0.7273 -0.4562
vn -0.6177 -0.6880 -0.3809
vn -0.5842 -0.7273 -0.3602
vn -0.6745 -0.6880 -0.2678
vn -0.6379 -0.7273 -0.2533
vn -0.7107 -0.6880 -0.1466
vn -0.6722 -0.7273 -0.1387
vn -0.7254 -0.6880 -0.0210
vn -0.6861 -0.7273 -0.0198
vn -0.7180 -0.6880 0.1053
vn -0.6791 -0.7273 0.0996
vn -0.6888 -0.6880 0.2284
vn -0.6515 -0.7273 0.2160
vn -0.6387 -0.6880 0.3445
vn -0.6041 -0.7273 0.3259
vn -0.5692 -0.6880 0.4502
vn -0.5383 -0.7273 0.4258
vn -0.4824 -0.6880 0.5422
vn -0.4562 -0.7273 0.5128
vn -0.3809 -0.6880 0.6177
vn -0.3602 -0.7273 0.5842
vn -0.2678 -0.6880 0.6745
vn -0.2533 -0.7273 0.6379
vn -0.1466 -0.6880 0.7107
vn -0.1387 -0.7273 0.6722
vn -0.0210 -0.6880 0.7254
vn -0.0198 -0.7273 0.6861
vn 0.1053 -0.6880 0.7180
vn 0.0996 -0.7273 0.6791
vn 0.2284 -0.6880 0.6888
vn 0.2160 -0.7273 0.6515
vn 0.3445 -0.6880 0.6387
vn 0.3259 -0.7273 0.6041
vn 0.4502 -0.6880 0.5692
vn 0.4258 -0.7273 0.5383
vn 0.5422 -0.6880 0.4823
vn 0.5128 -0.7273 0.4562
vn 0.6177 -0.6880 0.3809
vn 0.5842 -0.7273 0.3602
vn 0.6745 -0.6880 0.2678
vn 0.6379 -0.7273 0.2533
vn 0.7107 -0.6880 0.1466
vn 0.6722 -0.7273 0.1387
vn 0.7254 -0.6880 0.0210
vn 0.6861 -0.7273 0.0198
vn 0.7180 -0.6880 -0.1053
vn 0.6791 -0.7273 -0.0996
vn 0.6888 -0.6880 -0.2284
vn 0.6515 -0.7273 -0.2160
vn 0.6387 -0.6880 -0.3445
vn 0.6041 -0.7273 -0.3259
vn 0.5692 -0.6880 -0.4502
vn 0.5383 -0.7273 -0.4258
vn 0.4824 -0.6880 -0.5422
vn 0.4562 -0.7273 -0.5128
vn 0.3809 -0.6880 -0.6177
vn 0.3602 -0.7273 -0.5842
vn 0.2678 -0.6880 -0.6745
vn 0.2533 -0.7273 -0.6379
vn 0.1466 -0.6880 -0.7107
vn 0.1387 -0.7273 -0.6722
vn 0.0210 -0.6880 -0.7254
vn 0.0198 -0.7273 -0.6861
vn -0.1053 -0.6880 -0.7180
vn -0.0996 -0.7273 -0.6791
vn -0.2284 -0.6880 -0.6888
vn 0.0000 -1.0000 0.0000
vn 0.0210 0.6880 -0.7254
vn -0.1053 0.6880 -0.7180
vn 0.0000 1.0000 -0.0000
vn -0.2284 0.6880 -0.6888
vn -0.3445 0.6880 -0.6387
vn 0.3809 0.6880 -0.6177
vn 0.2678 0.6880 -0.6745
vn 0.1466 0.6880 -0.7107
vn 0.6387 0.6880 -0.3445
vn 0.5692 0.6880 -0.4502
vn 0.4823 0.6880 -0.5422
vn 0.7254 0.6880 0.0210
vn 0.7180 0.6880 -0.1053
vn 0.6888 0.6880 -0.2284
vn 0.6177 0.6880 0.3809
vn 0.6745 0.6880 0.2678
vn 0.7107 0.6880 0.1466
vn 0.3445 0.6880 0.6387
vn 0.4502 0.6880 0.5692
vn 0.5422 0.6880 0.4824
vn -0.0210 0.6880 0.7254
vn 0.1053 0.6880 0.7180
vn 0.2284 0.6880 0.6888
vn -0.3809 0.6880 0.6177
vn -0.2678 0.6880 0.6745
vn -0.1466 0.6880 0.7107
vn -0.6387 0.6880 0.3445
vn -0.5692 0.6880 0.4502
vn -0.4823 0.6880 0.5422
vn -0.7254 0.6880 -0.0210
vn -0.7180 0.6880 0.1053
vn -0.6888 0.6880 0.2284
vn -0.6177 0.6880 -0.3809
vn -0.6745 0.6880 -0.2678
vn -0.7107 0.6880 -0.1466
vn -0.4502 0.6880 -0.5692
vn -0.5422 0.6880 -0.4824
vn -0.5422 -0.6880 -0.4824
vn -0.4823 -0.6880 0.5422
vn 0.5422 -0.6880 0.4824
vn 0.4823 -0.6880 -0.5422
usemtl None
s 1
f 1//1 2//2 3//3
f 3//3 2//2 4//4
f 5//5 6//6 2//2
f 2//2 6//6 7//7
f 2//2 7//7 4//4
f 5//5 8//8 9//9
f 9//9 8//8 10//10
f 9//9 10//10 11//11
f 12//12 1//1 13//13
f 13//13 1//1 14//14
f 13//13 14//14 15//15
f 16//16 17//17 18//18
f 18//18 17//17 19//19
f 18//18 19//19 20//20
f 21//21 22//22 23//23
f 23//23 22//22 24//24
f 23//23 24//24 25//25
f 26//26 27//27 28//28
f 28//28 27//27 29//29
f 26//26 30//30 27//27
f 27//27 30//30 31//31
f 27//27 31//31 20//20
f 32//32 33//33 34//34
f 34//34 33//33 19//19
f 32//32 35//35 33//33
f 33//33 35//35 36//36
f 33//33 36//36 25//25
f 37//37 38//38 39//39
f 39//39 38//38 40//40
f 37//37 41//41 38//38
f 38//38 41//41 42//42
f 38//38 42//42 43//43
f 44//44 45//45 46//46
f 46//46 45//45 24//24
f 44//44 47//47 45//45
f 45//45 47//47 48//48
f 45//45 48//48 49//49
f 50//50 49//49 51//51
f 51//51 49//49 52//52
f 51//51 52//52 53//53
f 54//54 55//55 56//56
f 56//56 55//55 40//40
f 56//56 40//40 57//57
f 58//58 59//59 60//60
f 60//60 59//59 29//29
f 60//60 29//29 61//61
f 62//62 63//38 64//63
f 64//63 63//38 65//64
f 64//63 65//64 66//65
f 66//65 65//64 67//66
f 2//2 68//45 5//5
f 5//5 68//45 69//67
f 5//5 69//67 8//8
f 8//8 69//67 70//68
f 71//69 72//33 12//12
f 12//12 72//33 68//45
f 12//12 68//45 1//1
f 1//1 68//45 2//2
f 73//70 74//27 75//71
f 75//71 74//27 72//33
f 75//71 72//33 76//72
f 76//72 72//33 71//69
f 67//66 65//64 77//73
f 77//73 65//64 74//27
f 77//73 74//27 78//74
f 78//74 74//27 73//70
f 79//75 80//76 81//77
f 81//77 80//76 82//78
f 81//77 82//78 43//43
f 83//64 84//66 82//78
f 82//78 84//66 85//62
f 82//78 85//62 43//43
f 43//43 85//62 38//38
f 27//27 86//70 29//29
f 29//29 86//70 84//66
f 29//29 84//66 61//61
f 61//61 84//66 83//64
f 33//33 87//69 19//19
f 19//19 87//69 86//70
f 19//19 86//70 20//20
f 20//20 86//70 27//27
f 45//45 88//2 24//24
f 24//24 88//2 87//69
f 24//24 87//69 25//25
f 25//25 87//69 33//33
f 89//67 90//68 50//50
f 50//50 90//68 88//2
f 50//50 88//2 49//49
f 49//49 88//2 45//45
f 38//38 85//62 40//40
f 40//40 85//62 90//68
f 40//40 90//68 57//57
f 57//57 90//68 89//67
f 75//71 76//72 91//79
f 91//79 76//72 92//80
f 91//79 92//80 93//81
f 77//73 78//74 94//82
f 94//82 78//74 95//83
f 94//82 95//83 96//84
f 97//85 98//86 99//87
f 99//87 98//86 100//88
f 99//87 100//88 101//89
f 70//68 69//67 97//85
f 97//85 69//67 63//38
f 97//85 63//38 98//86
f 98//86 63//38 62//62
f 102//90 103//91 104//92
f 104//92 103//91 64//63
f 104//92 64//63 66//65
f 105//93 71//69 106//94
f 106//94 71//69 12//12
f 105//93 107//95 71//69
f 71//69 107//95 108//96
f 71//69 108//96 76//72
f 109//97 83//64 110//98
f 110//98 83//64 82//78
f 109//97 111//99 83//64
f 83//64 111//99 112//100
f 83//64 112//100 61//61
f 66//65 67//66 113//101
f 113//101 67//66 114//102
f 77//73 115//103 67//66
f 67//66 115//103 116//104
f 67//66 116//104 114//102
f 117//105 118//106 72//33
f 119//107 120//108 69//67
f 72//33 121//109 68//45
f 68//45 121//109 122//110
f 122//110 123//111 68//45
f 68//45 123//111 124//112
f 68//45 124//112 125//113
f 119//107 69//67 126//114
f 127//115 128//116 74//27
f 74//27 128//116 129//117
f 74//27 129//117 130//118
f 118//106 131//119 72//33
f 72//33 131//119 132//120
f 72//33 132//120 121//109
f 125//113 133//121 68//45
f 68//45 133//121 134//122
f 68//45 134//122 69//67
f 69//67 134//122 135//123
f 69//67 135//123 126//114
f 130//118 136//124 74//27
f 74//27 136//124 137//125
f 74//27 137//125 72//33
f 72//33 137//125 138//126
f 72//33 138//126 117//105
f 139//127 140//128 65//64
f 120//108 141//129 69//67
f 69//67 141//129 142//130
f 69//67 142//130 63//38
f 63//38 142//130 143//131
f 140//128 144//132 65//64
f 65//64 144//132 145//133
f 65//64 145//133 74//27
f 74//27 145//133 146//134
f 74//27 146//134 127//115
f 143//131 147//135 63//38
f 63//38 147//135 148//136
f 63//38 148//136 149//137
f 149//137 150//138 63//38
f 63//38 150//138 151//139
f 63//38 151//139 65//64
f 65//64 151//139 152//140
f 65//64 152//140 139//127
f 153//141 64//63 43//43
f 43//43 64//63 81//77
f 43//43 42//42 153//141
f 153//141 42//42 41//41
f 153//141 41//41 154//142
f 154//142 41//41 37//37
f 154//142 37//37 155//143
f 155//143 37//37 39//39
f 155//143 39//39 156//144
f 156//144 39//39 98//86
f 98//86 39//39 40//40
f 98//86 40//40 100//88
f 40//40 55//55 100//88
f 100//88 55//55 54//54
f 100//88 54//54 101//89
f 101//89 54//54 56//56
f 101//89 56//56 99//87
f 99//87 56//56 97//85
f 97//85 56//56 57//57
f 97//85 57//57 157//145
f 57//57 158//146 157//145
f 157//145 158//146 159//147
f 157//145 159//147 160//148
f 160//148 159//147 161//149
f 160//148 161//149 162//150
f 162//150 161//149 163//151
f 162//150 163//151 164//152
f 164//152 163//151 8//8
f 8//8 163//151 50//50
f 8//8 50//50 10//10
f 50//50 51//51 10//10
f 10//10 51//51 53//53
f 10//10 53//53 11//11
f 11//11 53//53 52//52
f 11//11 52//52 9//9
f 9//9 52//52 5//5
f 5//5 52//52 49//49
f 5//5 49//49 6//6
f 49//49 48//48 6//6
f 6//6 48//48 47//47
f 6//6 47//47 7//7
f 7//7 47//47 44//44
f 7//7 44//44 4//4
f 4//4 44//44 46//46
f 4//4 46//46 3//3
f 3//3 46//46 1//1
f 1//1 46//46 24//24
f 1//1 24//24 14//14
f 24//24 22//22 14//14
f 14//14 22//22 21//21
f 14//14 21//21 15//15
f 15//15 21//21 23//23
f 15//15 23//23 13//13
f 13//13 23//23 12//12
f 12//12 23//23 25//25
f 12//12 25//25 106//94
f 25//25 36//36 106//94
f 106//94 36//36 35//35
f 106//94 35//35 105//93
f 105//93 35//35 32//32
f 105//93 32//32 107//95
f 107//95 32//32 34//34
f 107//95 34//34 108//96
f 108//96 34//34 76//72
f 76//72 34//34 19//19
f 76//72 19//19 92//80
f 19//19 17//17 92//80
f 92//80 17//17 16//16
f 92//80 16//16 93//81
f 93//81 16//16 18//18
f 93//81 18//18 91//79
f 91//79 18//18 75//71
f 75//71 18//18 20//20
f 75//71 20//20 165//153
f 20//20 31//31 165//153
f 165//153 31//31 30//30
f 165//153 30//30 166//154
f 166//154 30//30 26//26
f 166//154 26//26 167//155
f 167//155 26//26 28//28
f 167//155 28//28 168//156
f 168//156 28//28 78//74
f 78//74 28//28 29//29
f 78//74 29//29 95//83
f 29//29 59//59 95//83
f 95//83 59//59 58//58
f 95//83 58//58 96//84
f 96//84 58//58 60//60
f 96//84 60//60 94//82
f 94//82 60//60 77//73
f 77//73 60//60 61//61
f 77//73 61//61 115//103
f 61//61 112//100 115//103
f 115//103 112//100 111//99
f 115//103 111//99 116//104
f 116//104 111//99 109//97
f 116//104 109//97 114//102
f 114//102 109//97 110//98
f 114//102 110//98 113//101
f 113//101 110//98 66//65
f 66//65 110//98 82//78
f 66//65 82//78 104//92
f 64//63 103//91 81//77
f 81//77 103//91 102//90
f 81//77 102//90 79//75
f 79//75 102//90 104//92
f 79//75 104//92 80//76
f 80//76 104//92 82//78
f 78//74 73//70 168//156
f 168//156 73//70 167//155
f 75//71 165//153 73//70
f 73//70 165//153 166//154
f 73//70 166//154 167//155
f 8//8 70//68 164//152
f 164//152 70//68 162//150
f 97//85 157//145 70//68
f 70//68 157//145 160//148
f 70//68 160//148 162//150
f 98//86 62//62 156//144
f 156//144 62//62 155//143
f 64//63 153//141 62//62
f 62//62 153//141 154//142
f 62//62 154//142 155//143
f 161//149 89//67 163//151
f 163//151 89//67 50//50
f 161//149 159//147 89//67
f 89//67 159//147 158//146
f 89//67 158//146 57//57
f 84//66 169//157 85//62
f 85//62 169//157 170//158
f 85//62 170//158 171//159
f 171//159 172//160 85//62
f 85//62 172//160 173//161
f 85//62 173//161 174//162
f 174//162 175//163 85//62
f 85//62 175//163 176//164
f 85//62 176//164 90//68
f 90//68 176//164 177//165
f 177//165 178//166 90//68
f 90//68 178//166 179//167
f 90//68 179//167 180//168
f 181//169 182//170 84//66
f 84//66 182//170 183//171
f 84//66 183//171 184//172
f 180//168 185//173 90//68
f 90//68 185//173 186//174
f 90//68 186//174 88//2
f 88//2 186//174 187//175
f 88//2 187//175 188//176
f 188//176 189//177 88//2
f 88//2 189//177 190//178
f 88//2 190//178 191//179
f 184//172 192//180 84//66
f 84//66 192//180 193//181
f 84//66 193//181 169//157
f 181//169 84//66 194//182
f 194//182 84//66 86//70
f 194//182 86//70 195//183
f 191//179 196//184 88//2
f 88//2 196//184 197//185
f 88//2 197//185 87//69
f 87//69 197//185 198//186
f 87//69 198//186 199//187
f 199//187 200//188 87//69
f 87//69 200//188 201//189
f 87//69 201//189 202//190
f 203//191 204//192 86//70
f 86//70 204//192 205//193
f 86//70 205//193 195//183
f 202//190 206//194 87//69
f 87//69 206//194 207//195
f 87//69 207//195 86//70
f 86//70 207//195 208//196
f 86//70 208//196 203//191
f 209//197 193//181 210//198
f 210//198 193//181 192//180
f 210//198 192//180 211//199
f 211//199 192//180 184//172
f 211//199 184//172 212//200
f 212//200 184//172 183//171
f 212//200 183//171 213//201
f 213//201 183//171 182//170
f 213//201 182//170 214//202
f 214//202 182//170 181//169
f 214//202 181//169 215//203
f 215//203 181//169 194//182
f 215//203 194//182 216//204
f 216//204 194//182 195//183
f 216//204 195//183 217//205
f 217//205 195//183 205//193
f 217//205 205//193 218//206
f 218//206 205//193 204//192
f 218//206 204//192 219//207
f 219//207 204//192 203//191
f 219//207 203//191 220//208
f 220//208 203//191 208//196
f 220//208 208//196 221//209
f 221//209 208//196 207//195
f 221//209 207//195 222//210
f 222//210 207//195 206//194
f 222//210 206//194 223//211
f 223//211 206//194 202//190
f 223//211 202//190 224//212
f 224//212 202//190 201//189
f 224//212 201//189 225//213
f 225//213 201//189 200//188
f 225//213 200//188 226//214
f 226//214 200//188 199//187
f 226//214 199//187 227//215
f 227//215 199//187 198//186
f 227//215 198//186 228//216
f 228//216 198//186 197//185
f 228//216 197//185 229//217
f 229//217 197//185 196//184
f 229//217 196//184 230//218
f 230//218 196//184 191//179
f 230//218 191//179 231//219
f 231//219 191//179 190//178
f 231//219 190//178 232//220
f 232//220 190//178 189//177
f 232//220 189//177 233//221
f 233//221 189//177 188//176
f 233//221 188//176 234//222
f 234//222 188//176 187//175
f 234//222 187//175 235//223
f 235//223 187//175 186//174
f 235//223 186//174 236//224
f 236//224 186//174 185//173
f 236//224 185//173 237//225
f 237//225 185//173 180//168
f 237//225 180//168 238//226
f 238//226 180//168 179//167
f 238//226 179//167 239//227
f 239//227 179//167 178//166
f 239//227 178//166 240//228
f 240//228 178//166 177//165
f 240//228 177//165 241//229
f 241//229 177//165 176//164
f 241//229 176//164 242//230
f 242//230 176//164 175//163
f 242//230 175//163 243//231
f 243//231 175//163 174//162
f 243//231 174//162 244//232
f 244//232 174//162 173//161
f 244//232 173//161 245//233
f 245//233 173//161 172//160
f 245//233 172//160 246//234
f 246//234 172//160 171//159
f 246//234 171//159 247//235
f 247//235 171//159 170//158
f 247//235 170//158 248//236
f 248//236 170//158 169//157
f 248//236 169//157 209//197
f 209//197 169//157 193//181
f 249//237 244//232 250//238
f 250//238 244//232 245//233
f 250//238 245//233 251//239
f 251//239 245//233 246//234
f 251//239 246//234 252//240
f 252//240 246//234 247//235
f 252//240 247//235 253//241
f 253//241 247//235 248//236
f 253//241 248//236 254//242
f 254//242 248//236 209//197
f 254//242 209//197 255//243
f 255//243 209//197 210//198
f 255//243 210//198 256//244
f 256//244 210//198 211//199
f 256//244 211//199 257//245
f 257//245 211//199 212//200
f 257//245 212//200 258//246
f 259//247 234//222 260//248
f 260//248 234//222 235//223
f 260//248 235//223 261//249
f 261//249 235//223 236//224
f 261//249 236//224 262//250
f 262//250 236//224 237//225
f 262//250 237//225 263//251
f 263//251 237//225 238//226
f 263//251 238//226 264//252
f 264//252 238//226 239//227
f 264//252 239//227 265//253
f 265//253 239//227 240//228
f 265//253 240//228 266//254
f 266//254 240//228 241//229
f 266//254 241//229 267//255
f 267//255 241//229 242//230
f 267//255 242//230 249//237
f 249//237 242//230 243//231
f 249//237 243//231 244//232
f 268//256 224//212 269//257
f 269//257 224//212 225//213
f 269//257 225//213 270//258
f 270//258 225//213 226//214
f 270//258 226//214 271//259
f 271//259 226//214 227//215
f 271//259 227//215 272//260
f 272//260 227//215 228//216
f 272//260 228//216 273//261
f 273//261 228//216 229//217
f 273//261 229//217 274//262
f 274//262 229//217 230//218
f 274//262 230//218 275//263
f 275//263 230//218 231//219
f 275//263 231//219 276//264
f 276//264 231//219 232//220
f 276//264 232//220 259//247
f 259//247 232//220 233//221
f 259//247 233//221 234//222
f 212//200 213//201 258//246
f 258//246 213//201 214//202
f 258//246 214//202 277//265
f 277//265 214//202 215//203
f 277//265 215//203 278//266
f 278//266 215//203 216//204
f 278//266 216//204 279//267
f 279//267 216//204 217//205
f 279//267 217//205 280//268
f 280//268 217//205 218//206
f 280//268 218//206 281//269
f 281//269 218//206 219//207
f 281//269 219//207 282//270
f 282//270 219//207 220//208
f 282//270 220//208 283//271
f 283//271 220//208 221//209
f 283//271 221//209 284//272
f 284//272 221//209 222//210
f 284//272 222//210 268//256
f 268//256 222//210 223//211
f 268//256 223//211 224//212
f 151//139 254//242 152//140
f 152//140 254//242 255//243
f 152//140 255//243 139//127
f 139//127 255//243 256//244
f 139//127 256//244 140//128
f 140//128 256//244 257//245
f 140//128 257//245 144//132
f 144//132 257//245 258//246
f 144//132 258//246 145//133
f 145//133 258//246 277//265
f 145//133 277//265 146//134
f 146//134 277//265 278//266
f 146//134 278//266 127//115
f 127//115 278//266 279//267
f 127//115 279//267 128//116
f 128//116 279//267 280//268
f 128//116 280//268 129//117
f 129//117 280//268 281//269
f 129//117 281//269 130//118
f 130//118 281//269 282//270
f 130//118 282//270 136//124
f 136//124 282//270 283//271
f 136//124 283//271 137//125
f 137//125 283//271 284//272
f 137//125 284//272 138//126
f 138//126 284//272 268//256
f 138//126 268//256 117//105
f 117//105 268//256 269//257
f 117//105 269//257 118//106
f 118//106 269//257 270//258
f 118//106 270//258 131//119
f 131//119 270//258 271//259
f 131//119 271//259 132//120
f 132//120 271//259 272//260
f 132//120 272//260 121//109
f 121//109 272//260 273//261
f 121//109 273//261 122//110
f 122//110 273//261 274//262
f 122//110 274//262 123//111
f 123//111 274//262 275//263
f 123//111 275//263 124//112
f 124//112 275//263 276//264
f 124//112 276//264 125//113
f 125//113 276//264 259//247
f 125//113 259//247 133//121
f 133//121 259//247 260//248
f 133//121 260//248 134//122
f 134//122 260//248 261//249
f 134//122 261//249 135//123
f 135//123 261//249 262//250
f 135//123 262//250 126//114
f 126//114 262//250 263//251
f 126//114 263//251 119//107
f 119//107 263//251 264//252
f 119//107 264//252 120//108
f 120//108 264//252 265//253
f 120//108 265//253 141//129
f 141//129 265//253 266//254
f 141//129 266//254 142//130
f 142//130 266//254 267//255
f 142//130 267//255 143//131
f 143//131 267//255 249//237
f 143//131 249//237 147//135
f 147//135 249//237 250//238
f 147//135 250//238 148//136
f 148//136 250//238 251//239
f 148//136 251//239 149//137
f 149//137 251//239 252//240
f 149//137 252//240 150//138
f 150//138 252//240 253//241
f 150//138 253//241 151//139
f 151//139 253//241 254//242
f 285//273 286//274 287//275
f 287//275 286//274 288//276
f 287//275 288//276 289//277
f 289//277 288//276 290//278
f 289//277 290//278 291//279
f 291//279 290//278 292//280
f 291//279 292//280 293//281
f 293//281 292//280 294//282
f 293//281 294//282 295//283
f 295//283 294//282 296//284
f 295//283 296//284 297//285
f 297//285 296//284 298//286
f 297//285 298//286 299//287
f 299//287 298//286 300//288
f 299//287 300//288 301//289
f 301//289 300//288 302//290
f 301//289 302//290 303//291
f 303//291 302//290 304//292
f 303//291 304//292 305//293
f 305//293 304//292 306//294
f 305//293 306//294 307//295
f 307//295 306//294 308//296
f 307//295 308//296 309//297
f 309//297 308//296 310//298
f 309//297 310//298 311//299
f 311//299 310//298 312//300
f 311//299 312//300 313//301
f 313//301 312//300 314//302
f 313//301 314//302 315//303
f 315//303 314//302 316//304
f 315//303 316//304 317//305
f 317//305 316//304 318//306
f 317//305 318//306 319//307
f 319//307 318//306 320//308
f 319//307 320//308 321//309
f 321//309 320//308 322//310
f 321//309 322//310 323//311
f 323//311 322//310 324//312
f 323//311 324//312 325//313
f 325//313 324//312 326//314
f 325//313 326//314 327//315
f 327//315 326//314 328//316
f 327//315 328//316 329//317
f 329//317 328//316 330//318
f 329//317 330//318 331//319
f 331//319 330//318 332//320
f 331//319 332//320 333//321
f 333//321 332//320 334//322
f 333//321 334//322 335//323
f 335//323 334//322 336//324
f 335//323 336//324 337//325
f 337//325 336//324 338//326
f 337//325 338//326 339//327
f 339//327 338//326 340//328
f 339//327 340//328 341//329
f 341//329 340//328 342//330
f 341//329 342//330 343//331
f 343//331 342//330 344//332
f 343//331 344//332 345//333
f 345//333 344//332 346//334
f 345//333 346//334 347//335
f 347//335 346//334 348//336
f 347//335 348//336 349//337
f 349//337 348//336 350//338
f 349//337 350//338 351//339
f 351//339 350//338 352//340
f 351//339 352//340 353//341
f 353//341 352//340 354//342
f 353//341 354//342 355//343
f 355//343 354//342 356//344
f 355//343 356//344 285//273
f 285//273 356//344 286//274
f 288//276 286//274 357//345
f 357//345 286//274 356//344
f 357//345 356//344 354//342
f 294//282 292//280 357//345
f 357//345 292//280 290//278
f 357//345 290//278 288//276
f 300//288 298//286 357//345
f 357//345 298//286 296//284
f 357//345 296//284 294//282
f 306//294 304//292 357//345
f 357//345 304//292 302//290
f 357//345 302//290 300//288
f 312//300 310//298 357//345
f 357//345 310//298 308//296
f 357//345 308//296 306//294
f 318//306 316//304 357//345
f 357//345 316//304 314//302
f 357//345 314//302 312//300
f 324//312 322//310 357//345
f 357//345 322//310 320//308
f 357//345 320//308 318//306
f 330//318 328//316 357//345
f 357//345 328//316 326//314
f 357//345 326//314 324//312
f 336//324 334//322 357//345
f 357//345 334//322 332//320
f 357//345 332//320 330//318
f 342//330 340//328 357//345
f 357//345 340//328 338//326
f 357//345 338//326 336//324
f 348//336 346//334 357//345
f 357//345 346//334 344//332
f 357//345 344//332 342//330
f 354//342 352//340 357//345
f 357//345 352//340 350//338
f 357//345 350//338 348//336
f 358//346 359//347 360//348
f 360//348 359//347 361//349
f 360//348 361//349 362//350
f 363//351 364//352 360//348
f 360//348 364//352 365//353
f 360//348 365//353 358//346
f 366//354 367//355 360//348
f 360//348 367//355 368//356
f 360//348 368//356 363//351
f 369//357 370//358 360//348
f 360//348 370//358 371//359
f 360//348 371//359 366//354
f 372//360 373//361 360//348
f 360//348 373//361 374//362
f 360//348 374//362 369//357
f 375//363 376//364 360//348
f 360//348 376//364 377//365
f 360//348 377//365 372//360
f 378//366 379//367 360//348
f 360//348 379//367 380//368
f 360//348 380//368 375//363
f 381//369 382//370 360//348
f 360//348 382//370 383//371
f 360//348 383//371 378//366
f 384//372 385//373 360//348
f 360//348 385//373 386//374
f 360//348 386//374 381//369
f 387//375 388//376 360//348
f 360//348 388//376 389//377
f 360//348 389//377 384//372
f 390//378 391//379 360//348
f 360//348 391//379 392//380
f 360//348 392//380 387//375
f 362//350 393//381 360//348
f 360//348 393//381 394//382
f 360//348 394//382 390//378
f 361//349 395//274 362//350
f 362//350 395//274 396//276
f 362//350 396//276 393//381
f 393//381 396//276 397//383
f 393//381 397//383 394//382
f 394//382 397//383 398//280
f 394//382 398//280 390//378
f 390//378 398//280 399//282
f 390//378 399//282 391//379
f 391//379 399//282 400//284
f 391//379 400//284 392//380
f 392//380 400//284 401//286
f 392//380 401//286 387//375
f 387//375 401//286 402//288
f 387//375 402//288 388//376
f 388//376 402//288 403//290
f 388//376 403//290 389//377
f 389//377 403//290 404//292
f 389//377 404//292 384//372
f 384//372 404//292 405//294
f 384//372 405//294 385//373
f 385//373 405//294 406//384
f 385//373 406//384 386//374
f 386//374 406//384 407//298
f 386//374 407//298 381//369
f 381//369 407//298 408//300
f 381//369 408//300 382//370
f 382//370 408//300 409//302
f 382//370 409//302 383//371
f 383//371 409//302 410//304
f 383//371 410//304 378//366
f 378//366 410//304 411//306
f 378//366 411//306 379//367
f 379//367 411//306 412//308
f 379//367 412//308 380//368
f 380//368 412//308 413//310
f 380//368 413//310 375//363
f 375//363 413//310 414//312
f 375//363 414//312 376//364
f 376//364 414//312 415//385
f 376//364 415//385 377//365
f 377//365 415//385 416//316
f 377//365 416//316 372//360
f 372//360 416//316 417//318
f 372//360 417//318 373//361
f 373//361 417//318 418//320
f 373//361 418//320 374//362
f 374//362 418//320 419//322
f 374//362 419//322 369//357
f 369//357 419//322 420//324
f 369//357 420//324 370//358
f 370//358 420//324 421//326
f 370//358 421//326 371//359
f 371//359 421//326 422//328
f 371//359 422//328 366//354
f 366//354 422//328 423//330
f 366//354 423//330 367//355
f 367//355 423//330 424//386
f 367//355 424//386 368//356
f 368//356 424//386 425//334
f 368//356 425//334 363//351
f 363//351 425//334 426//336
f 363//351 426//336 364//352
f 364//352 426//336 427//338
f 364//352 427//338 365//353
f 365//353 427//338 428//340
f 365//353 428//340 358//346
f 358//346 428//340 429//342
f 358//346 429//342 359//347
f 359//347 429//342 430//344
f 359//347 430//344 361//349
f 361//349 430//344 395//274
f 313//301 408//300 311//299
f 311//299 408//300 407//298
f 311//299 407//298 309//297
f 309//297 407//298 406//384
f 309//297 406//384 307//295
f 307//295 406//384 405//294
f 307//295 405//294 305//293
f 305//293 405//294 404//292
f 305//293 404//292 303//291
f 303//291 404//292 403//290
f 303//291 403//290 301//289
f 301//289 403//290 402//288
f 301//289 402//288 299//287
f 299//287 402//288 401//286
f 299//287 401//286 297//285
f 297//285 401//286 400//284
f 297//285 400//284 295//283
f 295//283 400//284 399//282
f 295//283 399//282 293//281
f 293//281 399//282 398//280
f 293//281 398//280 291//279
f 291//279 398//280 397//383
f 291//279 397//383 289//277
f 289//277 397//383 396//276
f 289//277 396//276 287//275
f 287//275 396//276 395//274
f 287//275 395//274 285//273
f 285//273 395//274 430//344
f 285//273 430//344 355//343
f 355//343 430//344 429//342
f 355//343 429//342 353//341
f 353//341 429//342 428//340
f 353//341 428//340 351//339
f 351//339 428//340 427//338
f 351//339 427//338 349//337
f 349//337 427//338 426//336
f 349//337 426//336 347//335
f 347//335 426//336 425//334
f 347//335 425//334 345//333
f 345//333 425//334 424//386
f 345//333 424//386 343//331
f 343//331 424//386 423//330
f 343//331 423//330 341//329
f 341//329 423//330 422//328
f 341//329 422//328 339//327
f 339//327 422//328 421//326
f 339//327 421//326 337//325
f 337//325 421//326 420//324
f 337//325 420//324 335//323
f 335//323 420//324 419//322
f 335//323 419//322 333//321
f 333//321 419//322 418//320
f 333//321 418//320 331//319
f 331//319 418//320 417//318
f 331//319 417//318 329//317
f 329//317 417//318 416//316
f 329//317 416//316 327//315
f 327//315 416//316 415//385
f 327//315 415//385 325//313
f 325//313 415//385 414//312
f 325//313 414//312 323//311
f 323//311 414//312 413//310
f 323//311 413//310 321//309
f 321//309 413//310 412//308
f 321//309 412//308 319//307
f 319//307 412//308 411//306
f 319//307 411//306 317//305
f 317//305 411//306 410//304
f 317//305 410//304 315//303
f 315//303 410//304 409//302
f 315//303 409//302 313//301
f 313//301 409//302 408//300
