# Blender v3.6.0 OBJ File: 'Valves.blend'
# www.blender.org
mtllib ValveBall2_Red.mtl
o 9_ValveBall2_Red_ValveBall2_Red.001
v 0.120000 -0.150001 0.000000
v 0.120000 -0.164539 0.012330
v 0.120000 -0.148153 0.023465
v 0.120000 -0.160864 0.036716
v 0.120000 -0.142659 0.046352
v 0.120000 -0.153594 0.060281
v 0.120000 -0.133652 0.068098
v 0.120000 -0.142895 0.082500
v 0.120000 -0.121353 0.088167
v 0.120000 -0.129004 0.102876
v 0.120000 -0.106067 0.106066
v 0.120000 -0.112229 0.120953
v 0.120000 -0.088168 0.121352
v 0.120000 -0.092949 0.136329
v 0.120000 -0.068099 0.133651
v 0.120000 -0.071591 0.148660
v 0.120000 -0.046353 0.142658
v 0.120000 -0.048635 0.157669
v 0.120000 -0.023466 0.148152
v 0.120000 -0.024593 0.163157
v 0.120000 -0.000001 0.150000
v 0.120000 -0.000001 0.165000
v 0.120000 0.023465 0.148152
v 0.120000 0.024591 0.163157
v 0.120000 0.046352 0.142658
v 0.120000 0.048634 0.157669
v 0.120000 0.068097 0.133651
v 0.120000 0.071590 0.148660
v 0.120000 0.088167 0.121352
v 0.120000 0.092947 0.136329
v 0.120000 0.106065 0.106066
v 0.120000 0.112228 0.120953
v 0.120000 0.121352 0.088167
v 0.120000 0.129002 0.102876
v 0.120000 0.133651 0.068098
v 0.120000 0.142894 0.082500
v 0.120000 0.142658 0.046352
v 0.120000 0.153593 0.060281
v 0.120000 0.148152 0.023465
v 0.120000 0.160862 0.036716
v 0.120000 0.150000 0.000000
v 0.120000 0.164538 0.012330
v 0.120000 0.164538 -0.012331
v 0.120000 0.148152 -0.023466
v 0.120000 0.160862 -0.036716
v 0.120000 0.142658 -0.046352
v 0.120000 0.153593 -0.060281
v 0.120000 0.133651 -0.068098
v 0.120000 0.142894 -0.082500
v 0.120000 0.121352 -0.088168
v 0.120000 0.129002 -0.102877
v 0.120000 0.106065 -0.106066
v 0.120000 0.112228 -0.120954
v 0.120000 0.088167 -0.121353
v 0.120000 0.092947 -0.136330
v 0.120000 0.068097 -0.133652
v 0.120000 0.071590 -0.148660
v 0.120000 0.046352 -0.142659
v 0.120000 0.048634 -0.157670
v 0.120000 0.023465 -0.148153
v 0.120000 0.024591 -0.163157
v 0.120000 -0.000001 -0.150001
v 0.120000 -0.000001 -0.165000
v 0.120000 -0.023466 -0.148153
v 0.120000 -0.024593 -0.163157
v 0.120000 -0.046353 -0.142659
v 0.120000 -0.048635 -0.157670
v 0.120000 -0.068099 -0.133652
v 0.120000 -0.071591 -0.148660
v 0.120000 -0.088168 -0.121353
v 0.120000 -0.092949 -0.136330
v 0.120000 -0.106067 -0.106066
v 0.120000 -0.112229 -0.120954
v 0.120000 -0.121353 -0.088168
v 0.120000 -0.129004 -0.102877
v 0.120000 -0.133652 -0.068098
v 0.120000 -0.142895 -0.082500
v 0.120000 -0.142659 -0.046352
v 0.120000 -0.153594 -0.060281
v 0.120000 -0.148153 -0.023466
v 0.120000 -0.160864 -0.036716
v 0.120000 -0.164539 -0.012331
v -0.150000 0.024591 0.163157
v -0.150000 -0.000001 0.165000
v -0.120000 0.009999 0.164697
v -0.120000 0.024591 0.163157
v -0.120000 0.048634 0.157669
v -0.150000 0.048634 0.157669
v -0.120000 0.071590 0.148660
v -0.150000 0.071590 0.148660
v -0.120000 0.092947 0.136329
v -0.150000 0.092947 0.136329
v -0.120000 0.112228 0.120953
v -0.150000 0.112228 0.120953
v -0.120000 0.129002 0.102876
v -0.150000 0.129002 0.102876
v -0.120000 0.142894 0.082500
v -0.150000 0.142894 0.082500
v -0.120000 0.153593 0.060281
v -0.150000 0.153593 0.060281
v -0.120000 0.160862 0.036716
v -0.150000 0.160862 0.036716
v -0.120000 0.164538 0.012330
v -0.150000 0.164538 0.012330
v -0.120000 0.164538 -0.012331
v -0.150000 0.164538 -0.012331
v -0.120000 0.160862 -0.036716
v -0.150000 0.160862 -0.036716
v -0.120000 0.153593 -0.060281
v -0.150000 0.153593 -0.060281
v -0.120000 0.142894 -0.082500
v -0.150000 0.142894 -0.082500
v -0.120000 0.129002 -0.102877
v -0.150000 0.129002 -0.102877
v -0.120000 0.112228 -0.120954
v -0.150000 0.112228 -0.120954
v -0.120000 0.092947 -0.136330
v -0.150000 0.092947 -0.136330
v -0.120000 0.071590 -0.148660
v -0.150000 0.071590 -0.148660
v -0.120000 0.048634 -0.157670
v -0.150000 0.048634 -0.157670
v -0.120000 0.024591 -0.163157
v -0.150000 0.024591 -0.163157
v -0.120000 -0.000001 -0.165000
v -0.150000 -0.000001 -0.165000
v -0.120000 -0.024593 -0.163157
v -0.150000 -0.024593 -0.163157
v -0.120000 -0.048635 -0.157670
v -0.150000 -0.048635 -0.157670
v -0.120000 -0.071591 -0.148660
v -0.150000 -0.071591 -0.148660
v -0.120000 -0.092949 -0.136330
v -0.150000 -0.092949 -0.136330
v -0.120000 -0.112229 -0.120954
v -0.150000 -0.112229 -0.120954
v -0.120000 -0.129004 -0.102877
v -0.150000 -0.129004 -0.102877
v -0.120000 -0.142895 -0.082500
v -0.150000 -0.142895 -0.082500
v -0.120000 -0.153594 -0.060281
v -0.150000 -0.153594 -0.060281
v -0.120000 -0.160864 -0.036716
v -0.150000 -0.160864 -0.036716
v -0.120000 -0.164539 -0.012331
v -0.150000 -0.164539 -0.012331
v -0.120000 -0.164539 0.012330
v -0.150000 -0.164539 0.012330
v -0.120000 -0.160864 0.036716
v -0.150000 -0.160864 0.036716
v -0.120000 -0.153594 0.060281
v -0.150000 -0.153594 0.060281
v -0.120000 -0.142895 0.082500
v -0.150000 -0.142895 0.082500
v -0.120000 -0.129004 0.102876
v -0.150000 -0.129004 0.102876
v -0.120000 -0.112229 0.120953
v -0.150000 -0.112229 0.120953
v -0.120000 -0.092949 0.136329
v -0.150000 -0.092949 0.136329
v -0.120000 -0.071591 0.148660
v -0.150000 -0.071591 0.148660
v -0.120000 -0.048635 0.157669
v -0.150000 -0.048635 0.157669
v -0.120000 -0.024593 0.163157
v -0.150000 -0.024593 0.163157
v -0.120000 -0.010000 0.164697
v -0.120000 -0.000001 0.165000
v 0.150000 -0.000001 0.165000
v 0.150000 -0.024593 0.163157
v 0.150000 -0.048635 0.157669
v 0.150000 -0.071591 0.148660
v 0.150000 -0.092949 0.136329
v 0.150000 -0.112229 0.120953
v 0.150000 -0.129004 0.102876
v 0.150000 -0.142895 0.082500
v 0.150000 -0.153594 0.060281
v 0.150000 -0.160864 0.036716
v 0.150000 -0.164539 0.012330
v 0.150000 -0.164539 -0.012331
v 0.150000 -0.160864 -0.036716
v 0.150000 -0.153594 -0.060281
v 0.150000 -0.142895 -0.082500
v 0.150000 -0.129004 -0.102877
v 0.150000 -0.112229 -0.120954
v 0.150000 -0.092949 -0.136330
v 0.150000 -0.071591 -0.148660
v 0.150000 -0.048635 -0.157670
v 0.150000 -0.024593 -0.163157
v 0.150000 -0.000001 -0.165000
v 0.150000 0.024591 -0.163157
v 0.150000 0.048634 -0.157670
v 0.150000 0.071590 -0.148660
v 0.150000 0.092947 -0.136330
v 0.150000 0.112228 -0.120954
v 0.150000 0.129002 -0.102877
v 0.150000 0.142894 -0.082500
v 0.150000 0.153593 -0.060281
v 0.150000 0.160862 -0.036716
v 0.150000 0.164538 -0.012331
v 0.150000 0.164538 0.012330
v 0.150000 0.160862 0.036716
v 0.150000 0.153593 0.060281
v 0.150000 0.142894 0.082500
v 0.150000 0.129002 0.102876
v 0.150000 0.112228 0.120953
v 0.150000 0.092947 0.136329
v 0.150000 0.071590 0.148660
v 0.150000 0.048634 0.157669
v 0.150000 0.024591 0.163157
v -0.320000 -0.016177 -0.091740
v -0.320000 -0.000001 -0.093156
v -0.320000 -0.077943 -0.135000
v -0.320000 0.046576 -0.080675
v -0.320000 0.059878 -0.071362
v -0.320000 0.077941 -0.135000
v -0.320000 0.031859 -0.087537
v -0.320000 0.059878 0.071361
v -0.320000 0.046576 0.080675
v -0.320000 0.077941 0.134999
v -0.320000 0.016176 -0.091740
v -0.320000 0.087536 -0.031860
v -0.320000 0.155885 -0.000000
v -0.320000 0.080674 -0.046577
v -0.320000 0.071361 -0.059879
v -0.320000 0.091739 -0.016177
v -0.320000 0.093155 -0.000000
v -0.320000 0.091739 0.016176
v -0.320000 0.031859 0.087536
v -0.320000 0.016176 0.091740
v -0.320000 -0.077943 0.134999
v -0.320000 -0.000001 0.093155
v -0.320000 0.087536 0.031860
v -0.320000 0.080674 0.046576
v -0.320000 0.071361 0.059879
v -0.320000 -0.087537 0.031860
v -0.320000 -0.091740 0.016176
v -0.320000 -0.155886 -0.000000
v -0.320000 -0.093156 -0.000000
v -0.320000 -0.091740 -0.016177
v -0.320000 -0.087537 -0.031860
v -0.320000 -0.080676 -0.046577
v -0.320000 -0.071362 -0.059879
v -0.320000 -0.059879 -0.071362
v -0.320000 -0.046577 -0.080675
v -0.320000 -0.031861 -0.087537
v -0.320000 -0.016177 0.091740
v -0.320000 -0.031861 0.087536
v -0.320000 -0.046577 0.080675
v -0.320000 -0.059879 0.071361
v -0.320000 -0.071362 0.059879
v -0.320000 -0.080676 0.046576
v 0.320000 0.046576 -0.080675
v 0.320000 0.031859 -0.087537
v 0.320000 0.077941 -0.135000
v 0.320000 -0.077943 0.134999
v 0.320000 -0.000001 0.093155
v 0.320000 0.077941 0.134999
v 0.320000 0.016176 0.091740
v 0.320000 0.059878 -0.071362
v 0.320000 0.031859 0.087536
v 0.320000 0.046576 0.080675
v 0.320000 0.059878 0.071361
v 0.320000 0.091739 -0.016177
v 0.320000 0.155885 0.000000
v 0.320000 0.093155 0.000000
v 0.320000 0.091739 0.016176
v 0.320000 0.071361 0.059879
v 0.320000 0.080674 0.046576
v 0.320000 0.087536 0.031860
v 0.320000 0.087536 -0.031860
v 0.320000 0.080674 -0.046577
v 0.320000 0.071361 -0.059879
v 0.320000 -0.031861 -0.087537
v 0.320000 -0.046577 -0.080675
v 0.320000 -0.077943 -0.135000
v 0.320000 -0.059879 -0.071362
v 0.320000 -0.059879 0.071361
v 0.320000 -0.046577 0.080675
v 0.320000 -0.091740 0.016176
v 0.320000 -0.155886 0.000000
v 0.320000 -0.093156 0.000000
v 0.320000 -0.091740 -0.016177
v 0.320000 -0.031861 0.087536
v 0.320000 -0.016177 0.091740
v 0.320000 0.016176 -0.091740
v 0.320000 -0.000001 -0.093156
v 0.320000 -0.016177 -0.091740
v 0.320000 -0.071362 -0.059879
v 0.320000 -0.080676 -0.046577
v 0.320000 -0.087537 -0.031860
v 0.320000 -0.087537 0.031860
v 0.320000 -0.080676 0.046576
v 0.320000 -0.071362 0.059879
v -0.120000 0.009999 0.240000
v -0.089443 0.009999 0.240000
v -0.089443 0.009999 0.149667
v -0.120000 0.009999 0.149667
v -0.120000 -0.010000 0.149667
v -0.089443 -0.010000 0.149667
v -0.089443 -0.010000 0.240000
v -0.120000 -0.010000 0.240000
v -0.150000 0.075000 -0.000000
v 0.150000 0.075000 0.000000
v -0.150000 0.073860 0.013023
v 0.150000 0.073860 0.013023
v -0.150000 0.070477 0.025652
v 0.150000 0.070477 0.025652
v -0.150000 0.064952 0.037499
v 0.150000 0.064952 0.037499
v -0.150000 0.057453 0.048209
v 0.150000 0.057453 0.048209
v -0.150000 0.048208 0.057453
v 0.150000 0.048208 0.057453
v -0.150000 0.037499 0.064952
v 0.150000 0.037499 0.064952
v -0.150000 0.025651 0.070477
v 0.150000 0.025651 0.070477
v -0.150000 0.013023 0.073861
v 0.150000 0.013023 0.073861
v -0.150000 -0.000001 0.075000
v 0.150000 -0.000001 0.075000
v -0.150000 -0.013024 0.073861
v 0.150000 -0.013024 0.073861
v -0.150000 -0.025653 0.070477
v 0.150000 -0.025653 0.070477
v -0.150000 -0.037500 0.064952
v 0.150000 -0.037500 0.064952
v -0.150000 -0.048210 0.057453
v 0.150000 -0.048210 0.057453
v -0.150000 -0.057454 0.048209
v 0.150000 -0.057454 0.048209
v -0.150000 -0.064953 0.037499
v 0.150000 -0.064953 0.037499
v -0.150000 -0.070477 0.025652
v 0.150000 -0.070477 0.025652
v -0.150000 -0.073862 0.013023
v 0.150000 -0.073862 0.013023
v -0.150000 -0.075001 -0.000000
v 0.150000 -0.075001 0.000000
v -0.150000 -0.073862 -0.013024
v 0.150000 -0.073862 -0.013024
v -0.150000 -0.070477 -0.025652
v 0.150000 -0.070477 -0.025652
v -0.150000 -0.064953 -0.037500
v 0.150000 -0.064953 -0.037500
v -0.150000 -0.057454 -0.048209
v 0.150000 -0.057454 -0.048209
v -0.150000 -0.048210 -0.057454
v 0.150000 -0.048210 -0.057454
v -0.150000 -0.037500 -0.064953
v 0.150000 -0.037500 -0.064953
v -0.150000 -0.025653 -0.070477
v 0.150000 -0.025653 -0.070477
v -0.150000 -0.013024 -0.073861
v 0.150000 -0.013024 -0.073861
v -0.150000 -0.000001 -0.075001
v 0.150000 -0.000001 -0.075001
v -0.150000 0.013023 -0.073861
v 0.150000 0.013023 -0.073861
v -0.150000 0.025651 -0.070477
v 0.150000 0.025651 -0.070477
v -0.150000 0.037499 -0.064953
v 0.150000 0.037499 -0.064953
v -0.150000 0.048208 -0.057454
v 0.150000 0.048208 -0.057454
v -0.150000 0.057453 -0.048209
v 0.150000 0.057453 -0.048209
v -0.150000 0.064952 -0.037500
v 0.150000 0.064952 -0.037500
v -0.150000 0.070477 -0.025652
v 0.150000 0.070477 -0.025652
v -0.150000 0.073860 -0.013024
v 0.150000 0.073860 -0.013024
v -0.010261 -0.028192 0.480000
v -0.005209 -0.029545 0.480000
v -0.000000 -0.000001 0.480000
v -0.000000 -0.030001 0.480000
v 0.005209 -0.029545 0.480000
v -0.022981 -0.019284 0.480000
v -0.019284 -0.022982 0.480000
v -0.015000 -0.025981 0.480000
v -0.029544 -0.005211 0.480000
v -0.028191 -0.010261 0.480000
v -0.025981 -0.015000 0.480000
v -0.028191 0.010260 0.480000
v -0.029544 0.005209 0.480000
v -0.030000 -0.000001 0.480000
v -0.019284 0.022981 0.480000
v -0.022981 0.019283 0.480000
v -0.025981 0.014999 0.480000
v -0.005209 0.029544 0.480000
v -0.010261 0.028191 0.480000
v -0.015000 0.025980 0.480000
v 0.010261 0.028191 0.480000
v 0.005209 0.029544 0.480000
v -0.000000 0.030000 0.480000
v 0.022981 0.019283 0.480000
v 0.019284 0.022981 0.480000
v 0.015000 0.025980 0.480000
v 0.029544 0.005209 0.480000
v 0.028191 0.010260 0.480000
v 0.025981 0.014999 0.480000
v 0.028191 -0.010261 0.480000
v 0.029544 -0.005211 0.480000
v 0.030000 -0.000001 0.480000
v 0.019284 -0.022982 0.480000
v 0.022981 -0.019284 0.480000
v 0.025981 -0.015000 0.480000
v 0.010261 -0.028192 0.480000
v 0.015000 -0.025981 0.480000
v 0.005209 -0.029545 0.240000
v 0.010261 -0.028192 0.240000
v 0.015000 -0.025981 0.240000
v 0.019284 -0.022982 0.240000
v 0.022981 -0.019284 0.240000
v 0.025981 -0.015000 0.240000
v 0.028191 -0.010261 0.240000
v 0.029544 -0.005211 0.240000
v 0.030000 -0.000001 0.240000
v 0.029544 0.005209 0.240000
v 0.028191 0.010260 0.240000
v 0.025981 0.014999 0.240000
v 0.022981 0.019283 0.240000
v 0.019284 0.022981 0.240000
v 0.015000 0.025980 0.240000
v 0.010261 0.028191 0.240000
v 0.005209 0.029544 0.240000
v -0.000000 0.030000 0.240000
v -0.005209 0.029544 0.240000
v -0.010261 0.028191 0.240000
v -0.015000 0.025980 0.240000
v -0.019284 0.022981 0.240000
v -0.022981 0.019283 0.240000
v -0.025981 0.014999 0.240000
v -0.028191 0.010260 0.240000
v -0.029544 0.005209 0.240000
v -0.030000 -0.000001 0.240000
v -0.029544 -0.005211 0.240000
v -0.028191 -0.010261 0.240000
v -0.025981 -0.015000 0.240000
v -0.022981 -0.019284 0.240000
v -0.019284 -0.022982 0.240000
v -0.015000 -0.025981 0.240000
v -0.010261 -0.028192 0.240000
v -0.005209 -0.029545 0.240000
v -0.000000 -0.030001 0.240000
v -0.088633 -0.015629 0.240000
v -0.084572 -0.030782 0.240000
v -0.077942 -0.045001 0.240000
v -0.068944 -0.057851 0.240000
v -0.057851 -0.068945 0.240000
v -0.045000 -0.077943 0.240000
v -0.030782 -0.084574 0.240000
v -0.015628 -0.088634 0.240000
v -0.000000 -0.090000 0.240000
v 0.015628 -0.088634 0.240000
v 0.030782 -0.084574 0.240000
v 0.045000 -0.077943 0.240000
v 0.057851 -0.068945 0.240000
v 0.068944 -0.057851 0.240000
v 0.077942 -0.045001 0.240000
v 0.084572 -0.030782 0.240000
v 0.088633 -0.015629 0.240000
v 0.090000 -0.000001 0.240000
v 0.088633 0.015628 0.240000
v 0.084572 0.030781 0.240000
v 0.077942 0.044999 0.240000
v 0.068944 0.057850 0.240000
v 0.057851 0.068943 0.240000
v 0.045000 0.077941 0.240000
v 0.030782 0.084572 0.240000
v 0.015628 0.088633 0.240000
v -0.000000 0.089999 0.240000
v -0.015628 0.088633 0.240000
v -0.030782 0.084572 0.240000
v -0.045000 0.077941 0.240000
v -0.057851 0.068943 0.240000
v -0.068944 0.057850 0.240000
v -0.077942 0.044999 0.240000
v -0.084572 0.030781 0.240000
v -0.088633 0.015628 0.240000
v 0.060976 -0.066198 0.134603
v 0.058779 -0.068156 0.133621
v -0.088431 -0.016733 0.149063
v -0.120000 -0.023466 0.148152
v -0.077938 -0.045010 0.143088
v -0.080363 -0.040521 0.144423
v -0.120000 -0.046353 0.142658
v -0.083853 -0.032694 0.146394
v -0.084570 -0.030789 0.146807
v -0.086518 -0.024793 0.147937
v -0.059299 -0.067703 0.133851
v -0.065510 -0.061714 0.136716
v -0.120000 -0.068099 0.133651
v -0.068941 -0.057856 0.138393
v -0.071176 -0.055082 0.139520
v -0.076126 -0.048011 0.142109
v -0.077128 -0.046384 0.142649
v -0.120000 -0.088168 0.121352
v -0.030782 -0.084574 0.123885
v -0.030855 -0.084546 0.123902
v -0.038177 -0.081503 0.125925
v -0.045002 -0.077941 0.128160
v -0.045584 -0.077603 0.128366
v -0.052505 -0.073099 0.130982
v -0.057852 -0.068943 0.133218
v -0.058823 -0.068117 0.133641
v 0.017732 -0.088237 0.121303
v -0.000141 -0.090000 0.120000
v -0.007938 -0.089650 0.120262
v -0.120000 -0.106067 0.106066
v -0.000000 -0.090000 0.120000
v 0.015613 -0.088637 0.121011
v 0.007714 -0.089670 0.120248
v -0.015622 -0.088634 0.121012
v -0.017758 -0.088232 0.121305
v -0.023247 -0.086946 0.122230
v 0.057853 -0.068945 0.133216
v 0.054357 -0.071732 0.131737
v 0.047147 -0.076664 0.128928
v 0.045007 -0.077940 0.128161
v 0.039652 -0.080795 0.126382
v 0.031612 -0.084267 0.124093
v 0.030786 -0.084572 0.123885
v 0.023722 -0.086819 0.122321
v 0.072373 -0.053500 0.140134
v 0.068941 -0.057856 0.138393
v 0.067034 -0.060055 0.137453
v 0.084164 -0.031881 0.146572
v 0.080959 -0.039316 0.144755
v 0.088506 -0.016330 0.149109
v 0.086886 -0.023472 0.148151
v 0.086700 -0.024149 0.148043
v 0.084571 -0.030787 0.146807
v 0.077940 -0.045007 0.143089
v 0.077143 -0.046358 0.142657
v 0.077011 -0.046576 0.142585
v 0.090000 -0.000001 0.150000
v 0.089999 -0.000313 0.150000
v 0.089613 -0.008348 0.149768
v 0.088633 -0.015631 0.149183
v 0.086887 0.023469 0.148152
v 0.088583 0.015907 0.149154
v 0.088633 0.015628 0.149183
v 0.089666 0.007754 0.149799
v 0.077939 0.045007 0.143088
v 0.080769 0.039705 0.144650
v 0.084141 0.031941 0.146560
v 0.084571 0.030786 0.146807
v 0.086761 0.023928 0.148078
v 0.059902 0.067171 0.134120
v 0.066135 0.061042 0.137017
v 0.068941 0.057856 0.138393
v 0.071714 0.054380 0.139794
v 0.076611 0.047230 0.142370
v 0.077135 0.046371 0.142653
v 0.031521 0.084300 0.124069
v 0.030786 0.084571 0.123885
v 0.024055 0.086725 0.122387
v 0.039065 0.081079 0.126199
v 0.045005 0.077940 0.128161
v 0.046207 0.077233 0.128588
v 0.053337 0.072492 0.131319
v 0.057853 0.068943 0.133216
v 0.058804 0.068134 0.133633
v -0.015632 0.088633 0.121013
v -0.120000 0.106065 0.106066
v -0.017687 0.088245 0.121296
v -0.120000 0.088167 0.121352
v -0.022748 0.087078 0.122136
v 0.001002 0.089994 0.120004
v 0.008722 0.089576 0.120316
v -0.014861 0.088764 0.120916
v -0.006863 0.089738 0.120195
v -0.000001 0.089999 0.120000
v 0.015631 0.088633 0.121013
v 0.016410 0.088491 0.121117
v 0.017835 0.088215 0.121318
v -0.052815 0.072874 0.131107
v -0.045603 0.077590 0.128372
v -0.045002 0.077940 0.128160
v -0.037853 0.081654 0.125828
v -0.030785 0.084571 0.123885
v -0.030091 0.084820 0.123715
v -0.065786 0.061419 0.136849
v -0.120000 0.068097 0.133651
v -0.068941 0.057855 0.138393
v -0.071269 0.054960 0.139567
v -0.059650 0.067393 0.134007
v -0.058809 0.068128 0.133636
v -0.057852 0.068942 0.133218
v -0.083561 0.033431 0.146227
v -0.080160 0.040917 0.144311
v -0.120000 0.046352 0.142658
v -0.077938 0.045007 0.143088
v -0.077129 0.046381 0.142649
v -0.076083 0.048078 0.142086
v -0.120000 0.023465 0.148152
v -0.088186 0.017982 0.148918
v -0.086211 0.025841 0.147758
v -0.084570 0.030788 0.146807
v -0.120000 -0.121353 0.088167
v -0.120000 -0.133652 0.068098
v -0.120000 -0.142659 0.046352
v -0.120000 -0.148153 0.023465
v -0.120000 -0.150001 -0.000000
v -0.120000 -0.148153 -0.023466
v -0.120000 -0.142659 -0.046352
v -0.120000 -0.133652 -0.068098
v -0.120000 -0.121353 -0.088168
v -0.120000 -0.106067 -0.106066
v -0.120000 -0.088168 -0.121353
v -0.120000 -0.068099 -0.133652
v -0.120000 -0.046353 -0.142659
v -0.120000 -0.023466 -0.148153
v -0.120000 -0.000001 -0.150001
v -0.120000 0.023465 -0.148153
v -0.120000 0.046352 -0.142659
v -0.120000 0.068097 -0.133652
v -0.120000 0.088167 -0.121353
v -0.120000 0.106065 -0.106066
v -0.120000 0.121352 -0.088168
v -0.120000 0.133651 -0.068098
v -0.120000 0.142658 -0.046352
v -0.120000 0.148152 -0.023466
v -0.120000 0.150000 -0.000000
v -0.120000 0.148152 0.023465
v -0.120000 0.142658 0.046352
v -0.120000 0.133651 0.068098
v -0.120000 0.121352 0.088167
v -0.150000 0.077941 0.134999
v -0.150000 -0.077943 0.134999
v -0.150000 -0.155886 -0.000000
v -0.150000 -0.077943 -0.135000
v -0.150000 0.077941 -0.135000
v -0.150000 0.155885 -0.000000
v 0.150000 -0.077943 0.134999
v 0.150000 0.077941 0.134999
v 0.150000 0.155885 0.000000
v 0.150000 0.077941 -0.135000
v 0.150000 -0.077943 -0.135000
v 0.150000 -0.155886 0.000000
v 0.150000 0.080674 -0.046577
v 0.150000 0.071361 -0.059879
v 0.150000 0.059878 -0.071362
v 0.150000 0.046576 -0.080675
v 0.150000 0.031859 -0.087537
v 0.150000 0.016176 -0.091740
v 0.150000 -0.000001 -0.093156
v 0.150000 -0.016177 -0.091740
v 0.150000 -0.031861 -0.087537
v 0.150000 -0.046577 -0.080675
v 0.150000 -0.059879 -0.071362
v 0.150000 -0.071362 -0.059879
v 0.150000 -0.080676 -0.046577
v 0.150000 -0.087537 -0.031860
v 0.150000 -0.091740 -0.016177
v 0.150000 -0.093156 0.000000
v 0.150000 -0.091740 0.016176
v 0.150000 -0.087537 0.031860
v 0.150000 -0.080676 0.046576
v 0.150000 -0.071362 0.059879
v 0.150000 -0.059879 0.071361
v 0.150000 -0.046577 0.080675
v 0.150000 -0.031861 0.087536
v 0.150000 -0.016177 0.091740
v 0.150000 -0.000001 0.093155
v 0.150000 0.016176 0.091740
v 0.150000 0.031859 0.087536
v 0.150000 0.046576 0.080675
v 0.150000 0.059878 0.071361
v 0.150000 0.071361 0.059879
v 0.150000 0.080674 0.046576
v 0.150000 0.087536 0.031860
v 0.150000 0.091739 0.016176
v 0.150000 0.093155 0.000000
v 0.150000 0.091739 -0.016177
v 0.150000 0.087536 -0.031860
v -0.150000 -0.000001 0.093155
v -0.150000 -0.016177 0.091740
v -0.150000 -0.031861 0.087536
v -0.150000 -0.046577 0.080675
v -0.150000 -0.059879 0.071361
v -0.150000 -0.071362 0.059879
v -0.150000 -0.080676 0.046576
v -0.150000 -0.087537 0.031860
v -0.150000 -0.091740 0.016176
v -0.150000 -0.093156 -0.000000
v -0.150000 -0.091740 -0.016177
v -0.150000 -0.087537 -0.031860
v -0.150000 -0.080676 -0.046577
v -0.150000 -0.071362 -0.059879
v -0.150000 -0.059879 -0.071362
v -0.150000 -0.046577 -0.080675
v -0.150000 -0.031861 -0.087537
v -0.150000 -0.016177 -0.091740
v -0.150000 -0.000001 -0.093156
v -0.150000 0.016176 -0.091740
v -0.150000 0.031859 -0.087537
v -0.150000 0.046576 -0.080675
v -0.150000 0.059878 -0.071362
v -0.150000 0.071361 -0.059879
v -0.150000 0.080674 -0.046577
v -0.150000 0.087536 -0.031860
v -0.150000 0.091739 -0.016177
v -0.150000 0.093155 -0.000000
v -0.150000 0.091739 0.016176
v -0.150000 0.087536 0.031860
v -0.150000 0.080674 0.046576
v -0.150000 0.071361 0.059879
v -0.150000 0.059878 0.071361
v -0.150000 0.046576 0.080675
v -0.150000 0.031859 0.087536
v -0.150000 0.016176 0.091740
vn -1.0000 0.0000 0.0000
vn -0.0148 0.0747 0.9971
vn -0.0000 0.1050 0.9945
vn 0.0000 0.2225 0.9749
vn 0.0000 0.3653 0.9309
vn 0.0000 0.5000 0.8660
vn 0.0000 0.6235 0.7818
vn -0.0000 0.7330 0.6802
vn 0.0000 0.8262 0.5633
vn -0.0000 0.9010 0.4338
vn -0.0000 0.9556 0.2948
vn -0.0000 0.9888 0.1491
vn 0.0000 1.0000 0.0000
vn 0.0000 0.9888 -0.1491
vn 0.0000 0.9556 -0.2948
vn 0.0000 0.9010 -0.4338
vn 0.0000 0.8263 -0.5633
vn 0.0000 0.7330 -0.6802
vn 0.0000 0.6235 -0.7818
vn 0.0000 0.5000 -0.8660
vn 0.0000 0.3654 -0.9309
vn -0.0000 0.2225 -0.9749
vn -0.0000 0.0747 -0.9972
vn 0.0000 -0.0747 -0.9972
vn 0.0000 -0.2225 -0.9749
vn 0.0000 -0.3654 -0.9309
vn 0.0000 -0.5000 -0.8660
vn 0.0000 -0.6235 -0.7818
vn 0.0000 -0.7330 -0.6802
vn 0.0000 -0.8263 -0.5633
vn 0.0000 -0.9010 -0.4338
vn 0.0000 -0.9556 -0.2948
vn 0.0000 -0.9888 -0.1490
vn 0.0000 -1.0000 -0.0000
vn -0.0000 -0.9888 0.1490
vn -0.0000 -0.9556 0.2948
vn -0.0000 -0.9010 0.4338
vn -0.0000 -0.8263 0.5633
vn -0.0000 -0.7330 0.6802
vn 0.0000 -0.6235 0.7818
vn 0.0000 -0.5000 0.8660
vn -0.0000 -0.3653 0.9309
vn -0.0000 -0.2225 0.9749
vn -0.0000 -0.1049 0.9945
vn -0.0148 -0.0747 0.9971
vn -0.0000 -0.0303 0.9995
vn 0.0000 0.0303 0.9995
vn -0.0000 -0.0747 0.9972
vn 0.0000 0.0747 0.9972
vn 1.0000 0.0000 0.0000
vn -0.0000 -0.9962 -0.0872
vn -0.0000 -0.9659 -0.2588
vn -0.0000 -0.9063 -0.4227
vn 0.0000 -0.8192 -0.5736
vn 0.0000 -0.7071 -0.7071
vn 0.0000 -0.5736 -0.8191
vn 0.0000 -0.4226 -0.9063
vn 0.0000 -0.2588 -0.9659
vn 0.0000 -0.0871 -0.9962
vn 0.0000 0.0871 -0.9962
vn 0.0000 0.2588 -0.9659
vn 0.0000 0.4227 -0.9063
vn 0.0000 0.5736 -0.8192
vn 0.0000 0.7071 -0.7071
vn 0.0000 0.8192 -0.5736
vn 0.0000 0.9063 -0.4226
vn 0.0000 0.9659 -0.2589
vn 0.0000 0.9962 -0.0871
vn 0.0000 0.9962 0.0871
vn 0.0000 0.9659 0.2589
vn 0.0000 0.9063 0.4226
vn -0.0000 0.8191 0.5736
vn -0.0000 0.7071 0.7071
vn -0.0000 0.5736 0.8192
vn -0.0000 0.4226 0.9063
vn -0.0000 0.2588 0.9659
vn -0.0000 0.0872 0.9962
vn -0.0000 -0.0872 0.9962
vn -0.0000 -0.2588 0.9659
vn -0.0000 -0.4226 0.9063
vn -0.0000 -0.5736 0.8191
vn -0.0000 -0.7071 0.7071
vn -0.0000 -0.8191 0.5736
vn -0.0000 -0.9063 0.4226
vn -0.0000 -0.9659 0.2588
vn -0.0000 -0.9962 0.0872
vn 0.0000 0.0000 1.0000
vn 0.0872 -0.9962 0.0000
vn 0.2587 -0.9660 0.0000
vn 0.4228 -0.9062 0.0000
vn 0.5735 -0.8192 0.0000
vn 0.7072 -0.7070 0.0000
vn 0.8191 -0.5736 0.0000
vn 0.9063 -0.4226 0.0000
vn 0.9659 -0.2588 0.0000
vn 0.9962 -0.0872 0.0000
vn 0.9962 0.0872 0.0000
vn 0.9659 0.2587 0.0000
vn 0.9063 0.4226 0.0000
vn 0.8191 0.5736 0.0000
vn 0.7072 0.7070 0.0000
vn 0.5735 0.8192 0.0000
vn 0.4228 0.9062 0.0000
vn 0.2587 0.9660 0.0000
vn 0.0872 0.9962 0.0000
vn -0.0872 0.9962 -0.0000
vn -0.2587 0.9660 -0.0000
vn -0.4228 0.9062 -0.0000
vn -0.5735 0.8192 -0.0000
vn -0.7072 0.7070 -0.0000
vn -0.8191 0.5736 -0.0000
vn -0.9063 0.4226 -0.0000
vn -0.9659 0.2587 -0.0000
vn -0.9962 0.0872 -0.0000
vn -0.9962 -0.0872 -0.0000
vn -0.9659 -0.2588 -0.0000
vn -0.9063 -0.4226 -0.0000
vn -0.8191 -0.5736 -0.0000
vn -0.7072 -0.7070 -0.0000
vn -0.5735 -0.8192 -0.0000
vn -0.4228 -0.9062 -0.0000
vn -0.2587 -0.9660 -0.0000
vn -0.0872 -0.9962 -0.0000
vn -0.0001 -0.0000 1.0000
vn 0.0000 -0.4479 0.8941
vn 0.0000 -0.0893 0.9960
vn -0.0048 -0.1118 0.9937
vn -0.0007 -0.2854 0.9584
vn -0.0068 -0.2470 0.9690
vn -0.0183 -0.2184 0.9757
vn -0.0113 -0.2334 0.9723
vn -0.0010 -0.1855 0.9826
vn 0.0009 -0.1382 0.9904
vn -0.0002 -0.4317 0.9020
vn -0.0044 -0.4019 0.9157
vn -0.0090 -0.3826 0.9239
vn -0.0178 -0.3547 0.9348
vn -0.0029 -0.3827 0.9239
vn 0.0005 -0.3050 0.9524
vn -0.0000 -0.3150 0.9491
vn 0.0001 -0.3061 0.9520
vn -0.0000 -0.3044 0.9526
vn -0.0026 -0.5324 0.8465
vn -0.0012 -0.5556 0.8314
vn -0.0050 -0.5287 0.8488
vn -0.0035 -0.5363 0.8440
vn -0.0051 -0.5281 0.8491
vn -0.0055 -0.5260 0.8505
vn -0.0083 -0.5118 0.8591
vn -0.0153 -0.4889 0.8722
vn -0.0012 -0.5225 0.8526
vn -0.0000 -0.4525 0.8918
vn -0.0000 -0.4562 0.8899
vn -0.0000 -0.4528 0.8916
vn -0.0000 -0.4521 0.8920
vn 0.0001 -0.6494 0.7604
vn -0.0031 -0.6421 0.7667
vn 0.0000 -0.6553 0.7554
vn -0.0000 -0.6552 0.7555
vn 0.0090 -0.6194 0.7850
vn 0.0085 -0.6214 0.7835
vn 0.0086 -0.6209 0.7838
vn 0.0068 -0.6272 0.7789
vn 0.0029 -0.6428 0.7660
vn -0.0069 -0.6269 0.7791
vn -0.0084 -0.6215 0.7833
vn -0.0086 -0.6211 0.7837
vn -0.0089 -0.6199 0.7846
vn -0.0001 -0.6494 0.7604
vn -0.0000 -0.5821 0.8131
vn -0.0000 -0.5836 0.8120
vn -0.0001 -0.5755 0.8178
vn -0.0002 -0.5726 0.8198
vn 0.0001 -0.5225 0.8526
vn 0.0207 -0.4757 0.8794
vn 0.0201 -0.4771 0.8786
vn 0.0198 -0.4778 0.8782
vn 0.0169 -0.4851 0.8743
vn 0.0099 -0.5057 0.8626
vn 0.0061 -0.5227 0.8525
vn 0.0057 -0.5248 0.8512
vn 0.0058 -0.5243 0.8515
vn 0.0039 -0.5341 0.8454
vn 0.0009 -0.5612 0.8277
vn 0.0014 -0.5528 0.8333
vn 0.0012 -0.5556 0.8314
vn 0.0007 -0.5647 0.8253
vn -0.0001 -0.5819 0.8133
vn 0.0002 -0.5718 0.8204
vn 0.0001 -0.5747 0.8184
vn 0.0000 -0.5832 0.8123
vn 0.0101 -0.3780 0.9258
vn 0.0056 -0.3971 0.9177
vn 0.0010 -0.4217 0.9067
vn 0.0087 -0.2409 0.9705
vn -0.0000 -0.1329 0.9911
vn -0.0000 -0.1585 0.9874
vn 0.0016 -0.2334 0.9724
vn 0.0303 -0.1924 0.9809
vn 0.0192 -0.2162 0.9762
vn 0.0008 -0.2814 0.9596
vn 0.0000 -0.3046 0.9525
vn 0.0000 -0.3827 0.9239
vn 0.0302 -0.3312 0.9431
vn 0.0215 -0.3464 0.9378
vn 0.0003 -0.0289 0.9996
vn 0.0140 -0.0785 0.9968
vn 0.0139 -0.0790 0.9968
vn 0.0128 -0.0809 0.9966
vn 0.0123 -0.0817 0.9966
vn 0.0060 -0.1067 0.9943
vn 0.0000 0.1314 0.9913
vn 0.0061 0.1062 0.9943
vn 0.0132 0.0785 0.9968
vn 0.0135 0.0792 0.9968
vn 0.0137 0.0795 0.9967
vn 0.0138 0.0798 0.9967
vn 0.0000 0.0256 0.9997
vn 0.0008 0.2830 0.9591
vn 0.0082 0.2422 0.9702
vn 0.0194 0.2160 0.9762
vn 0.0113 0.2334 0.9723
vn 0.0004 0.1823 0.9832
vn 0.0000 0.1601 0.9871
vn 0.0005 0.4277 0.9039
vn 0.0049 0.4001 0.9165
vn 0.0096 0.3804 0.9248
vn 0.0195 0.3507 0.9363
vn 0.0016 0.3827 0.9239
vn -0.0001 0.3113 0.9503
vn -0.0000 0.3121 0.9500
vn -0.0000 0.3057 0.9521
vn -0.0000 0.3045 0.9525
vn 0.0007 0.5634 0.8262
vn 0.0006 0.5654 0.8248
vn 0.0006 0.5653 0.8249
vn 0.0003 0.5715 0.8206
vn 0.0014 0.5538 0.8326
vn 0.0054 0.5264 0.8502
vn 0.0037 0.5351 0.8448
vn 0.0054 0.5261 0.8504
vn 0.0058 0.5242 0.8516
vn 0.0089 0.5092 0.8606
vn 0.0160 0.4871 0.8732
vn 0.0011 0.5225 0.8526
vn -0.0001 0.4577 0.8891
vn 0.0000 0.4582 0.8889
vn -0.0000 0.4528 0.8916
vn 0.0000 0.4513 0.8924
vn -0.0085 0.6209 0.7839
vn -0.0083 0.6216 0.7833
vn -0.0088 0.6201 0.7845
vn -0.0001 0.6494 0.7604
vn -0.0000 0.5842 0.8116
vn -0.0001 0.5826 0.8128
vn -0.0001 0.5762 0.8173
vn 0.0036 0.6399 0.7685
vn -0.0078 0.6236 0.7817
vn -0.0064 0.6285 0.7778
vn -0.0027 0.6435 0.7654
vn 0.0069 0.6267 0.7792
vn 0.0079 0.6232 0.7821
vn 0.0079 0.6232 0.7820
vn 0.0082 0.6221 0.7829
vn 0.0003 0.6494 0.7604
vn -0.0000 0.5870 0.8096
vn 0.0000 0.5883 0.8086
vn -0.0000 0.5846 0.8113
vn 0.0000 0.5829 0.8125
vn -0.0084 0.5113 0.8594
vn -0.0057 0.5247 0.8512
vn -0.0034 0.5365 0.8439
vn -0.0012 0.5563 0.8310
vn -0.0011 0.5584 0.8296
vn -0.0008 0.5625 0.8268
vn -0.0007 0.5647 0.8253
vn -0.0002 0.5735 0.8192
vn -0.0046 0.4010 0.9161
vn -0.0092 0.3821 0.9241
vn -0.0003 0.4299 0.9029
vn -0.0000 0.4506 0.8927
vn -0.0001 0.5225 0.8526
vn -0.0207 0.4758 0.8793
vn -0.0155 0.4883 0.8725
vn -0.0060 0.2505 0.9681
vn -0.0006 0.2868 0.9580
vn -0.0000 0.3044 0.9526
vn -0.0001 0.3827 0.9239
vn -0.0301 0.3314 0.9430
vn -0.0179 0.3547 0.9348
vn -0.0000 0.1118 0.9937
vn -0.0077 0.0946 0.9955
vn 0.0013 0.1457 0.9893
vn -0.0051 0.2334 0.9724
vn -0.0279 0.1976 0.9799
vn -0.0173 0.2206 0.9752
vn -0.0000 -0.7604 0.6494
vn -0.0000 -0.8526 0.5225
vn -0.0000 -0.9239 0.3827
vn -0.0000 -0.9724 0.2334
vn -0.0000 -0.9969 0.0785
vn 0.0000 -0.9969 -0.0785
vn 0.0000 -0.9724 -0.2334
vn 0.0000 -0.9239 -0.3827
vn -0.0000 -0.8526 -0.5225
vn 0.0000 -0.7604 -0.6494
vn 0.0000 -0.6494 -0.7604
vn 0.0000 -0.5225 -0.8526
vn 0.0000 -0.3827 -0.9239
vn 0.0000 -0.2334 -0.9724
vn 0.0000 -0.0785 -0.9969
vn 0.0000 0.0785 -0.9969
vn 0.0000 0.2334 -0.9724
vn 0.0000 0.3827 -0.9239
vn 0.0000 0.5225 -0.8526
vn 0.0000 0.6495 -0.7604
vn 0.0000 0.7604 -0.6495
vn 0.0000 0.8526 -0.5225
vn 0.0000 0.9239 -0.3827
vn 0.0000 0.9724 -0.2334
vn 0.0000 0.9969 -0.0785
vn -0.0000 0.9969 0.0785
vn -0.0000 0.9724 0.2334
vn -0.0000 0.9239 0.3827
vn -0.0000 0.8526 0.5225
vn -0.0000 0.7604 0.6494
vn 0.0001 0.6545 0.7561
vn -0.0000 0.6552 0.7555
vn 0.0002 0.6541 0.7564
vn -0.0000 -0.8660 0.5000
vn -0.0000 -0.8660 -0.5000
vn 0.0000 0.0000 -1.0000
vn 0.0000 0.8660 -0.5000
vn 0.0000 0.8660 0.5000
vn -0.0000 -0.8192 0.5735
vn -0.0000 -0.5735 0.8192
vn 0.0000 -0.2589 0.9659
vn -0.0000 0.5735 0.8192
vn 0.0000 0.8192 0.5736
vn 0.0000 0.9063 0.4225
vn 0.0000 0.9962 0.0872
vn 0.0000 0.9962 -0.0872
vn 0.0000 0.9659 -0.2588
vn 0.0000 0.8192 -0.5735
vn 0.0000 0.4226 -0.9063
vn 0.0000 0.2589 -0.9659
vn -0.0000 -0.2589 -0.9659
vn 0.0000 -0.4225 -0.9063
vn 0.0000 -0.5736 -0.8192
vn 0.0000 -0.8192 -0.5735
vn 0.0000 -0.9063 -0.4226
vn -0.0000 -0.9659 0.2589
vn -0.8798 -0.4753 0.0000
vn 0.8822 0.4709 0.0000
vn -0.9878 0.1555 -0.0000
vn -0.9884 0.1519 -0.0003
vn -0.9893 0.1461 -0.0009
vn -0.9898 0.1424 -0.0012
vn -0.9698 0.2439 0.0015
vn -0.9659 0.2589 0.0033
vn -0.9492 0.3145 -0.0000
vn -0.9342 0.3567 0.0000
vn -0.9073 0.4205 0.0025
vn -0.9063 0.4226 0.0022
vn -0.9091 0.4166 0.0031
vn -0.9101 0.4144 0.0034
vn -0.8190 0.5738 0.0024
vn -0.8498 0.5269 0.0094
vn -0.8192 0.5736 0.0013
vn -0.8617 0.5074 0.0000
vn -0.8787 0.4774 0.0000
vn -0.6577 0.7533 0.0004
vn -0.6483 0.7614 0.0000
vn -0.6571 0.7538 0.0002
vn -0.6580 0.7530 0.0002
vn -0.7000 0.7142 0.0018
vn -0.6973 0.7168 0.0014
vn -0.7045 0.7097 0.0025
vn -0.7071 0.7071 0.0028
vn -0.7488 0.6628 0.0000
vn -0.7793 0.6267 0.0000
vn -0.6153 0.7883 -0.0000
vn -0.5736 0.8192 0.0030
vn -0.5472 0.8370 0.0003
vn -0.4227 0.9063 0.0030
vn -0.4610 0.8874 0.0000
vn -0.5032 0.8641 0.0000
vn -0.2246 0.9745 0.0007
vn -0.2929 0.9561 0.0051
vn -0.2588 0.9659 0.0005
vn -0.3373 0.9414 -0.0000
vn -0.3815 0.9244 0.0000
vn -0.0380 0.9993 0.0000
vn -0.1205 0.9927 0.0047
vn -0.0871 0.9962 0.0005
vn -0.1684 0.9857 0.0000
vn -0.1855 0.9826 0.0000
vn 0.0871 0.9962 0.0028
vn 0.0540 0.9985 0.0004
vn 0.0050 1.0000 0.0000
vn 0.1901 0.9818 0.0001
vn 0.1843 0.9829 0.0000
vn 0.1800 0.9837 0.0000
vn 0.1782 0.9840 -0.0000
vn 0.1352 0.9908 0.0000
vn 0.2328 0.9725 0.0009
vn 0.2588 0.9659 0.0029
vn 0.3048 0.9524 0.0000
vn 0.5070 0.8620 0.0000
vn 0.4672 0.8841 0.0000
vn 0.4227 0.9063 0.0029
vn 0.3926 0.9197 0.0003
vn 0.3456 0.9384 0.0000
vn 0.6593 0.7519 0.0002
vn 0.6477 0.7619 -0.0000
vn 0.5736 0.8192 0.0000
vn 0.6159 0.7878 0.0077
vn 0.5535 0.8328 0.0007
vn 0.8245 0.5658 0.0032
vn 0.7817 0.6236 0.0000
vn 0.7071 0.7071 0.0000
vn 0.7484 0.6632 0.0093
vn 0.7007 0.7134 0.0016
vn 0.8192 0.5736 0.0000
vn 0.8597 0.5106 0.0121
vn 0.8522 0.5231 0.0100
vn 0.9659 0.2589 0.0000
vn 0.9842 0.1766 0.0146
vn 0.9755 0.2197 0.0071
vn 0.9646 0.2638 0.0033
vn 0.9526 0.3042 0.0000
vn 0.9362 0.3513 0.0130
vn 0.9168 0.3994 0.0050
vn 0.9962 -0.0871 0.0038
vn 0.9988 -0.0480 0.0002
vn 1.0000 -0.0018 0.0000
vn 0.9962 0.0871 0.0000
vn 0.9990 0.0432 0.0077
vn 0.9915 0.1301 0.0000
vn 0.9643 -0.2649 0.0032
vn 0.9750 -0.2221 0.0069
vn 0.9659 -0.2589 0.0006
vn 0.9841 -0.1777 0.0000
vn 0.9911 -0.1334 0.0000
vn 0.8834 -0.4686 0.0000
vn 0.9178 -0.3970 0.0054
vn 0.9063 -0.4226 0.0010
vn 0.9372 -0.3487 0.0000
vn 0.9522 -0.3054 0.0000
vn 0.8301 -0.5576 0.0042
vn 0.8191 -0.5736 0.0014
vn 0.8572 -0.5150 0.0002
vn 0.8559 -0.5172 0.0002
vn 0.8607 -0.5091 0.0000
vn 0.8613 -0.5081 0.0000
vn 0.6486 -0.7612 0.0000
vn 0.6653 -0.7466 0.0003
vn 0.7102 -0.7040 0.0026
vn 0.7114 -0.7028 0.0028
vn 0.7083 -0.7060 0.0022
vn 0.7071 -0.7071 0.0020
vn 0.7555 -0.6552 0.0000
vn 0.7855 -0.6189 0.0000
vn 0.6234 -0.7819 0.0000
vn 0.5710 -0.8209 0.0023
vn 0.5736 -0.8192 0.0026
vn 0.5668 -0.8239 0.0017
vn 0.5642 -0.8256 0.0014
vn 0.3464 -0.9381 -0.0000
vn 0.3964 -0.9181 0.0004
vn 0.4227 -0.9063 0.0029
vn 0.4705 -0.8824 0.0000
vn 0.5121 -0.8589 0.0000
vn 0.3031 -0.9530 -0.0000
vn 0.2588 -0.9659 0.0029
vn 0.2302 -0.9731 0.0008
vn 0.0427 -0.9991 0.0000
vn 0.0871 -0.9962 0.0029
vn 0.1297 -0.9916 0.0000
vn 0.1858 -0.9826 -0.0000
vn -0.0448 -0.9990 0.0001
vn -0.0871 -0.9962 0.0029
vn -0.1311 -0.9914 -0.0000
vn -0.3569 -0.9341 -0.0000
vn -0.3003 -0.9539 0.0000
vn -0.2588 -0.9659 0.0029
vn -0.2280 -0.9737 0.0008
vn -0.1850 -0.9827 -0.0000
vn -0.3838 -0.9234 0.0000
vn -0.4227 -0.9063 0.0030
vn -0.4627 -0.8865 -0.0000
vn -0.5736 -0.8192 0.0031
vn -0.5454 -0.8382 0.0003
vn -0.5022 -0.8647 -0.0000
vn -0.6566 -0.7543 0.0001
vn -0.6558 -0.7549 0.0001
vn -0.6554 -0.7553 0.0001
vn -0.6479 -0.7617 -0.0000
vn -0.6137 -0.7895 -0.0000
vn -0.8597 -0.5107 0.0121
vn -0.8500 -0.5266 0.0094
vn -0.8188 -0.5741 0.0024
vn -0.7787 -0.6274 0.0000
vn -0.7071 -0.7071 0.0000
vn -0.7454 -0.6666 0.0086
vn -0.6939 -0.7201 0.0010
vn -0.9728 -0.2317 0.0055
vn -0.9511 -0.3090 0.0000
vn -0.9348 -0.3550 0.0124
vn -0.9129 -0.4081 0.0040
vn -0.9659 -0.2589 0.0010
vn -0.9896 -0.1442 -0.0004
vn -0.9898 -0.1424 -0.0005
vn -0.9892 -0.1468 -0.0002
vn -0.9889 -0.1486 -0.0000
usemtl None.016
s 1
f 1//1 2//1 3//1
f 3//1 2//1 4//1
f 3//1 4//1 5//1
f 5//1 4//1 6//1
f 5//1 6//1 7//1
f 7//1 6//1 8//1
f 7//1 8//1 9//1
f 9//1 8//1 10//1
f 9//1 10//1 11//1
f 11//1 10//1 12//1
f 11//1 12//1 13//1
f 13//1 12//1 14//1
f 13//1 14//1 15//1
f 15//1 14//1 16//1
f 15//1 16//1 17//1
f 17//1 16//1 18//1
f 17//1 18//1 19//1
f 19//1 18//1 20//1
f 19//1 20//1 21//1
f 21//1 20//1 22//1
f 21//1 22//1 23//1
f 23//1 22//1 24//1
f 23//1 24//1 25//1
f 25//1 24//1 26//1
f 25//1 26//1 27//1
f 27//1 26//1 28//1
f 27//1 28//1 29//1
f 29//1 28//1 30//1
f 29//1 30//1 31//1
f 31//1 30//1 32//1
f 31//1 32//1 33//1
f 33//1 32//1 34//1
f 33//1 34//1 35//1
f 35//1 34//1 36//1
f 35//1 36//1 37//1
f 37//1 36//1 38//1
f 37//1 38//1 39//1
f 39//1 38//1 40//1
f 39//1 40//1 41//1
f 40//1 42//1 41//1
f 41//1 42//1 43//1
f 41//1 43//1 44//1
f 44//1 43//1 45//1
f 44//1 45//1 46//1
f 46//1 45//1 47//1
f 46//1 47//1 48//1
f 48//1 47//1 49//1
f 48//1 49//1 50//1
f 50//1 49//1 51//1
f 50//1 51//1 52//1
f 52//1 51//1 53//1
f 52//1 53//1 54//1
f 54//1 53//1 55//1
f 54//1 55//1 56//1
f 56//1 55//1 57//1
f 56//1 57//1 58//1
f 58//1 57//1 59//1
f 58//1 59//1 60//1
f 60//1 59//1 61//1
f 60//1 61//1 62//1
f 62//1 61//1 63//1
f 62//1 63//1 64//1
f 64//1 63//1 65//1
f 64//1 65//1 66//1
f 66//1 65//1 67//1
f 66//1 67//1 68//1
f 68//1 67//1 69//1
f 68//1 69//1 70//1
f 70//1 69//1 71//1
f 70//1 71//1 72//1
f 72//1 71//1 73//1
f 72//1 73//1 74//1
f 74//1 73//1 75//1
f 74//1 75//1 76//1
f 76//1 75//1 77//1
f 76//1 77//1 78//1
f 78//1 77//1 79//1
f 78//1 79//1 80//1
f 80//1 79//1 81//1
f 80//1 81//1 1//1
f 1//1 81//1 82//1
f 1//1 82//1 2//1
f 83//2 84//2 85//2
f 85//3 86//3 83//3
f 83//4 86//4 87//4
f 83//4 87//4 88//4
f 88//5 87//5 89//5
f 88//5 89//5 90//5
f 90//6 89//6 91//6
f 90//6 91//6 92//6
f 92//7 91//7 93//7
f 92//7 93//7 94//7
f 94//8 93//8 95//8
f 94//8 95//8 96//8
f 96//9 95//9 97//9
f 96//9 97//9 98//9
f 98//10 97//10 99//10
f 98//10 99//10 100//10
f 100//11 99//11 101//11
f 100//11 101//11 102//11
f 102//12 101//12 103//12
f 102//12 103//12 104//12
f 104//13 103//13 105//13
f 104//13 105//13 106//13
f 106//14 105//14 107//14
f 106//14 107//14 108//14
f 108//15 107//15 109//15
f 108//15 109//15 110//15
f 110//16 109//16 111//16
f 110//16 111//16 112//16
f 112//17 111//17 113//17
f 112//17 113//17 114//17
f 114//18 113//18 115//18
f 114//18 115//18 116//18
f 116//19 115//19 117//19
f 116//19 117//19 118//19
f 118//20 117//20 119//20
f 118//20 119//20 120//20
f 120//21 119//21 121//21
f 120//21 121//21 122//21
f 122//22 121//22 123//22
f 122//22 123//22 124//22
f 124//23 123//23 125//23
f 124//23 125//23 126//23
f 126//24 125//24 127//24
f 126//24 127//24 128//24
f 128//25 127//25 129//25
f 128//25 129//25 130//25
f 130//26 129//26 131//26
f 130//26 131//26 132//26
f 132//27 131//27 133//27
f 132//27 133//27 134//27
f 134//28 133//28 135//28
f 134//28 135//28 136//28
f 136//29 135//29 137//29
f 136//29 137//29 138//29
f 138//30 137//30 139//30
f 138//30 139//30 140//30
f 140//31 139//31 141//31
f 140//31 141//31 142//31
f 142//32 141//32 143//32
f 142//32 143//32 144//32
f 144//33 143//33 145//33
f 144//33 145//33 146//33
f 146//34 145//34 147//34
f 146//34 147//34 148//34
f 148//35 147//35 149//35
f 148//35 149//35 150//35
f 150//36 149//36 151//36
f 150//36 151//36 152//36
f 152//37 151//37 153//37
f 152//37 153//37 154//37
f 154//38 153//38 155//38
f 154//38 155//38 156//38
f 156//39 155//39 157//39
f 156//39 157//39 158//39
f 158//40 157//40 159//40
f 158//40 159//40 160//40
f 160//41 159//41 161//41
f 160//41 161//41 162//41
f 162//42 161//42 163//42
f 162//42 163//42 164//42
f 164//43 163//43 165//43
f 164//43 165//43 166//43
f 166//44 165//44 167//44
f 166//45 167//45 84//45
f 84//46 167//46 168//46
f 84//47 168//47 85//47
f 169//48 20//48 170//48
f 170//43 20//43 18//43
f 170//43 18//43 171//43
f 171//42 18//42 16//42
f 171//42 16//42 172//42
f 172//41 16//41 14//41
f 172//41 14//41 173//41
f 173//40 14//40 12//40
f 173//40 12//40 174//40
f 174//39 12//39 10//39
f 174//39 10//39 175//39
f 175//38 10//38 8//38
f 175//38 8//38 176//38
f 176//37 8//37 6//37
f 176//37 6//37 177//37
f 177//36 6//36 4//36
f 177//36 4//36 178//36
f 178//35 4//35 2//35
f 178//35 2//35 179//35
f 179//34 2//34 82//34
f 179//34 82//34 180//34
f 180//33 82//33 81//33
f 180//33 81//33 181//33
f 181//32 81//32 79//32
f 181//32 79//32 182//32
f 182//31 79//31 77//31
f 182//31 77//31 183//31
f 183//30 77//30 75//30
f 183//30 75//30 184//30
f 184//29 75//29 73//29
f 184//29 73//29 185//29
f 185//28 73//28 71//28
f 185//28 71//28 186//28
f 186//27 71//27 69//27
f 186//27 69//27 187//27
f 187//26 69//26 67//26
f 187//26 67//26 188//26
f 188//25 67//25 65//25
f 188//25 65//25 189//25
f 189//24 65//24 63//24
f 189//24 63//24 190//24
f 190//23 63//23 61//23
f 190//23 61//23 191//23
f 191//22 61//22 59//22
f 191//22 59//22 192//22
f 192//21 59//21 57//21
f 192//21 57//21 193//21
f 193//20 57//20 55//20
f 193//20 55//20 194//20
f 194//19 55//19 53//19
f 194//19 53//19 195//19
f 195//18 53//18 51//18
f 195//18 51//18 196//18
f 196//17 51//17 49//17
f 196//17 49//17 197//17
f 197//16 49//16 47//16
f 197//16 47//16 198//16
f 198//15 47//15 45//15
f 198//15 45//15 199//15
f 199//14 45//14 43//14
f 199//14 43//14 200//14
f 200//13 43//13 42//13
f 200//13 42//13 201//13
f 201//12 42//12 40//12
f 201//12 40//12 202//12
f 202//11 40//11 38//11
f 202//11 38//11 203//11
f 203//10 38//10 36//10
f 203//10 36//10 204//10
f 204//9 36//9 34//9
f 204//9 34//9 205//9
f 205//8 34//8 32//8
f 205//8 32//8 206//8
f 206//7 32//7 30//7
f 206//7 30//7 207//7
f 207//6 30//6 28//6
f 207//6 28//6 208//6
f 208//5 28//5 26//5
f 208//5 26//5 209//5
f 209//4 26//4 24//4
f 209//4 24//4 210//4
f 210//49 24//49 22//49
f 210//49 22//49 169//49
f 169//48 22//48 20//48
f 211//1 212//1 213//1
f 214//1 215//1 216//1
f 214//1 216//1 217//1
f 218//1 219//1 220//1
f 213//1 212//1 216//1
f 216//1 212//1 221//1
f 216//1 221//1 217//1
f 222//1 223//1 224//1
f 224//1 223//1 216//1
f 224//1 216//1 225//1
f 225//1 216//1 215//1
f 222//1 226//1 223//1
f 223//1 226//1 227//1
f 223//1 227//1 228//1
f 219//1 229//1 220//1
f 220//1 229//1 230//1
f 220//1 230//1 231//1
f 231//1 230//1 232//1
f 228//1 233//1 223//1
f 223//1 233//1 234//1
f 223//1 234//1 220//1
f 220//1 234//1 235//1
f 220//1 235//1 218//1
f 236//1 237//1 238//1
f 238//1 237//1 239//1
f 238//1 239//1 240//1
f 240//1 241//1 238//1
f 238//1 241//1 242//1
f 238//1 242//1 213//1
f 213//1 242//1 243//1
f 213//1 243//1 244//1
f 244//1 245//1 213//1
f 213//1 245//1 246//1
f 213//1 246//1 211//1
f 232//1 247//1 231//1
f 231//1 247//1 248//1
f 231//1 248//1 249//1
f 249//1 250//1 231//1
f 231//1 250//1 251//1
f 231//1 251//1 238//1
f 238//1 251//1 252//1
f 238//1 252//1 236//1
f 253//50 254//50 255//50
f 256//50 257//50 258//50
f 258//50 257//50 259//50
f 253//50 255//50 260//50
f 259//50 261//50 258//50
f 258//50 261//50 262//50
f 258//50 262//50 263//50
f 264//50 265//50 266//50
f 266//50 265//50 267//50
f 263//50 268//50 258//50
f 258//50 268//50 269//50
f 258//50 269//50 265//50
f 265//50 269//50 270//50
f 265//50 270//50 267//50
f 264//50 271//50 265//50
f 265//50 271//50 272//50
f 265//50 272//50 255//50
f 255//50 272//50 273//50
f 255//50 273//50 260//50
f 274//50 275//50 276//50
f 276//50 275//50 277//50
f 278//50 279//50 256//50
f 280//50 281//50 282//50
f 282//50 281//50 283//50
f 279//50 284//50 256//50
f 256//50 284//50 285//50
f 256//50 285//50 257//50
f 254//50 286//50 255//50
f 255//50 286//50 287//50
f 255//50 287//50 276//50
f 276//50 287//50 288//50
f 276//50 288//50 274//50
f 277//50 289//50 276//50
f 276//50 289//50 290//50
f 276//50 290//50 281//50
f 281//50 290//50 291//50
f 281//50 291//50 283//50
f 280//50 292//50 281//50
f 281//50 292//50 293//50
f 281//50 293//50 256//50
f 256//50 293//50 294//50
f 256//50 294//50 278//50
f 295//13 296//13 85//13
f 85//13 296//13 297//13
f 85//13 297//13 298//13
f 299//34 300//34 167//34
f 167//34 300//34 301//34
f 167//34 301//34 302//34
f 167//1 302//1 168//1
f 168//1 302//1 295//1
f 168//1 295//1 85//1
f 303//51 304//51 305//51
f 305//51 304//51 306//51
f 305//52 306//52 307//52
f 307//52 306//52 308//52
f 307//53 308//53 309//53
f 309//53 308//53 310//53
f 309//54 310//54 311//54
f 311//54 310//54 312//54
f 311//55 312//55 313//55
f 313//55 312//55 314//55
f 313//56 314//56 315//56
f 315//56 314//56 316//56
f 315//57 316//57 317//57
f 317//57 316//57 318//57
f 317//58 318//58 319//58
f 319//58 318//58 320//58
f 319//59 320//59 321//59
f 321//59 320//59 322//59
f 321//60 322//60 323//60
f 323//60 322//60 324//60
f 323//61 324//61 325//61
f 325//61 324//61 326//61
f 325//62 326//62 327//62
f 327//62 326//62 328//62
f 327//63 328//63 329//63
f 329//63 328//63 330//63
f 329//64 330//64 331//64
f 331//64 330//64 332//64
f 331//65 332//65 333//65
f 333//65 332//65 334//65
f 333//66 334//66 335//66
f 335//66 334//66 336//66
f 335//67 336//67 337//67
f 337//67 336//67 338//67
f 337//68 338//68 339//68
f 339//68 338//68 340//68
f 339//69 340//69 341//69
f 341//69 340//69 342//69
f 341//70 342//70 343//70
f 343//70 342//70 344//70
f 343//71 344//71 345//71
f 345//71 344//71 346//71
f 345//72 346//72 347//72
f 347//72 346//72 348//72
f 347//73 348//73 349//73
f 349//73 348//73 350//73
f 349//74 350//74 351//74
f 351//74 350//74 352//74
f 351//75 352//75 353//75
f 353//75 352//75 354//75
f 353//76 354//76 355//76
f 355//76 354//76 356//76
f 355//77 356//77 357//77
f 357//77 356//77 358//77
f 357//78 358//78 359//78
f 359//78 358//78 360//78
f 359//79 360//79 361//79
f 361//79 360//79 362//79
f 361//80 362//80 363//80
f 363//80 362//80 364//80
f 363//81 364//81 365//81
f 365//81 364//81 366//81
f 365//82 366//82 367//82
f 367//82 366//82 368//82
f 367//83 368//83 369//83
f 369//83 368//83 370//83
f 369//84 370//84 371//84
f 371//84 370//84 372//84
f 371//85 372//85 373//85
f 373//85 372//85 374//85
f 373//86 374//86 303//86
f 303//86 374//86 304//86
f 375//87 376//87 377//87
f 377//87 376//87 378//87
f 377//87 378//87 379//87
f 380//87 381//87 377//87
f 377//87 381//87 382//87
f 377//87 382//87 375//87
f 383//87 384//87 377//87
f 377//87 384//87 385//87
f 377//87 385//87 380//87
f 386//87 387//87 377//87
f 377//87 387//87 388//87
f 377//87 388//87 383//87
f 389//87 390//87 377//87
f 377//87 390//87 391//87
f 377//87 391//87 386//87
f 392//87 393//87 377//87
f 377//87 393//87 394//87
f 377//87 394//87 389//87
f 395//87 396//87 377//87
f 377//87 396//87 397//87
f 377//87 397//87 392//87
f 398//87 399//87 377//87
f 377//87 399//87 400//87
f 377//87 400//87 395//87
f 401//87 402//87 377//87
f 377//87 402//87 403//87
f 377//87 403//87 398//87
f 404//87 405//87 377//87
f 377//87 405//87 406//87
f 377//87 406//87 401//87
f 407//87 408//87 377//87
f 377//87 408//87 409//87
f 377//87 409//87 404//87
f 379//87 410//87 377//87
f 377//87 410//87 411//87
f 377//87 411//87 407//87
f 378//88 412//88 379//88
f 379//89 412//89 413//89
f 379//89 413//89 410//89
f 410//90 413//90 414//90
f 410//90 414//90 411//90
f 411//91 414//91 415//91
f 411//91 415//91 407//91
f 407//92 415//92 416//92
f 407//92 416//92 408//92
f 408//93 416//93 417//93
f 408//93 417//93 409//93
f 409//94 417//94 418//94
f 409//94 418//94 404//94
f 404//95 418//95 419//95
f 404//95 419//95 405//95
f 405//96 419//96 420//96
f 405//96 420//96 406//96
f 406//97 420//97 421//97
f 406//97 421//97 401//97
f 401//98 421//98 422//98
f 401//98 422//98 402//98
f 402//99 422//99 423//99
f 402//99 423//99 403//99
f 403//100 423//100 424//100
f 403//100 424//100 398//100
f 398//101 424//101 425//101
f 398//101 425//101 399//101
f 399//102 425//102 426//102
f 399//102 426//102 400//102
f 400//103 426//103 427//103
f 400//103 427//103 395//103
f 395//104 427//104 428//104
f 395//104 428//104 396//104
f 396//105 428//105 429//105
f 396//105 429//105 397//105
f 397//106 429//106 430//106
f 397//106 430//106 392//106
f 392//107 430//107 431//107
f 392//107 431//107 393//107
f 393//108 431//108 432//108
f 393//108 432//108 394//108
f 394//109 432//109 433//109
f 394//109 433//109 389//109
f 389//110 433//110 434//110
f 389//110 434//110 390//110
f 390//111 434//111 435//111
f 390//111 435//111 391//111
f 391//112 435//112 436//112
f 391//112 436//112 386//112
f 386//113 436//113 437//113
f 386//113 437//113 387//113
f 387//114 437//114 438//114
f 387//114 438//114 388//114
f 388//115 438//115 439//115
f 388//115 439//115 383//115
f 383//116 439//116 440//116
f 383//116 440//116 384//116
f 384//117 440//117 441//117
f 384//117 441//117 385//117
f 385//118 441//118 442//118
f 385//118 442//118 380//118
f 380//119 442//119 443//119
f 380//119 443//119 381//119
f 381//120 443//120 444//120
f 381//120 444//120 382//120
f 382//121 444//121 445//121
f 382//121 445//121 375//121
f 375//122 445//122 446//122
f 375//122 446//122 376//122
f 376//123 446//123 447//123
f 376//123 447//123 378//123
f 378//88 447//88 412//88
f 295//87 302//87 301//87
f 444//87 295//87 445//124
f 445//124 295//87 301//87
f 445//124 301//87 446//87
f 444//87 443//87 295//87
f 295//87 443//87 442//87
f 295//87 442//87 441//87
f 441//87 440//87 295//87
f 295//87 440//87 439//87
f 295//87 439//87 438//87
f 301//87 448//87 446//87
f 446//87 448//87 449//87
f 446//87 449//87 450//87
f 450//87 451//87 446//87
f 446//87 451//87 452//87
f 446//87 452//87 453//87
f 453//87 454//87 446//87
f 446//87 454//87 455//87
f 446//87 455//87 447//87
f 447//87 455//87 456//87
f 447//87 456//87 412//87
f 412//87 456//87 457//87
f 412//87 457//87 413//87
f 413//87 457//87 458//87
f 413//87 458//87 414//87
f 414//87 458//87 459//87
f 414//87 459//87 415//87
f 415//87 459//87 460//87
f 415//87 460//87 416//87
f 416//87 460//87 461//87
f 416//87 461//87 417//87
f 417//87 461//87 462//87
f 417//87 462//87 418//87
f 418//87 462//87 463//87
f 418//87 463//87 419//87
f 419//87 463//87 464//87
f 419//87 464//87 420//87
f 420//87 464//87 465//87
f 420//87 465//87 421//87
f 421//87 465//87 466//87
f 421//87 466//87 422//87
f 422//87 466//87 467//87
f 422//87 467//87 423//87
f 423//87 467//87 468//87
f 423//87 468//87 424//87
f 424//87 468//87 469//87
f 424//87 469//87 425//87
f 425//87 469//87 470//87
f 425//87 470//87 426//87
f 426//87 470//87 471//87
f 426//87 471//87 427//87
f 427//87 471//87 472//87
f 427//87 472//87 428//87
f 428//87 472//87 473//87
f 428//87 473//87 429//87
f 429//87 473//87 474//87
f 429//87 474//87 430//87
f 430//87 474//87 475//87
f 430//87 475//87 431//87
f 431//87 475//87 476//87
f 431//87 476//87 432//87
f 432//87 476//87 477//87
f 432//87 477//87 433//87
f 433//87 477//87 478//87
f 433//87 478//87 434//87
f 434//87 478//87 479//87
f 434//87 479//87 435//87
f 435//87 479//87 480//87
f 435//87 480//87 436//87
f 436//87 480//87 481//87
f 436//87 481//87 437//87
f 437//87 481//87 482//87
f 437//87 482//87 438//87
f 438//87 482//87 296//87
f 438//87 296//87 295//87
f 483//125 484//125 15//125
f 300//126 299//126 485//126
f 485//127 299//127 486//127
f 487//128 488//128 489//128
f 488//129 490//129 489//129
f 489//130 490//130 491//130
f 489//131 491//131 486//131
f 486//132 491//132 492//132
f 486//133 492//133 485//133
f 493//134 494//134 495//134
f 495//135 494//135 496//135
f 496//136 497//136 495//136
f 495//137 497//137 498//137
f 495//138 498//138 489//138
f 489//139 498//140 499//141
f 489//139 499//141 487//142
f 500//143 501//143 502//143
f 502//144 503//144 500//144
f 500//145 503//146 504//147
f 500//145 504//147 505//148
f 505//149 506//149 500//149
f 500//150 506//150 507//150
f 500//151 507//151 495//151
f 495//152 507//153 508//154
f 495//152 508//154 493//155
f 11//156 13//156 509//156
f 510//157 511//157 512//157
f 510//158 512//159 513//159
f 509//160 514//161 11//162
f 11//162 514//161 515//163
f 11//164 515//164 513//164
f 511//165 516//166 512//167
f 512//167 516//166 517//168
f 512//169 517//169 500//169
f 500//170 517//171 518//172
f 500//170 518//172 501//173
f 15//174 484//174 13//174
f 484//175 519//176 13//177
f 13//177 519//176 520//178
f 13//179 520//179 521//179
f 521//180 522//181 13//182
f 13//182 522//181 523//183
f 13//184 523//185 524//186
f 524//186 525//187 13//184
f 13//188 525//189 526//190
f 13//188 526//190 509//191
f 527//192 528//192 15//192
f 15//193 528//193 529//193
f 15//194 529//194 483//194
f 530//195 531//195 17//195
f 532//196 533//196 19//196
f 19//197 533//197 534//197
f 19//198 534//198 17//198
f 17//199 534//199 535//199
f 17//200 535//200 530//200
f 531//201 536//201 17//201
f 17//202 536//202 537//202
f 17//203 537//203 15//203
f 15//204 537//204 538//204
f 15//205 538//205 527//205
f 539//87 540//87 21//87
f 21//206 540//206 541//206
f 21//207 541//208 19//209
f 19//209 541//208 542//210
f 19//211 542//211 532//211
f 543//212 544//212 23//212
f 23//213 544//213 545//213
f 23//214 545//215 21//216
f 21//216 545//215 546//217
f 21//218 546//218 539//218
f 547//219 548//219 25//219
f 548//220 549//220 25//220
f 25//221 549//221 550//221
f 25//222 550//222 23//222
f 23//223 550//223 551//223
f 23//224 551//224 543//224
f 552//225 553//225 27//225
f 27//226 553//226 554//226
f 554//227 555//227 27//227
f 27//228 555//228 556//228
f 27//229 556//229 25//229
f 25//230 556//231 557//232
f 25//230 557//232 547//233
f 558//234 29//235 559//236
f 559//236 29//235 560//237
f 558//238 561//238 29//238
f 29//239 561//240 562//241
f 29//239 562//241 563//242
f 563//243 564//243 29//243
f 29//244 564//244 565//244
f 29//245 565//245 27//245
f 27//246 565//247 566//248
f 27//246 566//248 552//249
f 567//250 568//251 569//252
f 569//253 568//253 570//253
f 569//254 570//255 571//256
f 572//257 573//257 31//257
f 567//250 574//258 568//251
f 568//251 574//258 575//259
f 568//260 575//260 576//260
f 573//261 577//262 31//263
f 31//263 577//262 578//264
f 31//265 578//265 29//265
f 29//266 578//267 579//268
f 29//266 579//268 560//269
f 580//270 581//270 570//270
f 570//271 581//271 582//271
f 570//272 582//272 583//272
f 583//273 584//274 570//275
f 570//275 584//274 585//276
f 570//255 585//277 571//256
f 586//278 587//278 588//278
f 588//279 587//279 589//279
f 586//280 590//280 587//280
f 587//281 590//281 591//281
f 587//282 591//282 570//282
f 570//283 591//283 592//283
f 570//284 592//284 580//284
f 593//285 594//285 595//285
f 594//286 596//286 595//286
f 595//287 596//287 597//287
f 595//288 597//288 587//288
f 587//289 597//289 598//289
f 587//290 598//290 589//290
f 599//291 298//291 297//291
f 297//292 600//292 599//292
f 599//293 600//293 601//293
f 599//294 601//294 595//294
f 595//295 601//295 602//295
f 595//296 602//296 593//296
f 513//159 512//159 11//159
f 11//297 512//297 603//297
f 11//297 603//297 9//297
f 9//298 603//298 604//298
f 9//298 604//298 7//298
f 7//299 604//299 605//299
f 7//299 605//299 5//299
f 5//300 605//300 606//300
f 5//300 606//300 3//300
f 3//301 606//301 607//301
f 3//301 607//301 1//301
f 1//302 607//302 608//302
f 1//302 608//302 80//302
f 80//303 608//303 609//303
f 80//303 609//303 78//303
f 78//304 609//304 610//304
f 78//304 610//304 76//304
f 76//305 610//305 611//305
f 76//305 611//305 74//305
f 74//306 611//306 612//306
f 74//306 612//306 72//306
f 72//307 612//307 613//307
f 72//307 613//307 70//307
f 70//308 613//308 614//308
f 70//308 614//308 68//308
f 68//309 614//309 615//309
f 68//309 615//309 66//309
f 66//310 615//310 616//310
f 66//310 616//310 64//310
f 64//311 616//311 617//311
f 64//311 617//311 62//311
f 62//312 617//312 618//312
f 62//312 618//312 60//312
f 60//313 618//313 619//313
f 60//313 619//313 58//313
f 58//314 619//314 620//314
f 58//314 620//314 56//314
f 56//315 620//315 621//315
f 56//315 621//315 54//315
f 54//316 621//316 622//316
f 54//316 622//316 52//316
f 52//317 622//317 623//317
f 52//317 623//317 50//317
f 50//318 623//318 624//318
f 50//318 624//318 48//318
f 48//319 624//319 625//319
f 48//319 625//319 46//319
f 46//320 625//320 626//320
f 46//320 626//320 44//320
f 44//321 626//321 627//321
f 44//321 627//321 41//321
f 41//322 627//322 628//322
f 41//322 628//322 39//322
f 39//323 628//323 629//323
f 39//323 629//323 37//323
f 37//324 629//324 630//324
f 37//324 630//324 35//324
f 35//325 630//325 631//325
f 35//325 631//325 33//325
f 33//326 631//326 568//326
f 33//326 568//326 31//326
f 31//327 568//328 576//327
f 31//327 576//327 572//329
f 85//50 298//50 86//50
f 86//50 298//50 599//50
f 86//50 599//50 87//50
f 87//50 599//50 595//50
f 87//50 595//50 89//50
f 89//50 595//50 587//50
f 89//50 587//50 91//50
f 91//50 587//50 570//50
f 91//50 570//50 93//50
f 93//50 570//50 568//50
f 93//50 568//50 95//50
f 95//50 568//50 631//50
f 95//50 631//50 97//50
f 97//50 631//50 630//50
f 97//50 630//50 99//50
f 99//50 630//50 629//50
f 99//50 629//50 101//50
f 101//50 629//50 628//50
f 101//50 628//50 103//50
f 103//50 628//50 627//50
f 299//50 167//50 486//50
f 486//50 167//50 165//50
f 486//50 165//50 489//50
f 489//50 165//50 163//50
f 489//50 163//50 495//50
f 495//50 163//50 161//50
f 495//50 161//50 500//50
f 500//50 161//50 159//50
f 500//50 159//50 512//50
f 512//50 159//50 157//50
f 512//50 157//50 603//50
f 603//50 157//50 155//50
f 603//50 155//50 604//50
f 604//50 155//50 153//50
f 604//50 153//50 605//50
f 605//50 153//50 151//50
f 605//50 151//50 606//50
f 606//50 151//50 149//50
f 606//50 149//50 607//50
f 149//50 147//50 607//50
f 607//50 147//50 145//50
f 607//50 145//50 608//50
f 608//50 145//50 143//50
f 608//50 143//50 609//50
f 609//50 143//50 141//50
f 609//50 141//50 610//50
f 610//50 141//50 139//50
f 610//50 139//50 611//50
f 611//50 139//50 137//50
f 611//50 137//50 612//50
f 612//50 137//50 135//50
f 612//50 135//50 613//50
f 613//50 135//50 133//50
f 613//50 133//50 614//50
f 614//50 133//50 131//50
f 614//50 131//50 615//50
f 615//50 131//50 129//50
f 615//50 129//50 616//50
f 616//50 129//50 127//50
f 616//50 127//50 617//50
f 617//50 127//50 125//50
f 617//50 125//50 618//50
f 618//50 125//50 123//50
f 618//50 123//50 619//50
f 619//50 123//50 121//50
f 619//50 121//50 620//50
f 620//50 121//50 119//50
f 620//50 119//50 621//50
f 621//50 119//50 117//50
f 621//50 117//50 622//50
f 622//50 117//50 115//50
f 622//50 115//50 623//50
f 623//50 115//50 113//50
f 623//50 113//50 624//50
f 624//50 113//50 111//50
f 624//50 111//50 625//50
f 625//50 111//50 109//50
f 625//50 109//50 626//50
f 626//50 109//50 107//50
f 626//50 107//50 627//50
f 627//50 107//50 105//50
f 627//50 105//50 103//50
f 220//87 231//87 632//87
f 632//87 231//87 633//87
f 231//330 238//330 633//330
f 633//330 238//330 634//330
f 238//331 213//331 634//331
f 634//331 213//331 635//331
f 213//332 216//332 635//332
f 635//332 216//332 636//332
f 216//333 223//333 636//333
f 636//333 223//333 637//333
f 223//334 220//334 637//334
f 637//334 220//334 632//334
f 142//1 144//1 635//1
f 635//1 144//1 634//1
f 635//1 636//1 120//1
f 132//1 134//1 635//1
f 635//1 134//1 136//1
f 637//1 106//1 636//1
f 636//1 106//1 108//1
f 160//1 162//1 633//1
f 136//1 138//1 635//1
f 635//1 138//1 140//1
f 635//1 140//1 142//1
f 108//1 110//1 636//1
f 636//1 110//1 112//1
f 636//1 112//1 114//1
f 92//1 94//1 632//1
f 632//1 94//1 96//1
f 632//1 96//1 98//1
f 120//1 122//1 635//1
f 635//1 122//1 124//1
f 635//1 124//1 126//1
f 126//1 128//1 635//1
f 635//1 128//1 130//1
f 635//1 130//1 132//1
f 114//1 116//1 636//1
f 636//1 116//1 118//1
f 636//1 118//1 120//1
f 98//1 100//1 632//1
f 632//1 100//1 102//1
f 632//1 102//1 637//1
f 637//1 102//1 104//1
f 637//1 104//1 106//1
f 162//1 164//1 633//1
f 633//1 164//1 166//1
f 633//1 166//1 84//1
f 84//1 83//1 633//1
f 633//1 83//1 88//1
f 633//1 88//1 632//1
f 632//1 88//1 90//1
f 632//1 90//1 92//1
f 152//1 154//1 633//1
f 144//1 146//1 634//1
f 634//1 146//1 148//1
f 634//1 148//1 633//1
f 633//1 148//1 150//1
f 633//1 150//1 152//1
f 154//1 156//1 633//1
f 633//1 156//1 158//1
f 633//1 158//1 160//1
f 256//87 258//87 638//87
f 638//87 258//87 639//87
f 258//334 265//334 639//334
f 639//334 265//334 640//334
f 265//333 255//333 640//333
f 640//333 255//333 641//333
f 255//332 276//332 641//332
f 641//332 276//332 642//332
f 276//331 281//331 642//331
f 642//331 281//331 643//331
f 281//330 256//330 643//330
f 643//330 256//330 638//330
f 200//50 201//50 640//50
f 172//50 173//50 638//50
f 203//50 204//50 639//50
f 639//50 204//50 205//50
f 639//50 205//50 206//50
f 186//50 187//50 642//50
f 640//50 201//50 639//50
f 639//50 201//50 202//50
f 639//50 202//50 203//50
f 200//50 640//50 199//50
f 199//50 640//50 641//50
f 199//50 641//50 198//50
f 642//50 643//50 180//50
f 193//50 194//50 641//50
f 641//50 194//50 195//50
f 210//50 169//50 638//50
f 195//50 196//50 641//50
f 641//50 196//50 197//50
f 641//50 197//50 198//50
f 189//50 190//50 641//50
f 180//50 181//50 642//50
f 642//50 181//50 182//50
f 642//50 182//50 183//50
f 173//50 174//50 638//50
f 638//50 174//50 175//50
f 638//50 175//50 176//50
f 176//50 177//50 638//50
f 638//50 177//50 178//50
f 638//50 178//50 643//50
f 643//50 178//50 179//50
f 643//50 179//50 180//50
f 206//50 207//50 639//50
f 639//50 207//50 208//50
f 639//50 208//50 638//50
f 638//50 208//50 209//50
f 638//50 209//50 210//50
f 169//50 170//50 638//50
f 638//50 170//50 171//50
f 638//50 171//50 172//50
f 642//50 187//50 641//50
f 641//50 187//50 188//50
f 641//50 188//50 189//50
f 190//50 191//50 641//50
f 641//50 191//50 192//50
f 641//50 192//50 193//50
f 183//50 184//50 642//50
f 642//50 184//50 185//50
f 642//50 185//50 186//50
f 272//335 644//335 273//335
f 273//335 644//335 645//335
f 273//82 645//82 260//82
f 260//82 645//82 646//82
f 260//336 646//336 253//336
f 253//336 646//336 647//336
f 253//80 647//80 254//80
f 254//80 647//80 648//80
f 254//337 648//337 286//337
f 286//337 648//337 649//337
f 286//78 649//78 287//78
f 287//78 649//78 650//78
f 287//77 650//77 288//77
f 288//77 650//77 651//77
f 288//76 651//76 274//76
f 274//76 651//76 652//76
f 274//75 652//75 275//75
f 275//75 652//75 653//75
f 275//338 653//338 277//338
f 277//338 653//338 654//338
f 277//73 654//73 289//73
f 289//73 654//73 655//73
f 289//339 655//339 290//339
f 290//339 655//339 656//339
f 290//340 656//340 291//340
f 291//340 656//340 657//340
f 291//70 657//70 283//70
f 283//70 657//70 658//70
f 283//341 658//341 282//341
f 282//341 658//341 659//341
f 282//342 659//342 280//342
f 280//342 659//342 660//342
f 280//343 660//343 292//343
f 292//343 660//343 661//343
f 292//66 661//66 293//66
f 293//66 661//66 662//66
f 293//344 662//344 294//344
f 294//344 662//344 663//344
f 294//64 663//64 278//64
f 278//64 663//64 664//64
f 278//63 664//63 279//63
f 279//63 664//63 665//63
f 279//345 665//345 284//345
f 284//345 665//345 666//345
f 284//346 666//346 285//346
f 285//346 666//346 667//346
f 285//60 667//60 257//60
f 257//60 667//60 668//60
f 257//59 668//59 259//59
f 259//59 668//59 669//59
f 259//347 669//347 261//347
f 261//347 669//347 670//347
f 261//348 670//348 262//348
f 262//348 670//348 671//348
f 262//349 671//349 263//349
f 263//349 671//349 672//349
f 263//55 672//55 268//55
f 268//55 672//55 673//55
f 268//350 673//350 269//350
f 269//350 673//350 674//350
f 269//351 674//351 270//351
f 270//351 674//351 675//351
f 270//52 675//52 267//52
f 267//52 675//52 676//52
f 267//51 676//51 266//51
f 266//51 676//51 677//51
f 266//86 677//86 264//86
f 264//86 677//86 678//86
f 264//352 678//352 271//352
f 271//352 678//352 679//352
f 271//84 679//84 272//84
f 272//84 679//84 644//84
f 362//50 648//50 364//50
f 364//50 648//50 647//50
f 364//50 647//50 366//50
f 366//50 647//50 646//50
f 366//50 646//50 368//50
f 368//50 646//50 645//50
f 368//50 645//50 370//50
f 370//50 645//50 644//50
f 370//50 644//50 372//50
f 372//50 644//50 679//50
f 372//50 679//50 374//50
f 374//50 679//50 678//50
f 374//50 678//50 304//50
f 304//50 678//50 677//50
f 304//50 677//50 306//50
f 306//50 677//50 676//50
f 306//50 676//50 308//50
f 308//50 676//50 675//50
f 308//50 675//50 310//50
f 310//50 675//50 674//50
f 310//50 674//50 312//50
f 312//50 674//50 673//50
f 312//50 673//50 314//50
f 314//50 673//50 672//50
f 314//50 672//50 316//50
f 316//50 672//50 671//50
f 316//50 671//50 318//50
f 318//50 671//50 670//50
f 318//50 670//50 320//50
f 320//50 670//50 669//50
f 320//50 669//50 322//50
f 322//50 669//50 668//50
f 322//50 668//50 324//50
f 324//50 668//50 667//50
f 324//50 667//50 326//50
f 326//50 667//50 666//50
f 326//50 666//50 328//50
f 328//50 666//50 665//50
f 328//50 665//50 330//50
f 330//50 665//50 664//50
f 330//50 664//50 332//50
f 332//50 664//50 663//50
f 332//50 663//50 334//50
f 334//50 663//50 662//50
f 334//50 662//50 336//50
f 336//50 662//50 661//50
f 336//50 661//50 338//50
f 338//50 661//50 660//50
f 338//50 660//50 340//50
f 340//50 660//50 659//50
f 340//50 659//50 342//50
f 342//50 659//50 658//50
f 342//50 658//50 344//50
f 344//50 658//50 657//50
f 344//50 657//50 346//50
f 346//50 657//50 656//50
f 346//50 656//50 348//50
f 348//50 656//50 655//50
f 348//50 655//50 350//50
f 350//50 655//50 654//50
f 350//50 654//50 352//50
f 352//50 654//50 653//50
f 352//50 653//50 354//50
f 354//50 653//50 652//50
f 354//50 652//50 356//50
f 356//50 652//50 651//50
f 356//50 651//50 358//50
f 358//50 651//50 650//50
f 358//50 650//50 360//50
f 360//50 650//50 649//50
f 360//50 649//50 362//50
f 362//50 649//50 648//50
f 232//60 680//60 247//60
f 247//60 680//60 681//60
f 247//346 681//346 248//346
f 248//346 681//346 682//346
f 248//345 682//345 249//345
f 249//345 682//345 683//345
f 249//63 683//63 250//63
f 250//63 683//63 684//63
f 250//64 684//64 251//64
f 251//64 684//64 685//64
f 251//344 685//344 252//344
f 252//344 685//344 686//344
f 252//66 686//66 236//66
f 236//66 686//66 687//66
f 236//343 687//343 237//343
f 237//343 687//343 688//343
f 237//342 688//342 239//342
f 239//342 688//342 689//342
f 239//341 689//341 240//341
f 240//341 689//341 690//341
f 240//70 690//70 241//70
f 241//70 690//70 691//70
f 241//340 691//340 242//340
f 242//340 691//340 692//340
f 242//339 692//339 243//339
f 243//339 692//339 693//339
f 243//73 693//73 244//73
f 244//73 693//73 694//73
f 244//338 694//338 245//338
f 245//338 694//338 695//338
f 245//75 695//75 246//75
f 246//75 695//75 696//75
f 246//76 696//76 211//76
f 211//76 696//76 697//76
f 211//77 697//77 212//77
f 212//77 697//77 698//77
f 212//78 698//78 221//78
f 221//78 698//78 699//78
f 221//337 699//337 217//337
f 217//337 699//337 700//337
f 217//80 700//80 214//80
f 214//80 700//80 701//80
f 214//336 701//336 215//336
f 215//336 701//336 702//336
f 215//82 702//82 225//82
f 225//82 702//82 703//82
f 225//335 703//335 224//335
f 224//335 703//335 704//335
f 224//84 704//84 222//84
f 222//84 704//84 705//84
f 222//352 705//352 226//352
f 226//352 705//352 706//352
f 226//86 706//86 227//86
f 227//86 706//86 707//86
f 227//51 707//51 228//51
f 228//51 707//51 708//51
f 228//52 708//52 233//52
f 233//52 708//52 709//52
f 233//351 709//351 234//351
f 234//351 709//351 710//351
f 234//350 710//350 235//350
f 235//350 710//350 711//350
f 235//55 711//55 218//55
f 218//55 711//55 712//55
f 218//349 712//349 219//349
f 219//349 712//349 713//349
f 219//348 713//348 229//348
f 229//348 713//348 714//348
f 229//347 714//347 230//347
f 230//347 714//347 715//347
f 230//59 715//59 232//59
f 232//59 715//59 680//59
f 339//1 689//1 337//1
f 337//1 689//1 688//1
f 337//1 688//1 335//1
f 335//1 688//1 687//1
f 335//1 687//1 333//1
f 333//1 687//1 686//1
f 333//1 686//1 331//1
f 331//1 686//1 685//1
f 331//1 685//1 329//1
f 329//1 685//1 684//1
f 329//1 684//1 327//1
f 327//1 684//1 683//1
f 327//1 683//1 325//1
f 325//1 683//1 682//1
f 325//1 682//1 323//1
f 323//1 682//1 681//1
f 323//1 681//1 321//1
f 321//1 681//1 680//1
f 321//1 680//1 319//1
f 319//1 680//1 715//1
f 319//1 715//1 317//1
f 317//1 715//1 714//1
f 317//1 714//1 315//1
f 315//1 714//1 713//1
f 315//1 713//1 313//1
f 313//1 713//1 712//1
f 313//1 712//1 311//1
f 311//1 712//1 711//1
f 311//1 711//1 309//1
f 309//1 711//1 710//1
f 309//1 710//1 307//1
f 307//1 710//1 709//1
f 307//1 709//1 305//1
f 305//1 709//1 708//1
f 305//1 708//1 303//1
f 303//1 708//1 707//1
f 303//1 707//1 373//1
f 373//1 707//1 706//1
f 373//1 706//1 371//1
f 371//1 706//1 705//1
f 371//1 705//1 369//1
f 369//1 705//1 704//1
f 369//1 704//1 367//1
f 367//1 704//1 703//1
f 367//1 703//1 365//1
f 365//1 703//1 702//1
f 365//1 702//1 363//1
f 363//1 702//1 701//1
f 363//1 701//1 361//1
f 361//1 701//1 700//1
f 361//1 700//1 359//1
f 359//1 700//1 699//1
f 359//1 699//1 357//1
f 357//1 699//1 698//1
f 357//1 698//1 355//1
f 355//1 698//1 697//1
f 355//1 697//1 353//1
f 353//1 697//1 696//1
f 353//1 696//1 351//1
f 351//1 696//1 695//1
f 351//1 695//1 349//1
f 349//1 695//1 694//1
f 349//1 694//1 347//1
f 347//1 694//1 693//1
f 347//1 693//1 345//1
f 345//1 693//1 692//1
f 345//1 692//1 343//1
f 343//1 692//1 691//1
f 343//1 691//1 341//1
f 341//1 691//1 690//1
f 341//1 690//1 339//1
f 339//1 690//1 689//1
f 488//353 487//353 450//353
f 548//354 547//354 468//354
f 297//355 296//356 600//357
f 600//357 296//356 482//358
f 600//359 482//359 601//359
f 601//360 482//360 481//360
f 601//361 481//361 602//361
f 602//362 481//362 593//362
f 593//363 481//364 480//365
f 593//363 480//365 594//366
f 589//367 598//367 479//367
f 479//368 598//368 597//368
f 479//369 597//369 480//369
f 480//370 597//370 596//370
f 480//371 596//371 594//371
f 478//372 592//373 591//374
f 591//374 590//375 478//372
f 478//376 590//377 586//378
f 478//376 586//378 479//379
f 479//380 586//380 588//380
f 479//381 588//381 589//381
f 592//382 478//382 580//382
f 580//383 478//383 477//383
f 580//384 477//384 581//384
f 476//385 583//385 477//385
f 477//386 583//386 582//386
f 477//387 582//387 581//387
f 569//388 571//388 475//388
f 475//389 571//389 585//389
f 475//390 585//390 476//390
f 476//391 585//391 584//391
f 476//392 584//392 583//392
f 576//393 575//393 474//393
f 474//394 575//394 574//394
f 474//395 574//395 475//395
f 475//396 574//396 567//396
f 475//397 567//397 569//397
f 473//398 573//398 474//398
f 474//399 573//399 572//399
f 474//400 572//400 576//400
f 579//401 578//402 473//403
f 473//403 578//402 577//404
f 473//405 577//405 573//405
f 579//406 473//406 560//406
f 560//407 473//407 472//407
f 560//408 472//408 559//408
f 563//409 562//409 471//409
f 471//410 562//410 561//410
f 471//411 561//411 472//411
f 472//412 561//412 558//412
f 472//413 558//413 559//413
f 552//414 566//414 470//414
f 470//415 566//415 565//415
f 470//416 565//416 471//416
f 471//417 565//417 564//417
f 471//418 564//418 563//418
f 556//419 555//419 469//419
f 469//420 555//420 554//420
f 469//421 554//421 470//421
f 470//422 554//422 553//422
f 470//423 553//423 552//423
f 468//424 547//424 469//424
f 469//425 547//425 557//425
f 469//426 557//426 556//426
f 466//427 545//427 467//427
f 467//428 545//428 544//428
f 467//429 544//429 543//429
f 543//430 551//430 467//430
f 467//431 551//431 550//431
f 467//99 550//99 468//99
f 468//432 550//432 549//432
f 468//433 549//433 548//433
f 465//434 464//434 541//434
f 541//435 540//435 465//435
f 465//436 540//436 539//436
f 465//437 539//437 466//437
f 466//438 539//438 546//438
f 466//439 546//439 545//439
f 534//440 533//440 463//440
f 463//441 533//441 532//441
f 463//442 532//442 464//442
f 464//443 532//443 542//443
f 464//444 542//444 541//444
f 536//445 531//445 462//445
f 462//446 531//446 530//446
f 462//447 530//447 463//447
f 463//448 530//448 535//448
f 463//449 535//449 534//449
f 461//450 527//450 538//450
f 461//451 538//451 462//451
f 462//452 538//453 537//454
f 462//452 537//454 536//455
f 460//456 519//456 484//456
f 484//457 483//457 460//457
f 460//458 483//459 529//460
f 460//458 529//460 461//461
f 461//462 529//462 528//462
f 461//463 528//463 527//463
f 519//464 460//464 520//464
f 520//465 460//466 459//467
f 520//465 459//467 521//468
f 525//469 524//469 458//469
f 458//470 524//470 523//470
f 458//471 523//471 459//471
f 459//472 523//472 522//472
f 459//473 522//473 521//473
f 525//474 458//474 526//474
f 526//475 458//475 457//475
f 526//476 457//476 509//476
f 510//34 513//34 456//34
f 456//477 513//477 515//477
f 456//478 515//478 457//478
f 457//479 515//479 514//479
f 457//480 514//480 509//480
f 510//481 456//481 511//481
f 511//482 456//482 455//482
f 511//483 455//483 516//483
f 502//484 501//484 454//484
f 454//485 501//485 518//485
f 454//486 518//486 455//486
f 455//487 518//487 517//487
f 455//488 517//488 516//488
f 502//489 454//489 503//489
f 503//490 454//490 453//490
f 503//491 453//491 504//491
f 452//492 506//492 453//492
f 453//493 506//493 505//493
f 453//494 505//494 504//494
f 493//495 508//496 452//497
f 452//497 508//496 507//498
f 452//499 507//499 506//499
f 450//118 487//118 451//118
f 451//500 487//500 499//500
f 451//501 499//501 498//501
f 498//502 497//502 451//502
f 451//503 497//503 496//503
f 451//504 496//504 452//504
f 452//505 496//505 494//505
f 452//506 494//506 493//506
f 485//507 492//507 449//507
f 449//508 492//508 491//508
f 449//117 491//117 450//117
f 450//509 491//509 490//509
f 450//510 490//510 488//510
f 449//511 448//511 485//511
f 485//512 448//513 301//514
f 485//512 301//514 300//515
