# Blender v2.93.6 OBJ File: ''
# www.blender.org
mtllib ValveBall3_Element.mtl
o 2_ValveBall3_ValveBall3.002_2_ValveBall3_ValveBall3.011
v -0.054182 0.009459 0.380000
v -0.054182 -0.009459 0.368000
v -0.009460 -0.054180 0.368000
v -0.054182 -0.009459 0.380000
v -0.009460 -0.054180 0.380000
v -0.009460 0.054180 0.380000
v 0.054180 0.009459 0.380000
v 0.018810 0.051683 0.368000
v 0.009548 0.054164 0.368000
v 0.054163 0.009551 0.368000
v 0.009459 0.054180 0.368000
v 0.054180 0.009459 0.368000
v 0.042131 0.035354 0.368000
v 0.035353 0.042132 0.368000
v 0.047630 0.027500 0.368000
v 0.051682 0.018811 0.368000
v 0.027500 0.047631 0.368000
v 0.009459 0.054180 0.380000
v -0.009460 0.054180 0.368000
v -0.054182 0.009459 0.368000
v 0.054180 -0.009459 0.380000
v -0.054165 0.009551 0.368000
v -0.009552 0.054164 0.368000
v -0.018812 0.051683 0.368000
v -0.027500 0.047631 0.368000
v -0.035355 0.042132 0.368000
v -0.051683 0.018811 0.368000
v -0.042133 0.035354 0.368000
v -0.047632 0.027500 0.368000
v 0.051682 -0.018811 0.368000
v 0.054163 -0.009551 0.368000
v 0.009548 -0.054165 0.368000
v 0.054180 -0.009459 0.368000
v 0.009459 -0.054180 0.368000
v 0.035353 -0.042132 0.368000
v 0.042131 -0.035354 0.368000
v 0.047630 -0.027500 0.368000
v 0.027500 -0.047631 0.368000
v 0.018810 -0.051683 0.368000
v 0.009459 -0.054180 0.380000
v -0.054165 -0.009551 0.368000
v -0.054165 -0.009551 0.283000
v -0.051683 -0.018811 0.283000
v -0.051683 -0.018811 0.368000
v -0.047632 -0.027500 0.283000
v -0.047632 -0.027500 0.368000
v -0.042133 -0.035354 0.283000
v -0.042133 -0.035354 0.368000
v -0.035355 -0.042132 0.283000
v -0.035355 -0.042132 0.368000
v -0.027500 -0.047631 0.283000
v -0.027500 -0.047631 0.368000
v -0.018812 -0.051683 0.283000
v -0.018812 -0.051683 0.368000
v -0.009552 -0.054165 0.283000
v -0.009552 -0.054165 0.368000
v 0.009548 -0.054165 0.283000
v 0.018810 -0.051683 0.283000
v 0.027500 -0.047631 0.283000
v 0.035353 -0.042132 0.283000
v 0.042131 -0.035354 0.283000
v 0.047630 -0.027500 0.283000
v 0.051682 -0.018811 0.283000
v 0.054163 -0.009551 0.283000
v 0.054163 0.009551 0.283000
v 0.051682 0.018811 0.283000
v 0.047630 0.027500 0.283000
v 0.042131 0.035354 0.283000
v 0.035353 0.042132 0.283000
v 0.027500 0.047631 0.283000
v 0.018810 0.051683 0.283000
v 0.009548 0.054164 0.283000
v -0.009552 0.054164 0.283000
v -0.018812 0.051683 0.283000
v -0.027500 0.047631 0.283000
v -0.035355 0.042132 0.283000
v -0.042133 0.035354 0.283000
v -0.047632 0.027500 0.283000
v -0.051683 0.018811 0.283000
v -0.054165 0.009551 0.283000
v -0.007072 0.056568 0.380000
v -0.007072 0.056568 0.410000
v -0.009460 0.054180 0.380000
v -0.009460 0.054180 0.410000
v 0.009459 0.054180 0.368000
v 0.007071 0.056568 0.410000
v 0.007071 0.056568 0.380000
v 0.009459 0.054180 0.410000
v 0.009459 0.054180 0.380000
v -0.009460 0.054180 0.368000
v -0.009552 0.054164 0.368000
v -0.005737 0.057689 0.410000
v -0.005737 0.057689 0.380000
v -0.004227 0.058560 0.410000
v -0.004227 0.058560 0.380000
v -0.002590 0.059156 0.410000
v -0.002590 0.059156 0.380000
v -0.000872 0.059459 0.410000
v -0.000872 0.059459 0.380000
v 0.000872 0.059459 0.410000
v 0.000872 0.059459 0.380000
v 0.002588 0.059156 0.410000
v 0.002588 0.059156 0.380000
v 0.004225 0.058560 0.410000
v 0.004225 0.058560 0.380000
v 0.005733 0.057689 0.410000
v 0.005733 0.057689 0.380000
v 0.009548 0.054164 0.283000
v -0.000000 0.054999 0.412888
v -0.000000 0.054999 0.283000
v -0.009552 0.054164 0.283000
v -0.056568 0.007071 0.410000
v -0.056568 0.007071 0.380000
v -0.054182 0.009459 0.410000
v -0.054182 0.009459 0.380000
v -0.054182 -0.009459 0.368000
v -0.054182 -0.009459 0.380000
v -0.056568 -0.007071 0.380000
v -0.056568 -0.007071 0.410000
v -0.054182 -0.009459 0.410000
v -0.054182 0.009459 0.368000
v -0.059010 -0.003091 0.380000
v -0.058409 -0.004540 0.380000
v -0.057589 -0.005877 0.380000
v -0.057589 0.005877 0.380000
v -0.058409 0.004539 0.380000
v -0.059010 0.003090 0.380000
v -0.059376 0.001564 0.380000
v -0.059498 0.000000 0.380000
v -0.059376 -0.001565 0.380000
v -0.057589 -0.005877 0.410000
v -0.058409 -0.004540 0.410000
v -0.059010 -0.003091 0.410000
v -0.059376 -0.001565 0.410000
v -0.059498 0.000000 0.410000
v -0.059376 0.001564 0.410000
v -0.059010 0.003090 0.410000
v -0.058409 0.004539 0.410000
v -0.057589 0.005877 0.410000
v -0.054165 -0.009551 0.368000
v -0.055000 0.000000 0.283000
v -0.055000 0.000000 0.412888
v -0.054165 -0.009551 0.283000
v -0.054165 0.009551 0.283000
v 0.056568 0.007071 0.380000
v 0.056568 0.007071 0.410000
v 0.054180 0.009459 0.380000
v 0.054163 0.009551 0.368000
v 0.054180 0.009459 0.368000
v 0.056568 -0.007071 0.410000
v 0.056568 -0.007071 0.380000
v 0.054180 -0.009459 0.410000
v 0.054180 -0.009459 0.380000
v 0.054180 -0.009459 0.368000
v 0.057587 -0.005877 0.380000
v 0.058407 -0.004540 0.380000
v 0.059008 -0.003091 0.380000
v 0.059008 0.003090 0.380000
v 0.058407 0.004539 0.380000
v 0.057587 0.005877 0.380000
v 0.059374 -0.001565 0.380000
v 0.059496 -0.000000 0.380000
v 0.059374 0.001564 0.380000
v 0.057587 0.005877 0.410000
v 0.058407 0.004539 0.410000
v 0.059008 0.003090 0.410000
v 0.059374 0.001564 0.410000
v 0.059496 -0.000000 0.410000
v 0.059374 -0.001565 0.410000
v 0.059008 -0.003091 0.410000
v 0.058407 -0.004540 0.410000
v 0.057587 -0.005877 0.410000
v 0.054163 -0.009551 0.283000
v 0.055000 -0.000000 0.412888
v 0.055000 -0.000000 0.283000
v 0.054163 0.009551 0.283000
v -0.056568 0.007071 0.380000
v -0.054182 0.009459 0.380000
v 0.007071 -0.056569 0.380000
v 0.005733 -0.057690 0.380000
v 0.004225 -0.058561 0.380000
v 0.002588 -0.059156 0.380000
v 0.000872 -0.059460 0.380000
v -0.000872 -0.059460 0.380000
v -0.002590 -0.059156 0.380000
v -0.004227 -0.058561 0.380000
v -0.005737 -0.057690 0.380000
v -0.007072 -0.056569 0.380000
v -0.054182 -0.009459 0.380000
v -0.009460 -0.054180 0.380000
v -0.007072 0.056568 0.380000
v -0.009460 0.054180 0.380000
v -0.056568 -0.007071 0.380000
v 0.056568 0.007071 0.380000
v 0.054180 0.009459 0.380000
v 0.007071 0.056568 0.380000
v 0.009459 0.054180 0.380000
v 0.094999 -0.216441 0.392516
v -0.095001 -0.216441 0.392516
v -0.095001 -0.208174 0.387153
v 0.094999 -0.208174 0.387153
v -0.095001 -0.199141 0.383215
v 0.094999 -0.199141 0.383215
v -0.095001 -0.189584 0.380809
v 0.094999 -0.189584 0.380809
v -0.095001 -0.179763 0.380000
v 0.094999 -0.179763 0.380000
v 0.056568 -0.007071 0.380000
v 0.054180 -0.009459 0.380000
v -0.005737 0.057689 0.380000
v -0.004227 0.058560 0.380000
v -0.002590 0.059156 0.380000
v -0.000872 0.059459 0.380000
v 0.000872 0.059459 0.380000
v 0.002588 0.059156 0.380000
v 0.004225 0.058560 0.380000
v 0.005733 0.057689 0.380000
v 0.009459 -0.054180 0.380000
v -0.018969 0.159707 0.380000
v 0.019863 0.158681 0.380000
v 0.058126 0.151982 0.380000
v -0.057535 0.155042 0.380000
v -0.059010 -0.003091 0.380000
v -0.058409 -0.004540 0.380000
v -0.057589 -0.005877 0.380000
v -0.095001 0.144782 0.380000
v -0.057589 0.005877 0.380000
v -0.058409 0.004539 0.380000
v -0.059010 0.003090 0.380000
v 0.057587 -0.005877 0.380000
v 0.058407 -0.004540 0.380000
v 0.059008 -0.003091 0.380000
v 0.094999 0.139757 0.380000
v 0.059008 0.003090 0.380000
v 0.058407 0.004539 0.380000
v 0.057587 0.005877 0.380000
v 0.059374 -0.001565 0.380000
v 0.059496 -0.000000 0.380000
v 0.059374 0.001564 0.380000
v -0.059376 0.001564 0.380000
v -0.059498 0.000000 0.380000
v -0.059376 -0.001565 0.380000
v 0.094999 -0.521180 0.650000
v -0.095001 -0.521180 0.650000
v 0.094999 -0.648438 0.650000
v -0.095001 -0.648438 0.650000
v -0.056568 0.007071 0.410000
v -0.054182 0.009459 0.410000
v -0.050150 -0.071092 0.410000
v -0.095001 -0.183175 0.410000
v -0.037045 -0.078720 0.410000
v -0.022810 -0.083957 0.410000
v 0.094999 -0.183175 0.410000
v 0.007280 -0.086695 0.410000
v -0.007887 -0.086642 0.410000
v -0.061733 -0.061303 0.410000
v -0.071442 -0.049652 0.410000
v -0.078978 -0.036493 0.410000
v 0.078718 -0.037043 0.410000
v 0.071091 -0.050150 0.410000
v 0.061302 -0.061732 0.410000
v 0.049652 -0.071440 0.410000
v 0.036491 -0.078977 0.410000
v 0.022224 -0.084114 0.410000
v -0.083958 0.022810 0.410000
v -0.078722 0.037042 0.410000
v -0.095001 0.144782 0.410000
v -0.071093 0.050149 0.410000
v -0.061304 0.061732 0.410000
v -0.049654 0.071440 0.410000
v -0.057535 0.155042 0.410000
v -0.084114 -0.022224 0.410000
v -0.086697 -0.007280 0.410000
v -0.086643 0.007884 0.410000
v 0.061731 0.061303 0.410000
v 0.071438 0.049652 0.410000
v 0.094999 0.139757 0.410000
v 0.078976 0.036492 0.410000
v 0.084112 0.022223 0.410000
v 0.086695 0.007280 0.410000
v 0.086641 -0.007885 0.410000
v 0.083956 -0.022810 0.410000
v -0.036493 0.078977 0.410000
v -0.022224 0.084113 0.410000
v -0.018969 0.159707 0.410000
v -0.007280 0.086695 0.410000
v 0.019863 0.158681 0.410000
v 0.007885 0.086641 0.410000
v 0.058126 0.151982 0.410000
v 0.022810 0.083956 0.410000
v 0.037043 0.078720 0.410000
v 0.050148 0.071092 0.410000
v 0.007071 -0.056569 0.410000
v 0.005733 -0.057690 0.410000
v 0.004225 -0.058561 0.410000
v 0.002588 -0.059156 0.410000
v 0.000872 -0.059460 0.410000
v -0.000872 -0.059460 0.410000
v -0.002590 -0.059156 0.410000
v -0.004227 -0.058561 0.410000
v -0.005737 -0.057690 0.410000
v -0.007072 -0.056569 0.410000
v 0.009459 -0.054180 0.467112
v 0.009459 -0.054180 0.470000
v 0.008705 -0.054307 0.470000
v -0.009460 -0.054180 0.470000
v -0.009460 -0.054180 0.467112
v -0.008707 -0.054307 0.470000
v -0.004986 -0.054773 0.467112
v -0.000000 -0.055000 0.470000
v -0.000000 -0.055000 0.467112
v 0.004602 -0.054808 0.467112
v 0.054180 0.009459 0.467112
v 0.054180 0.009459 0.470000
v 0.054306 0.008706 0.470000
v 0.054180 -0.009459 0.470000
v 0.054180 -0.009459 0.467112
v 0.054306 -0.008706 0.470000
v 0.054773 -0.004985 0.467112
v 0.055000 -0.000000 0.470000
v 0.055000 -0.000000 0.467112
v 0.054806 0.004602 0.467112
v -0.054182 -0.009459 0.467112
v -0.054182 -0.009459 0.470000
v -0.054308 -0.008706 0.470000
v -0.054182 0.009459 0.470000
v -0.054182 0.009459 0.467112
v -0.054308 0.008706 0.470000
v -0.054775 0.004985 0.467112
v -0.055000 0.000000 0.470000
v -0.055000 0.000000 0.467112
v -0.054808 -0.004602 0.467112
v -0.031820 0.031820 0.480000
v -0.037121 0.026519 0.479380
v -0.036207 0.026724 0.480000
v -0.042589 0.021050 0.477493
v -0.039980 0.020656 0.480000
v -0.050657 0.012983 0.472707
v -0.042746 0.014067 0.480000
v -0.044434 0.007123 0.480000
v -0.031820 -0.031820 0.480000
v -0.036207 -0.026725 0.480000
v -0.033867 -0.029773 0.479907
v -0.039091 -0.024549 0.478840
v -0.039980 -0.020657 0.480000
v -0.042746 -0.014067 0.480000
v -0.045231 -0.018411 0.476167
v -0.044434 -0.007124 0.480000
v -0.045000 0.000000 0.480000
v -0.112413 -1.239480 0.660944
v 0.097351 -1.295686 0.660944
v 0.105633 -1.277927 0.660944
v 0.086111 -1.311738 0.660944
v -0.110706 -1.259001 0.660944
v -0.105635 -1.277927 0.660944
v -0.097353 -1.295686 0.660944
v -0.086113 -1.311738 0.660944
v 0.072256 -1.325593 0.660944
v 0.056206 -1.336832 0.660944
v 0.112411 -0.648438 0.660944
v -0.112413 -0.648438 0.660944
v 0.112411 -1.239480 0.660944
v 0.110704 -1.259001 0.660944
v -0.000000 -1.351893 0.660944
v -0.072258 -1.325593 0.660944
v 0.019520 -1.350185 0.660944
v 0.038446 -1.345114 0.660944
v -0.056208 -1.336832 0.660944
v -0.038448 -1.345114 0.660944
v -0.019520 -1.350185 0.660944
v -0.077839 -0.077296 0.423104
v -0.077839 -0.077296 0.456896
v -0.083254 -0.056798 0.417957
v -0.082848 -0.058334 0.461730
v -0.087505 -0.040706 0.415490
v -0.086365 -0.045025 0.463998
v -0.090572 -0.029104 0.414695
v -0.093126 -0.019432 0.465305
v -0.097334 -0.003510 0.416002
v -0.096191 -0.007830 0.464510
v -0.100849 0.009798 0.418270
v -0.100443 0.008263 0.462043
v -0.105860 0.028761 0.423104
v -0.105860 0.028761 0.456896
v -0.007072 0.056568 0.410000
v -0.009460 0.054180 0.410000
v -0.056568 -0.007071 0.410000
v -0.054182 -0.009459 0.410000
v 0.056568 0.007071 0.380000
v 0.056568 0.007071 0.410000
v 0.054180 0.009459 0.380000
v 0.054180 0.009459 0.410000
v 0.007071 0.056568 0.410000
v 0.009459 0.054180 0.410000
v 0.031818 -0.031820 0.480000
v 0.037121 -0.026520 0.479380
v 0.036205 -0.026725 0.480000
v 0.042587 -0.021050 0.477493
v 0.039978 -0.020657 0.480000
v 0.050655 -0.012983 0.472707
v 0.042744 -0.014067 0.480000
v 0.044432 -0.007124 0.480000
v 0.031818 0.031820 0.480000
v 0.036205 0.026724 0.480000
v 0.033865 0.029772 0.479907
v 0.039089 0.024549 0.478840
v 0.039978 0.020656 0.480000
v 0.042744 0.014067 0.480000
v 0.045227 0.018411 0.476167
v 0.044432 0.007123 0.480000
v 0.045000 -0.000000 0.480000
v 0.094999 -0.216441 0.392516
v -0.095001 -0.216441 0.392516
v -0.095001 -0.208174 0.387153
v 0.094999 -0.208174 0.387153
v -0.095001 -0.199141 0.383215
v 0.094999 -0.199141 0.383215
v -0.095001 -0.189584 0.380809
v 0.094999 -0.189584 0.380809
v -0.095001 -0.179763 0.380000
v 0.094999 -0.179763 0.380000
v 0.094999 -0.517768 0.620000
v -0.095001 -0.517768 0.620000
v 0.094999 -0.514494 0.619730
v -0.095001 -0.514494 0.619730
v 0.094999 -0.511309 0.618928
v -0.095001 -0.511309 0.618928
v 0.094999 -0.508297 0.617615
v -0.095001 -0.508297 0.617615
v 0.094999 -0.505542 0.615828
v -0.095001 -0.505542 0.615828
v -0.051067 0.012573 0.465721
v -0.015568 0.048072 0.415469
v -0.012575 0.051065 0.414279
v -0.009460 0.054180 0.412888
v -0.048073 0.015568 0.464531
v -0.048073 0.015568 0.415469
v -0.029774 0.033867 0.479907
v -0.054182 0.009459 0.412888
v -0.051067 0.012573 0.414279
v -0.015568 0.048072 0.464531
v -0.024549 0.039090 0.478840
v -0.012575 0.051065 0.465721
v -0.018412 0.045229 0.476167
v -0.009460 0.054180 0.467112
v -0.009460 0.054180 0.470000
v -0.006500 -0.046549 0.478000
v -0.006500 0.046548 0.478000
v -0.006500 0.045527 0.479011
v -0.006500 0.044528 0.480000
v -0.006500 -0.044528 0.480000
v -0.006500 -0.045527 0.479011
v 0.007122 0.044433 0.480000
v 0.006498 0.044528 0.480000
v 0.006498 -0.044528 0.480000
v 0.007122 -0.044433 0.480000
v 0.014065 -0.042745 0.480000
v 0.020655 -0.039979 0.480000
v 0.026724 0.036205 0.480000
v 0.020655 0.039979 0.480000
v 0.026724 -0.036205 0.480000
v 0.014065 0.042745 0.480000
v 0.051065 0.012573 0.414279
v 0.054180 0.009459 0.412888
v 0.012573 0.051065 0.465721
v 0.009459 0.054180 0.467112
v 0.009459 0.054180 0.470000
v 0.048071 0.015568 0.415469
v 0.015566 0.048072 0.464531
v 0.015566 0.048072 0.415469
v 0.012983 0.050656 0.472707
v 0.021049 0.042589 0.477493
v 0.026518 0.037120 0.479380
v 0.051065 0.012573 0.465721
v 0.048071 0.015568 0.464531
v 0.012573 0.051065 0.414279
v 0.009459 0.054180 0.412888
v -0.028023 0.106057 0.456896
v -0.028023 0.106057 0.423104
v -0.043066 0.091118 0.462043
v -0.041941 0.092237 0.418270
v -0.054876 0.079389 0.464510
v -0.051706 0.082537 0.416002
v -0.063393 0.070933 0.465305
v -0.070492 0.063884 0.414695
v -0.082176 0.052280 0.463998
v -0.079006 0.055429 0.415490
v -0.091942 0.042581 0.461730
v -0.090816 0.043700 0.417957
v 0.094999 -0.484502 0.637484
v 0.094999 -0.195401 0.414172
v -0.095001 -0.484502 0.637484
v -0.095001 -0.195401 0.414172
v 0.112411 -0.648438 0.610944
v 0.112411 -1.239480 0.610944
v -0.095001 -0.648438 0.620000
v 0.094999 -0.648438 0.620000
v -0.007563 0.100498 0.417957
v -0.009096 0.100915 0.461730
v 0.008499 0.096134 0.415490
v 0.004189 0.097305 0.463998
v 0.020081 0.092988 0.414695
v 0.029734 0.090364 0.465305
v 0.045626 0.086047 0.416002
v 0.041315 0.087219 0.464510
v 0.058910 0.082438 0.418270
v 0.057377 0.082854 0.462043
v 0.077837 0.077296 0.423104
v 0.077837 0.077296 0.456896
v 0.056568 -0.007071 0.410000
v 0.056568 -0.007071 0.380000
v 0.054180 -0.009459 0.410000
v 0.054180 -0.009459 0.380000
v 0.024549 -0.039090 0.478840
v -0.007124 -0.044433 0.480000
v 0.006498 -0.045527 0.479011
v 0.006498 -0.046549 0.478000
v 0.029772 -0.033868 0.479907
v -0.000000 -0.047000 0.478000
v 0.018410 -0.045229 0.476167
v -0.012985 -0.050656 0.472707
v -0.026520 -0.037121 0.479380
v -0.026726 -0.036205 0.480000
v -0.021051 -0.042589 0.477493
v -0.020657 -0.039979 0.480000
v -0.014069 -0.042745 0.480000
v 0.094999 -0.186449 0.410270
v -0.095001 -0.186449 0.410270
v 0.094999 -0.189634 0.411072
v -0.095001 -0.189634 0.411072
v 0.094999 -0.192645 0.412384
v -0.095001 -0.192645 0.412384
v -0.061733 -0.061303 0.470000
v -0.057379 -0.082855 0.462043
v -0.050150 -0.071092 0.470000
v -0.041317 -0.087219 0.464510
v -0.037045 -0.078720 0.470000
v -0.029736 -0.090365 0.465305
v -0.022810 -0.083957 0.470000
v -0.004190 -0.097306 0.463998
v -0.007887 -0.086642 0.470000
v 0.009094 -0.100915 0.461730
v 0.007280 -0.086695 0.470000
v 0.028021 -0.106057 0.456896
v 0.022224 -0.084114 0.470000
v 0.043064 -0.091119 0.462043
v 0.036491 -0.078977 0.470000
v 0.054874 -0.079390 0.464510
v 0.049652 -0.071440 0.470000
v 0.063391 -0.070933 0.465305
v 0.061302 -0.061732 0.470000
v 0.082174 -0.052280 0.463998
v 0.071091 -0.050150 0.470000
v 0.091942 -0.042582 0.461730
v 0.078718 -0.037043 0.470000
v 0.105858 -0.028761 0.456896
v 0.083956 -0.022810 0.470000
v 0.100443 -0.008264 0.462043
v 0.086641 -0.007885 0.470000
v 0.096189 0.007830 0.464510
v 0.086695 0.007280 0.470000
v 0.093124 0.019431 0.465305
v 0.084112 0.022223 0.470000
v 0.086363 0.045025 0.463998
v 0.078976 0.036492 0.470000
v 0.082846 0.058333 0.461730
v 0.071438 0.049652 0.470000
v 0.061731 0.061303 0.470000
v 0.050148 0.071092 0.470000
v 0.037043 0.078720 0.470000
v 0.022810 0.083956 0.470000
v 0.007885 0.086641 0.470000
v -0.007280 0.086695 0.470000
v -0.022224 0.084113 0.470000
v -0.036493 0.078977 0.470000
v -0.049654 0.071440 0.470000
v -0.061304 0.061732 0.470000
v -0.071093 0.050149 0.470000
v -0.078722 0.037042 0.470000
v -0.083958 0.022810 0.470000
v -0.086643 0.007884 0.470000
v -0.086697 -0.007280 0.470000
v -0.084114 -0.022224 0.470000
v -0.078978 -0.036493 0.470000
v -0.071442 -0.049652 0.470000
v -0.005737 0.057689 0.410000
v -0.004227 0.058560 0.410000
v -0.002590 0.059156 0.410000
v -0.000872 0.059459 0.410000
v 0.000872 0.059459 0.410000
v 0.002588 0.059156 0.410000
v 0.004225 0.058560 0.410000
v 0.005733 0.057689 0.410000
v 0.009459 -0.054180 0.380000
v 0.008705 0.054306 0.470000
v -0.007124 0.044433 0.480000
v -0.026726 0.036205 0.480000
v -0.020657 0.039979 0.480000
v -0.014069 0.042745 0.480000
v -0.008707 0.054306 0.470000
v -0.000000 0.054999 0.470000
v -0.000000 0.047000 0.478000
v 0.006498 0.046548 0.478000
v 0.006498 0.045527 0.479011
v 0.051065 -0.012574 0.465721
v 0.015566 -0.048073 0.415469
v 0.009459 -0.054180 0.410000
v 0.012573 -0.051065 0.414279
v 0.009459 -0.054180 0.412888
v 0.048071 -0.015568 0.464531
v 0.048071 -0.015568 0.415469
v 0.012573 -0.051065 0.465721
v 0.015566 -0.048073 0.464531
v 0.051065 -0.012574 0.414279
v 0.054180 -0.009459 0.412888
v -0.015568 -0.048073 0.464531
v -0.015568 -0.048073 0.415469
v -0.021515 -0.045721 0.464531
v -0.021515 -0.045721 0.415469
v -0.022911 -0.045038 0.464531
v -0.022911 -0.045038 0.415469
v -0.029127 -0.041290 0.464531
v -0.029127 -0.041290 0.415469
v -0.029688 -0.040890 0.464531
v -0.029688 -0.040890 0.415469
v -0.035732 -0.035730 0.464531
v -0.035732 -0.035730 0.415469
v -0.035854 -0.035605 0.464531
v -0.035854 -0.035605 0.415469
v -0.040890 -0.029688 0.464531
v -0.040890 -0.029688 0.415469
v -0.041492 -0.028839 0.464531
v -0.041492 -0.028839 0.415469
v -0.045038 -0.022911 0.464531
v -0.045038 -0.022911 0.415469
v -0.045872 -0.021195 0.464531
v -0.045872 -0.021195 0.415469
v -0.048073 -0.015568 0.464531
v -0.048073 -0.015568 0.415469
v 0.083252 0.056798 0.417957
v 0.087505 0.040706 0.415490
v 0.090570 0.029104 0.414695
v 0.097332 0.003510 0.416002
v 0.100847 -0.009799 0.418270
v 0.105858 -0.028761 0.423104
v 0.110704 -1.259001 0.610944
v 0.105633 -1.277927 0.610944
v 0.097351 -1.295686 0.610944
v 0.086111 -1.311738 0.610944
v 0.072256 -1.325593 0.610944
v 0.056206 -1.336832 0.610944
v 0.038446 -1.345114 0.610944
v 0.019520 -1.350185 0.610944
v -0.000000 -1.351893 0.610944
v -0.019520 -1.350185 0.610944
v -0.038448 -1.345114 0.610944
v -0.056208 -1.336832 0.610944
v -0.072258 -1.325593 0.610944
v -0.086113 -1.311738 0.610944
v -0.097353 -1.295686 0.610944
v -0.105635 -1.277927 0.610944
v -0.110706 -1.259001 0.610944
v -0.112413 -1.239480 0.610944
v 0.045868 0.021194 0.415469
v 0.045868 0.021194 0.464531
v 0.045036 0.022910 0.415469
v 0.045036 0.022910 0.464531
v 0.041491 0.028838 0.415469
v 0.041491 0.028838 0.464531
v 0.040888 0.029687 0.415469
v 0.040888 0.029687 0.464531
v 0.035854 0.035605 0.415469
v 0.035854 0.035605 0.464531
v 0.035730 0.035729 0.415469
v 0.035730 0.035729 0.464531
v 0.029688 0.040889 0.415469
v 0.029688 0.040889 0.464531
v 0.029125 0.041290 0.415469
v 0.029125 0.041290 0.464531
v 0.022909 0.045037 0.415469
v 0.022909 0.045037 0.464531
v 0.021513 0.045721 0.415469
v 0.021513 0.045721 0.464531
v -0.018969 0.159707 0.380000
v 0.019863 0.158681 0.380000
v 0.058126 0.151982 0.380000
v -0.057535 0.155042 0.380000
v -0.095001 0.144782 0.380000
v 0.057587 -0.005877 0.380000
v 0.058407 -0.004540 0.380000
v 0.059008 -0.003091 0.380000
v 0.094999 0.139757 0.380000
v 0.059008 0.003090 0.380000
v 0.058407 0.004539 0.380000
v 0.057587 0.005877 0.380000
v 0.059374 -0.001565 0.380000
v 0.059496 -0.000000 0.380000
v 0.059374 0.001564 0.380000
v 0.005020 -0.059793 0.410000
v -0.005438 -0.059755 0.410000
v -0.057589 -0.005877 0.410000
v -0.058012 -0.015328 0.410000
v -0.005022 0.059792 0.410000
v 0.005436 0.059755 0.410000
v 0.015327 -0.058012 0.410000
v -0.015734 -0.057903 0.410000
v -0.059793 -0.005021 0.410000
v -0.058409 -0.004540 0.410000
v -0.059010 -0.003091 0.410000
v 0.058010 0.015327 0.410000
v 0.057587 0.005877 0.410000
v 0.059792 0.005021 0.410000
v 0.058407 0.004539 0.410000
v 0.059008 0.003090 0.410000
v 0.015730 0.057902 0.410000
v -0.059376 -0.001565 0.410000
v -0.059498 0.000000 0.410000
v -0.059757 0.005438 0.410000
v -0.059376 0.001564 0.410000
v -0.059010 0.003090 0.410000
v -0.015329 0.058011 0.410000
v 0.059374 0.001564 0.410000
v 0.059496 -0.000000 0.410000
v 0.059753 -0.005438 0.410000
v 0.059374 -0.001565 0.410000
v 0.059008 -0.003091 0.410000
v 0.058407 -0.004540 0.410000
v 0.057587 -0.005877 0.410000
v 0.057903 -0.015732 0.410000
v -0.054470 -0.025168 0.410000
v -0.049273 -0.034245 0.410000
v -0.009460 -0.054180 0.410000
v -0.025549 -0.054292 0.410000
v 0.049269 0.034245 0.410000
v 0.042576 0.042279 0.410000
v -0.042576 -0.042280 0.410000
v -0.034588 -0.049031 0.410000
v -0.054293 0.025547 0.410000
v -0.057905 0.015732 0.410000
v 0.054468 0.025168 0.410000
v 0.034586 0.049030 0.410000
v 0.025547 0.054291 0.410000
v -0.058409 0.004539 0.410000
v -0.057589 0.005877 0.410000
v 0.025167 -0.054468 0.410000
v 0.034243 -0.049271 0.410000
v 0.042278 -0.042576 0.410000
v 0.049028 -0.034587 0.410000
v 0.054291 -0.025548 0.410000
v -0.025169 0.054468 0.410000
v -0.034245 0.049271 0.410000
v -0.042280 0.042576 0.410000
v -0.049030 0.034587 0.410000
v 0.094999 -0.511359 0.649191
v 0.094999 -0.501803 0.646785
v 0.094999 -0.492768 0.642847
v -0.112413 -0.648438 0.610944
v 0.090815 -0.043700 0.417957
v 0.079004 -0.055429 0.415490
v 0.070490 -0.063885 0.414695
v 0.051704 -0.082538 0.416002
v 0.041939 -0.092237 0.418270
v 0.028021 -0.106057 0.423104
v 0.007563 -0.100499 0.417957
v -0.008501 -0.096135 0.415490
v -0.020081 -0.092988 0.414695
v -0.045628 -0.086047 0.416002
v -0.058910 -0.082438 0.418270
v -0.054182 -0.009459 0.412888
v -0.054808 -0.004602 0.412888
v -0.055000 0.000000 0.412888
v -0.004986 -0.054773 0.412888
v -0.009460 -0.054180 0.412888
v -0.000000 -0.055000 0.412888
v 0.004602 -0.054808 0.412888
v 0.054773 -0.004985 0.412888
v 0.055000 -0.000000 0.412888
v 0.054806 0.004602 0.412888
v 0.004984 0.054773 0.412888
v -0.000000 0.054999 0.412888
v -0.004604 0.054807 0.412888
v -0.054775 0.004985 0.412888
v -0.057905 0.015732 0.470000
v -0.059757 0.005438 0.470000
v -0.059793 -0.005021 0.470000
v -0.058012 -0.015328 0.470000
v -0.051067 -0.012574 0.465721
v -0.054470 -0.025168 0.470000
v -0.012575 -0.051065 0.465721
v -0.015734 -0.057903 0.470000
v -0.025549 -0.054292 0.470000
v -0.005438 -0.059755 0.470000
v 0.005020 -0.059793 0.470000
v 0.015327 -0.058012 0.470000
v 0.025167 -0.054468 0.470000
v 0.021194 -0.045870 0.464531
v 0.057903 -0.015732 0.470000
v 0.054291 -0.025548 0.470000
v 0.059753 -0.005438 0.470000
v 0.059792 0.005021 0.470000
v 0.058010 0.015327 0.470000
v 0.054468 0.025168 0.470000
v 0.015730 0.057902 0.470000
v 0.025547 0.054291 0.470000
v 0.004984 0.054773 0.467112
v 0.005436 0.059755 0.470000
v -0.000000 0.054999 0.467112
v -0.005022 0.059792 0.470000
v -0.004604 0.054807 0.467112
v -0.015329 0.058011 0.470000
v -0.025169 0.054468 0.470000
v -0.021196 0.045870 0.464531
v -0.054293 0.025547 0.470000
v 0.034586 0.049030 0.470000
v 0.042576 0.042279 0.470000
v 0.049269 0.034245 0.470000
v 0.045719 -0.021515 0.464531
v 0.045036 -0.022911 0.464531
v 0.049028 -0.034587 0.470000
v 0.041290 -0.029127 0.464531
v 0.040888 -0.029688 0.464531
v 0.042278 -0.042576 0.470000
v 0.035730 -0.035730 0.464531
v 0.035604 -0.035854 0.464531
v 0.034243 -0.049271 0.470000
v 0.029688 -0.040890 0.464531
v 0.028837 -0.041492 0.464531
v 0.022909 -0.045038 0.464531
v -0.034588 -0.049031 0.470000
v -0.042576 -0.042280 0.470000
v -0.049273 -0.034245 0.470000
v -0.045721 0.021514 0.464531
v -0.045038 0.022910 0.464531
v -0.049030 0.034587 0.470000
v -0.041292 0.029127 0.464531
v -0.040890 0.029687 0.464531
v -0.042280 0.042576 0.470000
v -0.035732 0.035729 0.464531
v -0.035606 0.035854 0.464531
v -0.034245 0.049271 0.470000
v -0.029688 0.040889 0.464531
v -0.028839 0.041492 0.464531
v -0.022911 0.045037 0.464531
v -0.021196 0.045870 0.415469
v -0.022911 0.045037 0.415469
v -0.028839 0.041492 0.415469
v -0.029688 0.040889 0.415469
v -0.035606 0.035854 0.415469
v -0.035732 0.035729 0.415469
v -0.040890 0.029687 0.415469
v -0.041292 0.029127 0.415469
v -0.045038 0.022910 0.415469
v -0.045721 0.021514 0.415469
v 0.045719 -0.021515 0.415469
v -0.012575 -0.051065 0.414279
v -0.051067 -0.012574 0.414279
v 0.021194 -0.045870 0.415469
v 0.022909 -0.045038 0.415469
v 0.028837 -0.041492 0.415469
v 0.029688 -0.040890 0.415469
v 0.035604 -0.035854 0.415469
v 0.035730 -0.035730 0.415469
v 0.040888 -0.029688 0.415469
v 0.041290 -0.029127 0.415469
v 0.045036 -0.022911 0.415469
v -0.095001 -0.492768 0.642847
v -0.095001 -0.501803 0.646785
v -0.095001 -0.511359 0.649191
v 0.007071 -0.056569 0.410000
v 0.007071 -0.056569 0.380000
v 0.005733 -0.057690 0.410000
v 0.005733 -0.057690 0.380000
v 0.004225 -0.058561 0.410000
v 0.004225 -0.058561 0.380000
v 0.002588 -0.059156 0.410000
v 0.002588 -0.059156 0.380000
v 0.000872 -0.059460 0.410000
v 0.000872 -0.059460 0.380000
v -0.000872 -0.059460 0.410000
v -0.000872 -0.059460 0.380000
v -0.002590 -0.059156 0.410000
v -0.002590 -0.059156 0.380000
v -0.004227 -0.058561 0.410000
v -0.004227 -0.058561 0.380000
v -0.005737 -0.057690 0.410000
v -0.005737 -0.057690 0.380000
v -0.007072 -0.056569 0.410000
v -0.007072 -0.056569 0.380000
v -0.009460 -0.054180 0.368000
v -0.009460 -0.054180 0.380000
v 0.009548 -0.054165 0.368000
v 0.009459 -0.054180 0.368000
v 0.009459 -0.054180 0.380000
v 0.009459 -0.054180 0.410000
v -0.009460 -0.054180 0.410000
v -0.009552 -0.054165 0.283000
v -0.000000 -0.055000 0.412888
v -0.000000 -0.055000 0.283000
v 0.009548 -0.054165 0.283000
vn -0.7071 -0.7071 -0.0000
vn 0.0000 0.0000 1.0000
vn -0.0001 0.0006 1.0000
vn 0.0000 -0.0006 1.0000
vn -0.0001 0.0014 1.0000
vn -0.7071 0.7071 -0.0000
vn 0.0000 0.0011 1.0000
vn 0.0001 0.0020 1.0000
vn 0.0000 0.0003 1.0000
vn 0.0001 0.0012 1.0000
vn 0.7071 0.7071 0.0000
vn -0.0002 -0.0006 1.0000
vn -0.0003 -0.0007 1.0000
vn 0.7071 -0.7071 0.0000
vn -0.9659 -0.2589 -0.0000
vn -0.9063 -0.4226 -0.0000
vn -0.8192 -0.5735 -0.0000
vn -0.5735 -0.8192 -0.0000
vn -0.4227 -0.9063 -0.0000
vn -0.2589 -0.9659 0.0000
vn 0.2588 -0.9659 0.0000
vn 0.4226 -0.9063 0.0000
vn 0.5736 -0.8191 0.0000
vn 0.8192 -0.5735 0.0000
vn 0.9063 -0.4226 0.0000
vn 0.9659 -0.2588 0.0000
vn 0.9659 0.2588 0.0000
vn 0.9063 0.4226 0.0000
vn 0.8192 0.5735 0.0000
vn 0.5736 0.8191 0.0000
vn 0.4226 0.9063 0.0000
vn 0.2587 0.9659 0.0000
vn -0.2588 0.9659 -0.0000
vn -0.4227 0.9063 -0.0000
vn -0.5735 0.8192 -0.0000
vn -0.8192 0.5735 -0.0000
vn -0.9063 0.4226 -0.0000
vn -0.9659 0.2589 -0.0000
vn 0.0011 -0.0011 1.0000
vn -0.0008 -0.0003 1.0000
vn 0.0009 -0.0009 1.0000
vn -0.0007 0.0000 1.0000
vn 0.6427 -0.7661 0.0000
vn 0.6431 -0.7658 0.0000
vn 0.4997 -0.8662 0.0000
vn 0.3421 -0.9397 0.0000
vn 0.1737 -0.9848 0.0000
vn 0.1734 -0.9849 0.0000
vn 0.0000 -1.0000 0.0000
vn -0.1739 -0.9848 0.0000
vn -0.3421 -0.9397 -0.0000
vn -0.5002 -0.8659 0.0000
vn -0.6422 -0.7665 -0.0000
vn 0.0863 0.9963 0.0000
vn 0.0866 0.9962 0.0000
vn -0.1744 0.9846 -0.0099
vn -0.0863 0.9963 0.0000
vn 0.0867 0.9962 -0.0000
vn 0.0871 0.9962 -0.0001
vn -0.0871 0.9962 0.0000
vn 0.7074 -0.7068 0.0000
vn 0.7074 0.7068 0.0000
vn -0.9828 -0.1842 -0.0110
vn -0.9963 -0.0862 -0.0000
vn -0.9962 -0.0871 -0.0000
vn -0.9963 0.0862 -0.0000
vn -0.9962 0.0871 -0.0001
vn -0.9962 0.0866 -0.0000
vn 0.7600 0.6499 0.0000
vn 0.8524 0.5228 0.0000
vn 0.9237 0.3831 0.0000
vn 0.9238 0.3828 0.0000
vn 0.9239 0.3826 0.0000
vn 0.9724 0.2332 0.0000
vn 0.9970 0.0777 0.0000
vn 0.9970 -0.0778 0.0000
vn 0.9724 -0.2332 0.0000
vn 0.9237 -0.3831 0.0000
vn 0.9239 -0.3827 0.0000
vn 0.8526 -0.5225 0.0000
vn 0.7600 -0.6499 0.0000
vn 0.9963 -0.0864 0.0000
vn 0.9962 -0.0867 -0.0001
vn 0.9963 0.0864 0.0000
vn 0.9962 -0.0868 -0.0000
vn 0.9962 -0.0873 -0.0001
vn 0.9962 0.0873 0.0000
vn -0.7606 -0.6492 -0.0000
vn -0.8526 -0.5225 -0.0000
vn -0.9237 -0.3831 -0.0000
vn -0.9239 -0.3827 0.0000
vn -0.9724 -0.2332 -0.0000
vn -0.9970 -0.0778 -0.0000
vn -0.9970 0.0777 -0.0000
vn -0.9724 0.2332 -0.0000
vn -0.9237 0.3831 -0.0000
vn -0.8524 0.5228 -0.0000
vn -0.7609 0.6488 0.0002
vn -0.7606 0.6492 -0.0000
vn 0.0000 -0.5442 -0.8389
vn 0.0000 -0.3996 -0.9167
vn 0.0000 -0.2441 -0.9697
vn 0.0000 -0.0821 -0.9966
vn 0.0000 0.0000 -1.0000
vn -0.0001 -0.0000 -1.0000
vn 0.0001 -0.0000 -1.0000
vn 0.1661 -0.9861 0.0000
vn -0.1660 -0.9861 0.0000
vn -0.1314 -0.9913 -0.0093
vn -0.0792 -0.9951 0.0585
vn -0.0455 -0.9990 0.0000
vn 0.0794 -0.9968 -0.0000
vn 0.0414 -0.9927 0.1134
vn 0.1282 -0.9917 -0.0101
vn 0.9863 0.1650 0.0000
vn 0.9863 -0.1650 0.0000
vn 0.9913 -0.1314 -0.0090
vn 0.9951 -0.0793 0.0587
vn 0.9990 -0.0455 0.0000
vn 0.9968 0.0795 0.0000
vn 0.9928 0.0419 0.1124
vn 0.9917 0.1278 -0.0099
vn -0.9863 -0.1650 -0.0000
vn -0.9863 0.1650 -0.0000
vn -0.9913 0.1314 -0.0090
vn -0.9951 0.0791 0.0590
vn -0.9990 0.0451 -0.0000
vn -0.9969 -0.0792 -0.0000
vn -0.9928 -0.0416 0.1127
vn -0.9917 -0.1278 -0.0099
vn -0.5631 0.4848 0.6692
vn -0.5798 0.3215 0.7486
vn -0.6106 0.3796 0.6950
vn -0.6561 0.2297 0.7189
vn -0.6709 0.2817 0.6859
vn -0.6806 0.1655 0.7137
vn -0.3013 -0.2594 0.9176
vn -0.6183 -0.4933 0.6118
vn -0.5653 -0.3515 0.7462
vn -0.7935 -0.3331 0.5094
vn -0.6138 -0.2950 0.7323
vn -0.6905 -0.2145 0.6908
vn -0.6863 -0.1668 0.7079
vn -0.6974 -0.1167 0.7071
vn -0.7060 -0.0561 0.7060
vn -0.7060 0.0561 0.7060
vn -0.6927 0.1440 0.7067
vn -0.6736 0.1127 0.7304
vn -0.9668 -0.2554 -0.0000
vn -0.9668 -0.2555 -0.0000
vn 0.5625 -0.4842 0.6702
vn 0.5793 -0.3206 0.7494
vn 0.6106 -0.3797 0.6950
vn 0.6561 -0.2297 0.7188
vn 0.6709 -0.2816 0.6859
vn 0.6806 -0.1655 0.7137
vn 0.3020 0.2598 0.9172
vn 0.6182 0.4932 0.6120
vn 0.5651 0.3513 0.7465
vn 0.7932 0.3329 0.5100
vn 0.6139 0.2951 0.7321
vn 0.6905 0.2148 0.6907
vn 0.6863 0.1668 0.7080
vn 0.6974 0.1167 0.7071
vn 0.7060 0.0563 0.7060
vn 0.7060 -0.0563 0.7060
vn 0.6927 -0.1440 0.7067
vn 0.6736 -0.1127 0.7304
vn 0.0000 -0.0822 -0.9966
vn 0.0000 -0.2442 -0.9697
vn 0.0000 -0.5442 -0.8390
vn -0.7071 0.7071 0.0001
vn -0.7070 0.7072 -0.0000
vn -0.7072 0.7070 0.0001
vn -0.7071 0.7071 0.0002
vn -0.7070 0.7072 0.0002
vn -0.7072 0.7070 -0.0002
vn -0.7072 0.7070 0.0002
vn 1.0000 -0.0000 0.0000
vn 0.0001 0.0000 1.0000
vn 0.7071 0.7071 0.0001
vn 0.7070 0.7072 0.0000
vn 0.7072 0.7071 -0.0001
vn 0.7072 0.7070 0.0000
vn 0.7072 0.7070 -0.0001
vn 0.7072 0.7071 -0.0000
vn 0.7071 0.7072 -0.0000
vn 0.7072 0.7070 0.0001
vn -0.7046 0.7096 -0.0000
vn -0.7047 0.7096 0.0000
vn -0.7047 0.7095 0.0000
vn 0.0000 0.6113 0.7914
vn 0.2622 0.9650 0.0000
vn 0.2621 0.9650 -0.0000
vn 0.3329 -0.7933 0.5098
vn -0.1073 -0.6993 0.7067
vn -0.1065 -0.6995 0.7066
vn -0.1071 -0.6991 0.7069
vn -0.1068 -0.6994 0.7068
vn 0.1065 -0.6995 0.7066
vn 0.1074 -0.6993 0.7067
vn 0.1120 -0.6983 0.7070
vn 0.1067 -0.6994 0.7067
vn 0.3512 -0.5649 0.7467
vn 0.4923 -0.6177 0.6132
vn 0.2576 -0.2991 0.9188
vn -0.0493 -0.7102 0.7023
vn -0.0503 -0.7096 0.7028
vn -0.0557 -0.7064 0.7056
vn -0.0562 -0.7060 0.7060
vn 0.0490 -0.7063 0.7063
vn 0.0501 -0.7065 0.7059
vn 0.0560 -0.7086 0.7034
vn 0.0564 -0.7089 0.7030
vn 0.1085 -0.6987 0.7071
vn 0.1175 -0.6973 0.7071
vn 0.1669 -0.6863 0.7079
vn 0.2146 -0.6905 0.6908
vn 0.2948 -0.6137 0.7324
vn -0.1049 -0.6993 0.7071
vn -0.1440 -0.6927 0.7067
vn -0.1138 -0.6743 0.7297
vn -0.4842 -0.5625 0.6702
vn -0.3209 -0.5795 0.7491
vn -0.3796 -0.6104 0.6952
vn -0.2295 -0.6560 0.7190
vn -0.2817 -0.6709 0.6859
vn -0.1654 -0.6806 0.7137
vn 0.0000 -0.6113 -0.7914
vn -0.0000 0.0822 0.9966
vn -0.0000 0.2442 0.9697
vn 0.0000 0.3995 0.9167
vn -0.0000 0.5443 0.8389
vn -0.3247 -0.3847 0.8640
vn -0.3248 -0.3847 0.8640
vn -0.3251 -0.3846 0.8639
vn -0.2516 -0.4325 0.8658
vn -0.2505 -0.4321 0.8663
vn -0.2511 -0.4324 0.8660
vn -0.2518 -0.4326 0.8657
vn -0.1859 -0.4655 0.8653
vn -0.1684 -0.4577 0.8730
vn -0.0932 -0.5135 0.8530
vn -0.0972 -0.5177 0.8500
vn -0.0967 -0.5172 0.8504
vn -0.0922 -0.5125 0.8537
vn 0.0172 -0.4859 0.8739
vn -0.0018 -0.5029 0.8643
vn 0.0871 -0.4926 0.8659
vn 0.0874 -0.4925 0.8659
vn 0.0863 -0.4933 0.8656
vn 0.0853 -0.4941 0.8652
vn 0.1706 -0.4736 0.8640
vn 0.1719 -0.4712 0.8651
vn 0.1707 -0.4735 0.8641
vn 0.1706 -0.4738 0.8639
vn 0.2489 -0.4342 0.8658
vn 0.2490 -0.4329 0.8663
vn 0.2489 -0.4337 0.8660
vn 0.2488 -0.4344 0.8657
vn 0.3102 -0.3938 0.8653
vn 0.3122 -0.3746 0.8730
vn 0.3982 -0.3375 0.8530
vn 0.3998 -0.3430 0.8500
vn 0.3997 -0.3423 0.8503
vn 0.3977 -0.3362 0.8537
vn 0.4294 -0.2281 0.8738
vn 0.4346 -0.2529 0.8644
vn 0.4701 -0.1708 0.8659
vn 0.4701 -0.1705 0.8660
vn 0.4704 -0.1719 0.8656
vn 0.4706 -0.1732 0.8652
vn 0.4954 -0.0891 0.8641
vn 0.4940 -0.0867 0.8651
vn 0.4954 -0.0889 0.8641
vn 0.4956 -0.0892 0.8639
vn 0.5003 -0.0015 0.8658
vn 0.4994 -0.0008 0.8663
vn 0.5001 -0.0013 0.8660
vn 0.5007 -0.0018 0.8656
vn 0.4962 0.0718 0.8652
vn 0.4806 0.0831 0.8730
vn 0.4914 0.1761 0.8530
vn 0.4969 0.1747 0.8500
vn 0.4963 0.1750 0.8503
vn 0.4900 0.1764 0.8537
vn 0.4122 0.2579 0.8739
vn 0.4364 0.2500 0.8643
vn 0.3830 0.3218 0.8659
vn 0.3828 0.3219 0.8659
vn 0.3840 0.3214 0.8656
vn 0.3852 0.3210 0.8652
vn 0.3249 0.3849 0.8639
vn 0.3221 0.3845 0.8651
vn 0.3247 0.3847 0.8640
vn 0.3251 0.3847 0.8639
vn 0.2515 0.4325 0.8659
vn 0.2505 0.4321 0.8663
vn 0.2512 0.4324 0.8660
vn 0.2518 0.4326 0.8657
vn 0.1858 0.4655 0.8653
vn 0.1684 0.4577 0.8730
vn 0.0932 0.5135 0.8530
vn 0.0972 0.5178 0.8500
vn 0.0967 0.5172 0.8504
vn 0.0922 0.5125 0.8537
vn -0.0171 0.4859 0.8739
vn 0.0018 0.5029 0.8643
vn -0.0871 0.4926 0.8659
vn -0.0874 0.4925 0.8659
vn -0.0864 0.4933 0.8656
vn -0.0854 0.4941 0.8652
vn -0.1708 0.4737 0.8640
vn -0.1719 0.4712 0.8651
vn -0.1708 0.4735 0.8641
vn -0.1706 0.4739 0.8639
vn -0.2488 0.4341 0.8658
vn -0.2490 0.4330 0.8663
vn -0.2489 0.4337 0.8660
vn -0.2488 0.4344 0.8657
vn -0.3102 0.3938 0.8653
vn -0.3122 0.3746 0.8730
vn -0.3981 0.3374 0.8530
vn -0.3998 0.3430 0.8500
vn -0.3996 0.3424 0.8503
vn -0.3977 0.3361 0.8537
vn -0.4294 0.2280 0.8739
vn -0.4347 0.2530 0.8643
vn -0.4703 0.1708 0.8658
vn -0.4702 0.1706 0.8659
vn -0.4704 0.1719 0.8655
vn -0.4706 0.1731 0.8652
vn -0.4957 0.0891 0.8639
vn -0.4940 0.0867 0.8651
vn -0.4955 0.0889 0.8641
vn -0.4957 0.0892 0.8639
vn -0.5004 0.0017 0.8658
vn -0.4995 0.0008 0.8663
vn -0.5001 0.0013 0.8660
vn -0.5007 0.0018 0.8656
vn -0.4962 -0.0718 0.8652
vn -0.4806 -0.0831 0.8730
vn -0.4914 -0.1761 0.8529
vn -0.4970 -0.1747 0.8500
vn -0.4963 -0.1750 0.8503
vn -0.4900 -0.1764 0.8537
vn -0.4122 -0.2578 0.8738
vn -0.4364 -0.2499 0.8643
vn -0.3832 -0.3219 0.8658
vn -0.3828 -0.3219 0.8659
vn -0.3840 -0.3214 0.8656
vn -0.3852 -0.3210 0.8652
vn -0.3221 -0.3845 0.8651
vn 0.1126 0.6737 0.7304
vn 0.1439 0.6927 0.7067
vn 0.4846 0.5631 0.6693
vn 0.3216 0.5800 0.7484
vn 0.3796 0.6104 0.6952
vn 0.2295 0.6560 0.7190
vn 0.2816 0.6709 0.6860
vn 0.1655 0.6806 0.7137
vn -0.1065 0.6995 0.7066
vn -0.1080 0.6994 0.7065
vn -0.1117 0.6985 0.7068
vn -0.1074 0.6996 0.7065
vn -0.2585 0.3002 0.9182
vn -0.4928 0.6181 0.6124
vn -0.3515 0.5653 0.7462
vn -0.3331 0.7933 0.5096
vn -0.2951 0.6138 0.7322
vn -0.2146 0.6905 0.6907
vn -0.1668 0.6863 0.7079
vn -0.1167 0.6974 0.7071
vn -0.1079 0.6988 0.7071
vn -0.0564 0.7089 0.7030
vn -0.0557 0.7088 0.7032
vn -0.0501 0.7067 0.7057
vn -0.0491 0.7063 0.7062
vn 0.0562 0.7060 0.7059
vn 0.0557 0.7063 0.7057
vn 0.0503 0.7096 0.7028
vn 0.0494 0.7102 0.7023
vn 0.1044 0.6994 0.7071
vn 0.1074 0.6996 0.7064
vn 0.1078 0.6994 0.7066
vn 0.1080 0.6995 0.7064
vn 0.1064 0.6995 0.7066
vn 0.7071 -0.7071 0.0001
vn 0.7069 -0.7073 0.0004
vn 0.7072 -0.7070 0.0000
vn 0.7074 -0.7069 0.0003
vn 0.7072 -0.7070 0.0001
vn 0.7073 -0.7069 0.0000
vn 0.7071 -0.7071 -0.0001
vn 0.7070 -0.7072 0.0001
vn 0.3678 0.9299 0.0000
vn 0.4395 0.8983 0.0000
vn 0.4392 0.8984 0.0000
vn 0.5164 0.8564 0.0000
vn 0.5812 0.8138 -0.0000
vn 0.5813 0.8137 0.0000
vn 0.6493 0.7605 0.0000
vn 0.7156 0.6985 0.0000
vn 0.7152 0.6989 0.0000
vn 0.7153 0.6988 -0.0000
vn 0.7151 0.6991 0.0000
vn 0.7615 0.6481 0.0000
vn 0.8154 0.5790 0.0000
vn 0.8157 0.5784 0.0000
vn 0.8154 0.5789 0.0000
vn 0.8155 0.5788 0.0000
vn 0.8582 0.5133 0.0000
vn 0.8994 0.4371 0.0000
vn 0.9313 0.3643 0.0000
vn 0.9668 0.2554 0.0000
vn 0.9668 0.2555 0.0000
vn 0.9962 -0.0871 0.0000
vn 0.9063 -0.4227 -0.0000
vn 0.8191 -0.5736 0.0000
vn 0.0872 -0.9962 -0.0000
vn -0.0872 -0.9962 0.0000
vn -0.2588 -0.9659 0.0000
vn -0.4226 -0.9063 0.0000
vn -0.5736 -0.8191 0.0000
vn -0.8191 -0.5736 0.0000
vn -0.9063 -0.4227 0.0000
vn -0.9659 -0.2588 0.0000
vn -0.9312 -0.3646 -0.0000
vn -0.8998 -0.4363 -0.0000
vn -0.8582 -0.5132 -0.0000
vn -0.8153 -0.5790 -0.0000
vn -0.8153 -0.5791 -0.0000
vn -0.7617 -0.6479 -0.0000
vn -0.6494 -0.7604 -0.0000
vn -0.5808 -0.8140 -0.0000
vn -0.5163 -0.8564 -0.0000
vn -0.4400 -0.8980 0.0000
vn -0.3676 -0.9300 0.0000
vn -0.0000 -0.0011 1.0000
vn 0.0000 0.0007 1.0000
vn -0.0001 0.0000 1.0000
vn 0.4724 -0.1740 -0.8640
vn 0.4723 -0.1741 -0.8641
vn 0.4726 -0.1739 -0.8640
vn 0.4324 -0.2519 -0.8658
vn 0.4312 -0.2520 -0.8664
vn 0.4319 -0.2519 -0.8660
vn 0.4327 -0.2518 -0.8657
vn 0.3916 -0.3129 -0.8653
vn 0.3724 -0.3147 -0.8731
vn 0.3347 -0.4005 -0.8530
vn 0.3401 -0.4021 -0.8501
vn 0.3395 -0.4021 -0.8503
vn 0.3334 -0.4001 -0.8537
vn 0.2251 -0.4310 -0.8738
vn 0.2499 -0.4364 -0.8643
vn 0.1676 -0.4713 -0.8659
vn 0.1673 -0.4713 -0.8659
vn 0.1686 -0.4716 -0.8656
vn 0.1699 -0.4718 -0.8652
vn 0.0853 -0.4965 -0.8638
vn 0.0833 -0.4946 -0.8651
vn 0.0853 -0.4962 -0.8640
vn 0.0857 -0.4962 -0.8639
vn -0.0019 -0.5003 -0.8658
vn -0.0026 -0.4994 -0.8663
vn -0.0022 -0.5000 -0.8660
vn -0.0018 -0.5005 -0.8657
vn -0.0753 -0.4956 -0.8653
vn -0.0864 -0.4800 -0.8730
vn -0.1795 -0.4901 -0.8530
vn -0.1782 -0.4957 -0.8500
vn -0.1784 -0.4951 -0.8503
vn -0.1798 -0.4887 -0.8537
vn -0.2607 -0.4104 -0.8738
vn -0.2530 -0.4347 -0.8643
vn -0.3243 -0.3808 -0.8659
vn -0.3245 -0.3806 -0.8659
vn -0.3241 -0.3818 -0.8656
vn -0.3237 -0.3830 -0.8652
vn -0.3868 -0.3223 -0.8640
vn -0.3867 -0.3194 -0.8651
vn -0.3869 -0.3220 -0.8641
vn -0.3869 -0.3224 -0.8639
vn -0.4343 -0.2486 -0.8658
vn -0.4339 -0.2474 -0.8663
vn -0.4342 -0.2481 -0.8660
vn -0.4344 -0.2488 -0.8657
vn -0.4668 -0.1827 -0.8653
vn -0.4588 -0.1651 -0.8731
vn -0.5142 -0.0897 -0.8530
vn -0.5183 -0.0935 -0.8500
vn -0.5178 -0.0931 -0.8504
vn -0.5131 -0.0887 -0.8537
vn -0.4858 0.0206 -0.8739
vn -0.5029 0.0018 -0.8643
vn -0.4922 0.0906 -0.8658
vn -0.4919 0.0908 -0.8659
vn -0.4927 0.0898 -0.8656
vn -0.4935 0.0888 -0.8652
vn -0.4726 0.1740 -0.8639
vn -0.4700 0.1752 -0.8651
vn -0.4722 0.1741 -0.8641
vn -0.4727 0.1739 -0.8639
vn -0.4324 0.2518 -0.8658
vn -0.4312 0.2520 -0.8663
vn -0.4319 0.2519 -0.8660
vn -0.4326 0.2518 -0.8657
vn -0.3916 0.3129 -0.8653
vn -0.3724 0.3147 -0.8731
vn -0.3347 0.4005 -0.8530
vn -0.3402 0.4022 -0.8500
vn -0.3395 0.4021 -0.8503
vn -0.3334 0.4001 -0.8537
vn -0.2252 0.4310 -0.8738
vn -0.2499 0.4364 -0.8643
vn -0.1677 0.4714 -0.8658
vn -0.1673 0.4713 -0.8659
vn -0.1686 0.4716 -0.8656
vn -0.1698 0.4718 -0.8652
vn -0.0844 0.4954 -0.8646
vn -0.0832 0.4946 -0.8651
vn -0.0853 0.4962 -0.8640
vn -0.0857 0.4963 -0.8639
vn 0.0019 0.5004 -0.8658
vn 0.0026 0.4995 -0.8663
vn 0.0022 0.5000 -0.8660
vn 0.0018 0.5005 -0.8657
vn 0.0752 0.4956 -0.8653
vn 0.0863 0.4799 -0.8731
vn 0.1795 0.4901 -0.8530
vn 0.1782 0.4957 -0.8500
vn 0.1784 0.4951 -0.8503
vn 0.1798 0.4887 -0.8537
vn 0.2607 0.4104 -0.8738
vn 0.2530 0.4346 -0.8643
vn 0.3244 0.3808 -0.8659
vn 0.3245 0.3805 -0.8659
vn 0.3241 0.3818 -0.8656
vn 0.3237 0.3830 -0.8652
vn 0.3868 0.3222 -0.8641
vn 0.3867 0.3194 -0.8651
vn 0.3869 0.3220 -0.8641
vn 0.3869 0.3223 -0.8639
vn 0.4342 0.2486 -0.8659
vn 0.4338 0.2475 -0.8664
vn 0.4341 0.2481 -0.8660
vn 0.4343 0.2488 -0.8657
vn 0.4668 0.1826 -0.8653
vn 0.4588 0.1651 -0.8731
vn 0.5142 0.0897 -0.8530
vn 0.5183 0.0935 -0.8500
vn 0.5178 0.0931 -0.8504
vn 0.5131 0.0887 -0.8537
vn 0.4858 -0.0206 -0.8738
vn 0.5029 -0.0018 -0.8643
vn 0.4921 -0.0907 -0.8658
vn 0.4919 -0.0908 -0.8659
vn 0.4927 -0.0898 -0.8656
vn 0.4935 -0.0888 -0.8652
vn 0.4700 -0.1752 -0.8651
vn 0.7046 -0.7096 0.0000
vn 0.7047 -0.7095 0.0000
vn -1.0000 0.0000 -0.0000
vn -0.9918 -0.1278 0.0000
vn -0.9886 -0.0412 -0.1449
vn -0.1314 -0.9913 0.0000
vn -0.0451 -0.9900 -0.1335
vn 0.0864 -0.9963 -0.0000
vn 0.0412 -0.9885 -0.1456
vn 0.1282 -0.9917 0.0000
vn 0.9913 -0.1314 0.0000
vn 0.9900 -0.0451 -0.1334
vn 0.9887 0.0417 -0.1442
vn 0.9918 0.1278 0.0000
vn 0.1314 0.9913 0.0000
vn 0.0449 0.9900 -0.1337
vn -0.0412 0.9885 -0.1453
vn -0.1281 0.9918 0.0000
vn -0.9913 0.1314 0.0000
vn -0.9900 0.0447 -0.1340
vn 0.5342 -0.0708 0.8424
vn 0.4935 -0.0888 0.8652
vn 0.4999 -0.0226 0.8658
vn 0.5175 -0.0018 0.8557
vn 0.4999 0.0209 0.8659
vn 0.4962 0.0640 0.8658
vn 0.5101 0.0881 0.8556
vn 0.4911 0.1050 0.8647
vn 0.4802 0.1357 0.8666
vn 0.4781 0.1721 0.8613
vn 0.4663 0.1824 0.8656
vn 0.1059 0.4919 0.8642
vn 0.1352 0.4800 0.8668
vn 0.1753 0.4764 0.8616
vn 0.0708 0.5342 0.8424
vn 0.0888 0.4935 0.8652
vn 0.0228 0.4998 0.8658
vn 0.0019 0.5175 0.8557
vn -0.0209 0.4999 0.8659
vn -0.0642 0.4962 0.8658
vn -0.0881 0.5099 0.8557
vn -0.1049 0.4911 0.8648
vn -0.1354 0.4801 0.8667
vn -0.1722 0.4781 0.8613
vn -0.1825 0.4663 0.8656
vn -0.4919 0.1060 0.8642
vn -0.4799 0.1354 0.8668
vn -0.4763 0.1753 0.8616
vn -0.5342 0.0708 0.8424
vn -0.4936 0.0887 0.8651
vn -0.5000 0.0228 0.8657
vn -0.5177 0.0019 0.8556
vn -0.4998 -0.0211 0.8659
vn -0.4962 -0.0639 0.8659
vn -0.5101 -0.0882 0.8556
vn -0.4911 -0.1050 0.8647
vn -0.4802 -0.1357 0.8666
vn -0.4781 -0.1721 0.8613
vn -0.4662 -0.1825 0.8657
vn -0.1060 -0.4919 0.8642
vn -0.1353 -0.4800 0.8668
vn -0.1752 -0.4764 0.8616
vn -0.0708 -0.5343 0.8423
vn -0.0888 -0.4935 0.8652
vn -0.0227 -0.4998 0.8658
vn -0.0018 -0.5175 0.8557
vn 0.0209 -0.4999 0.8658
vn 0.0641 -0.4962 0.8658
vn 0.0881 -0.5100 0.8556
vn 0.1050 -0.4911 0.8648
vn 0.1356 -0.4801 0.8667
vn 0.1721 -0.4781 0.8613
vn 0.1824 -0.4663 0.8656
vn 0.4918 -0.1060 0.8642
vn 0.4799 -0.1353 0.8668
vn 0.4763 -0.1753 0.8616
vn -0.1841 -0.4657 0.8656
vn -0.2200 -0.4491 0.8660
vn -0.2545 -0.4372 0.8626
vn -0.2540 -0.4368 0.8630
vn -0.2581 -0.4299 0.8652
vn -0.2586 -0.4290 0.8655
vn -0.2903 -0.4070 0.8661
vn -0.3251 -0.3848 0.8639
vn -0.3255 -0.3831 0.8644
vn -0.3258 -0.3818 0.8649
vn -0.3259 -0.3816 0.8650
vn -0.3535 -0.3536 0.8660
vn -0.3853 -0.3210 0.8652
vn -0.3859 -0.3210 0.8649
vn -0.3852 -0.3268 0.8630
vn -0.3850 -0.3275 0.8629
vn -0.4076 -0.2895 0.8660
vn -0.4351 -0.2492 0.8652
vn -0.4359 -0.2553 0.8630
vn -0.4364 -0.2598 0.8615
vn -0.4367 -0.2611 0.8609
vn -0.4499 -0.2181 0.8660
vn -0.4656 0.1842 0.8656
vn -0.4491 0.2197 0.8660
vn -0.4372 0.2546 0.8626
vn -0.4367 0.2539 0.8631
vn -0.4299 0.2580 0.8652
vn -0.4292 0.2586 0.8654
vn -0.4065 0.2913 0.8660
vn -0.3848 0.3251 0.8639
vn -0.3832 0.3255 0.8644
vn -0.3820 0.3257 0.8649
vn -0.3817 0.3259 0.8649
vn -0.3509 0.3564 0.8660
vn -0.3210 0.3852 0.8652
vn -0.3211 0.3858 0.8649
vn -0.3270 0.3851 0.8630
vn -0.3277 0.3849 0.8628
vn -0.2890 0.4080 0.8660
vn -0.2492 0.4351 0.8652
vn -0.2497 0.4342 0.8655
vn -0.2598 0.4364 0.8614
vn -0.2612 0.4367 0.8608
vn -0.2183 0.4500 0.8660
vn 0.1842 0.4656 0.8656
vn 0.2197 0.4492 0.8660
vn 0.2545 0.4372 0.8626
vn 0.2541 0.4368 0.8629
vn 0.2581 0.4299 0.8652
vn 0.2587 0.4290 0.8655
vn 0.2903 0.4071 0.8660
vn 0.3255 0.3831 0.8644
vn 0.3256 0.3821 0.8649
vn 0.3259 0.3817 0.8649
vn 0.3577 0.3493 0.8661
vn 0.3860 0.3212 0.8648
vn 0.3851 0.3269 0.8631
vn 0.3849 0.3276 0.8629
vn 0.4078 0.2892 0.8661
vn 0.4351 0.2491 0.8652
vn 0.4345 0.2495 0.8654
vn 0.4364 0.2597 0.8615
vn 0.4367 0.2612 0.8609
vn 0.4498 0.2186 0.8660
vn 0.4656 -0.1842 0.8656
vn 0.4491 -0.2197 0.8660
vn 0.4372 -0.2545 0.8626
vn 0.4369 -0.2545 0.8627
vn 0.4300 -0.2581 0.8651
vn 0.4292 -0.2586 0.8654
vn 0.4059 -0.2920 0.8660
vn 0.3847 -0.3251 0.8639
vn 0.3832 -0.3255 0.8644
vn 0.3820 -0.3255 0.8650
vn 0.3817 -0.3258 0.8649
vn 0.3522 -0.3553 0.8659
vn 0.3210 -0.3852 0.8652
vn 0.3243 -0.3851 0.8640
vn 0.3269 -0.3850 0.8631
vn 0.3275 -0.3849 0.8629
vn 0.2895 -0.4076 0.8660
vn 0.2492 -0.4351 0.8652
vn 0.2495 -0.4346 0.8654
vn 0.2597 -0.4365 0.8614
vn 0.2611 -0.4367 0.8609
vn 0.2185 -0.4499 0.8660
vn 0.3644 -0.9313 0.0000
vn 0.4369 -0.8995 0.0000
vn 0.5132 -0.8582 0.0000
vn 0.5796 -0.8149 0.0000
vn 0.5791 -0.8153 0.0000
vn 0.6480 -0.7616 0.0000
vn 0.7043 -0.7099 0.0000
vn 0.7606 -0.6493 0.0000
vn 0.8118 -0.5839 0.0000
vn 0.8122 -0.5834 0.0000
vn 0.8565 -0.5161 0.0000
vn 0.8983 -0.4395 0.0000
vn 0.9299 -0.3678 0.0000
vn 0.4999 0.0209 -0.8659
vn -0.0209 0.4999 -0.8658
vn -0.4998 -0.0211 -0.8659
vn 0.0209 -0.4999 -0.8658
vn 0.1356 -0.4801 -0.8667
vn 0.1721 -0.4781 -0.8613
vn 0.0854 -0.4941 -0.8652
vn 0.0686 -0.5314 -0.8443
vn 0.1050 -0.4911 -0.8648
vn -0.0242 -0.5345 -0.8449
vn -0.0018 -0.5014 -0.8652
vn -0.0657 -0.4960 -0.8659
vn -0.0917 -0.5094 -0.8556
vn -0.1060 -0.4919 -0.8642
vn -0.1353 -0.4800 -0.8668
vn -0.1752 -0.4764 -0.8616
vn -0.1841 -0.4657 -0.8656
vn -0.4802 -0.1357 -0.8666
vn -0.4781 -0.1721 -0.8613
vn -0.4940 -0.0854 -0.8653
vn -0.5316 -0.0685 -0.8442
vn -0.4911 -0.1050 -0.8647
vn -0.5346 0.0243 -0.8448
vn -0.5015 0.0019 -0.8651
vn -0.4961 0.0658 -0.8658
vn -0.5095 0.0916 -0.8556
vn -0.4919 0.1059 -0.8642
vn -0.4799 0.1354 -0.8668
vn -0.4763 0.1753 -0.8616
vn -0.4656 0.1842 -0.8656
vn -0.1354 0.4801 -0.8667
vn -0.1722 0.4781 -0.8613
vn -0.0854 0.4941 -0.8652
vn -0.0687 0.5312 -0.8444
vn -0.1049 0.4911 -0.8648
vn 0.0243 0.5345 -0.8448
vn 0.0018 0.5014 -0.8652
vn 0.0657 0.4960 -0.8659
vn 0.0916 0.5094 -0.8557
vn 0.1060 0.4919 -0.8642
vn 0.1352 0.4800 -0.8668
vn 0.1753 0.4764 -0.8616
vn 0.1842 0.4656 -0.8656
vn 0.4801 0.1357 -0.8666
vn 0.4781 0.1721 -0.8613
vn 0.4941 0.0854 -0.8652
vn 0.5316 0.0685 -0.8442
vn 0.4911 0.1050 -0.8647
vn 0.5344 -0.0241 -0.8449
vn 0.5014 -0.0017 -0.8652
vn 0.4959 -0.0657 -0.8659
vn 0.5094 -0.0916 -0.8557
vn 0.4918 -0.1060 -0.8642
vn 0.4799 -0.1353 -0.8668
vn 0.4763 -0.1753 -0.8616
vn 0.4656 -0.1842 -0.8656
vn -0.1825 0.4663 -0.8656
vn -0.2183 0.4500 -0.8660
vn -0.2518 0.4397 -0.8621
vn -0.2523 0.4395 -0.8621
vn -0.2566 0.4311 -0.8651
vn -0.2571 0.4298 -0.8655
vn -0.2887 0.4082 -0.8660
vn -0.3231 0.3877 -0.8633
vn -0.3247 0.3821 -0.8652
vn -0.3248 0.3816 -0.8654
vn -0.3506 0.3564 -0.8661
vn -0.3835 0.3240 -0.8648
vn -0.3834 0.3257 -0.8642
vn -0.3832 0.3270 -0.8638
vn -0.3833 0.3272 -0.8637
vn -0.4065 0.2913 -0.8660
vn -0.4334 0.2523 -0.8651
vn -0.4336 0.2524 -0.8650
vn -0.4345 0.2609 -0.8621
vn -0.4346 0.2619 -0.8617
vn -0.4491 0.2197 -0.8660
vn -0.4662 -0.1825 -0.8657
vn -0.4499 -0.2181 -0.8660
vn -0.4396 -0.2518 -0.8622
vn -0.4394 -0.2518 -0.8623
vn -0.4310 -0.2564 -0.8652
vn -0.4299 -0.2571 -0.8655
vn -0.4076 -0.2895 -0.8660
vn -0.3877 -0.3230 -0.8633
vn -0.3876 -0.3233 -0.8633
vn -0.3823 -0.3246 -0.8652
vn -0.3817 -0.3247 -0.8654
vn -0.3537 -0.3535 -0.8660
vn -0.3240 -0.3835 -0.8649
vn -0.3257 -0.3834 -0.8643
vn -0.3270 -0.3834 -0.8637
vn -0.3273 -0.3833 -0.8637
vn -0.2901 -0.4073 -0.8660
vn -0.2522 -0.4334 -0.8652
vn -0.2522 -0.4343 -0.8647
vn -0.2609 -0.4345 -0.8620
vn -0.2620 -0.4346 -0.8617
vn -0.2196 -0.4492 -0.8660
vn 0.1824 -0.4663 -0.8656
vn 0.2185 -0.4499 -0.8660
vn 0.2518 -0.4397 -0.8621
vn 0.2528 -0.4397 -0.8618
vn 0.2566 -0.4311 -0.8650
vn 0.2571 -0.4299 -0.8655
vn 0.2895 -0.4076 -0.8660
vn 0.3230 -0.3877 -0.8633
vn 0.3228 -0.3875 -0.8635
vn 0.3245 -0.3823 -0.8652
vn 0.3247 -0.3817 -0.8654
vn 0.3521 -0.3550 -0.8660
vn 0.3835 -0.3240 -0.8648
vn 0.3834 -0.3257 -0.8643
vn 0.3833 -0.3269 -0.8638
vn 0.3833 -0.3272 -0.8637
vn 0.4060 -0.2920 -0.8660
vn 0.4334 -0.2523 -0.8651
vn 0.4329 -0.2526 -0.8653
vn 0.4344 -0.2608 -0.8621
vn 0.4346 -0.2619 -0.8617
vn 0.4491 -0.2197 -0.8660
vn 0.4663 0.1824 -0.8656
vn 0.4498 0.2181 -0.8661
vn 0.4397 0.2517 -0.8622
vn 0.4395 0.2526 -0.8620
vn 0.4310 0.2565 -0.8651
vn 0.4298 0.2571 -0.8656
vn 0.4078 0.2892 -0.8661
vn 0.3876 0.3231 -0.8634
vn 0.3869 0.3218 -0.8641
vn 0.3821 0.3243 -0.8654
vn 0.3816 0.3248 -0.8654
vn 0.3576 0.3496 -0.8660
vn 0.3241 0.3835 -0.8648
vn 0.3257 0.3834 -0.8643
vn 0.3269 0.3835 -0.8638
vn 0.3272 0.3833 -0.8637
vn 0.2909 0.4065 -0.8661
vn 0.2522 0.4333 -0.8652
vn 0.2523 0.4336 -0.8651
vn 0.2609 0.4344 -0.8621
vn 0.2620 0.4346 -0.8617
vn 0.2197 0.4492 -0.8660
vn 0.0000 0.3996 0.9167
vn 0.0000 0.0821 0.9966
vn -0.3645 0.9312 0.0000
vn -0.4365 0.8997 -0.0000
vn -0.5133 0.8582 0.0000
vn -0.5779 0.8161 0.0000
vn -0.6482 0.7615 -0.0000
vn -0.7018 0.7124 -0.0000
vn -0.7017 0.7125 -0.0000
vn -0.7606 0.6493 -0.0000
vn -0.8124 0.5831 -0.0000
vn -0.8565 0.5162 -0.0000
vn -0.8983 0.4395 -0.0000
vn -0.8984 0.4392 -0.0000
vn -0.9299 0.3678 -0.0000
vn -0.1650 0.9863 0.0000
vn 0.1648 0.9863 0.0000
vn 0.1314 0.9913 -0.0090
vn 0.0792 0.9951 0.0588
vn 0.0453 0.9990 0.0000
vn -0.0793 0.9968 0.0000
vn -0.0415 0.9927 0.1131
vn -0.1280 0.9917 -0.0099
vn -0.7071 -0.7071 -0.0001
vn -0.7071 -0.7071 0.0001
vn -0.7071 -0.7071 -0.0003
vn -0.7070 -0.7073 -0.0002
vn -0.7070 -0.7072 0.0001
vn -0.7072 -0.7071 -0.0001
vn 0.3147 0.9492 0.0000
vn 0.1725 0.9850 -0.0000
vn 0.0264 0.9997 -0.0000
vn -0.1201 0.9928 -0.0000
vn -0.2641 0.9645 0.0000
vn 0.0000 1.0000 -0.0000
vn -0.9239 -0.3827 -0.0002
vn -0.7610 0.6488 -0.0000
vn -0.2622 -0.9650 0.0000
vn -0.6422 0.7665 0.0000
vn -0.5002 0.8659 0.0000
vn -0.3416 0.9398 -0.0000
vn -0.1744 0.9847 0.0000
vn 0.1739 0.9848 0.0000
vn 0.1742 0.9847 0.0000
vn 0.1738 0.9848 -0.0000
vn 0.3416 0.9398 0.0000
vn 0.4997 0.8662 -0.0000
vn 0.6427 0.7661 0.0000
vn 0.6431 0.7658 0.0000
vn 0.7073 0.7070 0.0000
vn -0.0864 -0.9963 -0.0000
vn 0.1678 -0.9858 -0.0092
vn -0.0870 -0.9962 -0.0001
vn -0.0871 -0.9962 -0.0001
vn 0.0871 -0.9962 0.0000
vn -0.7073 0.7070 0.0000
usemtl None.003
s 1
f 2//1 3//1 4//1
f 4//1 3//1 5//1
f 8//2 9//3 10//4
f 10//4 9//3 11//5
f 10//4 11//5 12//2
f 13//2 14//2 15//2
f 15//2 14//2 16//2
f 16//2 14//2 10//4
f 10//4 14//2 17//2
f 10//4 17//2 8//2
f 19//6 20//6 6//6
f 6//6 20//6 1//6
f 20//7 19//8 22//9
f 22//9 19//8 23//10
f 22//9 23//10 24//2
f 24//2 25//2 22//9
f 22//9 25//2 26//2
f 22//9 26//2 27//2
f 27//2 26//2 28//2
f 12//11 11//11 7//11
f 7//11 11//11 18//11
f 30//2 31//12 32//2
f 32//2 31//12 33//13
f 32//2 33//13 34//2
f 35//2 36//2 37//2
f 35//2 37//2 38//2
f 30//2 32//2 37//2
f 37//2 32//2 39//2
f 37//2 39//2 38//2
f 34//14 33//14 40//14
f 40//14 33//14 21//14
f 41//15 42//15 43//15
f 41//15 43//15 44//15
f 44//16 43//16 45//16
f 44//16 45//16 46//16
f 46//17 45//17 47//17
f 46//17 47//17 48//17
f 48//1 47//1 49//1
f 48//1 49//1 50//1
f 50//18 49//18 51//18
f 50//18 51//18 52//18
f 52//19 51//19 53//19
f 52//19 53//19 54//19
f 54//20 53//20 55//20
f 55//20 56//20 54//20
f 32//21 57//21 58//21
f 32//21 58//21 39//21
f 39//22 58//22 59//22
f 39//22 59//22 38//22
f 38//23 59//23 60//23
f 38//23 60//23 35//23
f 35//14 60//14 61//14
f 35//14 61//14 36//14
f 36//24 61//24 62//24
f 36//24 62//24 37//24
f 37//25 62//25 63//25
f 37//25 63//25 30//25
f 30//26 63//26 64//26
f 64//26 31//26 30//26
f 10//27 65//27 66//27
f 10//27 66//27 16//27
f 16//28 66//28 67//28
f 16//28 67//28 15//28
f 15//29 67//29 68//29
f 15//29 68//29 13//29
f 13//11 68//11 69//11
f 13//11 69//11 14//11
f 14//30 69//30 70//30
f 14//30 70//30 17//30
f 17//31 70//31 71//31
f 17//31 71//31 8//31
f 8//32 71//32 72//32
f 72//32 9//32 8//32
f 23//33 73//33 74//33
f 23//33 74//33 24//33
f 24//34 74//34 75//34
f 24//34 75//34 25//34
f 25//35 75//35 76//35
f 25//35 76//35 26//35
f 26//6 76//6 77//6
f 26//6 77//6 28//6
f 28//36 77//36 78//36
f 28//36 78//36 29//36
f 29//37 78//37 79//37
f 29//37 79//37 27//37
f 27//38 79//38 80//38
f 27//38 80//38 22//38
f 3//39 2//40 56//41
f 56//41 2//40 41//42
f 56//41 41//42 54//2
f 54//2 41//42 52//2
f 41//42 48//2 50//2
f 41//42 50//2 52//2
f 81//14 82//14 83//14
f 83//14 82//14 84//14
f 86//1 87//1 88//1
f 88//1 87//1 89//1
f 82//43 81//44 92//44
f 92//44 81//44 93//43
f 92//45 93//45 94//45
f 94//45 93//45 95//45
f 94//46 95//46 96//46
f 96//46 95//46 97//46
f 96//47 97//47 98//48
f 98//48 97//47 99//47
f 98//49 99//49 100//49
f 100//49 99//49 101//49
f 100//50 101//50 102//50
f 102//50 101//50 103//50
f 102//51 103//51 104//51
f 104//51 103//51 105//51
f 104//52 105//52 106//52
f 106//52 105//52 107//52
f 106//53 107//53 86//53
f 86//53 107//53 87//53
f 109//54 88//54 89//54
f 109//54 89//54 85//55
f 91//56 90//56 110//56
f 90//57 109//57 110//57
f 110//58 109//54 85//55
f 110//58 85//55 108//59
f 90//57 83//57 109//57
f 109//57 83//57 84//57
f 110//60 111//60 91//60
f 112//61 113//61 114//61
f 114//61 113//61 115//61
f 118//62 119//62 117//62
f 117//62 119//62 120//62
f 140//63 116//63 141//63
f 120//64 142//64 117//64
f 141//65 143//65 140//65
f 142//66 114//66 115//66
f 142//66 115//66 121//66
f 121//66 144//67 141//68
f 121//66 141//68 142//66
f 142//64 141//64 116//64
f 142//64 116//64 117//64
f 119//69 118//69 131//69
f 131//69 118//69 124//69
f 131//70 124//70 132//70
f 132//70 124//70 123//70
f 132//71 123//72 133//71
f 133//71 123//72 122//73
f 133//74 122//74 134//74
f 134//74 122//74 130//74
f 134//75 130//75 135//75
f 135//75 130//75 129//75
f 135//76 129//76 136//76
f 136//76 129//76 128//76
f 136//77 128//77 137//77
f 137//77 128//77 127//77
f 137//78 127//79 138//78
f 138//78 127//79 126//78
f 138//80 126//80 139//80
f 139//80 126//80 125//80
f 139//81 125//81 112//81
f 112//81 125//81 113//81
f 145//1 146//1 147//1
f 152//6 151//6 153//6
f 174//82 153//82 154//83
f 149//84 174//84 175//84
f 175//85 174//82 154//83
f 175//85 154//83 173//86
f 149//84 147//84 174//84
f 175//87 176//87 148//87
f 164//88 145//88 160//88
f 165//89 160//89 159//89
f 166//90 159//91 158//90
f 167//92 158//92 163//92
f 168//93 163//93 162//93
f 169//94 162//94 161//94
f 170//95 161//95 157//95
f 171//96 157//96 156//96
f 172//97 156//97 155//97
f 150//98 155//99 151//99
f 198//100 199//100 200//100
f 198//100 200//100 201//100
f 201//101 200//101 202//101
f 201//101 202//101 203//101
f 203//102 202//102 204//102
f 203//102 204//102 205//102
f 205//103 204//103 206//103
f 205//103 206//103 207//103
f 187//104 186//104 206//104
f 219//104 220//104 214//104
f 221//104 216//104 220//104
f 220//104 216//104 215//104
f 220//104 215//104 214//104
f 187//104 206//104 188//104
f 207//104 182//104 181//104
f 214//104 213//104 219//104
f 219//104 213//104 212//104
f 219//104 212//104 222//104
f 186//104 185//104 206//104
f 206//104 185//104 184//104
f 206//104 184//104 207//104
f 207//104 184//104 183//104
f 207//104 183//104 182//104
f 223//104 224//104 206//104
f 206//104 224//104 225//104
f 206//104 225//104 193//104
f 178//104 177//104 226//104
f 178//104 226//104 192//104
f 177//104 227//104 226//104
f 226//104 227//104 228//104
f 226//104 228//104 229//105
f 193//104 189//104 206//104
f 206//104 189//104 190//104
f 206//104 190//104 188//104
f 230//104 231//105 207//104
f 207//104 231//105 232//104
f 233//104 234//104 235//104
f 235//104 236//104 233//104
f 233//104 236//104 194//104
f 233//104 194//104 195//104
f 212//104 211//104 222//104
f 222//104 211//104 210//104
f 222//104 210//104 226//104
f 226//104 210//104 191//104
f 226//104 191//104 192//104
f 232//104 237//106 207//104
f 207//104 237//106 238//104
f 207//104 238//104 233//104
f 233//104 238//104 239//104
f 233//104 239//104 234//104
f 195//104 197//104 233//104
f 233//104 197//104 196//104
f 233//104 196//104 221//104
f 221//104 196//104 217//104
f 221//104 217//104 216//104
f 229//105 240//104 226//104
f 226//104 240//104 241//104
f 226//104 241//104 206//104
f 206//104 241//104 242//104
f 206//104 242//104 223//104
f 181//104 180//104 207//104
f 207//104 180//104 179//104
f 207//104 179//104 218//104
f 218//104 209//104 207//104
f 207//104 209//104 208//104
f 207//104 208//104 230//104
f 243//2 244//2 245//2
f 245//2 244//2 246//2
f 249//2 250//2 251//2
f 251//2 250//2 252//2
f 253//2 254//2 250//2
f 250//2 254//2 255//2
f 250//2 255//2 252//2
f 249//2 256//2 250//2
f 250//2 256//2 257//2
f 250//2 257//2 258//2
f 259//2 260//2 253//2
f 253//2 260//2 261//2
f 253//2 261//2 262//2
f 262//2 263//2 253//2
f 253//2 263//2 264//2
f 253//2 264//2 254//2
f 265//2 266//2 267//2
f 267//2 266//2 268//2
f 268//2 269//2 267//2
f 267//2 269//2 270//2
f 267//2 270//2 271//2
f 258//2 272//2 250//2
f 250//2 272//2 273//2
f 250//2 273//2 267//2
f 267//2 273//2 274//2
f 267//2 274//2 265//2
f 275//2 276//2 277//2
f 277//2 276//2 278//2
f 277//2 278//2 279//2
f 279//2 280//2 277//2
f 277//2 280//2 281//2
f 277//2 281//2 253//2
f 253//2 281//2 282//2
f 253//2 282//2 259//2
f 270//2 283//2 271//2
f 271//2 283//2 284//2
f 271//2 284//2 285//2
f 285//2 284//2 286//2
f 285//2 286//2 287//2
f 287//2 286//2 288//2
f 287//2 288//2 289//2
f 288//2 290//2 289//2
f 289//2 290//2 291//2
f 289//2 291//2 277//2
f 277//2 291//2 292//2
f 277//2 292//2 275//2
f 303//107 304//107 305//107
f 306//108 307//108 308//108
f 308//109 307//109 309//109
f 308//110 309//110 310//110
f 310//111 309//111 311//111
f 310//112 311//112 305//112
f 305//113 311//113 312//113
f 305//114 312//114 303//114
f 313//115 314//115 315//115
f 316//116 317//116 318//116
f 318//117 317//117 319//117
f 318//118 319//118 320//118
f 320//119 319//119 321//119
f 320//120 321//120 315//120
f 315//121 321//121 322//121
f 315//122 322//122 313//122
f 323//123 324//123 325//123
f 326//124 327//124 328//124
f 328//125 327//125 329//125
f 328//126 329//126 330//126
f 330//127 329//127 331//127
f 330//128 331//128 325//128
f 325//129 331//129 332//129
f 325//130 332//130 323//130
f 333//131 334//131 335//131
f 335//132 334//132 336//132
f 335//133 336//133 337//133
f 337//134 336//134 338//134
f 337//135 338//135 339//135
f 339//136 338//136 340//136
f 341//137 342//137 343//137
f 343//138 342//138 344//138
f 342//139 345//139 344//139
f 344//140 345//140 346//140
f 344//141 346//141 347//141
f 347//142 346//142 324//142
f 324//143 346//143 348//143
f 324//144 348//144 325//144
f 325//145 348//145 349//145
f 325//145 349//145 330//145
f 330//146 349//146 340//146
f 330//146 340//146 328//146
f 328//147 340//147 338//147
f 328//148 338//148 326//148
f 350//2 351//2 352//2
f 351//2 350//2 353//2
f 353//2 350//2 354//2
f 353//2 354//2 355//2
f 355//2 356//2 353//2
f 353//2 356//2 357//2
f 353//2 357//2 358//2
f 358//2 357//2 359//2
f 360//2 361//2 362//2
f 362//2 361//2 350//2
f 362//2 350//2 363//2
f 363//2 350//2 352//2
f 364//2 357//2 365//2
f 364//2 366//2 357//2
f 357//2 366//2 367//2
f 357//2 367//2 359//2
f 365//2 368//2 364//2
f 364//2 368//2 369//2
f 364//2 369//2 370//2
f 371//149 372//149 373//149
f 373//149 372//149 374//149
f 373//149 374//149 375//150
f 375//150 374//149 376//150
f 375//150 376//150 377//150
f 377//150 376//150 378//149
f 377//150 378//149 379//149
f 379//149 378//149 380//149
f 379//149 380//149 381//149
f 381//149 380//149 382//150
f 381//149 382//150 383//150
f 383//150 382//150 384//150
f 391//1 390//1 392//1
f 395//151 396//151 397//151
f 397//152 396//152 398//152
f 397//153 398//153 399//153
f 399//154 398//154 400//154
f 399//155 400//155 401//155
f 401//156 400//156 402//156
f 403//157 404//157 405//157
f 405//158 404//158 406//158
f 404//159 407//159 406//159
f 406//160 407//160 408//160
f 406//161 408//161 409//161
f 409//162 408//162 314//162
f 314//163 408//163 410//163
f 314//164 410//164 315//164
f 315//165 410//165 411//165
f 315//165 411//165 320//165
f 320//166 411//166 402//166
f 320//166 402//166 318//166
f 318//167 402//167 400//167
f 318//168 400//168 316//168
f 422//169 423//169 424//169
f 424//169 423//169 425//169
f 424//170 425//170 426//170
f 426//170 425//170 427//170
f 426//101 427//101 428//101
f 428//101 427//101 429//101
f 428//171 429//171 430//171
f 430//171 429//171 431//171
f 432//172 327//173 326//173
f 248//172 433//6 386//6
f 386//6 433//6 434//6
f 386//6 434//6 435//6
f 436//172 333//174 437//6
f 437//6 333//174 438//172
f 439//173 440//175 248//172
f 248//172 440//175 437//6
f 248//172 437//6 433//6
f 433//6 437//6 438//172
f 433//6 438//172 441//6
f 441//6 438//172 442//176
f 441//6 442//176 443//6
f 443//6 442//176 444//177
f 443//6 444//177 445//6
f 445//6 444//177 446//6
f 326//173 338//173 432//172
f 432//172 338//173 336//178
f 432//172 336//178 436//172
f 436//172 336//178 334//172
f 436//172 334//172 333//174
f 447//179 448//179 449//179
f 450//179 451//179 449//179
f 449//179 451//179 452//179
f 449//179 452//179 447//179
f 453//2 454//2 455//180
f 404//2 403//2 397//2
f 455//180 456//180 453//2
f 453//2 456//180 457//2
f 453//2 457//2 458//2
f 397//2 403//2 395//2
f 395//2 403//2 459//2
f 395//2 459//2 460//2
f 458//2 461//2 453//2
f 453//2 461//2 395//2
f 453//2 395//2 462//2
f 462//2 395//2 460//2
f 397//2 399//2 404//2
f 404//2 399//2 401//2
f 404//2 401//2 407//2
f 407//2 401//2 402//2
f 402//2 411//2 407//2
f 407//2 411//2 410//2
f 407//2 410//2 408//2
f 463//181 464//182 392//181
f 465//183 466//184 467//185
f 463//181 392//181 468//11
f 469//11 403//185 470//11
f 470//11 403//185 405//186
f 467//185 471//185 465//183
f 465//183 471//185 472//11
f 465//183 472//11 469//11
f 469//11 472//11 473//11
f 469//11 473//11 403//185
f 314//11 313//182 409//11
f 409//11 313//182 474//11
f 409//11 474//11 406//187
f 406//187 474//11 475//181
f 406//187 475//181 405//186
f 405//186 475//181 468//11
f 405//186 468//11 470//11
f 470//11 468//11 392//181
f 470//11 392//181 476//181
f 476//181 392//181 394//188
f 476//181 394//188 477//184
f 478//189 479//189 480//190
f 480//190 479//189 481//191
f 480//190 481//191 482//189
f 482//189 481//191 483//191
f 482//189 483//191 484//189
f 484//189 483//191 485//189
f 484//189 485//189 486//191
f 486//191 485//189 487//190
f 486//191 487//190 488//189
f 488//189 487//190 489//189
f 488//189 489//189 384//189
f 384//189 489//189 383//189
f 490//192 491//192 492//192
f 492//192 491//192 493//192
f 360//179 362//179 494//179
f 494//179 362//179 495//179
f 423//104 422//104 496//104
f 496//104 422//104 497//104
f 479//193 478//193 498//193
f 498//193 478//193 499//193
f 498//193 499//193 500//193
f 500//193 499//193 501//193
f 500//193 501//193 502//193
f 502//193 501//193 503//193
f 502//193 503//193 504//193
f 504//193 503//193 505//194
f 504//193 505//194 506//193
f 506//193 505//194 507//193
f 506//193 507//193 508//193
f 508//193 507//193 509//193
f 510//6 511//6 512//6
f 514//195 458//195 457//195
f 452//196 451//197 515//198
f 452//196 515//198 447//199
f 455//200 516//201 456//202
f 456//202 516//201 517//203
f 458//204 514//204 461//204
f 461//205 514//205 518//205
f 461//206 518//206 395//206
f 447//207 308//208 519//209
f 519//209 308//208 310//210
f 519//211 310//212 517//213
f 517//213 310//212 305//214
f 517//203 305//215 456//202
f 456//202 305//215 304//216
f 456//217 304//217 457//217
f 457//218 304//218 520//218
f 457//219 520//219 514//219
f 447//199 515//198 308//220
f 308//221 515//221 521//221
f 308//222 521//222 306//222
f 341//223 522//223 523//223
f 523//224 522//224 524//224
f 523//225 524//225 525//225
f 525//226 524//226 521//226
f 525//227 521//227 526//227
f 526//228 521//228 515//228
f 412//229 430//229 413//229
f 413//229 430//229 431//229
f 253//230 250//230 527//230
f 527//230 250//230 528//230
f 527//231 528//231 529//231
f 529//231 528//231 530//231
f 529//232 530//232 531//232
f 531//232 530//232 532//232
f 531//233 532//233 491//233
f 491//233 532//233 493//233
f 533//234 534//235 535//236
f 535//237 534//238 536//239
f 535//237 536//239 537//240
f 537//241 536//241 538//241
f 537//242 538//242 539//242
f 539//243 538//244 540//245
f 539//243 540//245 541//246
f 541//247 540//247 542//247
f 541//248 542//248 543//248
f 543//249 542//250 544//251
f 543//249 544//251 545//252
f 545//253 544//254 546//255
f 545//253 546//255 547//256
f 547//257 546//258 548//259
f 547//257 548//259 549//260
f 549//261 548//261 550//261
f 549//262 550//262 551//262
f 551//263 550//264 552//265
f 551//263 552//265 553//266
f 553//267 552//267 554//267
f 553//268 554//268 555//268
f 555//269 554//270 556//271
f 555//269 556//271 557//272
f 557//273 556//274 558//275
f 557//273 558//275 559//276
f 559//277 558//278 560//279
f 559//277 560//279 561//280
f 561//281 560//281 562//281
f 561//282 562//282 563//282
f 563//283 562//284 564//285
f 563//283 564//285 565//286
f 565//287 564//287 566//287
f 565//288 566//288 567//288
f 567//289 566//290 509//291
f 567//289 509//291 568//292
f 568//293 509//294 507//295
f 568//293 507//295 569//296
f 569//297 507//298 505//299
f 569//297 505//299 570//300
f 570//301 505//301 503//301
f 570//302 503//302 571//302
f 571//303 503//304 501//305
f 571//303 501//305 572//306
f 572//307 501//307 499//307
f 572//308 499//308 573//308
f 573//309 499//310 478//311
f 573//309 478//311 574//312
f 574//313 478//314 480//315
f 574//313 480//315 575//316
f 575//317 480//318 482//319
f 575//317 482//319 576//320
f 576//321 482//321 484//321
f 576//322 484//322 577//322
f 577//323 484//324 486//325
f 577//323 486//325 578//326
f 578//327 486//327 488//327
f 578//328 488//328 579//328
f 579//329 488//330 384//331
f 579//329 384//331 580//332
f 580//333 384//334 382//335
f 580//333 382//335 581//336
f 581//337 382//338 380//339
f 581//337 380//339 582//340
f 582//341 380//341 378//341
f 582//342 378//342 583//342
f 583//343 378//344 376//345
f 583//343 376//345 584//346
f 584//347 376//347 374//347
f 584//348 374//348 585//348
f 585//349 374//350 372//351
f 585//349 372//351 533//352
f 533//234 372//353 534//235
f 467//354 595//354 471//354
f 471//355 595//355 453//355
f 403//356 473//356 459//356
f 459//357 473//357 472//357
f 459//358 472//358 460//358
f 460//359 472//359 471//359
f 460//360 471//360 462//360
f 462//361 471//361 453//361
f 450//362 449//363 596//364
f 596//364 449//363 448//365
f 333//366 597//366 438//366
f 438//367 597//367 442//367
f 597//368 598//368 442//368
f 442//369 598//369 599//369
f 442//370 599//370 444//370
f 444//371 599//371 446//371
f 446//372 599//372 596//372
f 446//373 596//364 600//374
f 600//374 596//364 448//365
f 600//375 448//376 601//377
f 601//377 448//376 602//378
f 601//379 602//380 595//381
f 595//381 602//380 603//382
f 595//383 603//384 453//385
f 453//385 603//384 604//386
f 453//385 604//386 454//387
f 605//388 317//14 316//388
f 512//14 606//14 607//388
f 607//388 606//14 608//389
f 607//388 608//389 609//390
f 316//388 400//388 605//388
f 605//388 400//388 398//391
f 605//388 398//391 610//14
f 398//391 396//392 610//14
f 610//14 396//392 395//393
f 610//14 395//393 611//14
f 611//14 395//393 518//392
f 304//14 303//394 520//394
f 520//394 303//394 612//394
f 520//394 612//394 514//395
f 514//395 612//394 613//395
f 514//395 613//395 518//392
f 518//392 613//395 606//14
f 518//392 606//14 611//14
f 611//14 606//14 512//14
f 611//14 512//14 614//14
f 614//14 512//14 615//14
f 616//396 617//396 618//396
f 618//396 617//396 619//396
f 618//397 619//398 620//397
f 620//397 619//398 621//397
f 620//399 621//399 622//399
f 622//399 621//399 623//399
f 622//400 623//401 624//400
f 624//400 623//401 625//401
f 624//402 625//402 626//402
f 626//402 625//402 627//402
f 626//403 627//404 628//405
f 628//405 627//404 629//406
f 628//407 629//407 630//407
f 630//407 629//407 631//407
f 630//408 631//409 632//410
f 632//410 631//409 633//411
f 632//412 633//412 634//412
f 634//412 633//412 635//412
f 634//413 635//413 636//413
f 636//413 635//413 637//413
f 636//414 637//414 638//414
f 638//414 637//414 639//414
f 448//2 447//2 602//2
f 602//2 447//2 519//2
f 602//2 519//2 603//2
f 603//2 519//2 517//2
f 508//415 509//415 640//416
f 640//416 509//415 566//416
f 640//416 566//416 641//416
f 641//416 566//416 564//416
f 641//416 564//416 642//415
f 642//415 564//416 562//415
f 642//415 562//415 643//415
f 643//415 562//415 560//416
f 643//415 560//416 644//415
f 644//415 560//416 558//416
f 644//415 558//416 645//416
f 645//416 558//416 556//415
f 495//417 362//417 363//417
f 495//417 363//417 646//417
f 646//26 363//26 352//26
f 646//26 352//26 647//26
f 647//418 352//418 351//418
f 647//418 351//418 648//418
f 648//419 351//419 353//419
f 648//419 353//419 649//419
f 649//14 353//14 358//14
f 649//14 358//14 650//14
f 650//23 358//23 359//23
f 650//23 359//23 651//23
f 651//22 359//22 367//22
f 651//22 367//22 652//22
f 652//21 367//21 366//21
f 652//21 366//21 653//21
f 653//420 366//420 364//420
f 653//420 364//420 654//420
f 654//421 364//421 370//421
f 654//421 370//421 655//421
f 655//422 370//422 369//422
f 655//422 369//422 656//422
f 656//423 369//423 368//423
f 656//423 368//423 657//423
f 657//424 368//424 365//424
f 657//424 365//424 658//424
f 658//1 365//1 357//1
f 658//1 357//1 659//1
f 659//425 357//425 356//425
f 659//425 356//425 660//425
f 660//426 356//426 355//426
f 660//426 355//426 661//426
f 661//427 355//427 354//427
f 661//427 354//427 662//427
f 662//65 354//65 350//65
f 662//65 350//65 663//65
f 468//428 475//428 664//428
f 664//428 475//428 665//428
f 664//429 665//429 666//429
f 666//429 665//429 667//429
f 666//430 667//430 668//430
f 668//430 667//430 669//430
f 668//431 669//432 670//431
f 670//431 669//432 671//432
f 670//433 671//433 672//433
f 672//433 671//433 673//433
f 672//1 673//1 674//1
f 674//1 673//1 675//1
f 674//434 675//434 676//434
f 676//434 675//434 677//434
f 676//435 677//435 678//435
f 678//435 677//435 679//435
f 678//436 679//436 680//436
f 680//436 679//436 681//436
f 680//437 681//437 682//437
f 682//437 681//437 683//437
f 682//438 683//438 470//438
f 470//438 683//438 469//438
f 295//2 296//2 699//2
f 296//2 297//439 699//2
f 699//2 297//439 298//2
f 699//2 298//2 700//2
f 700//2 298//2 299//2
f 387//2 701//2 702//2
f 588//2 589//440 703//2
f 703//2 589//440 590//2
f 703//2 590//2 704//2
f 704//2 590//2 591//2
f 295//2 699//2 294//2
f 294//2 699//2 705//2
f 294//2 705//2 293//2
f 299//2 300//2 700//2
f 700//2 300//2 301//2
f 700//2 301//2 706//2
f 702//2 701//2 707//2
f 707//2 701//2 708//441
f 707//2 708//441 709//2
f 392//2 390//2 710//2
f 710//2 390//2 711//2
f 710//2 711//2 712//2
f 712//2 711//2 713//2
f 712//2 713//2 714//2
f 591//2 592//2 704//2
f 704//2 592//2 593//2
f 704//2 593//2 715//2
f 715//2 593//2 393//2
f 715//2 393//2 394//2
f 709//2 716//180 707//2
f 707//2 716//180 717//180
f 707//2 717//180 718//2
f 718//2 717//180 719//441
f 718//2 719//441 720//2
f 386//2 385//2 721//2
f 721//2 385//2 586//2
f 721//2 586//2 703//2
f 703//2 586//2 587//2
f 703//2 587//2 588//2
f 714//2 722//441 712//2
f 712//2 722//441 723//441
f 712//2 723//441 724//2
f 724//2 723//441 725//180
f 724//2 725//180 726//2
f 726//2 727//2 724//2
f 724//2 727//2 728//2
f 724//2 728//2 729//2
f 387//2 702//2 388//2
f 388//2 702//2 730//2
f 388//2 730//2 731//2
f 301//2 302//2 706//2
f 706//2 302//2 732//2
f 706//2 732//2 733//2
f 733//2 732//2 388//2
f 734//2 735//2 394//2
f 731//2 736//2 388//2
f 388//2 736//2 737//2
f 388//2 737//2 733//2
f 738//2 739//2 248//2
f 392//2 710//2 394//2
f 394//2 710//2 740//2
f 394//2 740//2 734//2
f 735//2 741//2 394//2
f 394//2 741//2 742//2
f 394//2 742//2 715//2
f 720//2 743//2 718//2
f 718//2 743//2 744//2
f 718//2 744//2 739//2
f 739//2 744//2 247//2
f 739//2 247//2 248//2
f 745//2 512//2 705//2
f 705//2 512//2 607//2
f 705//2 607//2 293//2
f 745//2 746//2 512//2
f 512//2 746//2 747//2
f 512//2 747//2 748//2
f 728//2 510//2 729//2
f 729//2 510//2 512//2
f 729//2 512//2 749//2
f 749//2 512//2 748//2
f 386//2 721//2 248//2
f 248//2 721//2 750//2
f 248//2 750//2 751//2
f 751//2 752//2 248//2
f 248//2 752//2 753//2
f 248//2 753//2 738//2
f 245//179 497//179 243//179
f 243//179 497//179 422//179
f 243//179 422//179 754//179
f 754//179 422//179 424//179
f 754//179 424//179 755//179
f 755//179 424//179 426//179
f 755//179 426//179 756//179
f 756//179 426//179 428//179
f 756//179 428//179 490//179
f 490//179 428//179 430//179
f 490//179 430//179 491//179
f 491//179 430//179 412//179
f 491//179 412//179 531//179
f 531//179 412//179 415//179
f 531//179 415//179 529//179
f 529//179 415//179 417//179
f 529//179 417//179 527//179
f 527//179 417//179 419//179
f 527//179 419//179 253//179
f 253//179 419//179 421//179
f 253//179 421//179 277//179
f 277//179 421//179 692//179
f 648//104 649//104 663//104
f 757//104 494//104 663//104
f 663//104 494//104 495//104
f 658//104 659//104 654//104
f 495//104 646//104 663//104
f 663//104 646//104 647//104
f 663//104 647//104 648//104
f 660//104 661//104 651//104
f 654//104 659//104 653//104
f 649//104 650//104 663//104
f 663//104 650//104 651//104
f 663//104 651//104 662//104
f 662//104 651//104 661//104
f 660//104 651//104 659//104
f 659//104 651//104 652//104
f 659//104 652//104 653//104
f 655//104 656//104 654//104
f 654//104 656//104 657//104
f 654//104 657//104 658//104
f 282//442 758//443 259//444
f 259//445 758//446 759//447
f 259//445 759//447 260//448
f 260//449 759//449 760//449
f 260//450 760//450 261//450
f 261//451 760//452 761//453
f 261//451 761//453 262//454
f 262//455 761//455 762//455
f 262//456 762//456 263//456
f 263//457 762//458 763//459
f 263//457 763//459 264//460
f 264//461 763//462 764//463
f 264//461 764//463 254//464
f 254//465 764//466 765//467
f 254//465 765//467 255//468
f 255//469 765//469 766//469
f 255//470 766//470 252//470
f 252//471 766//472 767//473
f 252//471 767//473 251//474
f 251//475 767//475 768//475
f 251//476 768//476 249//476
f 249//477 768//478 371//479
f 249//477 371//479 256//480
f 256//481 371//482 373//483
f 256//481 373//483 257//484
f 257//485 373//486 375//487
f 257//485 375//487 258//488
f 258//489 375//489 377//489
f 258//490 377//490 272//490
f 272//491 377//492 379//493
f 272//491 379//493 273//494
f 273//495 379//495 381//495
f 273//496 381//496 274//496
f 274//497 381//498 383//499
f 274//497 383//499 265//500
f 265//501 383//502 489//503
f 265//501 489//503 266//504
f 266//505 489//506 487//507
f 266//505 487//507 268//508
f 268//509 487//509 485//509
f 268//510 485//510 269//510
f 269//511 485//512 483//513
f 269//511 483//513 270//514
f 270//515 483//515 481//515
f 270//516 481//516 283//516
f 283//517 481//518 479//519
f 283//517 479//519 284//520
f 284//521 479//522 498//523
f 284//521 498//523 286//524
f 286//525 498//526 500//527
f 286//525 500//527 288//528
f 288//529 500//529 502//529
f 288//530 502//530 290//530
f 290//531 502//532 504//533
f 290//531 504//533 291//534
f 291//535 504//535 506//535
f 291//536 506//536 292//536
f 292//537 506//538 508//539
f 292//537 508//539 275//540
f 275//541 508//542 640//543
f 275//541 640//543 276//544
f 276//545 640//546 641//547
f 276//545 641//547 278//548
f 278//549 641//549 642//549
f 278//550 642//550 279//550
f 279//551 642//552 643//553
f 279//551 643//553 280//554
f 280//555 643//555 644//555
f 280//556 644//556 281//556
f 281//557 644//558 645//559
f 281//557 645//559 282//560
f 282//442 645//561 758//443
f 515//441 451//441 596//2
f 596//2 451//441 450//2
f 598//2 597//2 341//2
f 341//2 597//2 333//2
f 341//2 333//2 335//2
f 523//2 525//2 596//2
f 596//2 525//2 526//2
f 596//2 526//2 515//441
f 523//2 596//2 341//2
f 341//2 596//2 599//2
f 341//2 599//2 598//2
f 346//2 345//2 335//2
f 335//2 345//2 342//2
f 335//2 342//2 341//2
f 339//2 340//2 337//2
f 337//2 340//2 349//2
f 337//2 349//2 335//2
f 335//2 349//2 348//2
f 335//2 348//2 346//2
f 544//562 763//562 546//562
f 546//562 763//562 762//563
f 546//562 762//563 548//562
f 548//562 762//563 761//562
f 548//562 761//562 550//562
f 550//562 761//562 760//562
f 550//562 760//562 552//562
f 552//562 760//562 759//563
f 552//562 759//563 554//562
f 554//562 759//563 758//562
f 554//562 758//562 556//563
f 556//563 758//562 645//562
f 455//564 454//564 516//564
f 516//564 454//564 604//564
f 516//564 604//564 517//564
f 517//564 604//564 603//564
f 769//565 770//565 388//565
f 388//566 770//566 771//566
f 772//567 773//567 732//567
f 772//568 732//568 774//568
f 774//569 594//569 607//569
f 774//570 607//570 775//570
f 775//571 607//571 609//571
f 776//572 615//572 512//572
f 776//573 512//573 777//573
f 777//82 512//82 513//82
f 777//84 391//84 392//84
f 777//574 392//574 778//574
f 778//575 392//575 464//575
f 779//576 477//576 394//576
f 779//577 394//577 780//577
f 780//578 386//578 781//578
f 781//579 386//579 435//579
f 782//580 439//580 248//580
f 782//581 248//581 771//581
f 327//582 783//582 329//582
f 329//583 783//583 784//583
f 329//584 784//584 331//584
f 331//585 784//585 785//585
f 331//586 785//586 332//586
f 332//587 785//587 323//587
f 323//588 785//588 786//588
f 323//589 786//589 787//589
f 787//590 786//590 638//590
f 638//591 786//591 788//591
f 638//592 788//592 636//592
f 307//593 789//593 790//593
f 790//594 789//594 616//594
f 790//595 616//595 791//595
f 307//596 790//596 309//596
f 309//597 790//597 792//597
f 309//598 792//598 311//598
f 311//599 792//599 793//599
f 311//600 793//600 312//600
f 312//601 793//601 303//601
f 303//602 793//602 794//602
f 303//603 794//603 612//603
f 612//604 794//604 613//604
f 613//605 794//605 795//605
f 613//606 795//606 796//606
f 317//607 605//607 797//607
f 797//608 605//608 610//608
f 797//609 610//609 798//609
f 317//610 797//610 319//610
f 319//611 797//611 799//611
f 319//612 799//612 321//612
f 321//613 799//613 800//613
f 321//614 800//614 322//614
f 322//615 800//615 313//615
f 313//616 800//616 801//616
f 313//617 801//617 474//617
f 474//618 801//618 475//618
f 475//619 801//619 802//619
f 475//620 802//620 665//620
f 466//621 465//621 803//621
f 803//622 465//622 469//622
f 803//623 469//623 804//623
f 466//624 803//624 805//624
f 805//625 803//625 806//625
f 805//626 806//626 807//626
f 807//627 806//627 808//627
f 807//628 808//628 809//628
f 809//629 808//629 445//629
f 445//630 808//630 810//630
f 445//631 810//631 443//631
f 443//632 810//632 441//632
f 441//633 810//633 811//633
f 441//634 811//634 812//634
f 327//635 432//635 783//635
f 783//636 432//636 436//636
f 783//637 436//637 813//637
f 469//638 683//638 804//638
f 804//639 683//639 681//639
f 804//640 681//641 814//642
f 681//641 679//643 814//642
f 814//644 679//644 677//644
f 814//645 677//646 815//647
f 677//646 675//648 815//647
f 815//649 675//649 673//649
f 815//650 673//651 816//652
f 673//651 671//653 816//652
f 816//654 671//654 669//654
f 816//655 669//656 802//657
f 802//657 669//656 667//658
f 802//659 667//659 665//659
f 610//660 817//660 798//660
f 798//661 817//661 818//661
f 798//662 818//663 819//664
f 818//663 820//665 819//664
f 819//666 820//666 821//666
f 819//667 821//668 822//669
f 821//668 823//670 822//669
f 822//671 823//671 824//671
f 822//672 824//673 825//674
f 824//673 826//675 825//674
f 825//676 826//676 827//676
f 825//677 827//678 795//679
f 795//679 827//678 828//680
f 795//681 828//681 796//681
f 616//682 618//682 791//682
f 791//683 618//683 620//683
f 791//684 620//685 829//686
f 620//685 622//687 829//686
f 829//688 622//688 624//688
f 829//296 624//689 830//690
f 624//689 626//691 830//690
f 830//692 626//692 628//692
f 830//292 628//693 831//694
f 628//693 630//695 831//694
f 831//696 630//696 632//696
f 831//697 632//698 788//699
f 788//699 632//698 634//700
f 788//701 634//701 636//701
f 436//702 832//702 813//702
f 813//703 832//703 833//703
f 813//704 833//705 834//706
f 833//705 835//707 834//706
f 834//708 835//708 836//708
f 834//709 836//710 837//711
f 836//710 838//712 837//711
f 837//713 838//713 839//713
f 837//714 839//715 840//716
f 839//715 841//717 840//716
f 840//718 841//718 842//718
f 840//719 842//720 811//721
f 811//721 842//720 843//722
f 811//723 843//723 812//723
f 433//724 441//724 844//724
f 844//724 441//724 812//724
f 844//725 812//725 845//725
f 845//725 812//725 843//725
f 845//726 843//726 846//726
f 846//726 843//726 842//726
f 846//727 842//728 847//727
f 847//727 842//728 841//727
f 847//729 841//729 848//729
f 848//729 841//729 839//729
f 848//730 839//730 849//730
f 849//730 839//730 838//730
f 849//731 838//731 850//731
f 850//731 838//731 836//731
f 850//732 836//733 851//733
f 851//733 836//733 835//732
f 851//734 835//734 852//734
f 852//734 835//734 833//734
f 852//735 833//735 853//735
f 853//735 833//735 832//735
f 853//736 832//736 437//736
f 437//736 832//736 436//736
f 771//737 770//737 707//737
f 774//738 775//738 699//738
f 777//739 778//739 712//739
f 780//740 781//740 703//740
f 434//741 433//741 721//741
f 721//742 433//742 750//742
f 703//743 781//743 721//743
f 721//744 781//744 435//744
f 721//745 435//745 434//745
f 780//746 703//746 779//746
f 779//747 703//747 704//747
f 779//748 704//748 477//748
f 477//749 704//749 715//749
f 477//750 715//750 476//750
f 476//751 715//751 470//751
f 470//752 715//752 742//752
f 470//753 742//753 682//753
f 463//754 468//754 710//754
f 710//755 468//755 740//755
f 712//756 778//756 710//756
f 710//757 778//757 464//757
f 710//758 464//758 463//758
f 777//759 712//759 776//759
f 776//760 712//760 724//760
f 776//761 724//761 615//761
f 615//762 724//762 729//762
f 615//763 729//763 614//763
f 614//764 729//764 611//764
f 611//765 729//765 749//765
f 611//766 749//766 854//766
f 608//767 606//767 705//767
f 705//768 606//768 745//768
f 699//769 775//769 705//769
f 705//770 775//770 609//770
f 705//771 609//771 608//771
f 774//772 699//772 772//772
f 772//773 699//773 700//773
f 772//774 700//774 773//774
f 773//775 700//775 706//775
f 773//776 706//776 855//776
f 855//777 706//777 617//777
f 617//778 706//778 733//778
f 617//779 733//779 619//779
f 856//780 639//780 702//780
f 702//781 639//781 730//781
f 707//782 770//782 702//782
f 702//783 770//783 769//783
f 702//784 769//784 856//784
f 771//785 707//785 782//785
f 782//786 707//786 718//786
f 782//787 718//787 439//787
f 439//788 718//788 739//788
f 439//789 739//789 440//789
f 440//790 739//790 437//790
f 437//791 739//791 738//791
f 437//792 738//792 853//792
f 606//793 857//793 745//793
f 745//794 857//794 858//794
f 745//795 858//796 746//797
f 858//796 859//798 746//797
f 746//799 859//799 860//799
f 746//800 860//800 747//801
f 860//800 861//802 747//801
f 747//803 861//803 862//803
f 747//804 862//805 748//806
f 862//805 863//807 748//806
f 748//808 863//808 864//808
f 748//809 864//810 749//811
f 749//811 864//810 865//812
f 749//813 865//813 854//813
f 468//814 664//814 740//814
f 740//815 664//815 666//815
f 740//816 666//817 734//818
f 666//817 668//819 734//818
f 734//820 668//820 670//820
f 734//821 670//822 735//823
f 670//822 672//824 735//823
f 735//825 672//825 674//825
f 735//826 674//827 741//828
f 674//827 676//829 741//828
f 741//830 676//830 678//830
f 741//831 678//832 742//833
f 742//833 678//832 680//834
f 742//835 680//835 682//835
f 433//836 844//836 750//836
f 750//837 844//837 845//837
f 750//838 845//839 751//840
f 845//839 846//841 751//840
f 751//842 846//842 847//842
f 751//843 847//844 752//845
f 847//844 848//846 752//845
f 752//847 848//847 849//847
f 752//848 849//849 753//850
f 849//849 850//851 753//850
f 753//852 850//852 851//852
f 753//853 851//854 738//855
f 738//855 851//854 852//856
f 738//857 852//857 853//857
f 639//858 637//858 730//858
f 730//859 637//859 635//859
f 730//860 635//861 731//862
f 635//861 633//863 731//862
f 731//864 633//864 631//864
f 731//865 631//866 736//867
f 631//866 629//868 736//867
f 736//869 629//869 627//869
f 736//870 627//871 737//872
f 627//871 625//873 737//872
f 737//874 625//874 623//874
f 737//875 623//876 733//877
f 733//877 623//876 621//878
f 733//879 621//879 619//879
f 490//233 492//233 866//233
f 490//233 866//233 756//233
f 756//880 866//880 867//880
f 756//880 867//880 755//880
f 755//231 867//231 868//231
f 755//231 868//231 754//231
f 754//881 868//881 244//881
f 754//881 244//881 243//881
f 606//882 613//882 857//882
f 857//882 613//882 796//882
f 857//883 796//883 858//883
f 858//883 796//883 828//883
f 858//884 828//884 859//884
f 859//884 828//884 827//884
f 859//885 827//885 860//885
f 860//885 827//885 826//885
f 860//886 826//886 861//886
f 861//886 826//886 824//886
f 861//887 824//888 862//888
f 862//888 824//888 823//887
f 862//889 823//889 863//889
f 863//889 823//889 821//889
f 863//890 821//890 864//890
f 864//890 821//890 820//890
f 864//891 820//891 865//891
f 865//891 820//891 818//891
f 865//892 818//892 854//893
f 854//893 818//892 817//892
f 854//894 817//894 611//894
f 611//894 817//894 610//894
f 445//895 446//895 600//895
f 467//896 466//896 595//896
f 595//897 466//897 805//897
f 595//898 805//898 601//898
f 601//899 805//899 807//899
f 601//900 807//900 600//900
f 600//901 807//901 809//901
f 600//902 809//902 445//902
f 350//564 361//564 663//564
f 663//564 361//564 757//564
f 856//1 769//1 388//1
f 789//1 307//1 306//903
f 856//1 388//1 639//1
f 616//904 341//1 617//905
f 617//905 341//1 343//1
f 324//1 323//1 347//906
f 347//906 323//1 787//1
f 347//906 787//1 344//1
f 344//1 787//1 638//1
f 344//1 638//1 343//1
f 343//1 638//1 639//1
f 343//1 639//1 617//905
f 617//905 639//1 388//1
f 617//905 388//1 855//1
f 855//1 388//1 732//1
f 855//1 732//1 773//1
f 306//903 521//903 789//1
f 789//1 521//903 524//907
f 789//1 524//907 616//904
f 616//904 524//907 522//908
f 616//904 522//908 341//1
f 267//564 688//564 250//564
f 250//564 688//564 420//564
f 250//564 420//564 528//564
f 528//564 420//564 418//564
f 528//564 418//564 530//564
f 530//564 418//564 416//564
f 530//564 416//564 532//564
f 532//564 416//564 414//564
f 532//564 414//564 493//564
f 493//564 414//564 413//564
f 493//564 413//564 492//564
f 492//564 413//564 431//564
f 492//564 431//564 866//564
f 866//564 431//564 429//564
f 866//564 429//564 867//564
f 867//564 429//564 427//564
f 867//564 427//564 868//564
f 868//564 427//564 425//564
f 868//564 425//564 244//564
f 244//564 425//564 423//564
f 244//564 423//564 246//564
f 246//564 423//564 496//564
f 277//909 692//909 686//909
f 277//909 686//909 289//909
f 289//910 686//910 685//910
f 289//910 685//910 287//910
f 287//911 685//911 684//911
f 287//911 684//911 285//911
f 285//912 684//912 687//912
f 285//912 687//912 271//912
f 271//913 687//913 688//913
f 271//913 688//913 267//913
f 497//914 494//914 496//914
f 496//914 494//914 757//914
f 496//914 757//914 246//914
f 246//914 757//914 361//914
f 246//914 361//914 245//914
f 245//914 361//914 360//914
f 245//914 360//914 497//914
f 497//914 360//914 494//914
f 797//2 557//2 799//2
f 799//2 557//2 559//2
f 799//2 559//2 800//2
f 800//2 559//2 561//2
f 800//2 561//2 801//2
f 801//2 561//2 563//2
f 801//2 563//2 802//2
f 802//2 563//2 565//2
f 802//2 565//2 816//2
f 816//2 565//2 567//2
f 816//2 567//2 815//2
f 815//2 567//2 568//2
f 815//2 568//2 814//2
f 814//2 568//2 569//2
f 814//2 569//2 804//2
f 804//2 569//2 570//2
f 804//2 570//2 803//2
f 803//2 570//2 571//2
f 803//2 571//2 806//2
f 806//2 571//2 572//2
f 806//2 572//2 808//2
f 808//2 572//2 573//2
f 808//2 573//2 810//2
f 810//2 573//2 574//2
f 810//2 574//2 811//2
f 811//2 574//2 575//2
f 811//2 575//2 840//2
f 840//2 575//2 576//2
f 840//2 576//2 837//2
f 837//2 576//2 577//2
f 837//2 577//2 834//2
f 834//2 577//2 578//2
f 834//2 578//2 813//2
f 813//2 578//2 579//2
f 813//2 579//2 783//2
f 783//2 579//2 580//2
f 783//2 580//2 784//2
f 784//2 580//2 581//2
f 784//2 581//2 785//2
f 785//2 581//2 582//2
f 785//2 582//2 786//2
f 786//2 582//2 583//2
f 786//2 583//2 788//2
f 788//2 583//2 584//2
f 788//2 584//2 831//2
f 831//2 584//2 585//2
f 831//2 585//2 830//2
f 830//2 585//2 533//2
f 830//2 533//2 829//2
f 829//2 533//2 535//2
f 829//2 535//2 791//2
f 791//2 535//2 537//2
f 791//2 537//2 790//2
f 790//2 537//2 539//2
f 790//2 539//2 792//2
f 792//2 539//2 541//2
f 792//2 541//2 793//2
f 793//2 541//2 543//2
f 793//2 543//2 794//2
f 794//2 543//2 545//2
f 794//2 545//2 795//2
f 795//2 545//2 547//2
f 795//2 547//2 825//2
f 825//2 547//2 549//2
f 825//2 549//2 822//2
f 822//2 549//2 551//2
f 822//2 551//2 819//2
f 819//2 551//2 553//2
f 819//2 553//2 798//2
f 798//2 553//2 555//2
f 798//2 555//2 797//2
f 797//2 555//2 557//2
f 390//88 389//88 711//88
f 711//89 695//89 713//89
f 713//90 694//915 714//90
f 714//92 693//92 722//92
f 722//93 698//93 723//93
f 723//94 697//94 725//94
f 725//95 696//95 726//95
f 726//96 691//96 727//96
f 727//97 690//97 728//97
f 728//916 689//99 510//916
f 372//917 371//917 534//917
f 534//917 371//917 768//917
f 534//917 768//917 536//917
f 536//917 768//917 767//917
f 536//917 767//917 538//917
f 538//917 767//917 766//917
f 538//917 766//917 540//917
f 540//917 766//917 765//917
f 540//917 765//917 542//917
f 542//917 765//917 764//917
f 542//917 764//917 544//917
f 544//917 764//917 763//917
f 869//918 870//918 871//918
f 871//918 870//918 872//918
f 871//919 872//919 873//919
f 873//919 872//919 874//919
f 873//920 874//920 875//920
f 875//920 874//920 876//920
f 875//921 876//921 877//921
f 877//921 876//921 878//921
f 877//914 878//914 879//914
f 879//914 878//914 880//914
f 879//922 880//922 881//923
f 881//923 880//922 882//924
f 881//925 882//925 883//925
f 883//925 882//925 884//925
f 883//926 884//926 885//926
f 885//926 884//926 886//926
f 885//927 886//928 887//928
f 887//928 886//928 888//928
f 887//929 888//929 895//929
f 895//929 888//929 890//929
f 897//930 895//930 890//930
f 897//930 890//930 889//930
f 891//931 892//931 898//931
f 892//569 897//569 898//569
f 898//932 897//930 889//930
f 898//932 889//930 896//933
f 892//569 893//569 897//569
f 898//934 899//934 891//934
f 870//935 869//935 893//935
f 893//935 869//935 894//935
