# Blender v3.6.0 OBJ File: 'Valves.blend'
# www.blender.org
mtllib ValveDrainSample_Element.mtl
o 7_ValveDrainSample_Element_ValveDrainSample.002
v -0.129687 0.012500 0.300000
v -0.129687 0.012500 0.275000
v -0.121664 0.011852 0.300000
v -0.150000 0.012500 0.275000
v -0.150000 0.012500 0.300000
v -0.300000 0.065000 0.300000
v -0.039432 0.006720 0.300000
v -0.299696 0.068473 0.300000
v -0.300000 0.012500 0.300000
v -0.300000 0.065000 0.275000
v -0.039432 0.006720 0.275000
v -0.299696 0.068473 0.275000
v -0.037743 0.013248 0.275000
v -0.300000 0.012500 0.275000
v -0.121664 0.011852 0.275000
v -0.113849 0.009925 0.300000
v -0.113849 0.009925 0.275000
v -0.106443 0.006769 0.300000
v -0.106443 0.006769 0.275000
v -0.099641 0.002465 0.300000
v -0.099641 0.002465 0.275000
v -0.040000 0.000000 0.275000
v -0.093616 -0.002874 0.300000
v -0.093616 -0.002874 0.275000
v -0.088529 -0.009110 0.300000
v -0.088529 -0.009110 0.275000
v -0.084506 -0.016083 0.300000
v -0.084506 -0.016083 0.275000
v -0.039432 -0.006719 0.275000
v -0.081655 -0.023611 0.300000
v -0.081655 -0.023611 0.275000
v -0.037743 -0.013247 0.275000
v -0.076808 -0.036408 0.275000
v -0.076808 -0.036408 0.300000
v -0.034981 -0.019399 0.275000
v -0.069970 -0.048262 0.275000
v -0.069970 -0.048262 0.300000
v -0.031225 -0.025000 0.275000
v -0.061319 -0.058864 0.275000
v -0.051079 -0.067941 0.275000
v -0.061319 -0.058864 0.300000
v -0.051079 -0.067941 0.300000
v -0.031225 -0.025000 0.300000
v 0.031225 -0.025000 0.300000
v -0.013639 -0.083898 0.300000
v -0.039515 -0.075257 0.300000
v -0.026926 -0.080623 0.300000
v -0.034981 -0.019399 0.300000
v -0.037743 -0.013247 0.300000
v -0.039432 -0.006719 0.300000
v -0.040000 0.000000 0.300000
v -0.013639 -0.083898 0.275000
v -0.026926 -0.080623 0.275000
v -0.039515 -0.075257 0.275000
v 0.000000 -0.085000 0.275000
v 0.280000 -0.085000 0.275000
v 0.031225 -0.025000 0.275000
v 0.000000 -0.085000 0.300000
v 0.280000 -0.085000 0.300000
v 0.283473 -0.084696 0.275000
v 0.283473 -0.084696 0.300000
v 0.034981 -0.019399 0.300000
v 0.037743 -0.013247 0.300000
v 0.286840 -0.083794 0.300000
v 0.297320 -0.075000 0.300000
v 0.290000 -0.082321 0.300000
v 0.298794 -0.071840 0.300000
v 0.039432 -0.006719 0.300000
v 0.037743 -0.013247 0.275000
v 0.292856 -0.080321 0.300000
v 0.039432 -0.006719 0.275000
v 0.299696 -0.068473 0.300000
v 0.295321 -0.077856 0.300000
v 0.295321 -0.077856 0.275000
v 0.297320 -0.075000 0.275000
v 0.298794 -0.071840 0.275000
v 0.299696 -0.068473 0.275000
v 0.300000 -0.065000 0.275000
v 0.129687 -0.012500 0.275000
v 0.300000 -0.065000 0.300000
v 0.121664 -0.011852 0.275000
v 0.300000 -0.012500 0.300000
v 0.300000 -0.012500 0.275000
v 0.150000 -0.012500 0.275000
v 0.150000 -0.012500 0.300000
v 0.150000 -0.007290 0.275456
v 0.150000 -0.011631 0.300076
v 0.300000 -0.007290 0.275456
v 0.150000 -0.002239 0.276809
v 0.150000 0.002500 0.279019
v 0.150000 -0.010790 0.300301
v 0.300000 -0.002239 0.276809
v 0.300000 -0.010790 0.300301
v 0.300000 -0.010000 0.300670
v 0.300000 0.002500 0.279019
v 0.300000 -0.009286 0.301170
v 0.300000 0.006783 0.282019
v 0.150000 0.006783 0.282019
v 0.150000 0.010482 0.285716
v 0.150000 -0.009286 0.301170
v 0.150000 -0.010000 0.300670
v 0.150000 -0.008670 0.301786
v 0.300000 -0.008670 0.301786
v 0.150000 -0.008170 0.302500
v 0.150000 0.013481 0.290000
v 0.150000 0.015691 0.294739
v 0.300000 0.010482 0.285716
v 0.300000 0.013481 0.290000
v 0.300000 -0.008170 0.302500
v 0.300000 -0.007802 0.303290
v 0.300000 0.015691 0.294739
v 0.150000 0.017044 0.299790
v 0.300000 -0.007576 0.304132
v 0.300000 0.017044 0.299790
v 0.150000 0.017500 0.305000
v 0.300000 -0.007500 0.305000
v 0.300000 0.017500 0.305000
v 0.300000 -0.007500 0.310000
v 0.300000 0.017500 0.310000
v 0.150000 0.017500 0.310000
v 0.300941 0.027455 0.310044
v 0.150000 0.027500 0.310000
v 0.301737 0.027348 0.310152
v 0.300000 0.027500 0.310000
v 0.150000 0.027500 0.470000
v 0.300000 0.027500 0.470000
v 0.300969 0.027435 0.471455
v 0.300000 0.027217 0.472361
v 0.300000 0.027500 0.472361
v 0.301215 0.027410 0.471211
v 0.302114 -0.017239 0.470273
v 0.301216 -0.017400 0.471210
v 0.304274 -0.016508 0.467629
v 0.304149 -0.016565 0.467800
v 0.302126 0.027272 0.470260
v 0.302668 -0.017100 0.469651
v 0.302639 -0.017145 0.310354
v 0.301737 -0.017348 0.310152
v 0.302639 0.027145 0.310354
v 0.300941 -0.017456 0.310044
v 0.300000 -0.017500 0.470000
v 0.300000 -0.017500 0.310000
v 0.300970 -0.017432 0.471454
v 0.300000 -0.017217 0.472361
v 0.300000 -0.017500 0.472361
v 0.300000 -0.017456 0.470941
v 0.299667 -0.017143 0.472649
v 0.148787 -0.017426 0.471213
v 0.149269 -0.017359 0.471672
v 0.150359 -0.017141 0.472656
v 0.148787 0.027426 0.471213
v 0.149059 0.027455 0.310044
v 0.148264 0.027348 0.310152
v 0.300000 0.027455 0.470941
v 0.147333 0.027114 0.469653
v 0.148402 -0.017360 0.470821
v 0.145718 -0.016536 0.467618
v 0.150359 0.027141 0.472656
v 0.147333 -0.017126 0.469652
v 0.146281 -0.016783 0.468369
v 0.152384 -0.016539 0.474278
v 0.151668 -0.016776 0.473735
v 0.297262 -0.016422 0.474516
v 0.297612 -0.016544 0.474266
v 0.152764 -0.016404 0.474551
v 0.152778 0.026409 0.474542
v 0.152407 0.026539 0.474277
v 0.151139 0.026938 0.473306
v 0.298232 0.026747 0.473807
v 0.297613 0.026542 0.474271
v 0.153936 0.025968 0.475320
v 0.297232 0.026408 0.474545
v 0.292892 -0.014558 0.477084
v 0.294029 -0.015092 0.476508
v 0.295387 0.025681 0.475751
v 0.295339 -0.015669 0.475767
v 0.154618 -0.015677 0.475756
v 0.154872 -0.015569 0.475906
v 0.157097 -0.014559 0.477083
v 0.157238 -0.014492 0.477150
v 0.154651 0.025673 0.475763
v 0.157232 0.024497 0.477145
v 0.157086 0.024567 0.477076
v 0.292898 0.024556 0.477086
v 0.292753 -0.014491 0.477150
v 0.292760 0.024490 0.477151
v 0.295332 0.025658 0.475784
v 0.290284 -0.013249 0.478182
v 0.291664 0.023952 0.477639
v 0.290342 -0.013279 0.478161
v 0.159740 -0.013237 0.478190
v 0.158257 -0.013992 0.477606
v 0.161037 0.022559 0.478626
v 0.162102 0.021988 0.478936
v 0.159744 0.023235 0.478191
v 0.287907 0.021988 0.478936
v 0.286622 -0.011286 0.479256
v 0.287474 0.021754 0.479050
v 0.287468 -0.011751 0.479051
v 0.287900 -0.011985 0.478937
v 0.288191 0.022142 0.478857
v 0.290263 0.023238 0.478190
v 0.157367 0.024431 0.477208
v 0.161785 -0.012159 0.478848
v 0.162533 -0.011754 0.479050
v 0.165426 -0.010136 0.479646
v 0.162539 0.021750 0.479051
v 0.164894 0.020439 0.479558
v 0.165427 0.020137 0.479646
v 0.284575 0.020136 0.479646
v 0.165877 -0.009879 0.479713
v 0.168848 0.018167 0.479978
v 0.168380 -0.008438 0.479956
v 0.168378 0.018439 0.479956
v 0.284572 -0.010134 0.479647
v 0.282864 -0.009156 0.479862
v 0.281621 0.018437 0.479956
v 0.284111 0.019871 0.479715
v 0.280000 -0.007500 0.480000
v 0.170000 -0.007500 0.480000
v 0.280000 0.017500 0.480000
v 0.170000 0.017500 0.480000
v 0.299671 0.027144 0.472644
v 0.146580 -0.016897 0.310603
v 0.145742 -0.016548 0.310952
v 0.147362 -0.017145 0.310354
v 0.148264 -0.017348 0.310152
v 0.147362 0.027145 0.310354
v 0.146607 0.026877 0.468782
v 0.146580 0.026897 0.310603
v 0.145713 0.026505 0.467611
v 0.145742 0.026548 0.310952
v 0.144542 0.025856 0.465870
v 0.145448 0.026375 0.467239
v 0.145000 -0.016160 0.311340
v 0.145000 0.026160 0.311340
v 0.144235 0.025651 0.465367
v 0.144250 0.025682 0.311818
v 0.144250 -0.015682 0.311818
v 0.143573 0.025161 0.312339
v 0.142920 0.024556 0.462909
v 0.143562 -0.015152 0.312348
v 0.142929 -0.014571 0.312929
v 0.142920 0.024562 0.312938
v 0.142662 0.024292 0.462354
v 0.142852 0.024489 0.462767
v 0.142340 0.023928 0.313572
v 0.141809 0.023232 0.460258
v 0.141812 0.023242 0.314259
v 0.142332 -0.013919 0.313581
v 0.141818 -0.013250 0.314250
v 0.141809 -0.013235 0.460262
v 0.141154 -0.012148 0.458242
v 0.142396 -0.013995 0.461749
v 0.141339 0.022500 0.315000
v 0.141335 -0.012492 0.315008
v 0.140951 -0.011758 0.315742
v 0.140948 -0.011731 0.457484
v 0.140948 0.021750 0.315749
v 0.140603 0.020920 0.316580
v 0.140600 -0.010914 0.316586
v 0.140355 -0.010139 0.317361
v 0.140353 -0.010115 0.454591
v 0.140286 -0.009858 0.454134
v 0.140353 0.020134 0.317366
v 0.140152 0.019237 0.318264
v 0.140151 -0.009233 0.318267
v 0.140044 -0.008441 0.319059
v 0.140000 -0.007500 0.320000
v 0.140000 0.017500 0.320000
v 0.140000 -0.007500 0.450000
v 0.140044 -0.008432 0.451625
v 0.140011 0.017957 0.450795
v 0.140000 0.017500 0.450000
v 0.140044 0.018434 0.451628
v 0.140354 0.020117 0.454597
v 0.140387 0.020232 0.454800
v 0.140948 0.021729 0.457483
v 0.141062 0.021966 0.457911
v 0.141280 0.022380 0.458669
v 0.142850 -0.014491 0.462762
v 0.142917 -0.014559 0.462903
v 0.144095 -0.015571 0.465131
v 0.144243 -0.015677 0.465382
v 0.145447 -0.016403 0.467237
v 0.149059 -0.017456 0.310044
v 0.150000 -0.007500 0.310000
v 0.150000 -0.017500 0.310000
v 0.150000 -0.007500 0.305000
v 0.150000 -0.007576 0.304132
v 0.150000 -0.007802 0.303290
v 0.150000 -0.017500 0.470000
v 0.303420 0.026897 0.310603
v 0.302664 0.027141 0.469655
v 0.304007 0.026662 0.467992
v 0.304269 0.026543 0.467635
v 0.304257 0.026548 0.310952
v 0.305000 0.026160 0.311340
v 0.304257 -0.016548 0.310952
v 0.304552 0.026404 0.467240
v 0.303420 -0.016897 0.310603
v 0.305763 0.025672 0.465370
v 0.305750 0.025682 0.311818
v 0.304549 -0.016375 0.467242
v 0.305768 -0.015652 0.465362
v 0.306128 0.025403 0.464743
v 0.307082 0.024559 0.462904
v 0.305000 -0.016160 0.311340
v 0.305750 -0.015682 0.311818
v 0.306164 -0.015363 0.464679
v 0.306428 -0.015161 0.312339
v 0.306438 0.025152 0.312348
v 0.307071 0.024571 0.312929
v 0.307080 -0.014562 0.312938
v 0.307086 -0.014555 0.462899
v 0.307150 0.024491 0.462762
v 0.307151 -0.014488 0.462760
v 0.307760 -0.013805 0.461373
v 0.308189 -0.013229 0.460264
v 0.307660 -0.013927 0.313572
v 0.307668 0.023919 0.313581
v 0.308182 0.023250 0.314250
v 0.308187 -0.013241 0.314259
v 0.308939 -0.011957 0.457910
v 0.308661 -0.012500 0.315000
v 0.308665 0.022492 0.315008
v 0.309049 0.021758 0.315742
v 0.309052 -0.011750 0.315749
v 0.309051 -0.011726 0.457489
v 0.309114 -0.011585 0.457235
v 0.308991 0.021852 0.457715
v 0.309051 0.021728 0.457489
v 0.308937 0.021962 0.457914
v 0.308190 0.023230 0.460263
v 0.307693 0.023890 0.461539
v 0.309647 0.020113 0.454591
v 0.309399 0.020915 0.316586
v 0.309646 0.020139 0.317361
v 0.309848 -0.009236 0.318264
v 0.309849 0.019234 0.318267
v 0.309397 -0.010921 0.316580
v 0.309647 -0.010134 0.317366
v 0.309712 0.019862 0.454145
v 0.309957 -0.008433 0.451628
v 0.309811 -0.009422 0.453370
v 0.309647 -0.010110 0.454589
v 0.309957 0.018432 0.451624
v 0.309956 0.018441 0.319059
v 0.310000 0.017500 0.320000
v 0.310000 -0.007500 0.320000
v 0.310000 0.017500 0.450000
v 0.310000 -0.007500 0.450000
v 0.300000 -0.011631 0.300076
v 0.129687 -0.012500 0.300000
v 0.121664 -0.011852 0.300000
v 0.113849 -0.009925 0.300000
v 0.113849 -0.009925 0.275000
v 0.106443 -0.006769 0.300000
v 0.106443 -0.006769 0.275000
v 0.099641 -0.002465 0.300000
v 0.040000 0.000000 0.300000
v 0.093617 0.002874 0.300000
v 0.088529 0.009111 0.300000
v 0.039432 0.006720 0.300000
v 0.039432 0.006720 0.275000
v 0.040000 0.000000 0.275000
v 0.099641 -0.002465 0.275000
v 0.093617 0.002874 0.275000
v 0.088529 0.009111 0.275000
v 0.084506 0.016083 0.275000
v 0.084506 0.016083 0.300000
v 0.081655 0.023611 0.300000
v 0.081655 0.023611 0.275000
v 0.037743 0.013248 0.275000
v 0.076851 0.036316 0.275000
v 0.076851 0.036316 0.300000
v 0.070085 0.048095 0.275000
v 0.034981 0.019400 0.275000
v 0.037743 0.013248 0.300000
v 0.031225 0.025000 0.275000
v 0.034981 0.019400 0.300000
v 0.070085 0.048095 0.300000
v 0.031225 0.025000 0.300000
v 0.039961 0.075021 0.300000
v 0.061528 0.058645 0.300000
v -0.027500 0.085000 0.300000
v -0.031225 0.025000 0.300000
v 0.051401 0.067698 0.300000
v 0.027500 0.080429 0.300000
v 0.027500 0.095000 0.300000
v 0.027500 0.080429 0.275000
v -0.027500 0.095000 0.300000
v 0.027500 0.100209 0.299544
v -0.027500 0.090000 0.275000
v -0.027500 0.100209 0.299544
v -0.027500 0.091736 0.274848
v -0.027500 0.093421 0.274397
v -0.027500 0.105261 0.298191
v -0.027500 0.095000 0.273660
v 0.027500 0.093421 0.274397
v 0.027500 0.095000 0.273660
v 0.027500 0.105261 0.298191
v 0.027500 0.096428 0.272660
v 0.027500 0.114284 0.292981
v 0.027500 0.110000 0.295981
v -0.027500 0.110000 0.295981
v -0.027500 0.096428 0.272660
v -0.027500 0.114284 0.292981
v -0.027500 0.097661 0.271428
v -0.027500 0.117981 0.289284
v 0.027500 0.117981 0.289284
v 0.027500 0.120981 0.285000
v 0.027500 0.097661 0.271428
v 0.027500 0.098660 0.270000
v 0.027500 0.099397 0.268420
v 0.027500 0.123191 0.280261
v -0.027500 0.098660 0.270000
v -0.027500 0.099397 0.268420
v -0.027500 0.123191 0.280261
v -0.027500 0.120981 0.285000
v 0.027500 0.124544 0.275209
v -0.027500 0.124544 0.275209
v -0.027500 0.099848 0.266736
v -0.027500 0.125000 0.270000
v 0.027500 0.125000 0.270000
v 0.027500 0.125000 0.185000
v 0.027500 0.100000 0.265000
v 0.027500 0.099848 0.266736
v 0.027500 0.100000 0.185000
v -0.027500 0.100000 0.265000
v -0.027500 0.100000 0.185000
v -0.027500 0.125000 0.185000
v 0.027500 0.091736 0.274848
v 0.027500 0.090000 0.275000
v -0.027500 0.085000 0.275000
v -0.280000 0.085000 0.275000
v -0.031225 0.025000 0.275000
v -0.034981 0.019400 0.275000
v -0.034981 0.019400 0.300000
v -0.037743 0.013248 0.300000
v -0.280000 0.085000 0.300000
v -0.283473 0.084696 0.275000
v -0.283473 0.084696 0.300000
v -0.286840 0.083794 0.275000
v -0.286840 0.083794 0.300000
v -0.290000 0.082321 0.275000
v -0.290000 0.082321 0.300000
v -0.292856 0.080321 0.300000
v -0.292856 0.080321 0.275000
v -0.295321 0.077856 0.275000
v -0.295321 0.077856 0.300000
v -0.297320 0.075000 0.275000
v -0.298794 0.071840 0.275000
v -0.297320 0.075000 0.300000
v -0.298794 0.071840 0.300000
v 0.039961 0.075021 0.275000
v 0.051401 0.067698 0.275000
v 0.061528 0.058645 0.275000
v 0.292856 -0.080321 0.275000
v 0.290000 -0.082321 0.275000
v 0.286840 -0.083794 0.275000
v 0.034981 -0.019399 0.275000
v -0.300000 0.007291 0.275456
v -0.150000 0.007291 0.275456
v -0.300000 0.011631 0.300076
v -0.150000 0.011631 0.300076
v -0.150000 0.010790 0.300301
v -0.300000 0.010790 0.300301
v -0.300000 0.002239 0.276809
v -0.150000 0.010000 0.300670
v -0.300000 0.010000 0.300670
v -0.150000 0.009286 0.301170
v -0.300000 0.009286 0.301170
v -0.300000 -0.002500 0.279019
v -0.300000 -0.006783 0.282019
v -0.150000 -0.006783 0.282019
v -0.150000 -0.002500 0.279019
v -0.150000 0.002239 0.276809
v -0.150000 -0.010481 0.285716
v -0.150000 -0.013481 0.290000
v -0.300000 -0.010481 0.285716
v -0.150000 0.008670 0.301786
v -0.300000 0.008670 0.301786
v -0.150000 0.008170 0.302500
v -0.150000 -0.015691 0.294739
v -0.300000 0.008170 0.302500
v -0.150000 0.007802 0.303290
v -0.300000 0.007802 0.303290
v -0.150000 0.007576 0.304132
v -0.150000 -0.017044 0.299790
v -0.150000 -0.017500 0.305000
v -0.300000 -0.017044 0.299790
v -0.300000 -0.015691 0.294739
v -0.300000 -0.013481 0.290000
v -0.300000 0.007576 0.304132
v -0.150000 0.007500 0.305000
v -0.300000 0.007500 0.305000
v -0.300000 -0.017500 0.305000
v -0.300000 0.007500 0.310000
v -0.300000 0.017500 0.310000
v -0.150000 0.017500 0.310000
v -0.150000 0.007500 0.310000
v -0.300000 -0.017500 0.310000
v -0.301736 -0.027348 0.310152
v -0.300941 0.017456 0.310044
v -0.301736 0.017348 0.310152
v -0.302639 0.017146 0.310354
v -0.302668 0.017100 0.469651
v -0.302114 0.017239 0.470273
v -0.301217 0.017401 0.471210
v -0.301215 -0.027410 0.471211
v -0.300000 -0.027217 0.472361
v -0.300941 -0.027455 0.310044
v -0.300969 -0.027435 0.471455
v -0.302126 -0.027272 0.470260
v -0.297623 0.016538 0.474278
v -0.298186 0.016719 0.473859
v -0.299676 0.017136 0.472646
v -0.304274 0.016508 0.467629
v -0.304149 0.016565 0.467800
v -0.300000 0.017218 0.472361
v -0.300000 0.017500 0.472361
v -0.300000 0.017456 0.470941
v -0.300970 0.017432 0.471454
v -0.300000 0.017500 0.470000
v -0.148787 0.017426 0.471213
v -0.150000 0.017500 0.470000
v -0.148402 0.017360 0.470821
v -0.149059 0.017456 0.310044
v -0.148787 -0.027426 0.471213
v -0.150347 0.017114 0.472666
v -0.152382 -0.026536 0.474282
v -0.151631 -0.026783 0.473719
v -0.150348 -0.027126 0.472667
v -0.149179 -0.027359 0.471598
v -0.300000 -0.027455 0.470941
v -0.300000 -0.027500 0.472361
v -0.299670 -0.027135 0.472651
v -0.300000 -0.027500 0.470000
v -0.300000 -0.027500 0.310000
v -0.150000 -0.027500 0.470000
v -0.149059 -0.027455 0.310044
v -0.150000 -0.027500 0.310000
v -0.150000 -0.017500 0.310000
v -0.148263 0.017348 0.310152
v -0.148263 -0.027348 0.310152
v -0.147361 -0.027145 0.310354
v -0.147333 -0.027113 0.469653
v -0.145718 0.016536 0.467618
v -0.146607 -0.026877 0.468782
v -0.145713 -0.026505 0.467611
v -0.146580 -0.026897 0.310603
v -0.145742 -0.026548 0.310952
v -0.147361 0.017146 0.310354
v -0.146580 0.016897 0.310603
v -0.145742 0.016549 0.310952
v -0.146281 0.016784 0.468369
v -0.147333 0.017126 0.469652
v -0.145000 0.016160 0.311340
v -0.145000 -0.026160 0.311340
v -0.145447 0.016403 0.467237
v -0.145448 -0.026375 0.467239
v -0.144243 0.015677 0.465382
v -0.144250 0.015682 0.311818
v -0.144095 0.015571 0.465131
v -0.143572 -0.025160 0.312339
v -0.144250 -0.025681 0.311818
v -0.143562 0.015152 0.312348
v -0.142929 0.014571 0.312929
v -0.142332 0.013919 0.313581
v -0.142917 0.014559 0.462903
v -0.142339 -0.023928 0.313572
v -0.142920 -0.024562 0.312938
v -0.142396 0.013995 0.461749
v -0.142849 0.014491 0.462762
v -0.142852 -0.024489 0.462767
v -0.142919 -0.024556 0.462909
v -0.144235 -0.025651 0.465367
v -0.144542 -0.025856 0.465870
v -0.141154 0.012148 0.458242
v -0.141809 0.013235 0.460262
v -0.142662 -0.024292 0.462354
v -0.141809 -0.023232 0.460258
v -0.141280 -0.022380 0.458669
v -0.141812 -0.023242 0.314259
v -0.141340 -0.022500 0.315000
v -0.141818 0.013250 0.314250
v -0.141062 -0.021965 0.457911
v -0.140948 -0.021729 0.457483
v -0.140353 0.010116 0.454591
v -0.140948 0.011731 0.457484
v -0.141063 0.011968 0.457914
v -0.140952 0.011758 0.315742
v -0.141335 0.012492 0.315008
v -0.140948 -0.021750 0.315749
v -0.140601 0.010914 0.316586
v -0.140603 -0.020920 0.316580
v -0.140386 -0.020232 0.454800
v -0.140353 -0.020133 0.317366
v -0.140354 -0.020117 0.454597
v -0.140355 0.010139 0.317361
v -0.140152 0.009233 0.318267
v -0.140152 -0.019237 0.318264
v -0.140286 0.009859 0.454134
v -0.140044 -0.018434 0.451628
v -0.140010 -0.017957 0.450795
v -0.140044 0.008433 0.451625
v -0.140045 0.008441 0.319059
v -0.140000 -0.017500 0.320000
v -0.140000 0.007500 0.320000
v -0.140000 0.007500 0.450000
v -0.140000 -0.017500 0.450000
v -0.297624 -0.026511 0.474277
v -0.297249 -0.026379 0.474545
v -0.297239 0.016404 0.474552
v -0.292903 -0.024550 0.477083
v -0.295389 0.015680 0.475752
v -0.293785 -0.024958 0.476645
v -0.154130 0.015856 0.475459
v -0.154633 0.015651 0.475765
v -0.295350 -0.025640 0.475775
v -0.297153 -0.026344 0.474612
v -0.152762 -0.026402 0.474553
v -0.152389 0.016505 0.474287
v -0.154618 -0.025677 0.475757
v -0.152761 0.016375 0.474552
v -0.157096 -0.024559 0.477083
v -0.154870 -0.025570 0.475905
v -0.157092 0.014556 0.477081
v -0.157238 -0.024491 0.477150
v -0.292762 -0.024483 0.477150
v -0.157233 0.014489 0.477148
v -0.157645 0.014291 0.477338
v -0.159742 0.013233 0.478192
v -0.161331 0.012380 0.478720
v -0.158251 -0.023994 0.477603
v -0.290342 -0.023279 0.478161
v -0.290284 -0.023250 0.478182
v -0.288212 0.012137 0.478854
v -0.290262 0.013238 0.478190
v -0.287914 0.011974 0.478937
v -0.287485 0.011737 0.479051
v -0.162517 0.011729 0.479052
v -0.286636 -0.021265 0.479257
v -0.287483 -0.021735 0.479052
v -0.287908 -0.021969 0.478939
v -0.162088 0.011965 0.478938
v -0.159738 -0.023235 0.478190
v -0.161758 -0.022148 0.478845
v -0.165200 0.010232 0.479613
v -0.162515 -0.021731 0.479051
v -0.165410 -0.020115 0.479647
v -0.284589 -0.020116 0.479647
v -0.282866 -0.019140 0.479863
v -0.284122 0.009853 0.479715
v -0.284590 0.010118 0.479646
v -0.165865 -0.019858 0.479714
v -0.165403 0.010117 0.479645
v -0.168372 0.008434 0.479956
v -0.169205 0.007957 0.479989
v -0.168375 -0.018433 0.479956
v -0.170000 0.007500 0.480000
v -0.170000 -0.017500 0.480000
v -0.280000 -0.017500 0.480000
v -0.280000 0.007500 0.480000
v -0.281625 0.008433 0.479956
v -0.291735 0.013988 0.477609
v -0.292761 0.014491 0.477150
v -0.292901 0.014557 0.477085
v -0.295327 0.015654 0.475789
v -0.151218 0.016878 0.473393
v -0.303421 0.016897 0.310603
v -0.302639 -0.027145 0.310354
v -0.303421 -0.026897 0.310603
v -0.304258 -0.026548 0.310952
v -0.304258 0.016549 0.310952
v -0.305000 0.016160 0.311340
v -0.304550 0.016375 0.467242
v -0.305000 -0.026160 0.311340
v -0.304552 -0.026404 0.467240
v -0.305750 -0.025681 0.311818
v -0.305750 0.015682 0.311818
v -0.306427 0.015161 0.312339
v -0.305768 0.015652 0.465362
v -0.306163 0.015363 0.464679
v -0.307083 -0.024559 0.462904
v -0.307086 0.014555 0.462899
v -0.307080 0.014563 0.312938
v -0.307151 0.014489 0.462760
v -0.307150 -0.024491 0.462762
v -0.307071 -0.024571 0.312929
v -0.307692 -0.023890 0.461539
v -0.308190 0.013229 0.460264
v -0.307761 0.013805 0.461373
v -0.307661 0.013927 0.313572
v -0.307668 -0.023919 0.313581
v -0.308188 0.013242 0.314259
v -0.308182 -0.023250 0.314250
v -0.308938 -0.021962 0.457914
v -0.308991 -0.021852 0.457715
v -0.308190 -0.023229 0.460263
v -0.308665 -0.022492 0.315008
v -0.308660 0.012500 0.315000
v -0.309048 -0.021758 0.315742
v -0.309052 0.011751 0.315749
v -0.309050 0.011726 0.457489
v -0.308939 0.011958 0.457910
v -0.309114 0.011585 0.457235
v -0.309647 -0.020113 0.454591
v -0.309647 0.010110 0.454589
v -0.309397 0.010921 0.316580
v -0.309050 -0.021728 0.457489
v -0.309645 -0.020138 0.317361
v -0.309399 -0.020914 0.316586
v -0.309647 0.010134 0.317366
v -0.309848 0.009236 0.318264
v -0.309712 -0.019862 0.454145
v -0.309849 -0.019233 0.318267
v -0.309956 -0.018441 0.319059
v -0.309956 -0.018432 0.451624
v -0.310000 -0.017500 0.450000
v -0.310000 -0.017500 0.320000
v -0.310000 0.007500 0.320000
v -0.309956 0.008433 0.451628
v -0.310000 0.007500 0.450000
v -0.309810 0.009423 0.453370
v -0.306127 -0.025403 0.464743
v -0.306438 -0.025152 0.312348
v -0.305764 -0.025672 0.465370
v -0.304269 -0.026543 0.467635
v -0.304006 -0.026662 0.467992
v -0.302664 -0.027141 0.469655
vn 0.0000 -1.0000 0.0000
vn -0.0805 -0.9968 0.0000
vn 0.0000 0.0000 1.0000
vn -0.9962 0.0872 0.0000
vn -1.0000 0.0000 0.0000
vn 0.0000 0.0000 -1.0000
vn -0.2394 -0.9709 0.0000
vn -0.3920 -0.9200 0.0000
vn -0.5347 -0.8450 0.0000
vn -0.6632 -0.7484 0.0000
vn -0.7749 -0.6321 0.0000
vn -0.8662 -0.4997 0.0000
vn -0.9352 -0.3542 0.0000
vn -0.7748 -0.6322 0.0000
vn -0.6633 -0.7483 0.0000
vn 0.0000 1.0000 -0.0000
vn 0.8305 0.5570 0.0000
vn 0.9123 0.4096 0.0000
vn 0.9681 0.2505 -0.0000
vn 0.9964 0.0842 -0.0000
vn 0.9964 -0.0842 0.0000
vn -0.2393 -0.9709 0.0000
vn -0.3921 -0.9199 0.0000
vn -0.5346 -0.8451 0.0000
vn 0.0872 -0.9962 0.0000
vn -0.9123 0.4096 0.0000
vn -0.9681 0.2505 -0.0000
vn 0.7071 -0.7071 0.0000
vn 0.8193 -0.5734 0.0000
vn 0.9063 -0.4227 0.0000
vn 0.9659 -0.2588 0.0000
vn 0.9962 -0.0872 0.0000
vn 1.0000 0.0000 0.0000
vn 0.0000 0.0872 -0.9962
vn 0.0000 0.2587 -0.9659
vn 0.0000 0.4226 -0.9063
vn 0.0000 0.5737 -0.8191
vn 0.0000 0.7069 -0.7073
vn 0.0000 -0.5736 0.8191
vn -0.0000 -0.4225 0.9064
vn 0.0000 -0.4232 0.9060
vn 0.0000 -0.7071 0.7071
vn 0.0000 -0.8191 0.5736
vn 0.0000 0.9063 -0.4226
vn 0.0000 0.8192 -0.5735
vn 0.0000 0.9659 -0.2587
vn 0.0000 0.9962 -0.0872
vn 0.0872 0.0000 -0.9962
vn 0.1328 -0.0081 -0.9911
vn 0.0467 0.0000 -0.9989
vn 0.0673 0.9977 -0.0000
vn 0.0669 0.9978 -0.0000
vn 0.0478 0.9989 0.0001
vn 0.1023 0.9948 0.0001
vn 0.6922 -0.1211 0.7115
vn 0.6830 0.0000 0.7304
vn 0.1492 0.9888 0.0000
vn 0.1493 0.9888 0.0000
vn 0.7464 0.0010 0.6655
vn 0.7466 0.0011 0.6653
vn 0.7225 -0.0000 0.6914
vn 0.7226 -0.0000 0.6913
vn 0.6874 -0.0000 0.7262
vn 0.7216 -0.0062 0.6922
vn 0.8062 0.0079 0.5916
vn 0.7803 0.0036 0.6254
vn 0.2195 -0.9756 0.0002
vn 0.3400 -0.9404 0.0002
vn 0.2422 -0.9702 0.0001
vn 0.2421 -0.9702 0.0001
vn 0.2190 -0.0000 -0.9757
vn 0.2192 0.0000 -0.9757
vn 0.2191 0.0000 -0.9757
vn 0.1334 0.0082 -0.9910
vn 0.1344 -0.9909 0.0004
vn 0.0701 -0.9975 0.0000
vn 0.0697 -0.9976 0.0001
vn 0.0699 -0.9976 0.0000
vn 0.0470 -0.9989 0.0000
vn 0.1772 -0.9842 0.0000
vn 0.1771 -0.9842 0.0000
vn 0.1270 -0.9919 0.0001
vn 0.6918 0.1138 0.7131
vn -0.0001 -0.9987 0.0511
vn -0.0001 -0.9984 0.0567
vn -0.0001 -0.9989 0.0472
vn -0.0768 -0.9833 0.1651
vn -0.0769 -0.9833 0.1651
vn 0.0002 -0.9836 0.1803
vn 0.0001 -0.9895 0.1444
vn -0.6893 0.0000 0.7245
vn -0.6701 0.0004 0.7423
vn -0.0000 -0.9763 0.2163
vn -0.0569 0.9984 0.0001
vn -0.0608 0.9981 0.0001
vn -0.0514 0.9987 0.0000
vn -0.1334 0.9911 -0.0000
vn -0.2130 0.9771 0.0002
vn -0.2165 0.9763 0.0002
vn -0.2100 0.9777 0.0002
vn -0.0001 0.9987 0.0515
vn -0.0001 0.9989 0.0478
vn -0.0000 0.9984 0.0570
vn 0.0002 0.9811 0.1936
vn 0.0000 0.9981 0.0609
vn -0.7310 -0.0048 0.6823
vn -0.7143 0.0000 0.6998
vn -0.7143 0.0000 0.6999
vn -0.7379 0.0004 0.6749
vn -0.7991 0.0066 0.6012
vn -0.6766 -0.0040 0.7363
vn -0.7729 0.0030 0.6345
vn -0.6055 0.0059 0.7958
vn -0.6365 0.0025 0.7713
vn 0.0000 -0.9473 0.3204
vn 0.0007 -0.9166 0.3998
vn 0.0007 -0.9166 0.3999
vn 0.0000 -0.8980 0.4399
vn 0.0000 -0.8987 0.4385
vn -0.0000 -0.8978 0.4405
vn -0.0000 -0.8974 0.4413
vn -0.0000 -0.9377 0.3474
vn -0.5836 0.0004 0.8121
vn -0.5830 0.0004 0.8124
vn -0.5822 0.0003 0.8130
vn -0.5817 0.0003 0.8134
vn -0.6079 0.0003 0.7940
vn -0.6404 -0.0012 0.7681
vn 0.0002 0.9547 0.2974
vn 0.0002 0.9548 0.2973
vn -0.0002 0.9148 0.4039
vn -0.0000 0.9250 0.3801
vn 0.6012 -0.0064 0.7991
vn 0.6879 0.0058 0.7258
vn 0.5822 -0.0001 0.8131
vn 0.5812 -0.0001 0.8138
vn 0.5817 -0.0001 0.8134
vn 0.5827 -0.0001 0.8127
vn 0.0001 0.8700 0.4930
vn -0.0000 0.8971 0.4418
vn -0.0004 0.8983 0.4393
vn 0.6544 0.0027 0.7561
vn 0.6184 -0.0001 0.7859
vn 0.5493 -0.0064 0.8356
vn 0.5489 -0.0063 0.8359
vn 0.4545 0.0070 0.8907
vn 0.4934 0.0031 0.8698
vn 0.0002 0.8563 0.5164
vn 0.5452 -0.0002 0.8383
vn -0.0000 -0.8566 0.5160
vn -0.0000 -0.8564 0.5163
vn 0.0000 -0.8568 0.5157
vn -0.0000 -0.7890 0.6144
vn 0.0000 -0.8562 0.5166
vn 0.0003 -0.8118 0.5840
vn -0.5090 0.0026 0.8608
vn -0.5450 0.0004 0.8384
vn -0.4695 0.0053 0.8829
vn -0.0002 -0.7587 0.6515
vn 0.0000 -0.7333 0.6799
vn -0.0000 -0.7058 0.7084
vn -0.4274 0.0001 0.9040
vn -0.4281 0.0001 0.9037
vn -0.4284 0.0001 0.9036
vn -0.5597 -0.0076 0.8287
vn -0.4746 0.0000 0.8802
vn -0.5279 -0.0042 0.8493
vn -0.4280 0.0001 0.9038
vn 0.0000 0.7648 0.6442
vn 0.0000 0.7643 0.6449
vn -0.0000 0.7638 0.6455
vn -0.0000 0.7030 0.7112
vn -0.0000 0.7029 0.7113
vn 0.0000 0.7020 0.7122
vn 0.4281 -0.0001 0.9037
vn 0.4271 -0.0001 0.9042
vn 0.4295 -0.0001 0.9031
vn 0.4261 -0.0001 0.9047
vn 0.0000 0.7032 0.7110
vn 0.4717 -0.0001 0.8818
vn -0.0000 0.7633 0.6460
vn 0.5123 -0.0033 0.8588
vn 0.0000 0.8209 0.5711
vn 0.3437 0.0031 0.9391
vn 0.4078 -0.0018 0.9131
vn 0.0000 0.6725 0.7401
vn 0.3867 -0.0001 0.9222
vn -0.0000 -0.5769 0.8168
vn -0.0000 -0.6118 0.7910
vn 0.0002 -0.6403 0.7681
vn -0.0002 -0.7019 0.7123
vn -0.0000 -0.6744 0.7384
vn 0.0000 -0.6743 0.7384
vn -0.4108 0.0058 0.9117
vn -0.3673 0.0020 0.9301
vn -0.2802 -0.0015 0.9599
vn -0.2805 -0.0015 0.9598
vn 0.0000 0.4771 0.8789
vn 0.0000 0.4774 0.8787
vn 0.0004 0.5412 0.8409
vn -0.3208 -0.0048 0.9471
vn -0.3212 -0.0048 0.9470
vn 0.2349 0.0003 0.9720
vn 0.2348 0.0003 0.9721
vn 0.2554 -0.0006 0.9668
vn 0.0000 0.4385 0.8987
vn 0.0000 0.4376 0.8992
vn 0.0000 0.4369 0.8995
vn 0.2586 0.0000 0.9660
vn 0.2552 -0.0000 0.9669
vn 0.2636 0.0000 0.9646
vn 0.2670 -0.0000 0.9637
vn -0.0007 0.4560 0.8900
vn 0.3031 -0.0002 0.9530
vn 0.3052 -0.0001 0.9523
vn 0.3064 -0.0000 0.9519
vn 0.3018 -0.0003 0.9534
vn -0.0000 0.5199 0.8542
vn 0.3660 0.0000 0.9306
vn -0.0004 0.6110 0.7916
vn 0.0000 0.6353 0.7722
vn 0.0002 0.6968 0.7173
vn -0.4265 0.0001 0.9045
vn -0.3822 -0.0001 0.9241
vn 0.0001 -0.5152 0.8571
vn 0.0000 -0.5186 0.8550
vn 0.0001 -0.5127 0.8586
vn -0.0000 -0.4439 0.8961
vn 0.0000 -0.4379 0.8990
vn 0.0000 -0.4402 0.8979
vn -0.0000 -0.4463 0.8949
vn -0.2592 -0.0000 0.9658
vn -0.2569 -0.0001 0.9664
vn -0.2610 0.0000 0.9653
vn 0.0000 -0.4020 0.9156
vn 0.0000 -0.4021 0.9156
vn -0.2042 -0.0003 0.9789
vn -0.2017 0.0000 0.9794
vn -0.2082 -0.0007 0.9781
vn -0.0003 -0.3452 0.9385
vn -0.0000 0.3607 0.9327
vn -0.2109 -0.0009 0.9775
vn -0.2553 -0.0001 0.9669
vn -0.0000 0.4364 0.8998
vn 0.0000 0.2789 0.9603
vn -0.1625 -0.0002 0.9867
vn -0.1626 -0.0002 0.9867
vn 0.0002 0.3454 0.9385
vn -0.1465 0.0003 0.9892
vn -0.0000 -0.2518 0.9678
vn -0.0000 -0.2517 0.9678
vn -0.0488 -0.0042 0.9988
vn -0.0971 0.0009 0.9953
vn 0.0002 -0.1666 0.9860
vn -0.1041 0.0007 0.9946
vn -0.0006 -0.2156 0.9765
vn 0.1249 0.0000 0.9922
vn 0.1912 0.0002 0.9816
vn 0.1873 0.0000 0.9823
vn 0.1974 0.0007 0.9803
vn -0.0000 -0.3214 0.9469
vn 0.0958 0.0009 0.9954
vn 0.0474 -0.0013 0.9989
vn 0.1467 -0.0013 0.9892
vn 0.0003 -0.0825 0.9966
vn 0.0000 -0.0468 0.9989
vn 0.0272 0.0000 0.9996
vn 0.0000 0.0333 0.9994
vn 0.0000 0.0374 0.9993
vn 0.0001 0.0429 0.9991
vn 0.0001 0.0468 0.9989
vn -0.0271 0.0000 0.9996
vn -0.0250 -0.0002 0.9997
vn -0.0218 -0.0004 0.9998
vn -0.0195 -0.0005 0.9998
vn -0.0001 0.1756 0.9845
vn -0.0002 0.1661 0.9861
vn -0.0001 0.1701 0.9854
vn 0.0000 0.2500 0.9683
vn 0.0000 0.1796 0.9837
vn 0.0000 0.0806 0.9967
vn 0.2009 0.0009 0.9796
vn 0.0000 -0.5210 0.8536
vn -0.3065 0.0004 0.9519
vn 0.0000 0.8323 0.5543
vn -0.0000 0.9462 0.3235
vn 0.0000 0.9463 0.3234
vn 0.6291 -0.0032 0.7773
vn 0.6522 -0.0018 0.7580
vn -0.0761 0.9834 0.1648
vn -0.0000 0.9837 0.1796
vn -0.3075 -0.9516 0.0001
vn -0.3097 -0.9508 0.0001
vn -0.3048 -0.9524 0.0001
vn -0.3845 -0.9231 -0.0001
vn -0.3026 -0.9531 0.0001
vn -0.4017 -0.9157 0.0000
vn -0.2190 -0.0000 -0.9757
vn -0.2191 -0.0000 -0.9757
vn -0.2192 0.0000 -0.9757
vn -0.2195 -0.9756 0.0001
vn -0.2176 -0.9760 0.0001
vn -0.2156 -0.9765 0.0001
vn -0.3027 -0.0000 -0.9531
vn -0.3030 -0.0000 -0.9530
vn -0.2139 -0.9769 0.0001
vn -0.3077 0.9515 0.0001
vn -0.3050 0.9524 0.0002
vn -0.3100 0.9507 0.0001
vn -0.3023 0.9532 0.0002
vn -0.2195 0.9756 0.0001
vn -0.3029 0.0000 -0.9530
vn -0.3845 0.0000 -0.9231
vn -0.3844 0.0000 -0.9232
vn -0.3847 0.9230 0.0002
vn -0.3848 0.9230 0.0002
vn -0.3844 0.9232 0.0002
vn -0.4633 0.0000 -0.8862
vn -0.4635 0.0000 -0.8861
vn -0.4971 0.8677 0.0000
vn -0.4632 0.8862 0.0004
vn -0.4384 0.8988 0.0002
vn -0.5380 -0.0000 -0.8430
vn -0.5378 0.0000 -0.8431
vn -0.5374 0.0000 -0.8433
vn -0.5553 0.8316 -0.0000
vn -0.5374 0.8433 0.0001
vn -0.5375 0.0000 -0.8433
vn -0.6099 0.0000 -0.7925
vn -0.6103 -0.0000 -0.7922
vn -0.6098 0.7925 0.0001
vn -0.6402 0.7682 0.0003
vn -0.6760 0.7369 0.0000
vn -0.6757 0.7372 0.0000
vn -0.6756 -0.0000 -0.7373
vn -0.6762 0.0000 -0.7367
vn -0.6755 -0.0000 -0.7373
vn -0.6760 0.0000 -0.7369
vn -0.7378 -0.0000 -0.6750
vn -0.7376 -0.0000 -0.6753
vn -0.7019 0.7123 0.0000
vn -0.7218 0.6921 -0.0000
vn -0.7381 0.6747 -0.0000
vn -0.7382 0.6746 -0.0000
vn -0.7788 0.6273 0.0002
vn -0.7789 0.6272 0.0002
vn -0.7928 0.6095 0.0000
vn -0.7932 -0.0000 -0.6090
vn -0.7930 0.0000 -0.6093
vn -0.7929 0.0000 -0.6094
vn -0.7930 -0.6092 0.0000
vn -0.7925 -0.6099 -0.0000
vn -0.7921 -0.6103 -0.0000
vn -0.8565 -0.5161 0.0000
vn -0.7917 -0.6109 -0.0000
vn -0.8429 -0.5380 0.0002
vn -0.8430 -0.5378 0.0002
vn -0.8429 -0.0000 -0.5380
vn -0.8432 -0.0000 -0.5377
vn -0.8432 0.0000 -0.5376
vn -0.8431 0.0000 -0.5378
vn -0.8865 0.0000 -0.4628
vn -0.8863 -0.0000 -0.4631
vn -0.8864 -0.4630 -0.0000
vn -0.8865 -0.4628 0.0000
vn -0.8867 -0.0000 -0.4623
vn -0.8966 -0.4428 0.0001
vn -0.8968 -0.4425 0.0001
vn -0.9233 -0.3840 0.0001
vn -0.9235 -0.0000 -0.3837
vn -0.9233 0.0000 -0.3840
vn -0.9234 -0.0000 -0.3839
vn -0.9533 0.0000 -0.3019
vn -0.9535 0.0000 -0.3014
vn -0.9532 -0.0000 -0.3025
vn -0.9533 -0.3020 0.0006
vn -0.9530 -0.0000 -0.3031
vn -0.9383 -0.3459 -0.0001
vn -0.9678 -0.2519 0.0000
vn -0.9678 -0.2517 0.0000
vn -0.9756 -0.2197 -0.0000
vn -0.9758 -0.0000 -0.2184
vn -0.9757 -0.0000 -0.2193
vn -0.9756 0.0000 -0.2194
vn -0.9756 0.0000 -0.2197
vn -0.9910 0.0000 -0.1339
vn -0.9910 -0.1342 0.0004
vn -0.9963 0.0014 -0.0855
vn -0.9963 0.0014 -0.0858
vn -0.9989 -0.0467 0.0000
vn -0.9989 -0.0471 0.0000
vn -0.9989 0.0000 -0.0467
vn -0.9859 -0.1673 0.0000
vn -0.9998 -0.0006 0.0175
vn -0.9999 -0.0008 0.0137
vn -0.9997 -0.0002 0.0234
vn -0.9953 0.0018 0.0970
vn -0.9996 0.0000 0.0271
vn -0.9997 0.0248 -0.0008
vn -0.9991 -0.0048 0.0428
vn -0.9975 0.0702 -0.0004
vn -0.9975 0.0701 -0.0004
vn -0.9946 0.0007 0.1035
vn -0.9835 0.1807 0.0003
vn -0.9876 -0.0002 0.1571
vn -0.9881 -0.0001 0.1536
vn -0.9888 -0.0000 0.1491
vn -0.9758 0.2187 0.0000
vn -0.9529 0.3032 0.0000
vn -0.9624 0.2718 -0.0002
vn -0.9232 0.3842 0.0005
vn -0.9231 0.3845 0.0005
vn -0.9363 0.3511 0.0001
vn -0.9364 0.3508 0.0001
vn -0.9787 -0.0013 0.2054
vn -0.9642 0.0053 0.2650
vn -0.9795 -0.0003 0.2013
vn -0.9894 0.0001 0.1451
vn -0.8867 0.4623 0.0001
vn -0.9015 0.4327 -0.0001
vn -0.9666 -0.0001 0.2562
vn -0.8431 0.5378 0.0004
vn -0.8845 0.4666 -0.0005
vn -0.9512 0.0004 0.3087
vn -0.9606 -0.0018 0.2779
vn -0.8501 0.5267 -0.0000
vn -0.9113 0.0069 0.4118
vn -0.9480 -0.0050 0.3183
vn -0.9297 0.0027 0.3683
vn -0.9023 -0.0000 0.4312
vn -0.9031 0.0000 0.4294
vn -0.9019 -0.0000 0.4320
vn -0.9035 0.0000 0.4285
vn -0.7378 -0.6751 0.0000
vn -0.7381 -0.6747 0.0000
vn -0.7376 -0.6752 -0.0000
vn -0.7121 -0.7021 0.0000
vn -0.9261 -0.0005 0.3772
vn -0.9085 -0.0000 0.4180
vn -0.8529 -0.0040 0.5221
vn -0.8326 -0.0072 0.5538
vn -0.8817 -0.0000 0.4717
vn -0.8831 0.0049 0.4692
vn -0.6514 -0.7587 0.0000
vn -0.6516 -0.7585 0.0000
vn -0.6103 -0.7922 -0.0000
vn -0.5839 -0.8118 0.0000
vn -0.6760 -0.7369 0.0003
vn -0.8612 0.0022 0.5082
vn -0.8610 0.0022 0.5086
vn -0.5164 -0.8564 0.0000
vn -0.8388 -0.0000 0.5444
vn -0.5373 -0.8434 0.0002
vn -0.8149 -0.0000 0.5797
vn -0.8142 0.0000 0.5806
vn -0.8143 0.0000 0.5805
vn -0.4422 -0.8969 -0.0000
vn -0.8140 0.0000 0.5809
vn -0.4634 -0.8862 -0.0001
vn -0.7375 -0.6753 -0.0000
vn -0.7947 0.0000 0.6071
vn -0.7949 0.0000 0.6068
vn -0.7680 -0.0014 0.6405
vn -0.0872 0.0000 -0.9962
vn -0.1343 -0.9909 -0.0000
vn -0.1332 0.0082 -0.9911
vn -0.1335 0.0082 -0.9910
vn -0.0472 0.0000 -0.9989
vn -0.0470 0.0000 -0.9989
vn 0.0000 -0.9962 0.0872
vn 0.0000 -0.9658 0.2592
vn -0.0000 -0.9063 0.4226
vn 0.0000 -0.9063 0.4227
vn -0.0000 -0.9062 0.4228
vn -0.0566 -0.9984 0.0001
vn -0.0472 -0.9989 0.0000
vn -0.0511 -0.9987 0.0000
vn 0.0000 -0.9981 0.0609
vn -0.0603 -0.9982 0.0002
vn -0.1696 -0.9855 -0.0001
vn -0.1333 -0.0082 -0.9910
vn -0.1336 -0.0082 -0.9910
vn -0.0478 0.9989 -0.0000
vn 0.3025 0.9531 0.0003
vn 0.3029 0.9530 0.0003
vn 0.3034 -0.0000 -0.9529
vn 0.3037 0.0000 -0.9528
vn 0.3030 -0.0000 -0.9530
vn 0.2377 0.9713 0.0000
vn 0.2377 0.9714 0.0000
vn 0.3359 0.9419 -0.0000
vn 0.2196 0.9756 -0.0001
vn 0.3846 0.9231 -0.0001
vn 0.3845 0.9231 -0.0001
vn 0.8053 -0.0000 0.5929
vn 0.8052 -0.0000 0.5929
vn 0.4125 0.9109 -0.0000
vn 0.7779 -0.0005 0.6284
vn 0.4629 0.8864 -0.0001
vn 0.4630 0.0000 -0.8864
vn 0.4628 0.0000 -0.8865
vn 0.3848 0.0000 -0.9230
vn 0.3849 0.0000 -0.9229
vn 0.3849 0.0000 -0.9230
vn 0.4413 0.8974 0.0000
vn 0.3844 -0.0000 -0.9232
vn 0.3033 0.0000 -0.9529
vn 0.3025 -0.9531 0.0006
vn 0.4135 -0.9105 0.0000
vn 0.3843 -0.9232 0.0002
vn 0.3848 -0.9230 0.0002
vn 0.8393 -0.0000 0.5436
vn 0.5173 0.8558 0.0000
vn 0.8137 0.0000 0.5812
vn 0.8140 -0.0000 0.5809
vn 0.8130 0.0000 0.5823
vn 0.5377 0.8432 0.0002
vn 0.8146 -0.0000 0.5800
vn 0.8380 0.0060 0.5457
vn 0.5105 -0.8599 0.0003
vn 0.4359 -0.9000 0.0002
vn 0.4356 -0.9002 0.0002
vn 0.8643 -0.0026 0.5030
vn 0.8643 -0.0026 0.5029
vn 0.8866 -0.0058 0.4626
vn 0.4628 -0.8864 0.0001
vn 0.5374 -0.8433 0.0001
vn 0.5382 -0.0000 -0.8428
vn 0.5383 0.0000 -0.8427
vn 0.6095 0.0000 -0.7928
vn 0.6094 0.0000 -0.7929
vn 0.5892 -0.8080 0.0001
vn 0.6093 -0.7929 0.0000
vn 0.6096 -0.0000 -0.7927
vn 0.6766 -0.0000 -0.7364
vn 0.6765 -0.0000 -0.7364
vn 0.6762 -0.0000 -0.7367
vn 0.6763 -0.0000 -0.7366
vn 0.6765 -0.7365 0.0000
vn 0.6761 -0.7368 0.0000
vn 0.6595 -0.7517 0.0001
vn 0.6593 -0.7519 0.0001
vn 0.8879 0.0000 0.4600
vn 0.9029 0.0000 0.4298
vn 0.9038 0.0000 0.4279
vn 0.9048 -0.0000 0.4258
vn 0.9058 0.0000 0.4237
vn 0.7147 -0.6994 0.0000
vn 0.9155 -0.0000 0.4023
vn 0.9154 -0.0000 0.4025
vn 0.7438 -0.6684 0.0000
vn 0.7406 -0.6719 0.0001
vn 0.7460 -0.6659 0.0000
vn 0.9324 0.0017 0.3615
vn 0.8019 -0.5974 -0.0000
vn 0.7384 -0.6744 0.0001
vn 0.7379 -0.0000 -0.6749
vn 0.7378 0.0000 -0.6750
vn 0.7375 0.0000 -0.6753
vn 0.7931 -0.0000 -0.6091
vn 0.7930 -0.0000 -0.6093
vn 0.7932 -0.0000 -0.6090
vn 0.7930 -0.6092 0.0000
vn 0.8430 0.0000 -0.5378
vn 0.8430 -0.0000 -0.5379
vn 0.8429 -0.0000 -0.5381
vn 0.8614 -0.5079 0.0000
vn 0.8428 -0.5383 0.0004
vn 0.8433 0.0000 -0.5374
vn 0.8865 -0.0000 -0.4628
vn 0.8863 0.0000 -0.4631
vn 0.8867 -0.4623 0.0001
vn 0.9006 -0.4346 -0.0001
vn 0.9105 -0.4134 0.0001
vn 0.9690 0.0000 0.2470
vn 0.9699 0.0001 0.2434
vn 0.9682 -0.0000 0.2500
vn 0.9653 0.0000 0.2612
vn 0.9665 -0.0000 0.2567
vn 0.9662 -0.0000 0.2579
vn 0.8861 0.4636 0.0001
vn 0.8862 0.4633 0.0001
vn 0.9026 0.4304 0.0001
vn 0.9673 -0.0001 0.2536
vn 0.9649 0.0000 0.2627
vn 0.8954 0.4453 -0.0007
vn 0.8431 0.5378 0.0005
vn 0.9528 -0.0000 0.3036
vn 0.9530 0.0000 0.3031
vn 0.8616 0.5076 0.0000
vn 0.9317 -0.0000 0.3632
vn 0.7986 0.6019 0.0000
vn 0.7969 0.6041 0.0000
vn 0.7947 0.6070 -0.0000
vn 0.9136 -0.0018 0.4065
vn 0.7388 0.6740 0.0000
vn 0.7375 0.6753 0.0000
vn 0.7408 0.6718 -0.0000
vn 0.7423 0.6701 0.0001
vn 0.7930 0.6093 -0.0000
vn 0.9237 0.3832 0.0001
vn 0.9235 0.3835 0.0001
vn 0.9795 0.0003 0.2013
vn 0.9798 0.0002 0.2002
vn 0.9801 0.0001 0.1984
vn 0.9382 0.3461 0.0001
vn 0.9527 0.3038 0.0006
vn 0.9758 -0.0000 -0.2186
vn 0.9758 -0.0000 -0.2184
vn 0.9757 0.0000 -0.2190
vn 0.9758 0.2188 -0.0000
vn 0.9529 0.0000 -0.3032
vn 0.9530 -0.0000 -0.3031
vn 0.9528 0.0001 -0.3036
vn 0.9528 -0.0000 -0.3037
vn 0.9673 0.2536 0.0000
vn 0.9673 0.2537 0.0000
vn 0.9910 0.1342 0.0004
vn 0.9962 0.0008 0.0876
vn 0.9957 0.0003 0.0930
vn 0.9953 0.0000 0.0967
vn 0.9965 0.0011 0.0842
vn 0.9898 -0.0001 0.1423
vn 0.9911 -0.0002 0.1332
vn 0.9907 -0.0002 0.1362
vn 0.9893 -0.0000 0.1459
vn 0.9857 0.1683 -0.0000
vn 0.9857 0.1684 0.0000
vn 0.9989 0.0472 -0.0000
vn 0.9989 0.0473 0.0000
vn 0.9989 0.0475 -0.0000
vn 0.9989 0.0000 -0.0477
vn 0.9989 -0.0000 -0.0476
vn 0.9963 -0.0014 -0.0863
vn 0.9963 -0.0014 -0.0861
vn 0.9989 0.0467 -0.0000
vn 0.9910 -0.0000 -0.1339
vn 0.9996 0.0000 0.0268
vn 0.9996 0.0000 0.0267
vn 0.9996 0.0000 0.0270
vn 0.9997 0.0000 0.0264
vn 0.9989 -0.0465 0.0000
vn 0.9962 -0.0874 -0.0003
vn 0.9408 -0.3391 0.0003
vn 0.9531 -0.3028 0.0001
vn 0.9728 -0.2318 0.0000
vn 0.9727 -0.2321 -0.0000
vn 0.9803 -0.0000 0.1975
vn 0.9892 -0.1469 -0.0004
vn 0.9757 -0.2193 0.0005
vn 0.9235 -0.0000 -0.3837
vn 0.9236 0.0000 -0.3834
vn 0.9237 0.0000 -0.3831
vn 0.9232 -0.3843 0.0000
vn 0.7121 0.7021 0.0000
vn 0.6765 0.7364 0.0002
vn 0.6622 0.7494 0.0000
vn 0.6621 0.7494 -0.0000
vn 0.6103 0.7922 -0.0001
vn 0.6099 0.7924 -0.0001
vn 0.8647 0.0024 0.5023
vn 0.5938 0.8046 0.0000
vn 0.7469 -0.0033 0.6649
vn 0.1337 0.9910 0.0001
vn 0.1335 0.9910 0.0001
vn 0.0000 -0.8194 0.5732
vn 0.0000 -0.2584 0.9660
vn 0.0000 -0.2587 0.9659
vn 0.0000 -0.0871 0.9962
vn 0.0805 0.9968 -0.0000
vn 0.2394 0.9709 -0.0000
vn 0.3920 0.9200 -0.0000
vn 0.5347 0.8450 -0.0000
vn -0.9964 -0.0842 0.0000
vn -0.9964 0.0842 -0.0000
vn 0.8661 0.4998 -0.0000
vn 0.9352 0.3542 -0.0000
vn 0.9353 0.3539 -0.0000
vn 0.9354 0.3537 0.0000
vn 0.8671 0.4981 0.0000
vn -0.9123 -0.4096 0.0000
vn -0.8305 -0.5570 0.0000
vn 0.3981 0.9173 0.0000
vn 0.0000 0.0872 0.9962
vn 0.0000 -0.2586 -0.9660
vn 0.0000 -0.4226 -0.9063
vn 0.0000 -0.4229 -0.9062
vn 0.0000 -0.5736 -0.8191
vn 0.0000 0.5736 0.8191
vn 0.0000 0.4226 0.9063
vn 0.0000 0.7071 0.7071
vn 0.0000 0.8191 0.5736
vn 0.0000 -0.8191 -0.5736
vn 0.0000 -0.8194 -0.5732
vn 0.0000 -0.7068 -0.7074
vn 0.0000 -0.9063 -0.4227
vn 0.0000 0.9063 0.4226
vn 0.0000 0.9660 0.2587
vn 0.0000 0.9962 0.0872
vn 0.0000 -0.9660 -0.2587
vn 0.0000 -0.9962 -0.0872
vn 0.0000 0.2587 0.9660
vn 0.0000 -0.0872 -0.9962
vn 0.8305 -0.5570 0.0000
vn 0.9123 -0.4096 0.0000
vn -0.0872 0.9962 0.0000
vn -0.2588 0.9659 0.0000
vn -0.4225 0.9064 0.0000
vn -0.5736 0.8191 0.0000
vn -0.5733 0.8193 0.0000
vn -0.7071 0.7071 0.0000
vn -0.8193 0.5734 0.0000
vn -0.9063 0.4227 0.0000
vn -0.9659 0.2588 0.0000
vn 0.9681 -0.2505 0.0000
vn 0.5391 0.8422 0.0000
vn 0.6665 0.7455 0.0000
vn 0.7766 0.6299 0.0000
vn 0.7767 0.6299 0.0000
vn -0.9681 -0.2505 0.0000
vn 0.7749 0.6321 -0.0000
vn 0.6633 0.7484 -0.0000
vn 0.6636 0.7481 -0.0000
vn 0.5736 -0.8191 0.0000
vn 0.4225 -0.9064 0.0000
vn 0.2588 -0.9659 0.0000
vn -0.8305 0.5570 -0.0000
vn 0.0000 0.0871 0.9962
vn 0.0000 0.2584 0.9660
vn -0.0000 0.2587 0.9659
vn -0.0000 0.4229 0.9062
vn 0.0000 0.4227 0.9063
vn 0.0000 0.4228 0.9062
vn 0.0000 -0.5737 -0.8191
vn 0.0000 -0.2587 -0.9660
vn 0.0000 -0.7070 -0.7072
vn -0.0000 0.7074 0.7069
vn 0.0000 0.7075 0.7068
vn 0.0000 0.8189 0.5739
vn 0.0000 0.8189 0.5740
vn -0.0000 0.9063 0.4227
vn 0.0000 0.9062 0.4228
vn 0.0000 0.9658 0.2592
vn 0.0000 -0.9659 -0.2587
vn 0.0000 -0.9063 -0.4226
vn -0.0467 0.0000 -0.9989
vn -0.0873 0.0000 -0.9962
vn -0.1332 -0.0082 -0.9911
vn -0.1335 0.9911 0.0004
vn -0.2190 0.9757 0.0002
vn -0.2188 -0.0000 -0.9758
vn -0.2422 0.9702 0.0001
vn -0.1777 0.9841 0.0000
vn -0.1781 0.9840 -0.0000
vn -0.7464 -0.0010 0.6655
vn -0.7466 -0.0011 0.6653
vn -0.7227 0.0000 0.6911
vn -0.6921 0.1168 0.7123
vn -0.6879 0.0056 0.7258
vn -0.1492 -0.9888 0.0000
vn -0.1493 -0.9888 0.0000
vn -0.1020 -0.9948 0.0001
vn -0.7216 0.0062 0.6922
vn -0.5985 -0.0070 0.8011
vn -0.6319 -0.0031 0.7751
vn -0.6621 -0.0013 0.7494
vn -0.8062 -0.0079 0.5916
vn -0.7803 -0.0036 0.6254
vn -0.6871 -0.0000 0.7265
vn -0.6830 0.0000 0.7305
vn 0.1037 0.9809 0.1644
vn -0.6914 -0.1069 0.7145
vn -0.1247 0.9922 0.0001
vn -0.0699 0.9976 0.0000
vn -0.0698 0.9976 0.0001
vn -0.0697 0.9976 0.0001
vn -0.0470 0.9989 -0.0000
vn 0.0001 0.9984 0.0567
vn 0.0001 0.9987 0.0511
vn 0.0001 0.9989 0.0472
vn 0.0511 0.9987 0.0001
vn 0.0567 0.9984 0.0000
vn 0.0609 0.9981 -0.0000
vn 0.1698 0.9855 -0.0001
vn 0.7141 -0.0000 0.7001
vn 0.0470 0.9989 0.0001
vn 0.7007 0.0000 0.7135
vn 0.0001 0.9777 0.2101
vn 0.6821 -0.0047 0.7313
vn 0.6818 -0.0047 0.7315
vn 0.6012 0.0066 0.7991
vn 0.6346 0.0030 0.7729
vn 0.6749 0.0004 0.7379
vn -0.0001 0.9828 0.1845
vn -0.0003 -0.9771 0.2130
vn -0.0001 -0.9852 0.1713
vn 0.0000 -0.9829 0.1839
vn 0.1008 -0.9812 0.1645
vn 0.0001 -0.9987 0.0515
vn 0.0001 -0.9989 0.0478
vn 0.0000 -0.9984 0.0570
vn -0.0673 -0.9977 0.0000
vn -0.0669 -0.9978 0.0000
vn 0.0569 -0.9984 0.0001
vn 0.0514 -0.9987 0.0000
vn 0.0478 -0.9989 0.0000
vn 0.0608 -0.9981 0.0001
vn 0.1331 0.0081 -0.9911
vn 0.2188 0.0000 -0.9758
vn 0.2166 -0.9763 0.0002
vn 0.2132 -0.9770 0.0002
vn 0.2107 -0.9776 0.0002
vn 0.1336 -0.9910 -0.0000
vn 0.1332 -0.9911 -0.0000
vn 0.7314 0.0047 0.6820
vn 0.7680 0.0014 0.6405
vn 0.3072 -0.9516 0.0001
vn 0.3048 -0.9524 0.0002
vn 0.3093 -0.9510 0.0001
vn 0.3849 -0.9230 0.0002
vn 0.3844 -0.9232 0.0002
vn 0.7949 -0.0000 0.6068
vn 0.3026 -0.9531 0.0002
vn 0.3845 0.0000 -0.9231
vn 0.3029 0.0000 -0.9530
vn 0.3031 0.0000 -0.9530
vn 0.3032 0.0000 -0.9529
vn 0.3080 0.9514 0.0001
vn 0.3048 0.9524 0.0001
vn 0.3029 0.9530 0.0001
vn 0.3840 0.9233 -0.0001
vn 0.4021 0.9156 0.0000
vn 0.7990 -0.0066 0.6012
vn 0.7729 -0.0030 0.6345
vn 0.3092 0.9510 0.0001
vn 0.2176 0.9760 0.0001
vn 0.2139 0.9769 0.0001
vn 0.2151 0.9766 0.0001
vn 0.7379 -0.0004 0.6749
vn 0.4634 0.0000 -0.8861
vn 0.4633 0.0000 -0.8862
vn 0.4422 0.8969 0.0000
vn 0.4636 0.8861 0.0000
vn 0.4637 0.8860 -0.0000
vn 0.4636 0.8860 -0.0000
vn 0.8143 -0.0000 0.5805
vn 0.8142 -0.0000 0.5806
vn 0.8391 -0.0000 0.5440
vn 0.5164 0.8564 0.0000
vn 0.8149 0.0000 0.5796
vn 0.5379 0.8430 0.0002
vn 0.5378 0.8431 0.0002
vn 0.6103 0.7922 -0.0000
vn 0.5839 0.8118 0.0000
vn 0.6098 -0.0000 -0.7926
vn 0.6099 0.0000 -0.7925
vn 0.6093 0.0000 -0.7929
vn 0.5383 -0.0000 -0.8428
vn 0.5380 -0.0000 -0.8429
vn 0.5378 0.0000 -0.8431
vn 0.6762 -0.0000 -0.7368
vn 0.6760 0.7369 0.0003
vn 0.7376 0.0000 -0.6753
vn 0.7372 0.0000 -0.6756
vn 0.7381 0.6747 0.0000
vn 0.7378 0.6751 0.0000
vn 0.7096 0.7046 -0.0000
vn 0.6514 0.7587 0.0000
vn 0.6516 0.7585 0.0000
vn 0.7372 0.0000 -0.6757
vn 0.7384 0.6744 -0.0000
vn 0.9044 -0.0000 0.4267
vn 0.9035 -0.0000 0.4286
vn 0.9030 0.0000 0.4295
vn 0.9129 -0.0000 0.4082
vn 0.9025 0.0000 0.4308
vn 0.8816 0.0000 0.4720
vn 0.6399 -0.7684 0.0003
vn 0.6757 -0.7372 0.0000
vn 0.6759 -0.7370 0.0000
vn 0.7114 -0.7028 -0.0000
vn 0.7163 -0.6978 -0.0000
vn 0.7097 -0.7045 -0.0000
vn 0.8529 0.0040 0.5221
vn 0.5553 -0.8316 -0.0000
vn 0.6097 -0.7927 0.0001
vn 0.5382 -0.8428 0.0001
vn 0.8327 0.0072 0.5538
vn 0.4971 -0.8677 0.0000
vn 0.4632 -0.8862 0.0004
vn 0.9058 0.0103 0.4235
vn 0.9503 -0.0056 0.3112
vn 0.9299 -0.0013 0.3678
vn 0.7192 -0.6948 0.0000
vn 0.9254 0.0045 0.3789
vn 0.7792 -0.6267 0.0002
vn 0.7376 -0.6752 -0.0001
vn 0.8498 -0.5271 -0.0000
vn 0.8499 -0.5269 -0.0000
vn 0.9487 0.0004 0.3161
vn 0.8849 -0.4657 -0.0005
vn 0.8435 0.0000 -0.5372
vn 0.8434 -0.5373 0.0004
vn 0.8436 -0.5370 0.0004
vn 0.9011 -0.4335 -0.0001
vn 0.9659 0.0055 0.2589
vn 0.9794 -0.0008 0.2019
vn 0.9663 -0.0000 0.2574
vn 0.9663 0.0000 0.2575
vn 0.9611 0.0000 0.2763
vn 0.9617 -0.0001 0.2740
vn 0.9626 -0.0001 0.2710
vn 0.9002 0.4354 0.0001
vn 0.9003 0.4353 0.0001
vn 0.8431 0.5377 0.0004
vn 0.8910 0.4539 -0.0006
vn 0.8866 0.4626 0.0000
vn 0.9632 -0.0002 0.2688
vn 0.8866 -0.0000 -0.4626
vn 0.8865 -0.0000 -0.4626
vn 0.9233 0.0000 -0.3840
vn 0.9234 0.0000 -0.3837
vn 0.9233 0.3840 0.0000
vn 0.9232 -0.3842 0.0005
vn 0.9632 -0.2689 -0.0002
vn 0.9531 -0.0000 -0.3025
vn 0.9529 0.0000 -0.3031
vn 0.9532 -0.3023 -0.0002
vn 0.9531 -0.3025 -0.0001
vn 0.9675 0.2528 0.0000
vn 0.9675 0.2530 0.0000
vn 0.9384 0.3456 0.0000
vn 0.9530 0.3031 0.0006
vn 0.9759 0.0000 -0.2184
vn 0.9758 0.2186 -0.0000
vn 0.9786 0.0013 0.2057
vn 0.9879 0.0001 0.1550
vn 0.9946 -0.0007 0.1035
vn 0.9991 0.0048 0.0427
vn 0.9953 -0.0018 0.0970
vn 0.9859 0.1673 0.0000
vn 0.9889 -0.0050 0.1486
vn 0.9911 -0.0000 -0.1334
vn 0.9910 -0.0000 -0.1335
vn 0.9963 -0.0014 -0.0859
vn 0.9989 0.0000 -0.0478
vn 0.9989 0.0471 -0.0000
vn 0.9989 0.0478 -0.0000
vn 0.9998 0.0006 0.0175
vn 0.9997 0.0002 0.0231
vn 0.9996 0.0000 0.0271
vn 0.9997 -0.0243 -0.0008
vn 0.9997 -0.0242 -0.0008
vn 0.9999 0.0008 0.0137
vn 0.9975 -0.0708 -0.0004
vn 0.9975 -0.0709 -0.0004
vn 0.9835 -0.1807 0.0003
vn 0.9757 -0.2189 0.0000
vn 0.9362 -0.3514 0.0001
vn 0.8862 -0.4633 0.0001
vn 0.8565 0.5161 0.0000
vn 0.7933 0.0000 -0.6088
vn 0.7930 0.6092 0.0000
vn 0.7925 0.6099 -0.0000
vn 0.7920 0.6105 -0.0000
vn 0.7914 0.6113 0.0000
vn 0.8831 -0.0049 0.4692
vn 0.8612 -0.0022 0.5082
vn 0.8610 -0.0022 0.5086
vn 0.8612 -0.0022 0.5083
vn 0.4399 -0.8980 0.0002
vn 0.2189 0.0000 -0.9758
vn 0.2190 0.9757 0.0001
vn 0.1329 -0.0081 -0.9911
vn 0.1338 0.9910 0.0000
vn -0.0478 -0.9989 0.0001
vn 0.0000 -0.9508 0.3097
vn -0.0004 -0.9336 0.3584
vn -0.0004 -0.9336 0.3583
vn -0.6616 0.0031 0.7499
vn -0.6615 0.0031 0.7499
vn -0.6222 -0.0000 0.7829
vn -0.0002 -0.9157 0.4019
vn -0.5821 -0.0000 0.8131
vn -0.5720 -0.0000 0.8203
vn -0.5753 0.0000 0.8180
vn -0.0002 -0.8962 0.4436
vn -0.0002 -0.8963 0.4435
vn -0.5812 -0.0000 0.8138
vn -0.5458 -0.0060 0.8379
vn -0.4477 0.0079 0.8941
vn 0.0001 0.8563 0.5165
vn -0.4870 0.0035 0.8734
vn 0.0006 0.8980 0.4399
vn -0.0003 0.8316 0.5554
vn -0.0003 0.8315 0.5555
vn -0.5421 0.0001 0.8403
vn -0.5711 0.0000 0.8209
vn -0.0001 -0.8554 0.5180
vn -0.0001 -0.8557 0.5174
vn -0.0002 -0.8561 0.5169
vn -0.0002 -0.8975 0.4410
vn -0.0001 -0.8867 0.4624
vn 0.5810 -0.0000 0.8139
vn 0.5808 0.0000 0.8141
vn 0.5812 -0.0000 0.8138
vn -0.0002 -0.8564 0.5162
vn 0.5438 -0.0000 0.8392
vn 0.0000 0.8679 0.4967
vn 0.5542 -0.0072 0.8323
vn 0.4695 0.0049 0.8829
vn 0.5084 0.0022 0.8611
vn 0.0002 0.8981 0.4398
vn -0.0001 -0.7589 0.6512
vn 0.0004 -0.7321 0.6812
vn -0.0002 -0.7869 0.6171
vn -0.0001 -0.8123 0.5833
vn 0.5220 -0.0040 0.8529
vn 0.5221 -0.0040 0.8529
vn 0.0000 -0.7035 0.7107
vn -0.0000 -0.7019 0.7123
vn 0.0000 -0.7046 0.7096
vn 0.4719 -0.0000 0.8817
vn 0.4269 0.0000 0.9043
vn 0.4274 0.0000 0.9041
vn 0.4222 -0.0000 0.9065
vn 0.4202 0.0000 0.9074
vn -0.0000 -0.7059 0.7083
vn -0.0000 -0.6430 0.7659
vn 0.4188 -0.0000 0.9081
vn 0.3774 -0.0005 0.9260
vn 0.3178 -0.0051 0.9481
vn 0.4111 0.0068 0.9116
vn -0.0005 -0.6751 0.7377
vn -0.0005 -0.6751 0.7378
vn 0.0003 -0.5792 0.8152
vn -0.3402 0.0021 0.9403
vn -0.3877 0.0053 0.9218
vn 0.0007 0.4548 0.8906
vn -0.0000 0.5167 0.8561
vn 0.0000 0.5164 0.8563
vn -0.3109 -0.0056 0.9504
vn -0.2694 -0.0025 0.9630
vn -0.0002 0.5266 0.8501
vn -0.0002 0.5269 0.8499
vn -0.2569 -0.0006 0.9664
vn 0.0000 0.4335 0.9012
vn -0.0000 0.4337 0.9011
vn 0.0000 0.4650 0.8853
vn 0.0000 0.4343 0.9008
vn -0.2354 0.0003 0.9719
vn -0.2568 0.0000 0.9665
vn -0.3036 0.0000 0.9528
vn 0.2771 -0.0019 0.9608
vn 0.3086 0.0004 0.9512
vn 0.2567 -0.0002 0.9665
vn -0.0001 -0.5162 0.8564
vn -0.0001 -0.5142 0.8577
vn -0.0000 -0.5110 0.8596
vn 0.2654 0.0053 0.9641
vn 0.2054 -0.0014 0.9787
vn 0.0000 -0.4429 0.8966
vn 0.0000 -0.4408 0.8976
vn 0.0001 -0.4366 0.8997
vn 0.0001 -0.4342 0.9008
vn 0.2012 -0.0003 0.9796
vn 0.2010 -0.0003 0.9796
vn 0.0000 -0.3460 0.9382
vn 0.0004 -0.3220 0.9467
vn 0.0000 -0.3998 0.9166
vn -0.1911 0.0002 0.9816
vn -0.1973 0.0006 0.9803
vn -0.1872 0.0000 0.9823
vn -0.1242 -0.0003 0.9923
vn -0.0001 -0.2159 0.9764
vn -0.1457 0.0000 0.9893
vn 0.0000 -0.2522 0.9677
vn 0.1038 0.0007 0.9946
vn 0.1562 -0.0001 0.9877
vn 0.1529 -0.0001 0.9882
vn 0.1486 -0.0000 0.9889
vn 0.1451 0.0001 0.9894
vn 0.0432 -0.0047 0.9991
vn 0.0969 0.0018 0.9953
vn 0.0002 -0.1670 0.9860
vn 0.0177 -0.0006 0.9998
vn 0.0143 -0.0008 0.9999
vn 0.0235 -0.0002 0.9997
vn 0.0271 0.0000 0.9996
vn -0.0005 -0.0480 0.9988
vn 0.0000 -0.0832 0.9965
vn -0.0470 -0.0013 0.9989
vn -0.0955 0.0009 0.9954
vn -0.0000 0.1673 0.9859
vn 0.0001 0.1712 0.9852
vn 0.0001 0.1771 0.9842
vn -0.0000 0.0704 0.9975
vn -0.0002 0.0238 0.9997
vn -0.0002 0.0237 0.9997
vn 0.0000 0.0471 0.9989
vn 0.0002 0.1811 0.9835
vn -0.0011 0.2715 0.9624
vn 0.0000 0.2520 0.9677
vn 0.0000 0.3450 0.9386
vn -0.2008 0.0009 0.9796
vn 0.0000 0.3509 0.9364
vn -0.0000 0.3512 0.9363
vn 0.3679 0.0026 0.9299
vn 0.3678 0.0026 0.9299
vn 0.0000 -0.6114 0.7913
vn -0.0000 -0.5092 0.8607
vn -0.0000 0.6120 0.7909
vn -0.3671 -0.0013 0.9302
vn 0.0002 0.6279 0.7783
vn -0.4084 0.0000 0.9128
vn -0.0000 0.6740 0.7387
vn -0.4275 0.0000 0.9040
vn -0.4273 0.0000 0.9041
vn -0.4277 0.0000 0.9039
vn 0.0000 0.7017 0.7125
vn -0.0000 0.7031 0.7111
vn -0.0000 0.7037 0.7105
vn -0.0000 0.6931 0.7208
vn -0.4712 -0.0000 0.8820
vn 0.0000 0.7633 0.6461
vn 0.0000 0.7650 0.6440
vn 0.0001 0.7670 0.6416
vn 0.0000 0.7046 0.7096
vn -0.5135 -0.0033 0.8581
vn 0.0001 0.8139 0.5811
vn 0.0001 0.7686 0.6397
vn 0.0002 0.9181 0.3964
vn 0.0002 0.9194 0.3933
vn 0.0002 0.9215 0.3885
vn 0.0002 0.9228 0.3853
vn 0.6068 0.0000 0.7949
vn 0.0001 0.9510 0.3092
vn 0.6410 -0.0015 0.7675
vn 0.0000 0.9457 0.3251
vn -0.6830 0.0000 0.7304
vn -0.4134 0.9105 0.0000
vn -0.3400 0.9404 0.0002
vn -0.3032 0.9529 0.0006
vn -0.3029 0.9530 0.0006
vn -0.3028 -0.0000 -0.9530
vn -0.3848 0.0000 -0.9230
vn -0.3849 0.0000 -0.9229
vn -0.3838 0.9234 0.0002
vn -0.4634 0.0000 -0.8861
vn -0.4636 0.8861 0.0001
vn -0.4635 0.8861 0.0001
vn -0.4355 0.9002 0.0002
vn -0.5382 -0.8428 0.0002
vn -0.5381 0.0000 -0.8429
vn -0.6094 -0.0000 -0.7929
vn -0.6097 -0.0000 -0.7926
vn -0.5378 0.8431 0.0001
vn -0.6099 0.7925 0.0000
vn -0.5902 0.8073 0.0001
vn -0.6593 0.7518 0.0001
vn -0.8877 -0.0000 0.4603
vn -0.8653 -0.0024 0.5013
vn -0.6753 0.7375 0.0000
vn -0.7098 0.7044 0.0000
vn -0.9038 0.0000 0.4280
vn -0.9034 0.0000 0.4288
vn -0.9048 -0.0000 0.4259
vn -0.7096 -0.7046 0.0000
vn -0.7413 -0.6711 -0.0000
vn -0.7429 -0.6694 -0.0000
vn -0.7390 -0.6738 0.0000
vn -0.9139 0.0017 0.4059
vn -0.9323 -0.0018 0.3616
vn -0.9154 -0.0000 0.4026
vn -0.7404 0.6722 0.0001
vn -0.7463 0.6656 -0.0000
vn -0.7438 0.6684 0.0000
vn -0.7380 0.6748 0.0001
vn -0.8020 0.5974 -0.0000
vn -0.7930 -0.0000 -0.6092
vn -0.7375 -0.0000 -0.6753
vn -0.7377 0.0000 -0.6751
vn -0.7926 0.6098 0.0000
vn -0.7931 0.0000 -0.6090
vn -0.7946 -0.6071 -0.0000
vn -0.7968 -0.6043 0.0000
vn -0.8614 -0.5080 0.0000
vn -0.8991 -0.4378 -0.0008
vn -0.8431 -0.5378 0.0005
vn -0.7983 -0.6022 0.0000
vn -0.8433 -0.0000 -0.5374
vn -0.8434 -0.0000 -0.5372
vn -0.8865 0.0000 -0.4626
vn -0.8866 0.0000 -0.4626
vn -0.8436 0.5370 0.0004
vn -0.8434 0.5373 0.0004
vn -0.8864 0.4630 0.0001
vn -0.8864 0.4629 0.0001
vn -0.9005 0.4348 -0.0001
vn -0.9662 -0.0000 0.2578
vn -0.9694 -0.0005 0.2457
vn -0.9682 -0.0000 0.2501
vn -0.9529 -0.0000 0.3032
vn -0.9529 0.0000 0.3034
vn -0.9530 -0.0000 0.3029
vn -0.9660 -0.0000 0.2585
vn -0.8618 0.5073 0.0000
vn -0.9680 0.0000 0.2509
vn -0.9099 0.4148 0.0001
vn -0.9673 0.0001 0.2535
vn -0.9795 -0.0003 0.2016
vn -0.9797 -0.0003 0.2003
vn -0.9801 -0.0001 0.1984
vn -0.9803 0.0000 0.1975
vn -0.9234 0.3839 0.0000
vn -0.9408 0.3391 0.0003
vn -0.9021 -0.4316 0.0001
vn -0.9020 -0.4317 0.0001
vn -0.9380 -0.3467 0.0000
vn -0.9529 -0.3032 0.0006
vn -0.9529 -0.3033 0.0006
vn -0.9235 -0.3837 0.0001
vn -0.9530 0.0000 -0.3028
vn -0.9531 0.0000 -0.3025
vn -0.9235 -0.0000 -0.3835
vn -0.9758 -0.0000 -0.2185
vn -0.9756 0.0000 -0.2196
vn -0.9757 0.0000 -0.2192
vn -0.9673 -0.2538 -0.0000
vn -0.9755 -0.2198 -0.0000
vn -0.9909 -0.1343 0.0004
vn -0.9858 -0.1678 -0.0000
vn -0.9858 -0.1677 -0.0000
vn -0.9989 -0.0472 0.0000
vn -0.9989 -0.0000 -0.0473
vn -0.9989 0.0000 -0.0472
vn -0.9962 0.0869 -0.0003
vn -0.9989 0.0471 -0.0000
vn -0.9996 0.0000 0.0267
vn -0.9996 -0.0000 0.0270
vn -0.9757 0.2190 0.0005
vn -0.9962 -0.0008 0.0874
vn -0.9957 -0.0003 0.0928
vn -0.9953 -0.0000 0.0963
vn -0.9965 -0.0011 0.0841
vn -0.9892 0.1466 -0.0004
vn -0.9899 0.0001 0.1421
vn -0.9912 0.0002 0.1324
vn -0.9907 0.0002 0.1360
vn -0.9729 0.2313 0.0000
vn -0.9729 0.2314 0.0000
vn -0.9893 0.0000 0.1459
vn -0.9531 0.3028 0.0001
vn -0.9236 -0.0000 -0.3835
vn -0.8865 -0.4627 0.0000
vn -0.9314 0.0000 0.3639
vn -0.6761 -0.7368 0.0002
vn -0.6619 -0.7496 0.0000
vn -0.6099 -0.7924 -0.0001
vn -0.5953 -0.8035 -0.0000
vn -0.8649 0.0026 0.5019
vn -0.8862 0.0057 0.4633
vn -0.5170 -0.8560 0.0000
vn -0.8391 0.0000 0.5439
vn -0.8382 -0.0059 0.5453
vn -0.5108 0.8597 0.0003
vn -0.4401 -0.8980 -0.0000
vn -0.8135 -0.0000 0.5816
vn -0.8137 0.0000 0.5813
vn -0.8130 -0.0000 0.5823
vn -0.8048 -0.0000 0.5935
vn -0.4130 -0.9107 0.0000
vn -0.3025 -0.9531 0.0003
vn -0.3361 -0.9418 -0.0000
vn -0.7782 0.0005 0.6281
vn -0.3849 -0.9230 -0.0001
vn -0.2374 -0.9714 -0.0000
vn -0.7463 0.0034 0.6656
vn -0.2194 -0.9756 -0.0001
vn -0.1334 -0.9911 0.0001
vn -0.1336 0.0082 -0.9910
usemtl None.015
s 1
f 2//1 1//1 4//1
f 1//2 2//2 3//2
f 1//3 3//3 6//3
f 4//1 1//1 5//1
f 1//3 6//3 5//3
f 6//3 7//3 8//3
f 6//3 3//3 7//3
f 8//4 10//4 6//4
f 6//5 10//5 9//5
f 5//3 6//3 9//3
f 11//6 15//6 10//6
f 13//6 11//6 10//6
f 8//4 12//4 10//4
f 10//6 12//6 13//6
f 10//6 2//6 4//6
f 4//6 14//6 10//6
f 9//5 10//5 14//5
f 10//6 15//6 2//6
f 3//2 2//2 15//2
f 3//7 15//7 16//7
f 16//7 15//7 17//7
f 11//6 17//6 15//6
f 16//8 17//8 18//8
f 11//6 19//6 17//6
f 18//8 17//8 19//8
f 18//9 19//9 20//9
f 11//6 21//6 19//6
f 20//9 19//9 21//9
f 20//10 21//10 23//10
f 22//6 21//6 11//6
f 22//6 24//6 21//6
f 23//10 21//10 24//10
f 23//11 24//11 25//11
f 25//11 24//11 26//11
f 26//6 24//6 22//6
f 25//12 26//12 27//12
f 26//6 22//6 28//6
f 27//12 26//12 28//12
f 27//13 28//13 30//13
f 28//6 22//6 29//6
f 28//6 29//6 31//6
f 30//13 28//13 31//13
f 30//13 31//13 33//13
f 31//6 29//6 32//6
f 31//6 32//6 33//6
f 34//12 33//12 36//12
f 30//13 33//13 34//13
f 33//6 32//6 35//6
f 33//6 35//6 36//6
f 37//14 36//14 39//14
f 34//12 36//12 37//12
f 36//6 38//6 39//6
f 36//6 35//6 38//6
f 37//14 39//14 41//14
f 39//6 38//6 40//6
f 41//15 39//15 40//15
f 41//15 40//15 42//15
f 41//3 42//3 43//3
f 41//3 43//3 37//3
f 42//3 46//3 43//3
f 43//16 44//16 38//16
f 43//3 45//3 44//3
f 43//3 47//3 45//3
f 43//3 46//3 47//3
f 37//3 43//3 48//3
f 43//17 38//17 48//17
f 37//3 48//3 34//3
f 34//3 48//3 30//3
f 48//18 35//18 49//18
f 30//3 48//3 49//3
f 48//17 38//17 35//17
f 27//3 49//3 50//3
f 30//3 49//3 27//3
f 49//18 35//18 32//18
f 49//19 32//19 50//19
f 25//3 50//3 51//3
f 27//3 50//3 25//3
f 50//20 29//20 51//20
f 50//19 32//19 29//19
f 25//3 51//3 23//3
f 51//3 18//3 20//3
f 7//3 18//3 51//3
f 51//3 20//3 23//3
f 51//21 22//21 7//21
f 51//20 29//20 22//20
f 47//22 52//22 45//22
f 47//22 53//22 52//22
f 46//23 53//23 47//23
f 52//6 53//6 38//6
f 46//23 54//23 53//23
f 38//6 53//6 54//6
f 42//24 54//24 46//24
f 42//24 40//24 54//24
f 38//6 54//6 40//6
f 52//6 38//6 55//6
f 45//2 52//2 55//2
f 55//6 38//6 57//6
f 56//1 58//1 55//1
f 55//6 57//6 56//6
f 45//2 55//2 58//2
f 44//3 58//3 59//3
f 44//3 45//3 58//3
f 59//1 58//1 56//1
f 59//25 56//25 60//25
f 59//25 60//25 61//25
f 59//3 61//3 63//3
f 62//3 59//3 63//3
f 44//3 59//3 62//3
f 63//3 64//3 66//3
f 63//3 61//3 64//3
f 67//3 63//3 65//3
f 63//3 73//3 65//3
f 66//3 70//3 63//3
f 72//3 63//3 67//3
f 63//26 69//26 62//26
f 68//27 71//27 63//27
f 72//3 68//3 63//3
f 63//27 71//27 69//27
f 63//3 70//3 73//3
f 70//28 74//28 73//28
f 73//29 74//29 75//29
f 73//29 75//29 65//29
f 69//6 75//6 74//6
f 65//30 75//30 76//30
f 76//6 75//6 69//6
f 65//30 76//30 67//30
f 67//31 76//31 77//31
f 69//6 77//6 76//6
f 67//31 77//31 72//31
f 69//6 78//6 77//6
f 72//32 77//32 78//32
f 78//6 79//6 84//6
f 81//6 79//6 78//6
f 72//32 78//32 80//32
f 80//33 78//33 82//33
f 71//6 81//6 78//6
f 71//6 78//6 69//6
f 82//33 78//33 83//33
f 78//6 84//6 83//6
f 84//16 79//16 85//16
f 85//5 86//5 84//5
f 86//34 83//34 84//34
f 87//5 86//5 85//5
f 87//5 89//5 86//5
f 86//34 88//34 83//34
f 89//35 88//35 86//35
f 90//36 92//36 89//36
f 91//5 90//5 89//5
f 91//5 89//5 87//5
f 89//35 92//35 88//35
f 93//33 92//33 94//33
f 93//33 88//33 92//33
f 94//33 92//33 95//33
f 90//36 95//36 92//36
f 94//33 95//33 96//33
f 96//33 95//33 97//33
f 98//37 97//37 95//37
f 98//37 95//37 90//37
f 99//38 97//38 98//38
f 100//5 99//5 98//5
f 100//5 98//5 101//5
f 101//5 98//5 90//5
f 101//39 94//39 100//39
f 101//5 90//5 91//5
f 91//40 93//41 101//41
f 101//41 93//41 94//40
f 100//42 96//42 102//42
f 102//5 99//5 100//5
f 100//39 94//39 96//39
f 102//5 105//5 99//5
f 102//42 96//42 103//42
f 102//43 103//43 104//43
f 104//5 105//5 102//5
f 106//44 108//44 105//44
f 104//5 106//5 105//5
f 105//45 107//45 99//45
f 105//45 108//45 107//45
f 109//33 108//33 110//33
f 109//33 107//33 108//33
f 110//33 108//33 111//33
f 106//44 111//44 108//44
f 110//33 111//33 113//33
f 112//46 111//46 106//46
f 112//46 114//46 111//46
f 113//33 111//33 114//33
f 115//47 114//47 112//47
f 115//47 117//47 114//47
f 116//33 114//33 117//33
f 113//33 114//33 116//33
f 117//16 115//16 119//16
f 116//33 117//33 118//33
f 118//33 117//33 119//33
f 120//6 122//6 119//6
f 119//16 115//16 120//16
f 119//48 123//48 118//48
f 119//49 121//49 123//49
f 124//50 121//50 119//50
f 119//6 122//6 124//6
f 125//16 124//16 122//16
f 126//16 124//16 125//16
f 127//51 124//52 126//52
f 127//53 121//53 124//53
f 130//54 121//54 127//54
f 127//55 128//55 130//55
f 129//56 128//56 127//56
f 126//52 129//52 127//51
f 121//57 130//57 135//58
f 130//59 131//59 136//60
f 130//61 132//62 131//61
f 128//63 132//63 130//63
f 133//64 135//64 130//64
f 134//65 133//65 130//65
f 134//66 130//66 136//66
f 137//67 136//67 138//67
f 137//68 134//68 136//68
f 138//69 136//69 131//70
f 139//71 137//72 138//73
f 118//74 138//74 140//74
f 118//48 123//48 138//48
f 139//71 138//73 123//71
f 138//75 131//75 140//75
f 141//76 140//77 143//78
f 142//79 140//79 141//79
f 140//50 142//50 118//50
f 140//80 131//81 132//81
f 140//82 132//82 143//82
f 141//76 143//78 145//78
f 132//83 144//83 143//83
f 143//56 144//56 145//56
f 146//5 145//5 144//5
f 141//5 145//5 146//5
f 148//84 141//85 146//86
f 146//87 144//88 147//88
f 149//89 146//89 147//89
f 148//90 146//90 149//90
f 148//91 149//91 151//91
f 151//92 149//92 150//92
f 149//93 147//93 150//93
f 152//94 151//95 125//96
f 153//97 151//97 152//97
f 153//98 155//99 151//100
f 151//101 154//102 126//103
f 158//104 154//104 151//104
f 151//101 126//103 125//105
f 155//106 157//106 151//106
f 151//107 156//108 148//107
f 151//109 159//109 156//109
f 151//110 157//110 160//110
f 151//111 161//111 158//111
f 160//112 159//112 151//112
f 151//113 162//113 161//113
f 150//114 162//114 151//114
f 150//115 147//115 162//115
f 162//116 147//117 161//117
f 161//118 164//119 163//120
f 165//121 161//118 163//120
f 161//122 147//122 164//122
f 165//123 166//124 161//125
f 161//125 166//124 167//126
f 161//127 167//127 168//127
f 158//128 161//128 168//128
f 168//129 169//130 158//129
f 168//131 170//131 169//131
f 167//132 170//132 168//132
f 169//133 170//133 132//133
f 132//134 170//134 144//134
f 163//135 164//136 170//137
f 172//138 163//135 170//137
f 170//139 166//139 171//139
f 167//140 166//140 170//140
f 171//141 172//141 170//141
f 170//142 147//142 144//142
f 170//143 164//143 147//143
f 173//144 172//145 175//144
f 174//146 172//146 173//146
f 174//147 176//147 172//147
f 171//148 175//148 172//148
f 172//149 176//149 163//149
f 177//150 163//151 176//152
f 177//153 176//153 174//153
f 165//154 163//151 177//150
f 174//155 178//155 177//155
f 177//156 178//156 166//156
f 166//157 165//157 177//157
f 166//158 178//158 179//158
f 174//159 179//159 178//159
f 173//160 179//160 174//160
f 173//161 180//161 179//161
f 180//162 182//163 179//164
f 166//165 179//165 171//165
f 179//166 183//166 181//166
f 171//167 179//167 181//167
f 179//164 182//163 183//168
f 183//169 184//170 181//171
f 182//172 184//173 183//174
f 184//175 185//176 173//177
f 186//178 185//176 184//175
f 182//172 186//179 184//173
f 184//180 173//180 187//180
f 184//170 187//181 181//171
f 173//182 175//182 187//182
f 181//183 187//183 175//183
f 188//184 190//184 186//184
f 188//185 186//185 189//185
f 189//186 186//186 182//186
f 186//187 190//187 185//187
f 191//188 190//188 188//188
f 192//189 190//189 191//189
f 192//190 185//190 190//190
f 173//191 185//191 192//191
f 192//192 180//193 173//192
f 193//194 180//194 192//194
f 193//195 192//195 191//195
f 193//196 191//196 194//197
f 196//198 193//199 194//199
f 195//200 193//200 196//200
f 195//201 180//202 193//201
f 197//203 199//204 196//204
f 198//205 197//205 196//205
f 196//206 194//207 198//208
f 196//209 199//210 200//211
f 196//209 200//211 201//212
f 196//213 201//213 195//213
f 201//214 188//215 202//216
f 201//214 200//217 188//215
f 195//218 201//218 202//218
f 202//219 188//219 189//219
f 203//220 202//220 189//220
f 195//221 202//221 203//221
f 203//222 189//222 182//222
f 180//162 203//223 182//163
f 195//224 203//224 180//224
f 204//225 188//226 200//227
f 200//228 199//229 205//230
f 204//231 200//228 205//230
f 207//232 204//233 205//234
f 205//235 199//235 197//236
f 207//237 205//238 206//239
f 205//240 197//240 206//240
f 198//241 207//241 208//241
f 206//239 208//242 207//237
f 194//243 204//233 207//232
f 198//208 194//207 207//244
f 209//245 210//245 208//245
f 211//246 209//246 208//247
f 208//248 210//248 198//248
f 211//249 208//249 206//249
f 206//250 215//250 211//251
f 211//252 212//252 214//252
f 213//253 212//253 211//253
f 211//254 215//254 213//254
f 214//255 209//255 211//255
f 215//256 216//256 213//256
f 210//257 216//257 215//257
f 210//258 215//259 197//260
f 206//261 197//261 215//261
f 217//262 216//262 218//262
f 217//263 219//263 216//263
f 218//264 216//264 210//264
f 213//265 216//265 219//265
f 213//266 219//266 220//266
f 221//3 220//3 219//3
f 221//267 219//267 217//267
f 222//268 221//269 212//270
f 222//3 220//3 221//3
f 212//270 221//269 217//271
f 220//272 222//273 213//274
f 213//274 222//273 212//275
f 217//276 218//277 209//278
f 209//279 218//279 210//279
f 214//280 217//276 209//278
f 212//281 217//281 214//281
f 210//258 197//260 198//282
f 191//283 188//226 204//225
f 194//284 191//284 204//284
f 181//285 175//285 171//285
f 169//286 223//287 158//287
f 132//288 223//288 169//288
f 128//289 223//289 132//289
f 223//290 128//290 154//290
f 158//291 223//291 154//291
f 226//292 159//293 160//294
f 224//295 160//295 225//295
f 226//292 160//294 224//296
f 160//297 157//297 225//297
f 153//298 226//298 228//299
f 153//298 227//300 226//298
f 227//301 156//302 226//303
f 228//304 226//304 224//305
f 156//302 159//306 226//303
f 228//307 229//308 155//309
f 230//310 229//308 228//307
f 228//311 155//99 153//98
f 228//304 224//305 230//312
f 230//313 224//314 225//314
f 230//315 231//315 229//316
f 232//317 231//315 230//315
f 230//313 225//314 232//313
f 232//318 225//319 235//319
f 233//320 234//320 232//320
f 233//321 232//321 236//321
f 232//322 234//322 231//322
f 232//318 235//319 236//318
f 236//323 235//324 238//325
f 233//326 236//326 237//326
f 238//327 237//327 236//327
f 238//325 235//324 239//328
f 238//329 239//330 240//329
f 240//331 237//331 238//331
f 239//330 242//330 240//329
f 240//332 241//332 237//332
f 244//333 241//334 240//333
f 240//335 242//336 243//337
f 240//335 243//337 244//338
f 244//339 243//340 247//339
f 244//341 246//341 241//341
f 244//342 245//342 246//342
f 247//343 245//344 244//344
f 243//340 250//340 247//339
f 247//345 248//345 245//346
f 249//347 248//347 247//347
f 247//348 251//349 249//350
f 247//348 250//349 251//349
f 250//351 254//352 251//353
f 251//354 252//354 253//354
f 251//353 254//352 252//355
f 253//356 256//356 251//357
f 249//358 251//359 255//360
f 251//359 256//361 255//360
f 255//362 256//363 257//362
f 253//364 257//364 256//365
f 255//362 257//362 259//366
f 258//367 257//368 253//367
f 258//369 261//369 257//369
f 259//370 257//371 260//372
f 257//371 261//371 260//372
f 260//373 261//374 262//375
f 262//376 261//376 258//376
f 260//373 262//375 265//377
f 258//378 263//378 262//378
f 262//379 263//380 264//379
f 262//381 264//381 267//381
f 265//382 262//383 266//384
f 267//385 266//384 262//383
f 268//386 266//386 267//386
f 267//387 264//387 268//387
f 268//388 270//389 266//388
f 268//390 271//391 269//390
f 269//392 270//392 268//392
f 268//390 272//391 271//391
f 264//393 272//393 268//393
f 272//394 273//395 274//396
f 264//397 273//397 272//397
f 272//394 274//396 271//398
f 266//399 274//399 273//399
f 270//4 274//4 266//4
f 269//5 274//5 270//5
f 271//5 274//5 269//5
f 264//400 275//400 273//400
f 266//401 273//402 275//401
f 276//403 275//403 264//403
f 276//404 266//404 275//404
f 276//405 264//406 277//407
f 276//408 265//408 266//408
f 260//409 265//409 276//409
f 277//410 260//410 276//410
f 277//411 259//412 260//411
f 278//413 259//414 277//413
f 253//415 278//415 277//415
f 253//416 277//416 258//416
f 258//417 277//417 263//417
f 277//407 264//406 263//418
f 278//419 255//419 259//419
f 279//420 255//420 278//420
f 279//421 278//421 253//421
f 279//422 249//422 255//422
f 280//423 249//423 279//423
f 252//424 279//424 253//424
f 252//425 280//425 279//425
f 280//426 248//426 249//426
f 281//427 280//427 254//427
f 281//428 248//428 280//428
f 254//429 280//429 252//429
f 281//430 241//431 246//432
f 282//433 241//431 281//430
f 243//434 281//435 254//436
f 282//437 281//437 243//437
f 245//438 248//438 281//438
f 281//439 246//439 245//439
f 233//440 237//440 282//440
f 233//441 282//441 234//441
f 282//442 237//442 241//442
f 234//443 282//443 283//443
f 283//444 282//444 243//445
f 239//446 283//446 242//446
f 239//447 284//447 283//447
f 242//448 283//448 243//448
f 284//449 234//450 283//450
f 285//451 284//451 239//451
f 285//452 234//452 284//452
f 235//453 285//453 239//453
f 157//454 231//455 285//456
f 225//457 157//457 285//457
f 285//456 231//455 234//458
f 225//459 285//459 235//459
f 243//434 254//436 250//460
f 157//461 229//462 231//462
f 155//463 229//463 157//463
f 120//464 227//464 153//464
f 287//464 227//464 120//464
f 286//465 156//465 227//465
f 287//466 286//467 227//466
f 287//5 120//5 289//5
f 287//6 142//6 288//6
f 288//468 286//469 287//468
f 289//1 116//1 287//1
f 287//1 116//1 118//1
f 118//6 142//6 287//6
f 289//5 120//5 115//5
f 289//470 113//470 116//470
f 289//5 115//5 290//5
f 290//470 113//470 289//470
f 290//5 115//5 112//5
f 290//5 112//5 291//5
f 290//471 110//471 113//471
f 291//471 110//471 290//471
f 291//5 112//5 106//5
f 291//5 106//5 104//5
f 104//472 109//472 291//473
f 291//473 109//472 110//474
f 286//475 288//476 292//477
f 292//1 288//1 141//1
f 141//1 288//1 142//1
f 292//478 141//85 148//84
f 292//477 148//479 286//475
f 286//480 148//480 156//480
f 128//5 129//5 154//5
f 154//5 129//5 126//5
f 152//481 120//481 153//482
f 122//468 120//469 152//468
f 152//94 125//96 122//483
f 295//484 293//484 139//485
f 293//486 137//487 139//488
f 294//489 139//489 135//490
f 139//491 294//491 295//491
f 135//492 139//492 123//492
f 295//493 297//494 293//494
f 133//495 296//496 295//496
f 296//497 297//497 295//497
f 295//498 294//498 133//498
f 300//499 298//499 297//499
f 298//500 299//501 297//500
f 297//502 299//503 301//504
f 297//505 296//505 300//505
f 297//502 301//504 293//506
f 293//486 301//507 137//487
f 301//508 134//508 137//508
f 301//509 133//509 134//509
f 299//510 133//511 301//510
f 304//512 302//512 300//512
f 302//513 303//513 300//513
f 133//514 300//515 296//516
f 300//517 303//517 298//517
f 304//518 300//515 133//514
f 305//519 307//519 304//519
f 308//520 305//520 304//520
f 299//521 304//522 133//521
f 306//523 302//524 304//523
f 304//525 307//525 306//525
f 308//526 304//526 299//526
f 309//527 305//527 308//527
f 309//528 308//529 298//528
f 298//500 308//501 299//501
f 303//528 309//528 298//528
f 303//530 311//531 309//531
f 309//532 310//532 305//532
f 311//533 310//533 309//533
f 312//534 311//531 303//530
f 311//535 312//536 313//537
f 313//537 314//538 311//535
f 314//539 315//539 311//540
f 311//541 315//541 310//542
f 307//543 310//543 315//543
f 307//544 315//545 316//546
f 316//546 315//545 317//547
f 314//548 317//548 315//548
f 316//549 317//550 318//549
f 314//551 318//552 317//553
f 318//554 319//554 316//554
f 320//555 319//555 318//555
f 320//556 318//552 314//551
f 313//557 320//558 314//558
f 321//559 320//558 313//557
f 320//560 321//561 322//561
f 322//561 323//562 320//560
f 323//563 319//563 320//563
f 322//564 325//565 323//566
f 323//567 324//567 319//567
f 325//568 324//568 323//568
f 326//569 325//565 322//564
f 325//570 326//571 327//570
f 327//570 328//570 325//570
f 328//572 329//572 325//572
f 325//573 329//573 324//573
f 328//574 330//574 329//574
f 331//575 329//576 330//577
f 324//578 329//579 331//580
f 331//581 327//581 326//582
f 332//583 327//583 331//583
f 331//575 330//577 332//584
f 331//580 333//585 324//578
f 331//586 322//586 333//586
f 331//587 326//587 322//587
f 324//588 333//589 334//589
f 333//590 322//590 334//590
f 319//591 334//591 335//591
f 324//588 334//589 319//588
f 334//592 322//593 335//594
f 319//595 335//595 316//595
f 335//596 321//597 313//598
f 313//598 316//599 335//596
f 335//594 322//593 321//600
f 332//601 337//602 327//601
f 332//603 330//604 336//605
f 336//606 338//606 332//606
f 338//607 337//607 332//607
f 338//608 339//609 342//609
f 340//610 339//609 338//608
f 343//611 340//611 338//611
f 338//612 342//613 341//614
f 341//614 337//615 338//612
f 343//616 338//616 336//617
f 348//618 340//618 343//618
f 343//619 344//620 347//621
f 343//619 345//622 344//620
f 346//623 345//624 343//625
f 336//626 346//623 343//625
f 343//627 347//627 348//628
f 348//629 351//630 349//631
f 349//632 350//632 348//633
f 348//634 350//635 339//634
f 348//629 347//636 351//630
f 348//637 339//637 340//637
f 347//638 352//639 351//640
f 350//33 351//33 352//33
f 349//33 351//33 350//33
f 347//638 344//641 352//639
f 344//642 350//642 352//642
f 344//643 339//643 350//643
f 341//644 346//644 330//644
f 342//645 346//645 341//645
f 342//646 345//647 346//647
f 336//605 330//604 346//648
f 344//649 345//649 342//649
f 342//650 339//650 344//650
f 327//651 341//652 328//652
f 337//653 341//652 327//651
f 341//654 330//654 328//654
f 307//655 316//655 313//655
f 306//656 313//656 312//656
f 307//657 313//657 306//658
f 306//659 312//659 303//660
f 305//661 310//661 307//661
f 303//662 302//662 306//662
f 133//663 294//663 135//663
f 135//664 123//664 121//665
f 104//43 103//43 109//666
f 103//33 107//33 109//33
f 99//38 107//38 97//38
f 103//33 97//33 107//33
f 96//33 97//33 103//33
f 91//667 353//667 93//668
f 353//33 88//33 93//33
f 87//667 353//667 91//667
f 87//669 82//669 353//669
f 82//33 83//33 353//33
f 353//33 83//33 88//33
f 85//669 82//669 87//669
f 85//16 79//16 354//16
f 85//3 80//3 82//3
f 354//3 80//3 85//3
f 354//670 79//670 355//670
f 354//3 355//3 80//3
f 355//670 79//670 81//670
f 355//671 81//671 356//671
f 355//3 356//3 68//3
f 80//3 355//3 68//3
f 356//671 81//671 357//671
f 356//672 357//672 358//672
f 68//3 356//3 358//3
f 358//672 357//672 359//672
f 358//673 359//673 360//673
f 361//3 358//3 360//3
f 68//3 358//3 361//3
f 361//3 360//3 362//3
f 363//3 361//3 362//3
f 363//3 364//3 361//3
f 364//674 365//674 361//674
f 361//674 365//674 366//674
f 361//675 366//675 68//675
f 366//6 367//6 71//6
f 368//6 367//6 366//6
f 366//6 369//6 368//6
f 366//6 370//6 369//6
f 68//675 366//675 71//675
f 365//6 370//6 366//6
f 371//676 369//676 370//676
f 371//677 370//677 372//678
f 372//678 370//677 373//678
f 365//6 373//6 370//6
f 372//678 373//678 375//679
f 374//6 373//6 365//6
f 374//6 375//6 373//6
f 376//680 375//680 377//680
f 372//678 375//679 376//679
f 378//6 377//6 375//6
f 378//6 375//6 374//6
f 380//6 377//6 378//6
f 379//681 378//681 374//681
f 381//681 378//681 379//681
f 381//682 380//682 378//682
f 376//3 381//3 372//3
f 381//3 376//3 382//3
f 381//3 382//3 383//3
f 372//3 381//3 379//3
f 383//682 380//682 381//682
f 384//3 383//3 388//3
f 389//3 383//3 384//3
f 383//3 382//3 385//3
f 383//3 385//3 388//3
f 389//3 386//3 383//3
f 387//3 383//3 386//3
f 383//1 387//1 380//1
f 389//3 390//3 392//3
f 390//33 389//33 391//33
f 384//683 391//683 389//683
f 392//3 386//3 389//3
f 392//684 393//684 395//684
f 392//684 390//684 393//684
f 394//5 386//5 392//5
f 394//5 392//5 396//5
f 392//5 395//5 397//5
f 396//5 392//5 397//5
f 397//685 400//685 396//685
f 397//5 398//5 399//5
f 397//5 395//5 398//5
f 399//686 401//687 397//687
f 397//687 401//687 400//687
f 402//33 400//33 401//33
f 401//33 405//33 402//33
f 399//688 403//688 401//688
f 403//33 404//33 401//33
f 401//33 404//33 405//33
f 406//689 405//689 404//689
f 398//690 405//690 406//690
f 398//690 402//690 405//690
f 406//689 404//689 408//689
f 399//5 398//5 406//5
f 399//5 406//5 407//5
f 407//5 406//5 408//5
f 408//691 404//691 411//691
f 407//5 408//5 409//5
f 409//5 408//5 410//5
f 408//691 411//691 410//691
f 410//692 411//692 412//692
f 413//33 412//33 411//33
f 413//33 411//33 403//33
f 403//33 411//33 404//33
f 409//693 414//693 413//694
f 414//33 412//33 413//33
f 407//695 413//695 403//695
f 409//695 413//695 407//695
f 417//696 415//696 414//696
f 415//33 416//33 414//33
f 414//33 416//33 412//33
f 417//694 414//693 409//693
f 418//696 415//696 417//696
f 419//5 418//5 417//5
f 417//5 420//5 419//5
f 417//5 410//5 420//5
f 409//5 410//5 417//5
f 420//697 416//697 419//697
f 420//697 412//697 416//697
f 410//692 412//692 420//692
f 419//698 421//698 422//698
f 419//698 416//698 421//698
f 422//5 418//5 419//5
f 422//699 421//699 425//699
f 422//5 423//5 418//5
f 424//5 423//5 422//5
f 422//699 425//699 424//699
f 425//33 421//33 415//33
f 428//33 425//33 415//33
f 426//16 424//16 425//16
f 427//33 426//33 425//33
f 427//33 425//33 428//33
f 418//700 428//700 415//700
f 423//701 427//701 428//701
f 423//700 428//700 418//700
f 427//1 431//1 429//1
f 429//33 426//33 427//33
f 430//701 427//701 423//701
f 430//1 431//1 427//1
f 431//5 430//5 424//5
f 431//6 432//6 429//6
f 424//5 432//5 431//5
f 429//6 432//6 426//6
f 432//16 424//16 426//16
f 424//5 430//5 423//5
f 415//33 421//33 416//33
f 407//688 403//688 399//688
f 395//702 393//702 402//702
f 393//33 400//33 402//33
f 395//702 402//702 398//702
f 396//685 400//685 433//685
f 393//33 433//33 400//33
f 394//703 433//703 434//703
f 390//33 434//33 433//33
f 390//33 433//33 393//33
f 396//703 433//703 394//703
f 435//6 434//6 391//6
f 391//33 434//33 390//33
f 394//6 434//6 435//6
f 391//6 380//6 435//6
f 435//16 436//16 386//16
f 435//5 386//5 394//5
f 435//6 380//6 437//6
f 435//6 437//6 436//6
f 436//6 437//6 438//6
f 387//704 438//704 437//704
f 380//1 387//1 437//1
f 439//705 13//705 438//705
f 436//6 438//6 13//6
f 439//704 438//704 387//704
f 440//705 13//705 439//705
f 439//3 441//3 440//3
f 439//3 386//3 441//3
f 387//3 386//3 439//3
f 441//706 436//706 442//706
f 386//16 436//16 441//16
f 441//706 442//706 443//706
f 440//3 441//3 443//3
f 443//707 444//707 445//707
f 443//707 442//707 444//707
f 440//3 443//3 445//3
f 445//3 447//3 440//3
f 445//708 446//708 447//708
f 445//708 444//708 446//708
f 440//3 447//3 448//3
f 447//709 449//709 448//709
f 447//709 446//710 449//709
f 13//6 449//6 446//6
f 13//6 450//6 449//6
f 448//711 449//711 450//711
f 452//6 450//6 13//6
f 451//712 450//712 452//712
f 448//711 450//711 451//711
f 451//712 452//712 454//712
f 13//6 453//6 452//6
f 454//713 452//713 453//713
f 451//3 454//3 440//3
f 454//713 453//713 455//713
f 440//3 454//3 455//3
f 455//714 12//714 8//714
f 455//714 453//714 12//714
f 440//3 455//3 8//3
f 13//6 12//6 453//6
f 440//3 448//3 451//3
f 446//6 444//6 13//6
f 13//6 444//6 442//6
f 13//6 442//6 436//6
f 7//715 11//715 440//715
f 8//3 7//3 440//3
f 440//715 11//715 13//715
f 456//6 380//6 391//6
f 384//683 456//683 391//683
f 388//716 456//716 384//716
f 456//6 457//6 380//6
f 388//716 457//716 456//716
f 457//6 458//6 380//6
f 385//717 458//717 457//717
f 385//717 457//717 388//717
f 380//6 458//6 377//6
f 382//718 377//719 458//718
f 382//718 458//718 385//718
f 376//680 377//680 382//680
f 379//720 374//720 364//720
f 371//3 379//3 364//3
f 372//3 379//3 371//3
f 364//720 374//720 365//720
f 371//3 364//3 363//3
f 363//676 369//676 371//676
f 363//721 368//721 369//721
f 362//722 367//722 368//722
f 362//721 368//721 363//721
f 360//723 367//722 362//722
f 71//6 367//6 359//6
f 360//673 359//673 367//673
f 71//6 359//6 357//6
f 357//6 81//6 71//6
f 80//3 68//3 72//3
f 69//6 74//6 459//6
f 70//28 459//28 74//28
f 459//6 460//6 69//6
f 66//724 460//724 459//724
f 66//724 459//724 70//724
f 64//725 460//725 66//725
f 64//725 461//725 460//725
f 69//6 460//6 461//6
f 69//6 461//6 60//6
f 61//726 60//726 461//726
f 61//726 461//726 64//726
f 62//26 69//26 462//26
f 56//6 462//6 69//6
f 60//6 56//6 69//6
f 44//727 462//727 57//727
f 62//727 462//727 44//727
f 56//6 57//6 462//6
f 38//16 44//16 57//16
f 7//21 22//21 11//21
f 7//3 16//3 18//3
f 3//3 16//3 7//3
f 464//703 14//703 4//703
f 9//5 14//5 465//5
f 465//5 14//5 463//5
f 464//703 463//703 14//703
f 466//728 9//728 465//728
f 465//5 463//5 468//5
f 466//729 465//729 467//729
f 467//729 465//729 468//730
f 468//5 469//5 471//5
f 468//5 463//5 469//5
f 470//731 468//731 471//732
f 467//733 468//731 470//731
f 471//5 469//5 474//5
f 470//689 471//689 472//689
f 472//689 471//689 473//689
f 471//5 474//5 473//5
f 473//5 474//5 475//5
f 476//734 475//734 474//734
f 476//734 474//734 477//734
f 477//686 474//686 469//686
f 470//33 476//33 477//33
f 477//686 469//686 478//686
f 467//33 477//33 478//33
f 470//33 477//33 467//33
f 478//735 469//735 463//735
f 466//33 478//33 464//33
f 467//33 478//33 466//33
f 478//735 463//735 464//735
f 472//33 479//33 476//33
f 479//736 475//736 476//736
f 472//33 476//33 470//33
f 482//33 480//33 479//33
f 480//693 481//693 479//693
f 479//736 481//736 475//736
f 482//33 479//33 472//33
f 484//33 480//33 482//33
f 472//737 473//738 482//738
f 482//738 473//738 483//737
f 482//692 483//739 484//692
f 484//33 485//33 480//33
f 484//692 483//739 486//740
f 487//33 485//33 484//33
f 484//697 486//697 487//741
f 487//741 486//697 488//742
f 487//743 488//743 489//743
f 489//33 490//33 487//33
f 487//33 490//33 485//33
f 489//33 491//33 490//33
f 491//701 492//701 490//701
f 490//744 492//744 493//744
f 490//744 493//744 485//744
f 495//5 493//5 492//5
f 485//745 493//745 494//745
f 488//5 494//5 493//5
f 488//5 493//5 495//5
f 489//743 488//743 495//743
f 489//699 495//699 496//699
f 496//699 495//699 497//699
f 495//5 492//5 497//5
f 497//5 498//5 499//5
f 497//5 492//5 498//5
f 499//16 496//16 497//16
f 505//746 500//746 499//746
f 500//6 501//6 499//6
f 499//6 501//6 502//6
f 502//16 496//16 499//16
f 499//5 498//5 503//5
f 503//747 504//747 499//464
f 506//464 499//464 504//747
f 505//748 499//748 506//748
f 506//749 509//749 505//749
f 507//750 508//750 506//750
f 506//298 504//751 507//298
f 506//752 508//752 509//752
f 510//753 505//753 509//754
f 511//755 509//755 508//756
f 511//757 510//757 509//757
f 512//758 511//758 514//758
f 516//759 511//759 512//759
f 513//760 511//760 515//761
f 514//762 511//762 513//762
f 519//763 515//763 511//763
f 516//764 517//764 511//764
f 511//765 517//765 518//765
f 511//766 518//766 521//766
f 520//767 519//767 511//767
f 520//768 511//768 508//768
f 521//769 510//769 511//769
f 522//770 524//770 521//770
f 523//33 522//33 521//33
f 521//771 518//771 523//771
f 521//772 524//772 510//772
f 524//773 505//773 510//773
f 524//774 525//775 505//776
f 522//774 525//775 524//774
f 525//777 500//777 505//777
f 527//16 500//16 525//16
f 525//778 526//779 527//105
f 523//780 526//779 525//778
f 525//33 522//33 523//33
f 501//16 500//16 527//16
f 526//781 501//782 527//783
f 528//784 529//784 526//784
f 528//785 526//785 530//785
f 526//781 529//786 501//782
f 526//787 535//787 530//787
f 518//788 531//788 526//788
f 531//789 532//789 526//790
f 526//791 532//791 533//791
f 533//792 534//792 526//792
f 526//793 534//793 535//793
f 523//794 518//794 526//794
f 534//795 536//795 535//795
f 535//796 536//796 530//796
f 534//797 538//797 536//797
f 538//798 512//798 536//798
f 512//33 537//33 536//33
f 536//33 537//33 539//33
f 530//799 536//800 539//801
f 514//802 539//803 537//803
f 530//799 539//801 541//478
f 539//1 540//1 541//1
f 514//802 540//803 539//803
f 542//804 541//805 543//806
f 542//804 530//807 541//805
f 541//1 540//1 543//1
f 542//50 543//50 544//50
f 543//6 540//6 544//6
f 544//6 540//6 503//6
f 544//48 545//48 546//48
f 502//48 545//48 544//48
f 544//1 498//1 491//1
f 503//1 498//1 544//1
f 496//33 544//33 491//33
f 502//33 544//33 496//33
f 544//808 546//808 542//808
f 546//809 545//73 547//71
f 547//67 548//810 546//811
f 546//811 548//810 530//812
f 546//813 530//814 542//813
f 548//815 549//815 530//815
f 550//816 549//816 548//816
f 547//817 550//818 548//819
f 552//820 551//821 550//820
f 551//822 549//822 550//822
f 552//823 550//818 547//817
f 552//506 555//824 553//506
f 553//821 551//821 552//820
f 547//825 554//487 552//826
f 552//826 554//487 555//827
f 553//506 555//824 556//824
f 554//828 557//829 555//830
f 555//831 557//831 556//831
f 557//832 549//832 556//832
f 530//833 549//833 557//833
f 530//834 557//834 558//834
f 554//828 558//835 557//829
f 528//836 558//837 554//838
f 528//839 530//839 558//839
f 553//840 556//841 560//840
f 556//842 549//842 561//842
f 560//840 556//841 559//841
f 556//843 561//844 559//845
f 562//515 561//846 551//847
f 562//848 563//848 561//848
f 561//849 563//849 564//849
f 551//847 561//846 549//850
f 559//851 561//851 564//852
f 564//853 565//853 568//853
f 564//854 563//854 565//854
f 566//855 564//855 568//856
f 567//857 564//855 566//855
f 567//858 559//859 564//860
f 566//538 568//861 569//861
f 568//862 565//862 569//862
f 570//863 572//864 569//863
f 569//865 574//866 570//597
f 571//867 575//867 569//867
f 565//868 571//868 569//869
f 569//863 572//864 573//870
f 569//861 573//535 566//538
f 569//865 575//871 574//866
f 576//872 575//873 577//874
f 576//875 574//875 575//875
f 577//874 575//873 571//876
f 577//877 571//877 578//877
f 566//878 577//878 578//878
f 573//879 577//880 566//880
f 573//881 576//882 577//883
f 571//884 579//884 578//884
f 560//885 578//885 579//885
f 566//886 578//886 567//886
f 567//887 578//887 560//887
f 571//888 562//888 579//888
f 579//889 562//889 553//889
f 560//890 579//890 553//890
f 580//891 576//891 582//891
f 581//892 576//892 580//892
f 581//893 574//893 576//893
f 582//894 576//882 573//881
f 580//895 582//895 583//895
f 572//896 583//896 582//896
f 572//897 582//897 573//897
f 585//898 584//899 583//898
f 584//900 580//900 583//900
f 585//563 583//563 572//563
f 588//901 584//901 585//901
f 587//569 586//902 585//902
f 586//903 588//903 585//904
f 587//562 585//560 572//560
f 586//905 589//905 588//905
f 589//906 590//906 588//906
f 590//907 591//907 588//907
f 588//908 591//909 592//909
f 588//910 592//911 584//912
f 591//913 593//913 592//914
f 592//915 594//915 587//915
f 580//916 592//916 587//916
f 592//917 593//917 594//917
f 584//912 592//911 580//918
f 594//569 586//902 587//569
f 586//571 594//919 593//920
f 593//920 595//571 586//571
f 593//921 597//922 595//652
f 596//921 597//922 593//921
f 591//923 596//923 593//923
f 597//924 598//924 595//924
f 597//925 600//925 598//925
f 601//926 599//927 597//613
f 599//928 600//929 597//928
f 597//613 596//926 601//926
f 601//930 590//930 604//931
f 591//932 590//932 601//932
f 601//933 596//933 591//933
f 602//608 603//934 601//608
f 601//935 604//935 602//935
f 601//608 603//934 599//934
f 598//936 604//936 589//936
f 604//937 598//937 600//937
f 600//938 605//938 604//938
f 604//939 605//939 606//939
f 604//940 606//940 607//940
f 604//941 607//941 608//941
f 589//942 604//942 590//942
f 602//618 604//618 608//618
f 608//943 603//943 602//944
f 608//945 609//945 603//945
f 610//946 609//946 608//946
f 608//630 607//947 611//947
f 608//630 611//947 610//948
f 610//33 611//33 609//33
f 609//33 611//33 612//33
f 607//949 612//950 611//951
f 609//32 612//32 603//32
f 603//952 612//953 606//952
f 607//949 606//954 612//950
f 606//955 605//956 603//956
f 603//957 605//957 600//957
f 603//958 600//958 599//958
f 595//959 598//959 589//959
f 595//960 589//960 586//960
f 587//961 581//961 580//961
f 572//560 570//962 587//562
f 570//963 574//964 587//965
f 587//965 574//964 581//966
f 565//967 562//967 571//967
f 560//528 559//859 567//858
f 565//968 563//969 562//970
f 553//971 562//971 551//971
f 547//71 545//73 554//972
f 554//838 545//973 528//836
f 502//974 529//974 545//974
f 528//975 545//975 529//975
f 540//746 513//746 503//746
f 513//976 540//976 514//976
f 533//977 538//977 534//977
f 533//978 613//978 538//979
f 512//980 538//980 516//981
f 516//982 538//982 613//982
f 532//983 613//983 533//983
f 613//984 614//985 615//986
f 614//987 613//988 532//988
f 516//989 613//984 615//986
f 615//990 616//990 617//990
f 615//991 618//991 616//991
f 617//992 620//992 615//992
f 621//993 618//993 615//993
f 615//994 619//994 516//994
f 615//995 620//996 619//996
f 615//997 622//997 621//997
f 615//986 614//985 622//998
f 622//999 623//1000 621//1001
f 622//1002 532//1002 623//1002
f 614//1003 532//1003 622//1003
f 623//1004 624//1004 626//1005
f 532//1006 624//1004 623//1004
f 621//1001 623//1000 625//1007
f 623//1008 626//1008 625//1008
f 619//1009 626//1009 516//1009
f 619//1010 627//1010 626//1010
f 626//1011 627//1011 628//1011
f 625//1012 626//1012 628//1012
f 516//1013 626//1013 624//1013
f 616//1014 628//1014 627//1014
f 618//1015 628//1015 616//1015
f 618//1016 621//1016 628//1016
f 621//1017 625//1017 628//1017
f 619//1018 620//1019 627//1018
f 616//1020 627//1021 630//1022
f 627//1023 620//1023 629//1023
f 627//1024 629//1025 630//1026
f 630//1026 629//1025 632//1027
f 630//1022 631//1028 616//1020
f 630//1029 637//1029 631//1029
f 630//1026 632//1027 633//1030
f 633//1031 634//1031 630//1031
f 630//1032 634//1032 635//1032
f 630//1033 635//1033 636//1033
f 636//1034 637//1035 630//1035
f 636//1036 638//1036 637//1036
f 638//1037 639//1037 637//1037
f 637//1038 639//1038 631//1038
f 634//1039 639//1039 641//1039
f 640//1040 639//1041 634//1041
f 631//1042 639//1042 640//1042
f 638//1043 641//1043 639//1043
f 634//1044 641//1044 635//1045
f 641//1046 644//1046 642//1046
f 642//1047 643//1048 641//1047
f 641//1049 647//1049 635//1049
f 641//1047 643//1048 647//1050
f 641//1051 645//1051 644//1051
f 646//1052 645//1052 641//1052
f 646//1053 641//1053 638//1053
f 648//1054 635//1054 647//1054
f 648//1055 647//1055 649//1055
f 647//1056 643//1056 649//1056
f 649//1057 646//1058 648//1059
f 649//1060 650//1060 651//1060
f 649//1061 643//1061 650//1061
f 651//1062 645//1063 649//1064
f 649//1064 645//1063 646//1065
f 651//1066 650//1066 652//1067
f 651//1068 652//1068 653//1068
f 653//1069 644//1069 651//1069
f 651//1070 644//1070 645//1070
f 656//1071 644//1072 653//1073
f 655//1074 653//1074 654//1074
f 653//1075 657//1075 654//1075
f 656//1076 653//1076 655//1076
f 653//1077 652//1077 657//1077
f 658//1078 659//1078 657//1078
f 658//1079 657//1080 650//1081
f 650//1081 657//1080 652//1082
f 657//1083 659//1083 660//1083
f 657//1084 660//1084 661//1084
f 657//1085 661//1085 654//1085
f 661//1086 660//1087 662//1088
f 661//1086 662//1088 663//1089
f 654//1090 661//1090 663//1090
f 654//1091 663//1091 664//1091
f 662//3 664//3 663//3
f 666//272 664//272 665//272
f 665//3 664//3 662//3
f 666//1092 654//1092 664//1092
f 655//1093 654//1093 666//1093
f 666//1094 659//1095 655//1096
f 666//1097 660//1097 659//1097
f 662//1098 660//1099 666//1099
f 666//1100 665//1100 662//1100
f 655//1096 659//1095 658//1101
f 658//1102 650//1102 642//1102
f 655//1103 658//1103 656//1103
f 656//1104 658//1104 642//1104
f 642//1105 644//1072 656//1071
f 642//1106 650//1107 643//1106
f 636//1108 635//1108 648//1109
f 648//1110 638//1110 636//1110
f 648//1059 646//1058 638//1111
f 640//1112 634//1112 667//1112
f 631//1113 640//1113 667//1113
f 667//1114 634//1114 633//1114
f 667//1115 668//1115 631//1115
f 667//1116 633//1116 668//1116
f 616//1117 668//1117 669//1118
f 631//1119 668//1117 616//1117
f 668//1120 632//1121 669//1122
f 668//1123 633//1123 632//1123
f 616//1124 669//1124 670//1124
f 669//1125 629//1126 670//1127
f 669//1122 632//1121 629//1128
f 617//1129 616//1129 670//1129
f 670//1130 620//1130 617//1130
f 670//1127 629//1126 620//1131
f 516//1132 624//1133 517//1134
f 517//1134 624//1133 671//1135
f 532//1136 671//1136 624//1136
f 518//1137 671//1137 531//1137
f 531//1138 671//1138 532//1138
f 517//1139 671//1139 518//1139
f 512//1140 514//1140 537//1140
f 501//50 529//50 502//50
f 672//1141 519//1141 520//1141
f 507//1142 520//1142 508//1142
f 672//1143 520//1144 507//1143
f 673//312 674//1145 672//312
f 507//312 673//312 672//312
f 672//313 674//1146 675//1146
f 672//313 675//1146 676//1147
f 676//1148 519//1148 672//1148
f 676//318 675//1149 679//1149
f 677//1150 678//1151 676//1151
f 676//318 679//1149 677//318
f 676//1152 678//1152 519//1152
f 675//459 680//459 679//459
f 679//1153 680//1153 681//1153
f 682//1154 679//1154 681//323
f 677//323 679//1154 682//1154
f 682//1155 681//1156 683//329
f 682//1157 684//1157 677//1157
f 683//1158 685//1158 682//1158
f 682//1159 685//1159 684//1159
f 683//1160 687//1160 685//1160
f 686//1161 685//1161 687//1161
f 684//1162 685//1162 686//1162
f 688//1163 687//1163 683//1163
f 688//1164 689//1164 687//1164
f 686//431 687//1165 690//1166
f 690//1166 687//1165 689//1167
f 686//1168 690//1168 691//1168
f 691//1169 690//1170 692//1171
f 693//1172 692//1172 690//1172
f 694//1173 693//1173 690//1173
f 690//1174 689//1174 694//1174
f 694//1175 689//1176 688//1177
f 695//1178 694//1175 688//1177
f 695//1179 693//1179 694//1179
f 695//1180 696//1180 698//1180
f 691//1181 696//1181 695//340
f 688//1182 691//1181 695//340
f 697//1183 693//1183 695//1183
f 695//1180 698//1180 697//1184
f 696//351 692//1185 698//1186
f 698//1187 701//1187 699//1187
f 699//1188 700//1188 698//1188
f 700//1189 702//1189 698//1189
f 698//1186 692//1185 701//1190
f 698//1191 702//1191 703//360
f 697//1192 698//1191 703//360
f 703//362 704//1193 705//363
f 703//362 702//1194 704//1193
f 703//1195 707//1196 697//1195
f 705//1197 706//1197 703//1198
f 703//1199 706//1199 707//1199
f 707//1200 706//1201 700//1202
f 707//1203 699//1204 701//1205
f 700//1202 699//1206 707//1200
f 707//1203 701//1205 693//1203
f 697//1207 707//1207 693//1207
f 700//1202 706//1201 708//1208
f 705//1209 708//1209 706//1209
f 700//1202 708//1208 712//1210
f 712//1211 708//1212 709//1213
f 709//1213 708//1212 710//1214
f 711//1215 708//1215 705//1215
f 711//1216 710//1216 708//1216
f 712//1217 704//1217 700//1218
f 712//1219 709//1219 713//1219
f 713//1220 714//1221 712//1221
f 712//369 714//1222 704//369
f 711//377 714//1223 713//1224
f 704//371 714//371 711//1225
f 711//377 713//1224 715//377
f 715//1226 713//1227 716//1228
f 718//385 716//1228 713//1227
f 713//1229 709//1229 717//1229
f 713//1230 717//1230 718//1230
f 718//1231 717//1231 719//1231
f 719//386 716//386 718//386
f 717//1232 720//1233 719//1233
f 719//390 720//1234 721//1234
f 719//390 721//1234 722//390
f 722//1235 723//1236 719//1235
f 719//389 723//389 716//389
f 722//5 725//5 723//5
f 724//1237 716//1237 723//1237
f 724//1238 723//1238 725//1238
f 721//5 725//5 722//5
f 720//1239 724//1240 725//1240
f 720//1239 725//1240 721//398
f 715//1241 716//1241 724//1241
f 717//1242 724//1243 720//1244
f 717//1242 726//1245 724//1243
f 724//1246 726//1246 715//1246
f 710//1247 726//1248 717//1249
f 715//1250 726//1251 710//1250
f 709//1252 710//1247 717//1249
f 715//1253 710//1253 711//1253
f 705//1254 704//371 711//1225
f 700//1255 704//1255 702//1255
f 693//1256 701//1256 692//1256
f 691//1169 692//1171 696//460
f 728//1257 727//1257 691//1257
f 727//1258 686//1258 691//1258
f 683//338 728//336 691//336
f 683//338 691//336 688//338
f 681//1156 728//330 683//329
f 681//1259 727//1259 728//1259
f 681//1260 729//1260 727//1260
f 727//1261 729//1261 678//1261
f 678//1262 686//1262 727//1262
f 680//1263 729//1263 681//1263
f 678//1264 729//1264 680//1264
f 684//1265 686//1265 678//1265
f 677//1266 684//1266 678//1266
f 675//1267 730//1267 680//1267
f 519//1268 680//1269 730//1270
f 678//455 680//1269 519//1268
f 519//1271 730//1271 731//1271
f 731//1272 730//1272 675//1272
f 673//1273 731//1273 674//1273
f 673//1274 732//1274 731//1274
f 731//1275 732//1275 519//1275
f 674//1276 731//1276 675//295
f 515//1277 732//1277 673//1277
f 519//1278 732//1278 515//1278
f 507//298 504//751 673//298
f 504//1279 515//1279 673//1279
f 513//1280 515//1280 504//1280
f 503//1281 513//1281 504//1281
f 491//701 498//701 492//701
f 496//33 491//33 489//33
f 480//693 494//693 481//693
f 485//745 494//745 480//745
f 486//5 481//5 494//5
f 486//5 494//5 488//5
f 483//5 481//5 486//5
f 483//5 475//5 481//5
f 473//5 475//5 483//5
f 5//728 9//728 466//728
f 466//33 464//33 5//33
f 5//33 464//33 4//33
