# Blender v3.6.0 OBJ File: 'Valves.blend'
# www.blender.org
mtllib ValveDrainTank_Element.mtl
o 8_ValveDrainTank_Element_ValveDrainTank.003
v 0.028503 -0.055510 0.186933
v 0.021451 -0.058597 0.185988
v 0.021342 -0.058637 0.185975
v 0.024938 -0.057200 0.308811
v -0.189000 -0.036400 0.390000
v -0.062400 -0.036400 0.390000
v -0.189000 -0.036400 0.344908
v -0.189000 0.036400 0.390000
v -0.062400 0.036400 0.390000
v -0.062400 0.036400 0.317640
v -0.189000 0.036400 0.344908
v 0.024938 -0.057200 0.308811
v 0.060586 0.014934 0.194427
v 0.061451 0.010837 0.194699
v 0.061898 0.007893 0.194840
v 0.062399 -0.000000 0.195000
v 0.062099 -0.006115 0.194904
v 0.061451 -0.010837 0.194699
v 0.047800 0.040111 0.190828
v 0.045725 0.042461 0.190320
v 0.043733 0.044510 0.189852
v 0.050455 0.036715 0.191511
v 0.054039 0.031201 0.192487
v 0.054665 0.030091 0.192664
v 0.057905 0.023254 0.193608
v 0.058635 0.021344 0.193828
v 0.060417 0.015605 0.194374
v -0.038389 0.049194 0.188696
v -0.032585 0.053216 0.187598
v -0.031202 0.054039 0.187363
v -0.025562 0.056924 0.186507
v -0.021346 0.058635 0.185976
v -0.018040 0.059735 0.185625
v -0.011503 0.061330 0.185104
v -0.010837 0.061452 0.185064
v -0.003567 0.062298 0.184781
v -0.000000 0.062400 0.184746
v 0.004222 0.062257 0.184795
v 0.010836 0.061451 0.185064
v 0.012243 0.061187 0.185152
v 0.019547 0.059259 0.185778
v 0.021344 0.058636 0.185976
v 0.026786 0.056358 0.186679
v 0.031202 0.054038 0.187363
v 0.033521 0.052631 0.187763
v 0.040008 0.047886 0.189032
v 0.040109 0.047801 0.189053
v -0.059718 0.018100 0.194158
v -0.058636 0.021344 0.193828
v -0.057296 0.024718 0.193427
v -0.054040 0.031200 0.192487
v -0.053851 0.031526 0.192434
v -0.049173 0.038417 0.191176
v -0.047801 0.040110 0.190828
v -0.044067 0.044180 0.189929
v -0.043798 0.044447 0.189867
v -0.040111 0.047801 0.189053
v -0.061191 -0.012227 0.194616
v -0.061452 -0.010837 0.194699
v -0.062170 -0.005362 0.194926
v -0.062400 -0.000001 0.195000
v -0.062352 0.002458 0.194984
v -0.061511 0.010500 0.194717
v -0.061453 0.010836 0.194699
v -0.060582 0.014954 0.194426
v -0.047802 -0.040110 0.190828
v -0.048025 -0.039843 0.190884
v -0.052182 -0.034218 0.191974
v -0.054039 -0.031203 0.192487
v -0.056247 -0.027019 0.193118
v -0.058637 -0.021345 0.193828
v -0.059220 -0.019669 0.194005
v -0.060582 -0.014955 0.194425
v 0.040110 -0.047801 0.189053
v 0.035422 -0.051371 0.188112
v 0.031202 -0.054039 0.187363
v 0.028503 -0.055510 0.186933
v 0.021342 -0.058637 0.185975
v 0.013874 -0.060838 0.185267
v 0.010837 -0.061452 0.185064
v 0.006080 -0.062103 0.184847
v -0.000000 -0.062400 0.184746
v -0.000760 -0.062396 0.184748
v -0.008743 -0.061785 0.184953
v -0.010838 -0.061452 0.185064
v -0.016348 -0.060221 0.185469
v -0.021345 -0.058636 0.185976
v -0.023503 -0.057805 0.186235
v -0.030274 -0.054565 0.187211
v -0.031202 -0.054040 0.187363
v -0.037219 -0.050086 0.188460
v -0.040111 -0.047801 0.189053
v -0.042797 -0.045412 0.189639
v -0.043769 -0.044476 0.189860
v 0.058636 -0.021342 0.193828
v 0.055650 -0.028227 0.192946
v 0.060956 -0.013344 0.194543
v 0.060582 -0.014951 0.194426
v 0.058690 -0.021194 0.193845
v 0.054038 -0.031203 0.192487
v 0.051770 -0.034836 0.191863
v 0.047800 -0.040111 0.190828
v 0.047089 -0.040944 0.190651
v 0.043733 -0.044510 0.189852
v 0.041516 -0.046585 0.189355
v -0.000000 0.031200 0.260000
v -0.000000 0.062400 0.260000
v 0.005417 0.030726 0.260000
v 0.010835 0.061452 0.260000
v 0.010671 0.029318 0.260000
v 0.021342 0.058637 0.260000
v 0.015599 0.027020 0.260000
v 0.031199 0.054040 0.260000
v 0.020054 0.023900 0.260000
v 0.040109 0.047801 0.260000
v 0.023900 0.020055 0.260000
v 0.047801 0.040110 0.260000
v 0.027019 0.015600 0.260000
v 0.054039 0.031200 0.260000
v 0.029318 0.010671 0.260000
v 0.058636 0.021342 0.260000
v 0.030726 0.005418 0.260000
v 0.061452 0.010835 0.260000
v 0.031199 -0.000000 0.260000
v 0.062399 -0.000000 0.260000
v 0.031199 -0.000000 0.226200
v 0.062399 -0.000000 0.226200
v -0.031200 -0.000000 0.260000
v -0.031200 -0.000000 0.226200
v -0.031062 -0.002937 0.226200
v -0.031062 -0.002937 0.260000
v -0.030094 -0.008234 0.226200
v -0.030094 -0.008234 0.260000
v -0.028230 -0.013286 0.226200
v -0.028230 -0.013286 0.260000
v -0.025526 -0.017942 0.226200
v -0.025526 -0.017942 0.260000
v -0.022060 -0.022064 0.226200
v -0.022060 -0.022064 0.260000
v -0.017938 -0.025528 0.226200
v -0.017938 -0.025528 0.260000
v -0.013281 -0.028232 0.226200
v -0.013281 -0.028232 0.260000
v -0.008229 -0.030095 0.226200
v -0.008229 -0.030095 0.260000
v -0.002932 -0.031062 0.226200
v -0.002932 -0.031062 0.260000
v 0.000004 -0.031200 0.226200
v 0.000004 -0.031200 0.260000
v -0.044124 0.044123 0.226200
v -0.044124 0.044123 0.260000
v -0.022062 0.022062 0.226200
v -0.022062 0.022062 0.260000
v 0.356040 -0.036400 0.411963
v 0.356040 -0.036400 0.370025
v 0.105000 -0.036400 0.390000
v 0.062399 -0.036400 0.315737
v 0.062399 -0.036400 0.390000
v -0.062400 -0.036400 0.390000
v -0.189000 -0.036400 0.344908
v -0.062400 -0.036400 0.317640
v -0.062400 0.036400 0.390000
v -0.062400 0.036400 0.317640
v -0.189000 0.036400 0.344908
v 0.105000 0.036400 0.390000
v 0.062399 0.036400 0.390000
v 0.356040 0.057200 0.430163
v 0.393323 0.057200 0.376918
v 0.105000 0.057200 0.408200
v 0.024938 0.057200 0.308811
v 0.024938 0.057200 0.408200
v 0.393323 -0.057200 0.376918
v 0.356040 -0.057200 0.430163
v 0.024938 -0.057200 0.308811
v 0.105000 -0.057200 0.408200
v 0.024938 -0.057200 0.408200
v 0.000004 -0.062400 0.226200
v -0.010836 -0.061452 0.226200
v -0.021343 -0.058637 0.226200
v -0.031200 -0.054040 0.226200
v -0.040110 -0.047801 0.226200
v -0.062400 -0.000000 0.226200
v -0.061453 -0.010836 0.226200
v -0.058637 -0.021342 0.226200
v -0.054040 -0.031200 0.226200
v -0.047802 -0.040110 0.226200
v 0.030726 0.005418 0.226200
v 0.061452 0.010835 0.226200
v 0.029318 0.010671 0.226200
v 0.058636 0.021342 0.226200
v 0.027019 0.015600 0.226200
v 0.054039 0.031200 0.226200
v 0.023900 0.020055 0.226200
v 0.047801 0.040110 0.226200
v 0.020054 0.023900 0.226200
v 0.040109 0.047801 0.226200
v 0.015599 0.027020 0.226200
v 0.031199 0.054040 0.226200
v 0.010671 0.029318 0.226200
v 0.021342 0.058637 0.226200
v 0.005417 0.030726 0.226200
v 0.010835 0.061452 0.226200
v -0.000000 0.031200 0.226200
v -0.000000 0.062400 0.226200
v -0.062400 -0.000000 0.260000
v 0.044123 -0.044124 0.226200
v 0.044123 -0.044124 0.260000
v 0.022061 -0.022062 0.226200
v 0.022061 -0.022062 0.260000
v 0.062162 -0.005439 0.315693
v 0.062399 -0.000000 0.315737
v 0.031199 -0.054040 0.309968
v 0.061452 -0.010836 0.315561
v 0.040109 -0.047801 0.311616
v 0.047801 -0.040110 0.313038
v 0.031199 0.054040 0.309968
v 0.040109 0.047801 0.311616
v 0.062399 0.036400 0.315737
v 0.356040 0.036400 0.370025
v 0.056553 -0.026372 0.314656
v 0.058636 -0.021342 0.315041
v 0.060273 -0.016150 0.315343
v 0.062162 0.005438 0.315693
v 0.061452 0.010835 0.315561
v 0.060273 0.016150 0.315343
v 0.051115 -0.035792 0.313650
v 0.054039 -0.031200 0.314191
v 0.058636 0.021342 0.315041
v 0.056553 0.026371 0.314656
v 0.054039 0.031200 0.314191
v 0.051115 0.035791 0.313650
v 0.047801 0.040110 0.313038
v 0.021342 -0.058637 0.408200
v 0.010835 -0.061452 0.408200
v -0.189000 0.057200 0.408200
v -0.189000 -0.057200 0.408200
v -0.024939 0.057200 0.408200
v -0.024939 -0.057200 0.408200
v -0.021343 -0.058637 0.408200
v -0.000000 -0.062400 0.408200
v 0.021342 0.058637 0.408200
v 0.010835 0.061452 0.408200
v -0.010836 -0.061452 0.408200
v -0.021343 0.058637 0.408200
v -0.000000 0.062400 0.408200
v -0.010836 0.061452 0.408200
v -0.221500 -0.057200 0.351908
v -0.024939 -0.057200 0.309571
v -0.024939 0.057200 0.309571
v -0.221500 0.057200 0.351908
v -0.062163 0.005438 0.317589
v -0.062400 -0.000000 0.317640
v -0.031200 0.054040 0.310920
v -0.061453 0.010835 0.317436
v -0.040110 0.047801 0.312839
v -0.047802 0.040110 0.314496
v -0.031200 -0.054040 0.310920
v -0.040110 -0.047801 0.312839
v -0.056554 0.026371 0.316381
v -0.058637 0.021342 0.316830
v -0.060274 0.016150 0.317182
v -0.062163 -0.005439 0.317589
v -0.061453 -0.010836 0.317436
v -0.060274 -0.016150 0.317182
v -0.051116 0.035791 0.315209
v -0.054040 0.031200 0.315839
v -0.058637 -0.021342 0.316830
v -0.056554 -0.026372 0.316381
v -0.054040 -0.031200 0.315839
v -0.051116 -0.035792 0.315209
v -0.047802 -0.040110 0.314496
v 0.356040 0.036400 0.411963
v -0.061453 -0.010836 0.260000
v -0.058637 -0.021342 0.260000
v -0.054040 -0.031200 0.260000
v -0.047802 -0.040110 0.260000
v -0.040110 -0.047801 0.260000
v 0.000004 -0.062400 0.260000
v -0.010836 -0.061452 0.260000
v -0.021343 -0.058637 0.260000
v -0.031200 -0.054040 0.260000
vn 0.4012 -0.9160 -0.0010
vn 0.3427 -0.9395 0.0010
vn 0.0000 1.0000 0.0000
vn -0.0000 0.0000 -1.0000
vn -0.0000 -1.0000 0.0000
vn 1.0000 0.0000 0.0000
vn -0.9989 -0.0471 0.0000
vn -0.9837 -0.1797 0.0000
vn -0.9382 -0.3462 0.0000
vn -0.8647 -0.5023 0.0000
vn -0.7654 -0.6435 0.0000
vn -0.6434 -0.7656 0.0000
vn -0.5022 -0.8648 0.0000
vn -0.3460 -0.9382 0.0000
vn -0.1795 -0.9838 0.0000
vn -0.0469 -0.9989 0.0000
vn 0.7071 0.7071 0.0000
vn 0.0000 0.0000 1.0000
vn -0.7071 -0.7071 0.0000
vn 0.0871 0.9962 0.0000
vn 0.2588 0.9659 0.0000
vn 0.4226 0.9063 0.0000
vn 0.5736 0.8191 0.0000
vn 0.8191 0.5736 0.0000
vn 0.9063 0.4226 0.0000
vn 0.9659 0.2588 0.0000
vn 0.9962 0.0871 0.0000
vn 0.1814 0.0000 -0.9834
vn 0.1818 0.0000 -0.9833
vn 0.1818 0.0001 -0.9833
vn 0.1818 -0.0001 -0.9833
vn 0.1819 0.0000 -0.9833
vn 0.1816 0.0000 -0.9834
vn 0.8192 0.0000 0.5736
vn -0.0872 0.0000 0.9962
vn -0.2105 0.0000 -0.9776
vn -0.2106 -0.0000 -0.9776
vn -0.2107 0.0000 -0.9776
vn -0.8660 0.0000 0.5000
vn -1.0000 0.0000 0.0000
vn 0.0872 0.0000 -0.9962
vn -0.1153 0.9933 0.0075
vn 0.9914 -0.1303 -0.0085
vn 0.3710 -0.9286 0.0000
vn -0.3710 0.9286 0.0000
vn 0.3710 0.9286 0.0000
vn -0.5110 0.8596 0.0000
vn -0.5695 0.8220 0.0009
vn -0.5734 0.8193 0.0012
vn -0.6756 0.7373 0.0000
vn -0.6728 0.7398 0.0006
vn -0.7039 0.7103 0.0000
vn -0.7369 0.6760 -0.0001
vn -0.7373 0.6756 0.0000
vn -0.7066 0.7076 0.0044
vn -0.6292 0.7773 -0.0000
vn -0.7771 0.6294 -0.0000
vn -0.8272 0.5619 0.0015
vn -0.7936 0.6084 -0.0035
vn -0.8644 0.5029 0.0018
vn -0.8434 0.5373 0.0000
vn -0.8936 0.4488 0.0000
vn -0.8870 0.4617 -0.0009
vn -0.9293 0.3693 0.0006
vn -0.9239 0.3827 -0.0000
vn -0.9487 0.3162 -0.0000
vn -0.9642 0.2651 0.0015
vn -0.9537 0.3007 -0.0005
vn -0.9784 0.2068 0.0004
vn -0.9763 0.2164 0.0000
vn -0.9914 0.1305 0.0000
vn -0.9990 0.0436 0.0000
vn -0.9962 -0.0871 -0.0041
vn -0.9990 -0.0436 0.0000
vn -0.9659 -0.2588 -0.0042
vn -0.9763 -0.2164 0.0000
vn -0.9914 -0.1305 0.0000
vn -0.9063 -0.4226 -0.0042
vn -0.9239 -0.3827 0.0000
vn -0.9537 -0.3007 0.0000
vn -0.5736 -0.8192 0.0000
vn -0.7933 -0.6088 0.0000
vn -0.8191 -0.5736 -0.0043
vn -0.8434 -0.5373 0.0000
vn -0.8870 -0.4618 0.0000
vn -0.3710 -0.9286 0.0000
vn 0.4504 -0.8928 0.0008
vn 0.6059 -0.7956 0.0000
vn 0.5733 -0.8193 0.0019
vn 0.5343 -0.8453 0.0000
vn 0.4785 -0.8781 0.0000
vn 0.7598 -0.6501 0.0052
vn 0.7283 -0.6852 -0.0005
vn 0.7067 -0.7075 0.0045
vn 0.6756 -0.7373 0.0000
vn 0.6537 -0.7568 0.0043
vn 0.6832 -0.7302 0.0004
vn 0.9402 -0.3405 0.0000
vn 0.9239 -0.3827 0.0000
vn 0.9175 -0.3978 -0.0007
vn 0.8870 -0.4618 0.0005
vn 0.8793 -0.4763 0.0000
vn 0.8434 -0.5373 0.0000
vn 0.8483 -0.5296 0.0004
vn 0.7934 -0.6087 -0.0005
vn 0.7990 -0.6013 0.0000
vn 0.7373 -0.6756 0.0000
vn 0.9962 -0.0871 0.0000
vn 0.9962 0.0871 -0.0043
vn 0.9990 0.0436 0.0000
vn 0.9990 -0.0436 0.0000
vn 0.9659 0.2588 -0.0043
vn 0.9763 0.2164 0.0000
vn 0.9914 0.1305 0.0000
vn 0.9063 0.4226 -0.0043
vn 0.9239 0.3827 0.0000
vn 0.9537 0.3007 0.0000
vn 0.5736 0.8192 0.0000
vn 0.7933 0.6088 0.0000
vn 0.8191 0.5736 -0.0044
vn 0.8434 0.5373 0.0000
vn 0.8870 0.4618 0.0000
vn 0.2827 -0.9592 0.0000
vn 0.2588 -0.9659 0.0009
vn 0.1981 -0.9802 0.0000
vn 0.0872 -0.9962 -0.0000
vn 0.1350 -0.9908 0.0127
vn 0.0488 -0.9988 -0.0000
vn -0.0871 -0.9962 0.0036
vn -0.0763 -0.9971 0.0013
vn -0.0060 -1.0000 0.0000
vn -0.3594 -0.9332 -0.0000
vn -0.3023 -0.9532 -0.0000
vn -0.2588 -0.9659 0.0058
vn -0.2181 -0.9759 0.0000
vn -0.1568 -0.9876 0.0000
vn -0.6646 -0.7472 0.0000
vn -0.6199 -0.7847 0.0000
vn -0.5736 -0.8191 0.0056
vn -0.5492 -0.8357 0.0000
vn -0.4226 -0.9063 -0.0000
vn -0.4900 -0.8715 0.0212
vn -0.4311 -0.9023 0.0045
vn -0.8192 -0.5736 0.0000
vn -0.8500 -0.5265 0.0181
vn -0.8041 -0.5944 0.0006
vn -0.7682 -0.6403 0.0000
vn -0.7332 -0.6799 0.0116
vn -0.6932 -0.7207 0.0038
vn -0.9756 -0.2189 0.0157
vn -0.9659 -0.2588 0.0034
vn -0.9828 -0.1847 -0.0000
vn -0.9606 -0.2778 0.0029
vn -0.9445 -0.3286 0.0000
vn -0.9063 -0.4226 0.0000
vn -0.9210 -0.3893 0.0122
vn -0.8843 -0.4668 -0.0000
vn -0.9853 0.1709 0.0018
vn -0.9946 0.1040 -0.0010
vn -0.9996 0.0299 0.0008
vn -0.9998 0.0196 -0.0000
vn -0.9962 -0.0871 0.0000
vn -0.9989 -0.0432 0.0153
vn -0.9915 -0.1300 -0.0000
vn -0.4554 0.8903 -0.0000
vn -0.4505 0.8928 0.0003
vn -0.3761 0.9266 -0.0002
vn -0.3158 0.9488 -0.0000
vn -0.2588 0.9659 0.0009
vn -0.2370 0.9715 0.0002
vn -0.1794 0.9838 0.0000
vn -0.0871 0.9962 0.0000
vn 0.1849 0.9828 -0.0000
vn 0.1209 0.9927 -0.0000
vn 0.0871 0.9962 0.0054
vn 0.0338 0.9994 0.0000
vn -0.0286 0.9996 0.0000
vn 0.5187 0.8550 0.0000
vn 0.4650 0.8853 -0.0000
vn 0.4226 0.9063 0.0060
vn 0.3861 0.9225 -0.0000
vn 0.3259 0.9452 0.0190
vn 0.2550 0.9669 0.0025
vn 0.7476 0.6639 0.0182
vn 0.7160 0.6980 0.0082
vn 0.6723 0.7402 0.0000
vn 0.6390 0.7688 0.0242
vn 0.5896 0.8077 0.0060
vn 0.9328 0.3596 0.0230
vn 0.9551 0.2964 -0.0000
vn 0.9035 0.4285 0.0027
vn 0.8711 0.4911 0.0000
vn 0.8192 0.5736 0.0000
vn 0.8375 0.5463 0.0106
vn 0.7878 0.6159 0.0000
vn 0.9780 0.2077 0.0181
vn 0.9693 0.2456 0.0099
vn 0.9570 -0.2900 0.0001
vn 0.9739 -0.2270 0.0037
vn 0.9537 -0.3006 -0.0016
vn 0.9810 -0.1938 0.0010
vn 0.9763 -0.2164 0.0000
vn 0.9907 -0.1359 -0.0000
vn 0.9980 -0.0637 0.0029
vn 0.9988 -0.0491 0.0000
vn 0.9979 0.0635 0.0083
vn 0.9887 0.1501 0.0000
vn 0.4226 0.9063 -0.0045
vn 0.4506 0.8928 0.0000
vn 0.0871 -0.9962 0.0000
vn -0.0871 -0.9962 -0.0000
vn -0.2588 -0.9659 0.0000
vn -0.4226 -0.9063 -0.0044
vn -0.4506 -0.8927 0.0000
usemtl None
s off
f 4//1 2//1 1//1
f 2//2 4//2 3//2
f 5//3 6//3 7//3
f 5//4 8//4 6//4
f 6//4 8//4 9//4
f 9//5 8//5 10//5
f 10//5 8//5 11//5
f 8//6 5//6 11//6
f 11//6 5//6 7//6
f 106//4 107//4 108//4
f 108//4 107//4 109//4
f 108//4 109//4 110//4
f 110//4 109//4 111//4
f 110//4 111//4 112//4
f 112//4 111//4 113//4
f 112//4 113//4 114//4
f 114//4 113//4 115//4
f 114//4 115//4 116//4
f 116//4 115//4 117//4
f 116//4 117//4 118//4
f 118//4 117//4 119//4
f 118//4 119//4 120//4
f 120//4 119//4 121//4
f 120//4 121//4 122//4
f 122//4 121//4 123//4
f 122//4 123//4 124//4
f 124//4 123//4 125//4
f 124//3 125//3 126//3
f 126//3 125//3 127//3
f 128//7 129//7 130//7
f 128//7 130//7 131//7
f 131//8 130//8 132//8
f 131//8 132//8 133//8
f 133//9 132//9 134//9
f 133//9 134//9 135//9
f 135//10 134//10 136//10
f 135//10 136//10 137//10
f 137//11 136//11 138//11
f 137//11 138//11 139//11
f 139//12 138//12 140//12
f 139//12 140//12 141//12
f 141//13 140//13 142//13
f 141//13 142//13 143//13
f 143//14 142//14 144//14
f 143//14 144//14 145//14
f 145//15 144//15 146//15
f 145//15 146//15 147//15
f 147//16 146//16 148//16
f 147//16 148//16 149//16
f 152//17 151//17 153//17
f 154//3 155//3 156//3
f 156//3 155//3 157//3
f 156//3 157//3 158//3
f 160//3 159//3 161//3
f 165//4 156//4 166//4
f 166//4 156//4 158//4
f 167//3 168//3 169//3
f 169//3 168//3 170//3
f 169//3 170//3 171//3
f 172//5 173//5 174//5
f 174//5 173//5 175//5
f 174//5 175//5 176//5
f 177//18 148//18 178//18
f 178//18 148//18 146//18
f 178//18 146//18 179//18
f 179//18 146//18 144//18
f 179//18 144//18 180//18
f 180//18 144//18 142//18
f 180//18 142//18 181//18
f 129//18 182//18 130//18
f 130//18 182//18 183//18
f 130//18 183//18 132//18
f 132//18 183//18 184//18
f 132//18 184//18 134//18
f 134//18 184//18 185//18
f 134//18 185//18 136//18
f 136//18 185//18 186//18
f 136//18 186//18 138//18
f 138//18 186//18 181//18
f 138//18 181//18 140//18
f 140//18 181//18 142//18
f 126//18 127//18 187//18
f 187//18 127//18 188//18
f 187//18 188//18 189//18
f 189//18 188//18 190//18
f 189//18 190//18 191//18
f 191//18 190//18 192//18
f 191//18 192//18 193//18
f 193//18 192//18 194//18
f 193//18 194//18 195//18
f 195//18 194//18 196//18
f 195//18 196//18 197//18
f 197//18 196//18 198//18
f 197//18 198//18 199//18
f 199//18 198//18 200//18
f 199//18 200//18 201//18
f 201//18 200//18 202//18
f 201//18 202//18 203//18
f 203//18 202//18 204//18
f 204//6 107//6 203//6
f 203//6 107//6 106//6
f 128//5 205//5 129//5
f 129//5 205//5 182//5
f 208//19 207//19 209//19
f 203//20 106//20 108//20
f 203//20 108//20 201//20
f 201//21 108//21 110//21
f 201//21 110//21 199//21
f 199//22 110//22 112//22
f 199//22 112//22 197//22
f 197//23 112//23 114//23
f 197//23 114//23 195//23
f 195//17 114//17 116//17
f 195//17 116//17 193//17
f 193//24 116//24 118//24
f 193//24 118//24 191//24
f 191//25 118//25 120//25
f 191//25 120//25 189//25
f 189//26 120//26 122//26
f 189//26 122//26 187//26
f 187//27 122//27 124//27
f 187//27 124//27 126//27
f 208//17 207//17 206//17
f 152//19 151//19 150//19
f 210//28 211//28 157//28
f 172//29 174//29 212//29
f 210//29 157//29 213//29
f 168//29 172//29 155//29
f 155//29 172//29 212//29
f 155//29 212//29 157//29
f 157//30 212//30 214//30
f 157//29 214//29 215//29
f 216//29 170//29 168//29
f 217//31 216//31 218//31
f 218//29 216//29 168//29
f 218//29 168//29 219//29
f 219//29 168//29 155//29
f 220//29 221//29 157//29
f 157//29 221//29 222//29
f 157//32 222//32 213//32
f 211//33 223//33 218//33
f 218//29 223//29 224//29
f 218//29 224//29 225//29
f 215//29 226//29 157//29
f 157//29 226//29 227//29
f 157//29 227//29 220//29
f 225//29 228//29 218//29
f 218//29 228//29 229//29
f 218//29 229//29 230//29
f 230//29 231//29 218//29
f 218//29 231//29 232//29
f 218//29 232//29 217//29
f 173//34 172//34 167//34
f 167//34 172//34 168//34
f 175//35 173//35 169//35
f 169//35 173//35 167//35
f 175//18 169//18 176//18
f 176//18 169//18 171//18
f 176//18 171//18 233//18
f 233//18 171//18 234//18
f 235//18 236//18 237//18
f 237//18 236//18 238//18
f 237//18 238//18 239//18
f 234//18 171//18 240//18
f 240//18 171//18 241//18
f 240//18 241//18 242//18
f 239//18 243//18 237//18
f 237//18 243//18 240//18
f 237//18 240//18 244//18
f 242//18 245//18 240//18
f 240//18 245//18 246//18
f 240//18 246//18 244//18
f 236//5 247//5 238//5
f 238//5 247//5 248//5
f 249//3 250//3 237//3
f 237//3 250//3 235//3
f 251//36 252//36 163//36
f 250//37 249//37 253//37
f 251//37 163//37 254//37
f 247//37 250//37 164//37
f 164//37 250//37 253//37
f 164//37 253//37 163//37
f 163//37 253//37 255//37
f 163//37 255//37 256//37
f 257//37 248//37 247//37
f 258//37 257//37 161//37
f 161//37 257//37 247//37
f 161//37 247//37 160//37
f 160//37 247//37 164//37
f 259//37 260//37 163//37
f 163//36 260//36 261//36
f 163//37 261//37 254//37
f 252//38 262//38 161//38
f 161//37 262//37 263//37
f 161//37 263//37 264//37
f 256//37 265//37 163//37
f 163//37 265//37 266//37
f 163//36 266//36 259//36
f 264//36 267//36 161//36
f 161//37 267//37 268//37
f 161//36 268//36 269//36
f 269//37 270//37 161//37
f 161//37 270//37 271//37
f 161//37 271//37 258//37
f 235//39 250//39 236//39
f 236//39 250//39 247//39
f 272//40 219//40 154//40
f 154//40 219//40 155//40
f 154//41 156//41 272//41
f 272//41 156//41 165//41
f 219//5 272//5 218//5
f 218//5 272//5 165//5
f 218//5 165//5 166//5
f 218//6 166//6 211//6
f 211//6 166//6 158//6
f 211//6 158//6 157//6
f 161//40 159//40 252//40
f 252//40 159//40 162//40
f 252//40 162//40 163//40
f 205//4 128//4 273//4
f 273//4 128//4 131//4
f 273//4 131//4 274//4
f 274//4 131//4 133//4
f 274//4 133//4 275//4
f 275//4 133//4 135//4
f 275//4 135//4 276//4
f 276//4 135//4 137//4
f 276//4 137//4 277//4
f 149//4 278//4 147//4
f 147//4 278//4 279//4
f 147//4 279//4 145//4
f 145//4 279//4 280//4
f 145//4 280//4 143//4
f 143//4 280//4 281//4
f 143//4 281//4 141//4
f 141//4 281//4 277//4
f 141//4 277//4 139//4
f 139//4 277//4 137//4
f 177//40 278//40 148//40
f 148//40 278//40 149//40
f 36//42 35//42 204//42
f 210//43 213//43 125//43
f 174//44 176//44 233//44
f 249//45 237//45 244//45
f 241//46 171//46 170//46
f 30//47 29//47 253//47
f 253//48 29//48 28//48
f 253//49 28//49 255//49
f 57//50 150//50 151//50
f 57//51 56//51 150//51
f 150//52 56//52 55//52
f 150//53 55//53 54//53
f 150//54 54//54 151//54
f 151//54 54//54 256//54
f 151//55 256//55 255//55
f 151//50 255//50 57//50
f 57//56 255//56 28//56
f 54//57 53//57 256//57
f 256//58 53//58 52//58
f 256//59 52//59 265//59
f 265//60 52//60 51//60
f 265//61 51//61 266//61
f 266//62 51//62 50//62
f 266//63 50//63 259//63
f 259//64 50//64 49//64
f 259//65 49//65 260//65
f 49//66 48//66 260//66
f 260//67 48//67 65//67
f 260//68 65//68 261//68
f 261//69 65//69 64//69
f 261//70 64//70 254//70
f 254//71 64//71 251//71
f 182//72 205//72 251//72
f 273//73 262//73 205//73
f 205//74 262//74 252//74
f 205//72 252//72 251//72
f 274//75 264//75 273//75
f 273//76 264//76 263//76
f 273//77 263//77 262//77
f 275//78 268//78 274//78
f 274//79 268//79 267//79
f 274//80 267//80 264//80
f 281//81 258//81 277//81
f 277//19 258//19 271//19
f 277//19 271//19 276//19
f 276//82 271//82 270//82
f 276//83 270//83 275//83
f 275//84 270//84 269//84
f 275//85 269//85 268//85
f 239//86 238//86 248//86
f 174//87 77//87 212//87
f 74//88 214//88 75//88
f 75//89 214//89 212//89
f 75//90 212//90 76//90
f 76//91 212//91 77//91
f 102//92 206//92 103//92
f 103//93 206//93 104//93
f 215//94 214//94 207//94
f 207//95 214//95 74//95
f 207//95 74//95 206//95
f 206//96 74//96 105//96
f 206//97 105//97 104//97
f 99//98 221//98 95//98
f 95//99 221//99 220//99
f 95//100 220//100 96//100
f 96//101 220//101 227//101
f 96//102 227//102 100//102
f 100//103 227//103 226//103
f 100//104 226//104 101//104
f 101//105 226//105 215//105
f 101//106 215//106 102//106
f 102//107 215//107 207//107
f 102//107 207//107 206//107
f 125//108 213//108 127//108
f 123//109 223//109 125//109
f 125//110 223//110 211//110
f 125//111 211//111 210//111
f 121//112 225//112 123//112
f 123//113 225//113 224//113
f 123//114 224//114 223//114
f 119//115 229//115 121//115
f 121//116 229//116 228//116
f 121//117 228//117 225//117
f 113//118 217//118 115//118
f 115//17 217//17 232//17
f 115//17 232//17 117//17
f 117//119 232//119 231//119
f 117//120 231//120 119//120
f 119//121 231//121 230//121
f 119//122 230//122 229//122
f 78//44 174//44 233//44
f 78//123 233//123 79//123
f 79//124 233//124 234//124
f 79//125 234//125 80//125
f 234//126 278//126 80//126
f 80//126 278//126 177//126
f 80//127 177//127 81//127
f 81//128 177//128 82//128
f 178//129 84//129 177//129
f 177//130 84//130 83//130
f 177//131 83//131 82//131
f 88//132 87//132 179//132
f 179//133 87//133 86//133
f 179//134 86//134 178//134
f 178//135 86//135 85//135
f 178//136 85//136 84//136
f 93//137 92//137 181//137
f 181//138 92//138 91//138
f 181//139 91//139 180//139
f 180//140 91//140 90//140
f 180//141 90//141 179//141
f 179//142 90//142 89//142
f 179//143 89//143 88//143
f 185//144 69//144 186//144
f 186//145 69//145 68//145
f 68//146 67//146 186//146
f 186//147 67//147 66//147
f 186//19 66//19 181//19
f 181//148 66//148 94//148
f 181//149 94//149 93//149
f 73//150 184//150 58//150
f 58//151 184//151 183//151
f 58//152 183//152 59//152
f 73//153 72//153 184//153
f 184//154 72//154 71//154
f 184//155 71//155 185//155
f 185//156 71//156 70//156
f 185//157 70//157 69//157
f 64//158 63//158 251//158
f 251//159 63//159 62//159
f 251//160 62//160 182//160
f 182//161 62//161 61//161
f 182//162 61//162 183//162
f 183//163 61//163 60//163
f 183//164 60//164 59//164
f 30//165 253//165 31//165
f 31//166 253//166 249//166
f 31//167 249//167 32//167
f 32//45 249//45 244//45
f 32//168 244//168 33//168
f 33//169 244//169 246//169
f 33//170 246//170 34//170
f 34//171 246//171 35//171
f 35//172 246//172 107//172
f 35//172 107//172 204//172
f 40//173 39//173 202//173
f 202//174 39//174 38//174
f 202//175 38//175 204//175
f 204//176 38//176 37//176
f 204//177 37//177 36//177
f 45//178 44//178 198//178
f 198//179 44//179 43//179
f 198//180 43//180 200//180
f 200//181 43//181 42//181
f 200//21 42//21 202//21
f 202//182 42//182 41//182
f 202//183 41//183 40//183
f 194//17 19//17 196//17
f 196//184 19//184 20//184
f 20//185 21//185 196//185
f 196//186 21//186 47//186
f 196//118 47//118 198//118
f 198//187 47//187 46//187
f 198//188 46//188 45//188
f 25//189 192//189 26//189
f 26//25 192//25 190//25
f 26//190 190//190 27//190
f 25//191 24//191 192//191
f 192//192 24//192 23//192
f 192//193 23//193 194//193
f 194//194 23//194 22//194
f 194//195 22//195 19//195
f 188//26 14//26 190//26
f 190//196 14//196 13//196
f 190//197 13//197 27//197
f 99//198 98//198 221//198
f 221//199 98//199 97//199
f 221//200 97//200 222//200
f 222//201 97//201 18//201
f 222//202 18//202 213//202
f 213//203 18//203 17//203
f 213//204 17//204 127//204
f 127//205 17//205 16//205
f 127//27 16//27 188//27
f 188//206 16//206 15//206
f 188//207 15//207 14//207
f 246//172 245//172 107//172
f 107//20 245//20 242//20
f 107//20 242//20 109//20
f 109//21 242//21 241//21
f 109//21 241//21 111//21
f 111//46 241//46 170//46
f 111//208 170//208 113//208
f 113//209 170//209 216//209
f 113//118 216//118 217//118
f 234//210 240//210 278//210
f 278//211 240//211 243//211
f 278//211 243//211 279//211
f 279//212 243//212 239//212
f 279//212 239//212 280//212
f 280//86 239//86 248//86
f 280//213 248//213 281//213
f 281//214 248//214 257//214
f 281//81 257//81 258//81
