# Blender v3.6.0 OBJ File: 'Valves.blend'
# www.blender.org
mtllib ValveDiaphragm.mtl
o 3_ValveDiaphragm_Element_ValveDiaphragm_Element.001
v 0.425000 0.000000 0.565000
v 0.356051 -0.037422 0.815000
v 0.422672 -0.044424 0.565000
v 0.350189 -0.074434 0.815000
v 0.415713 -0.088363 0.565000
v 0.340490 -0.110632 0.815000
v 0.404199 -0.131332 0.565000
v 0.327061 -0.145617 0.815000
v 0.388257 -0.172863 0.565000
v 0.310048 -0.179007 0.815000
v 0.368061 -0.212500 0.565000
v 0.289638 -0.210435 0.815000
v 0.343832 -0.249809 0.565000
v 0.266055 -0.239557 0.815000
v 0.315837 -0.284380 0.565000
v 0.239557 -0.266055 0.815000
v 0.284380 -0.315837 0.565000
v 0.210435 -0.289638 0.815000
v 0.249809 -0.343832 0.565000
v 0.179006 -0.310048 0.815000
v 0.212500 -0.368061 0.565000
v 0.145617 -0.327061 0.815000
v 0.172863 -0.388257 0.565000
v 0.110632 -0.340490 0.815000
v 0.131332 -0.404199 0.565000
v 0.074435 -0.350189 0.815000
v 0.088362 -0.415712 0.565000
v 0.037422 -0.356051 0.815000
v 0.044425 -0.422671 0.565000
v 0.000000 -0.358012 0.815000
v 0.000000 -0.425000 0.565000
v -0.037422 -0.356051 0.815000
v -0.044425 -0.422671 0.565000
v -0.074435 -0.350189 0.815000
v -0.088363 -0.415712 0.565000
v -0.110632 -0.340490 0.815000
v -0.131332 -0.404199 0.565000
v -0.145617 -0.327061 0.815000
v -0.172863 -0.388257 0.565000
v -0.179006 -0.310048 0.815000
v -0.212500 -0.368061 0.565000
v -0.210435 -0.289638 0.815000
v -0.249809 -0.343832 0.565000
v -0.239557 -0.266055 0.815000
v -0.284380 -0.315837 0.565000
v -0.266055 -0.239557 0.815000
v -0.315837 -0.284380 0.565000
v -0.289638 -0.210435 0.815000
v -0.343832 -0.249809 0.565000
v -0.310048 -0.179007 0.815000
v -0.368061 -0.212500 0.565000
v -0.327061 -0.145617 0.815000
v -0.388257 -0.172863 0.565000
v -0.340490 -0.110632 0.815000
v -0.404199 -0.131332 0.565000
v -0.350189 -0.074434 0.815000
v -0.415713 -0.088363 0.565000
v -0.356052 -0.037422 0.815000
v -0.422672 -0.044424 0.565000
v -0.358013 0.000000 0.815000
v -0.425000 0.000000 0.565000
v -0.356052 0.037422 0.815000
v -0.422672 0.044425 0.565000
v -0.350189 0.074435 0.815000
v -0.415713 0.088363 0.565000
v -0.340490 0.110632 0.815000
v -0.404199 0.131332 0.565000
v -0.327061 0.145617 0.815000
v -0.388257 0.172863 0.565000
v -0.310048 0.179007 0.815000
v -0.368061 0.212501 0.565000
v -0.289638 0.210435 0.815000
v -0.343832 0.249809 0.565000
v -0.266055 0.239557 0.815000
v -0.315837 0.284381 0.565000
v -0.239557 0.266055 0.815000
v -0.284380 0.315837 0.565000
v -0.210435 0.289639 0.815000
v -0.249809 0.343833 0.565000
v -0.179006 0.310048 0.815000
v -0.212500 0.368061 0.565000
v -0.145617 0.327062 0.815000
v -0.172863 0.388257 0.565000
v -0.110632 0.340490 0.815000
v -0.131332 0.404200 0.565000
v -0.074435 0.350189 0.815000
v -0.088363 0.415713 0.565000
v -0.037422 0.356051 0.815000
v -0.044425 0.422671 0.565000
v 0.000000 0.358013 0.815000
v 0.000000 0.425000 0.565000
v 0.037422 0.356051 0.815000
v 0.044425 0.422671 0.565000
v 0.074435 0.350189 0.815000
v 0.088362 0.415713 0.565000
v 0.110632 0.340490 0.815000
v 0.131332 0.404200 0.565000
v 0.145617 0.327062 0.815000
v 0.172863 0.388257 0.565000
v 0.179006 0.310048 0.815000
v 0.212500 0.368061 0.565000
v 0.210435 0.289639 0.815000
v 0.249809 0.343833 0.565000
v 0.239557 0.266055 0.815000
v 0.284380 0.315837 0.565000
v 0.266055 0.239557 0.815000
v 0.315837 0.284381 0.565000
v 0.289638 0.210435 0.815000
v 0.343832 0.249809 0.565000
v 0.310048 0.179007 0.815000
v 0.368061 0.212501 0.565000
v 0.327061 0.145617 0.815000
v 0.388257 0.172863 0.565000
v 0.340490 0.110632 0.815000
v 0.404199 0.131332 0.565000
v 0.350189 0.074435 0.815000
v 0.415713 0.088363 0.565000
v 0.356051 0.037422 0.815000
v 0.422672 0.044425 0.565000
v 0.358013 0.000000 0.815000
v 0.000000 0.000000 0.815000
v 0.044425 -0.422671 0.505000
v 0.088362 -0.415712 0.505000
v 0.131332 -0.404199 0.505000
v 0.172863 -0.388257 0.505000
v 0.212500 -0.368061 0.505000
v 0.249809 -0.343832 0.505000
v 0.284380 -0.315837 0.505000
v 0.315837 -0.284380 0.505000
v 0.343832 -0.249809 0.505000
v 0.368061 -0.212500 0.505000
v 0.388257 -0.172863 0.505000
v 0.404199 -0.131332 0.505000
v 0.415713 -0.088363 0.505000
v 0.422672 -0.044424 0.505000
v 0.425000 0.000000 0.505000
v 0.422672 0.044425 0.505000
v 0.415713 0.088363 0.505000
v 0.404199 0.131332 0.505000
v 0.388257 0.172863 0.505000
v 0.368061 0.212501 0.505000
v 0.343832 0.249809 0.505000
v 0.315837 0.284381 0.505000
v 0.284380 0.315837 0.505000
v 0.249809 0.343833 0.505000
v 0.212500 0.368061 0.505000
v 0.172863 0.388257 0.505000
v 0.131332 0.404200 0.505000
v 0.088362 0.415713 0.505000
v 0.044425 0.422671 0.505000
v 0.000000 0.425000 0.505000
v -0.044425 0.422671 0.505000
v -0.088363 0.415713 0.505000
v -0.131332 0.404200 0.505000
v -0.172863 0.388257 0.505000
v -0.212500 0.368061 0.505000
v -0.249809 0.343833 0.505000
v -0.284380 0.315837 0.505000
v -0.315837 0.284381 0.505000
v -0.343832 0.249809 0.505000
v -0.368061 0.212501 0.505000
v -0.388257 0.172863 0.505000
v -0.404199 0.131332 0.505000
v -0.415713 0.088363 0.505000
v -0.422672 0.044425 0.505000
v -0.425000 0.000000 0.505000
v -0.422672 -0.044424 0.505000
v -0.415713 -0.088363 0.505000
v -0.404199 -0.131332 0.505000
v -0.388257 -0.172863 0.505000
v -0.368061 -0.212500 0.505000
v -0.343832 -0.249809 0.505000
v -0.315837 -0.284380 0.505000
v -0.284380 -0.315837 0.505000
v -0.249809 -0.343832 0.505000
v -0.212500 -0.368061 0.505000
v -0.172863 -0.388257 0.505000
v -0.131332 -0.404199 0.505000
v -0.088363 -0.415712 0.505000
v -0.044425 -0.422671 0.505000
v 0.000000 -0.425000 0.505000
v 0.000000 0.000000 0.505000
vn 0.9647 -0.0506 0.2585
vn 0.9541 -0.1511 0.2585
vn 0.9331 -0.2500 0.2585
vn 0.9019 -0.3462 0.2585
vn 0.8607 -0.4386 0.2585
vn 0.8102 -0.5261 0.2585
vn 0.7507 -0.6079 0.2585
vn 0.6831 -0.6831 0.2585
vn 0.6079 -0.7507 0.2585
vn 0.5261 -0.8102 0.2585
vn 0.4386 -0.8607 0.2585
vn 0.3462 -0.9019 0.2585
vn 0.2500 -0.9331 0.2585
vn 0.1511 -0.9541 0.2585
vn 0.0506 -0.9647 0.2585
vn -0.0506 -0.9647 0.2585
vn -0.1511 -0.9541 0.2585
vn -0.2500 -0.9331 0.2585
vn -0.3462 -0.9019 0.2585
vn -0.4386 -0.8607 0.2585
vn -0.5261 -0.8102 0.2585
vn -0.6079 -0.7507 0.2585
vn -0.6831 -0.6831 0.2585
vn -0.7507 -0.6079 0.2585
vn -0.8102 -0.5261 0.2585
vn -0.8607 -0.4386 0.2585
vn -0.9019 -0.3462 0.2585
vn -0.9331 -0.2500 0.2585
vn -0.9541 -0.1511 0.2585
vn -0.9647 -0.0506 0.2585
vn -0.9647 0.0506 0.2585
vn -0.9541 0.1511 0.2585
vn -0.9331 0.2500 0.2585
vn -0.9019 0.3462 0.2585
vn -0.8607 0.4386 0.2585
vn -0.8102 0.5261 0.2585
vn -0.7507 0.6079 0.2585
vn -0.6831 0.6831 0.2585
vn -0.6079 0.7507 0.2585
vn -0.6080 0.7507 0.2585
vn -0.5261 0.8102 0.2585
vn -0.4386 0.8607 0.2585
vn -0.3462 0.9018 0.2585
vn -0.3462 0.9019 0.2585
vn -0.2500 0.9331 0.2585
vn -0.1511 0.9541 0.2585
vn -0.0506 0.9647 0.2585
vn 0.0506 0.9647 0.2585
vn 0.1511 0.9541 0.2585
vn 0.2500 0.9331 0.2585
vn 0.3462 0.9018 0.2585
vn 0.3462 0.9019 0.2585
vn 0.4386 0.8607 0.2585
vn 0.5261 0.8102 0.2585
vn 0.6079 0.7507 0.2585
vn 0.6080 0.7507 0.2585
vn 0.6831 0.6831 0.2585
vn 0.7507 0.6079 0.2585
vn 0.8102 0.5261 0.2585
vn 0.8607 0.4386 0.2585
vn 0.9019 0.3462 0.2585
vn 0.9331 0.2500 0.2585
vn 0.9541 0.1511 0.2585
vn 0.9647 0.0506 0.2585
vn 0.0000 0.0000 1.0000
vn 0.0524 -0.9986 0.0000
vn 0.1564 -0.9877 0.0000
vn 0.2588 -0.9659 0.0000
vn 0.3584 -0.9336 0.0000
vn 0.4540 -0.8910 0.0000
vn 0.5446 -0.8387 0.0000
vn 0.6293 -0.7771 0.0000
vn 0.7071 -0.7071 0.0000
vn 0.7771 -0.6293 0.0000
vn 0.8387 -0.5446 0.0000
vn 0.8910 -0.4540 0.0000
vn 0.9336 -0.3584 0.0000
vn 0.9659 -0.2588 0.0000
vn 0.9877 -0.1564 0.0000
vn 0.9986 -0.0523 0.0000
vn 0.9986 0.0523 -0.0000
vn 0.9877 0.1564 -0.0000
vn 0.9659 0.2588 0.0000
vn 0.9336 0.3584 0.0000
vn 0.8910 0.4540 0.0000
vn 0.8387 0.5447 0.0000
vn 0.7772 0.6293 0.0000
vn 0.7071 0.7071 0.0000
vn 0.6293 0.7771 0.0000
vn 0.5446 0.8387 0.0000
vn 0.4540 0.8910 0.0000
vn 0.3584 0.9336 0.0000
vn 0.2588 0.9659 0.0000
vn 0.1564 0.9877 0.0000
vn 0.0524 0.9986 0.0000
vn -0.0524 0.9986 0.0000
vn -0.1564 0.9877 0.0000
vn -0.2588 0.9659 0.0000
vn -0.3584 0.9336 0.0000
vn -0.4540 0.8910 0.0000
vn -0.5446 0.8387 0.0000
vn -0.6293 0.7771 0.0000
vn -0.7071 0.7071 0.0000
vn -0.7772 0.6293 0.0000
vn -0.8387 0.5447 0.0000
vn -0.8910 0.4540 0.0000
vn -0.9336 0.3584 0.0000
vn -0.9659 0.2588 0.0000
vn -0.9877 0.1564 -0.0000
vn -0.9986 0.0523 -0.0000
vn -0.9986 -0.0523 0.0000
vn -0.9877 -0.1564 0.0000
vn -0.9659 -0.2588 0.0000
vn -0.9336 -0.3584 0.0000
vn -0.8910 -0.4540 0.0000
vn -0.8387 -0.5446 0.0000
vn -0.7771 -0.6293 0.0000
vn -0.7071 -0.7071 0.0000
vn -0.6293 -0.7771 0.0000
vn -0.5446 -0.8387 0.0000
vn -0.4540 -0.8910 0.0000
vn -0.3584 -0.9336 0.0000
vn -0.2588 -0.9659 0.0000
vn -0.1564 -0.9877 0.0000
vn -0.0524 -0.9986 0.0000
vn 0.0000 -0.0000 -1.0000
usemtl None.007
s 1
f 1//1 2//1 3//1
f 3//2 2//2 4//2
f 3//2 4//2 5//2
f 5//3 4//3 6//3
f 5//3 6//3 7//3
f 7//4 6//4 8//4
f 7//4 8//4 9//4
f 9//5 8//5 10//5
f 9//5 10//5 11//5
f 11//6 10//6 12//6
f 11//6 12//6 13//6
f 13//7 12//7 14//7
f 13//7 14//7 15//7
f 15//8 14//8 16//8
f 15//8 16//8 17//8
f 17//9 16//9 18//9
f 17//9 18//9 19//9
f 19//10 18//10 20//10
f 19//10 20//10 21//10
f 21//11 20//11 22//11
f 21//11 22//11 23//11
f 23//12 22//12 24//12
f 23//12 24//12 25//12
f 25//13 24//13 26//13
f 25//13 26//13 27//13
f 27//14 26//14 28//14
f 27//14 28//14 29//14
f 29//15 28//15 30//15
f 29//15 30//15 31//15
f 31//16 30//16 32//16
f 31//16 32//16 33//16
f 33//17 32//17 34//17
f 33//17 34//17 35//17
f 35//18 34//18 36//18
f 35//18 36//18 37//18
f 37//19 36//19 38//19
f 37//19 38//19 39//19
f 39//20 38//20 40//20
f 39//20 40//20 41//20
f 41//21 40//21 42//21
f 41//21 42//21 43//21
f 43//22 42//22 44//22
f 43//22 44//22 45//22
f 45//23 44//23 46//23
f 45//23 46//23 47//23
f 47//24 46//24 48//24
f 47//24 48//24 49//24
f 49//25 48//25 50//25
f 49//25 50//25 51//25
f 51//26 50//26 52//26
f 51//26 52//26 53//26
f 53//27 52//27 54//27
f 53//27 54//27 55//27
f 55//28 54//28 56//28
f 55//28 56//28 57//28
f 57//29 56//29 58//29
f 57//29 58//29 59//29
f 59//30 58//30 60//30
f 59//30 60//30 61//30
f 61//31 60//31 62//31
f 61//31 62//31 63//31
f 63//32 62//32 64//32
f 63//32 64//32 65//32
f 65//33 64//33 66//33
f 65//33 66//33 67//33
f 67//34 66//34 68//34
f 67//34 68//34 69//34
f 69//35 68//35 70//35
f 69//35 70//35 71//35
f 71//36 70//36 72//36
f 71//36 72//36 73//36
f 73//37 72//37 74//37
f 73//37 74//37 75//37
f 75//38 74//38 76//38
f 75//38 76//38 77//38
f 77//39 76//40 78//40
f 77//39 78//40 79//39
f 79//41 78//41 80//41
f 79//41 80//41 81//41
f 81//42 80//42 82//42
f 81//42 82//42 83//42
f 83//43 82//44 84//44
f 83//43 84//44 85//43
f 85//45 84//45 86//45
f 85//45 86//45 87//45
f 87//46 86//46 88//46
f 87//46 88//46 89//46
f 89//47 88//47 90//47
f 89//47 90//47 91//47
f 91//48 90//48 92//48
f 91//48 92//48 93//48
f 93//49 92//49 94//49
f 93//49 94//49 95//49
f 95//50 94//50 96//50
f 95//50 96//50 97//50
f 97//51 96//52 98//52
f 97//51 98//52 99//51
f 99//53 98//53 100//53
f 99//53 100//53 101//53
f 101//54 100//54 102//54
f 101//54 102//54 103//54
f 103//55 102//56 104//56
f 103//55 104//56 105//55
f 105//57 104//57 106//57
f 105//57 106//57 107//57
f 107//58 106//58 108//58
f 107//58 108//58 109//58
f 109//59 108//59 110//59
f 109//59 110//59 111//59
f 111//60 110//60 112//60
f 111//60 112//60 113//60
f 113//61 112//61 114//61
f 113//61 114//61 115//61
f 115//62 114//62 116//62
f 115//62 116//62 117//62
f 117//63 116//63 118//63
f 117//63 118//63 119//63
f 119//64 118//64 120//64
f 119//64 120//64 1//64
f 1//1 120//1 2//1
f 64//65 62//65 121//65
f 121//65 62//65 60//65
f 121//65 60//65 58//65
f 70//65 68//65 121//65
f 121//65 68//65 66//65
f 121//65 66//65 64//65
f 76//65 74//65 121//65
f 121//65 74//65 72//65
f 121//65 72//65 70//65
f 82//65 80//65 121//65
f 121//65 80//65 78//65
f 121//65 78//65 76//65
f 88//65 86//65 121//65
f 121//65 86//65 84//65
f 121//65 84//65 82//65
f 94//65 92//65 121//65
f 121//65 92//65 90//65
f 121//65 90//65 88//65
f 100//65 98//65 121//65
f 121//65 98//65 96//65
f 121//65 96//65 94//65
f 106//65 104//65 121//65
f 121//65 104//65 102//65
f 121//65 102//65 100//65
f 112//65 110//65 121//65
f 121//65 110//65 108//65
f 121//65 108//65 106//65
f 118//65 116//65 121//65
f 121//65 116//65 114//65
f 121//65 114//65 112//65
f 4//65 2//65 121//65
f 121//65 2//65 120//65
f 121//65 120//65 118//65
f 10//65 8//65 121//65
f 121//65 8//65 6//65
f 121//65 6//65 4//65
f 16//65 14//65 121//65
f 121//65 14//65 12//65
f 121//65 12//65 10//65
f 22//65 20//65 121//65
f 121//65 20//65 18//65
f 121//65 18//65 16//65
f 28//65 26//65 121//65
f 121//65 26//65 24//65
f 121//65 24//65 22//65
f 34//65 32//65 121//65
f 121//65 32//65 30//65
f 121//65 30//65 28//65
f 40//65 38//65 121//65
f 121//65 38//65 36//65
f 121//65 36//65 34//65
f 46//65 44//65 121//65
f 121//65 44//65 42//65
f 121//65 42//65 40//65
f 52//65 50//65 121//65
f 121//65 50//65 48//65
f 121//65 48//65 46//65
f 58//65 56//65 121//65
f 121//65 56//65 54//65
f 121//65 54//65 52//65
f 31//66 122//66 29//66
f 29//67 122//67 123//67
f 29//67 123//67 27//67
f 27//68 123//68 124//68
f 27//68 124//68 25//68
f 25//69 124//69 125//69
f 25//69 125//69 23//69
f 23//70 125//70 126//70
f 23//70 126//70 21//70
f 21//71 126//71 127//71
f 21//71 127//71 19//71
f 19//72 127//72 128//72
f 19//72 128//72 17//72
f 17//73 128//73 129//73
f 17//73 129//73 15//73
f 15//74 129//74 130//74
f 15//74 130//74 13//74
f 13//75 130//75 131//75
f 13//75 131//75 11//75
f 11//76 131//76 132//76
f 11//76 132//76 9//76
f 9//77 132//77 133//77
f 9//77 133//77 7//77
f 7//78 133//78 134//78
f 7//78 134//78 5//78
f 5//79 134//79 135//79
f 5//79 135//79 3//79
f 3//80 135//80 136//80
f 3//80 136//80 1//80
f 1//81 136//81 137//81
f 1//81 137//81 119//81
f 119//82 137//82 138//82
f 119//82 138//82 117//82
f 117//83 138//83 139//83
f 117//83 139//83 115//83
f 115//84 139//84 140//84
f 115//84 140//84 113//84
f 113//85 140//85 141//85
f 113//85 141//85 111//85
f 111//86 141//86 142//86
f 111//86 142//86 109//86
f 109//87 142//87 143//87
f 109//87 143//87 107//87
f 107//88 143//88 144//88
f 107//88 144//88 105//88
f 105//89 144//89 145//89
f 105//89 145//89 103//89
f 103//90 145//90 146//90
f 103//90 146//90 101//90
f 101//91 146//91 147//91
f 101//91 147//91 99//91
f 99//92 147//92 148//92
f 99//92 148//92 97//92
f 97//93 148//93 149//93
f 97//93 149//93 95//93
f 95//94 149//94 150//94
f 95//94 150//94 93//94
f 93//95 150//95 151//95
f 93//95 151//95 91//95
f 91//96 151//96 152//96
f 91//96 152//96 89//96
f 89//97 152//97 153//97
f 89//97 153//97 87//97
f 87//98 153//98 154//98
f 87//98 154//98 85//98
f 85//99 154//99 155//99
f 85//99 155//99 83//99
f 83//100 155//100 156//100
f 83//100 156//100 81//100
f 81//101 156//101 157//101
f 81//101 157//101 79//101
f 79//102 157//102 158//102
f 79//102 158//102 77//102
f 77//103 158//103 159//103
f 77//103 159//103 75//103
f 75//104 159//104 160//104
f 75//104 160//104 73//104
f 73//105 160//105 161//105
f 73//105 161//105 71//105
f 71//106 161//106 162//106
f 71//106 162//106 69//106
f 69//107 162//107 163//107
f 69//107 163//107 67//107
f 67//108 163//108 164//108
f 67//108 164//108 65//108
f 65//109 164//109 165//109
f 65//109 165//109 63//109
f 63//110 165//110 166//110
f 63//110 166//110 61//110
f 61//111 166//111 167//111
f 61//111 167//111 59//111
f 59//112 167//112 168//112
f 59//112 168//112 57//112
f 57//113 168//113 169//113
f 57//113 169//113 55//113
f 55//114 169//114 170//114
f 55//114 170//114 53//114
f 53//115 170//115 171//115
f 53//115 171//115 51//115
f 51//116 171//116 172//116
f 51//116 172//116 49//116
f 49//117 172//117 173//117
f 49//117 173//117 47//117
f 47//118 173//118 174//118
f 47//118 174//118 45//118
f 45//119 174//119 175//119
f 45//119 175//119 43//119
f 43//120 175//120 176//120
f 43//120 176//120 41//120
f 41//121 176//121 177//121
f 41//121 177//121 39//121
f 39//122 177//122 178//122
f 39//122 178//122 37//122
f 37//123 178//123 179//123
f 37//123 179//123 35//123
f 35//124 179//124 180//124
f 35//124 180//124 33//124
f 33//125 180//125 181//125
f 33//125 181//125 31//125
f 31//66 181//66 122//66
f 123//126 122//126 182//126
f 182//126 122//126 181//126
f 182//126 181//126 180//126
f 126//126 125//126 182//126
f 182//126 125//126 124//126
f 182//126 124//126 123//126
f 129//126 128//126 182//126
f 182//126 128//126 127//126
f 182//126 127//126 126//126
f 132//126 131//126 182//126
f 182//126 131//126 130//126
f 182//126 130//126 129//126
f 135//126 134//126 182//126
f 182//126 134//126 133//126
f 182//126 133//126 132//126
f 138//126 137//126 182//126
f 182//126 137//126 136//126
f 182//126 136//126 135//126
f 141//126 140//126 182//126
f 182//126 140//126 139//126
f 182//126 139//126 138//126
f 144//126 143//126 182//126
f 182//126 143//126 142//126
f 182//126 142//126 141//126
f 147//126 146//126 182//126
f 182//126 146//126 145//126
f 182//126 145//126 144//126
f 150//126 149//126 182//126
f 182//126 149//126 148//126
f 182//126 148//126 147//126
f 153//126 152//126 182//126
f 182//126 152//126 151//126
f 182//126 151//126 150//126
f 156//126 155//126 182//126
f 182//126 155//126 154//126
f 182//126 154//126 153//126
f 159//126 158//126 182//126
f 182//126 158//126 157//126
f 182//126 157//126 156//126
f 162//126 161//126 182//126
f 182//126 161//126 160//126
f 182//126 160//126 159//126
f 165//126 164//126 182//126
f 182//126 164//126 163//126
f 182//126 163//126 162//126
f 168//126 167//126 182//126
f 182//126 167//126 166//126
f 182//126 166//126 165//126
f 171//126 170//126 182//126
f 182//126 170//126 169//126
f 182//126 169//126 168//126
f 174//126 173//126 182//126
f 182//126 173//126 172//126
f 182//126 172//126 171//126
f 177//126 176//126 182//126
f 182//126 176//126 175//126
f 182//126 175//126 174//126
f 180//126 179//126 182//126
f 182//126 179//126 178//126
f 182//126 178//126 177//126
