# Blender v3.6.0 OBJ File: 'Valves.blend'
# www.blender.org
mtllib ValveDrainTank_17_Element.mtl
o ValveDrainTank_17_Element_ValveDrainTank_17.001
v 0.083680 -0.007321 0.417827
v 0.084000 -0.000000 0.417884
v 0.084000 -0.049000 0.417884
v 0.502219 -0.077000 0.491793
v 0.033571 -0.077000 0.408972
v 0.042000 -0.072746 0.410461
v 0.082724 -0.014586 0.417658
v 0.502219 0.077000 0.491793
v 0.457767 -0.049000 0.483937
v 0.053994 -0.064348 0.412581
v 0.064348 -0.053994 0.414411
v 0.042000 0.072746 0.410461
v 0.033571 0.077000 0.408972
v 0.053994 0.064348 0.412581
v 0.084000 0.049000 0.417884
v 0.457767 0.049000 0.483938
v 0.076130 -0.035500 0.416493
v 0.078934 -0.028730 0.416988
v 0.081138 -0.021741 0.417378
v 0.083680 0.007321 0.417827
v 0.082724 0.014587 0.417658
v 0.081138 0.021741 0.417378
v 0.068809 -0.048180 0.415199
v 0.072746 -0.042000 0.415895
v 0.078934 0.028730 0.416988
v 0.076130 0.035500 0.416493
v 0.072746 0.042000 0.415895
v 0.068809 0.048180 0.415199
v 0.064348 0.053994 0.414411
v -0.243000 0.077000 0.527039
v -0.243000 -0.077000 0.527039
v -0.033571 0.077000 0.527039
v -0.033571 -0.077000 0.527039
v -0.028730 0.078934 0.527039
v -0.014586 0.082724 0.527039
v 0.135000 -0.077000 0.527039
v 0.135000 0.077000 0.527039
v 0.033571 -0.077000 0.527039
v 0.033571 0.077000 0.527039
v 0.028730 0.078934 0.527039
v 0.000000 0.084000 0.527039
v -0.028730 -0.078934 0.527039
v -0.014586 -0.082724 0.527039
v 0.014586 0.082724 0.527039
v 0.028730 -0.078934 0.527039
v -0.000000 -0.084000 0.527039
v 0.014586 -0.082724 0.527039
v 0.457767 -0.077000 0.555278
v 0.078934 0.028730 0.257039
v 0.082724 0.014586 0.257039
v 0.000000 0.000000 0.257039
v 0.084000 0.000000 0.257039
v 0.082724 -0.014586 0.257039
v 0.053994 0.064348 0.257039
v 0.064348 0.053994 0.257039
v 0.072746 0.042000 0.257039
v 0.014586 0.082724 0.257039
v 0.028730 0.078934 0.257039
v 0.042000 0.072746 0.257039
v -0.028730 0.078934 0.257039
v -0.014586 0.082724 0.257039
v 0.000000 0.084000 0.257039
v -0.064348 0.053994 0.257039
v -0.053994 0.064348 0.257039
v -0.042000 0.072746 0.257039
v -0.082724 0.014586 0.257039
v -0.078934 0.028730 0.257039
v -0.072746 0.042000 0.257039
v -0.078934 -0.028730 0.257039
v -0.082724 -0.014586 0.257039
v -0.084000 0.000000 0.257039
v -0.053994 -0.064348 0.257039
v -0.064348 -0.053994 0.257039
v -0.072746 -0.042000 0.257039
v -0.014586 -0.082724 0.257039
v -0.028730 -0.078934 0.257039
v -0.042000 -0.072746 0.257039
v 0.028730 -0.078934 0.257039
v 0.014586 -0.082724 0.257039
v -0.000000 -0.084000 0.257039
v 0.064348 -0.053994 0.257039
v 0.053994 -0.064348 0.257039
v 0.042000 -0.072746 0.257039
v 0.078934 -0.028730 0.257039
v 0.072746 -0.042000 0.257039
v -0.084000 0.049000 0.505339
v -0.084000 -0.049000 0.505339
v -0.243000 0.049000 0.505339
v -0.243000 -0.049000 0.505339
v 0.457767 -0.049000 0.533577
v 0.457767 0.049000 0.533578
v 0.084000 0.049000 0.505339
v 0.084000 -0.049000 0.505339
v -0.281750 -0.077000 0.459922
v -0.281750 0.077000 0.459922
v 0.457767 0.077000 0.555277
v -0.243000 0.049000 0.452099
v -0.243000 -0.049000 0.452098
v -0.084000 0.049000 0.419998
v -0.033571 -0.077000 0.409817
v -0.083680 0.007321 0.419933
v -0.084000 -0.000000 0.419998
v -0.033571 0.077000 0.409817
v -0.042000 0.072746 0.411519
v -0.082724 0.014586 0.419740
v -0.053994 0.064348 0.413940
v -0.064348 0.053994 0.416030
v -0.042000 -0.072746 0.411519
v -0.053994 -0.064348 0.413940
v -0.084000 -0.049000 0.419998
v -0.076130 0.035500 0.418409
v -0.078934 0.028730 0.418975
v -0.081138 0.021741 0.419420
v -0.083680 -0.007321 0.419933
v -0.082724 -0.014587 0.419740
v -0.081138 -0.021741 0.419420
v -0.068809 0.048181 0.416931
v -0.072746 0.042000 0.417726
v -0.078934 -0.028729 0.418975
v -0.076130 -0.035500 0.418409
v -0.072746 -0.042000 0.417726
v -0.068809 -0.048180 0.416931
v -0.064348 -0.053994 0.416030
v 0.135000 0.049000 0.505339
v 0.135000 -0.049000 0.505339
v 0.080082 0.025361 0.231152
v 0.078933 0.028734 0.230756
v -0.063540 0.054943 0.225954
v -0.064347 0.053996 0.226182
v 0.063782 -0.054671 0.226020
v 0.064352 -0.054001 0.226181
v 0.082693 -0.014585 0.232081
v 0.083349 -0.010129 0.232318
v 0.078932 -0.028730 0.230757
v 0.081592 -0.019891 0.231687
v 0.082154 -0.017394 0.231887
v 0.074788 -0.038261 0.229369
v 0.078744 -0.029244 0.230693
v 0.066130 -0.051815 0.226692
v 0.069790 -0.046778 0.227785
v 0.072754 -0.042013 0.228712
v 0.056747 -0.061938 0.224137
v 0.054003 -0.064351 0.223456
v 0.048909 -0.068313 0.222276
v 0.042014 -0.072754 0.220863
v 0.040489 -0.073610 0.220579
v 0.031452 -0.077890 0.219104
v 0.021886 -0.081100 0.217936
v 0.028734 -0.078933 0.218730
v -0.000000 -0.084000 0.216835
v 0.002874 -0.083925 0.216863
v 0.012241 -0.083104 0.217179
v 0.014590 -0.082723 0.217325
v -0.010156 -0.083346 0.217086
v -0.014585 -0.082693 0.217336
v -0.019941 -0.081581 0.217756
v -0.028730 -0.078933 0.218730
v -0.038253 -0.074792 0.220181
v -0.029297 -0.078725 0.218805
v -0.054712 -0.063747 0.223629
v -0.054001 -0.064352 0.223456
v -0.046777 -0.069791 0.221817
v -0.042014 -0.072753 0.220863
v -0.072754 -0.042012 0.228712
v -0.068321 -0.048896 0.227339
v -0.066127 -0.051819 0.226691
v -0.064351 -0.054002 0.226181
v -0.061977 -0.056704 0.225518
v -0.081105 -0.021868 0.231508
v -0.078933 -0.028734 0.230757
v -0.077923 -0.031369 0.230413
v -0.073638 -0.040438 0.228995
v -0.082178 -0.017403 0.231887
v -0.082723 -0.014592 0.232080
v -0.084000 0.000000 0.232539
v -0.083925 -0.002882 0.232521
v -0.083111 -0.012200 0.232219
v -0.083367 0.010299 0.232311
v -0.082723 0.014591 0.232081
v -0.078934 0.028731 0.230757
v -0.081528 0.020231 0.231657
v -0.082179 0.017397 0.231887
v -0.074640 0.038537 0.229323
v -0.078626 0.029564 0.230652
v -0.066114 0.051817 0.226691
v -0.069588 0.047047 0.227729
v -0.072745 0.042005 0.228713
v -0.056523 0.062139 0.224081
v -0.053997 0.064347 0.223457
v -0.048693 0.068447 0.222236
v -0.042003 0.072745 0.220866
v -0.040124 0.073799 0.220516
v -0.031058 0.078048 0.219048
v -0.021555 0.081188 0.217903
v -0.028734 0.078933 0.218730
v 0.000001 0.084000 0.216834
v -0.002114 0.083973 0.216845
v -0.011887 0.083155 0.217160
v -0.014590 0.082723 0.217325
v 0.007614 0.083655 0.216968
v 0.014589 0.082724 0.217325
v 0.025890 0.079911 0.218374
v 0.016522 0.082359 0.217463
v 0.035037 0.076344 0.219647
v 0.028734 0.078933 0.218730
v 0.053996 0.064348 0.223457
v 0.051892 0.066056 0.222958
v 0.043717 0.071728 0.221198
v 0.042003 0.072745 0.220865
v 0.072744 0.042006 0.228713
v 0.071808 0.043587 0.228417
v 0.066059 0.051887 0.226675
v 0.064346 0.053997 0.226182
v 0.059394 0.059400 0.224823
v 0.076493 0.034712 0.229933
v 0.082180 0.017395 0.231887
v 0.082507 0.015767 0.232004
v 0.084000 -0.000000 0.232539
v 0.083788 0.005998 0.232462
v 0.082724 0.014587 0.232081
vn 0.1745 -0.0000 -0.9846
vn 0.1740 -0.0000 -0.9847
vn 0.1741 -0.0000 -0.9847
vn 0.1740 0.0001 -0.9848
vn 0.1741 -0.0001 -0.9847
vn 0.1740 0.0001 -0.9847
vn 0.1750 0.0000 -0.9846
vn 0.1738 0.0000 -0.9848
vn -0.0000 0.0000 1.0000
vn 0.0000 -1.0000 0.0000
vn -0.0000 0.0000 -1.0000
vn -1.0000 0.0000 0.0000
vn 1.0000 0.0000 0.0000
vn -0.8660 0.0000 0.5000
vn -0.0000 1.0000 0.0000
vn 0.8192 0.0000 0.5736
vn -0.0872 0.0000 0.9962
vn -0.1980 0.0000 -0.9802
vn -0.1979 0.0000 -0.9802
vn -0.1976 0.0000 -0.9803
vn -0.1978 -0.0001 -0.9802
vn -0.1979 0.0001 -0.9802
vn -0.1973 -0.0000 -0.9803
vn -0.1978 -0.0000 -0.9802
vn 0.3710 0.9286 0.0000
vn -0.4510 0.8925 -0.0030
vn -0.4226 0.9063 0.0000
vn -0.5736 0.8191 0.0000
vn -0.5736 0.8192 -0.0000
vn -0.7071 0.7071 -0.0000
vn -0.7933 0.6088 0.0000
vn -0.8191 0.5736 -0.0020
vn -0.8434 0.5373 0.0000
vn -0.8870 0.4617 0.0000
vn -0.9063 0.4226 -0.0020
vn -0.9239 0.3827 -0.0000
vn -0.9537 0.3007 -0.0000
vn -0.9659 0.2588 -0.0020
vn -0.9763 0.2165 -0.0000
vn -0.9914 0.1305 -0.0000
vn -0.9962 0.0871 -0.0020
vn -0.9990 0.0436 0.0000
vn -0.9990 -0.0436 -0.0000
vn -0.9962 -0.0871 -0.0020
vn -0.9914 -0.1305 -0.0000
vn -0.9763 -0.2165 -0.0000
vn -0.9659 -0.2588 -0.0020
vn -0.9537 -0.3007 0.0000
vn -0.9239 -0.3827 0.0000
vn -0.9063 -0.4226 -0.0020
vn -0.8870 -0.4617 -0.0000
vn -0.8434 -0.5373 -0.0000
vn -0.8192 -0.5736 -0.0020
vn -0.7934 -0.6088 -0.0000
vn -0.7071 -0.7071 -0.0000
vn -0.5736 -0.8192 0.0000
vn -0.5736 -0.8191 0.0000
vn -0.3710 -0.9286 0.0000
vn 0.4510 -0.8925 -0.0030
vn 0.4226 -0.9063 -0.0000
vn 0.5736 -0.8192 -0.0000
vn 0.5736 -0.8191 0.0000
vn 0.7071 -0.7071 0.0000
vn 0.7934 -0.6088 0.0000
vn 0.8192 -0.5736 -0.0020
vn 0.8434 -0.5373 -0.0000
vn 0.8870 -0.4617 -0.0000
vn 0.9063 -0.4226 -0.0020
vn 0.9239 -0.3827 0.0000
vn 0.9537 -0.3007 0.0000
vn 0.9659 -0.2588 -0.0020
vn 0.9763 -0.2165 0.0000
vn 0.9914 -0.1305 0.0000
vn 0.9962 -0.0871 -0.0020
vn 0.9990 -0.0436 -0.0000
vn 0.9990 0.0436 0.0000
vn 0.9962 0.0871 -0.0020
vn 0.9914 0.1305 -0.0000
vn 0.9763 0.2165 -0.0000
vn 0.9659 0.2588 -0.0020
vn 0.9537 0.3007 0.0000
vn 0.9239 0.3827 0.0000
vn 0.9063 0.4226 -0.0020
vn 0.8870 0.4617 0.0000
vn 0.8434 0.5373 0.0000
vn 0.8191 0.5736 -0.0020
vn 0.7934 0.6088 -0.0000
vn 0.7071 0.7071 -0.0000
vn 0.5736 0.8191 0.0000
vn -0.4505 -0.8928 0.0000
vn -0.4226 -0.9063 -0.0019
vn -0.2588 -0.9659 -0.0000
vn -0.0871 -0.9962 0.0000
vn -0.0872 -0.9962 -0.0000
vn 0.0871 -0.9962 -0.0000
vn 0.0872 -0.9962 0.0000
vn 0.2588 -0.9659 0.0000
vn 0.3710 -0.9286 -0.0000
vn 0.4506 0.8927 0.0000
vn 0.4226 0.9063 -0.0019
vn 0.2588 0.9659 0.0000
vn 0.0872 0.9962 -0.0000
vn 0.0871 0.9962 0.0000
vn -0.0872 0.9962 0.0000
vn -0.0871 0.9962 -0.0000
vn -0.2588 0.9659 -0.0000
vn -0.3710 0.9286 0.0000
vn 0.0872 -0.0000 -0.9962
vn 0.9466 0.3224 0.0000
vn -0.7612 0.6485 0.0000
vn 0.7618 -0.6479 0.0002
vn 0.9893 -0.1457 -0.0013
vn 0.9962 -0.0871 0.0095
vn 0.9576 -0.2882 -0.0001
vn 0.9659 -0.2588 0.0110
vn 0.9756 -0.2197 0.0024
vn 0.9821 -0.1881 -0.0012
vn 0.9063 -0.4226 0.0098
vn 0.9157 -0.4019 0.0012
vn 0.9389 -0.3442 -0.0001
vn 0.7757 -0.6311 0.0002
vn 0.8085 -0.5885 0.0052
vn 0.8191 -0.5735 0.0109
vn 0.8491 -0.5282 0.0005
vn 0.8791 -0.4767 0.0004
vn 0.7182 -0.6959 0.0021
vn 0.7071 -0.7071 0.0074
vn 0.6605 -0.7508 0.0002
vn 0.6139 -0.7894 0.0002
vn 0.5735 -0.8191 0.0095
vn 0.5414 -0.8408 0.0004
vn 0.4898 -0.8719 0.0004
vn 0.4226 -0.9063 0.0040
vn 0.4272 -0.9041 0.0058
vn 0.2588 -0.9659 0.0082
vn 0.3017 -0.9534 0.0000
vn 0.3584 -0.9335 0.0000
vn 0.0261 -0.9997 0.0000
vn 0.0871 -0.9962 0.0044
vn 0.1602 -0.9871 -0.0000
vn 0.2171 -0.9761 -0.0000
vn -0.0642 -0.9979 0.0000
vn -0.0871 -0.9962 0.0059
vn -0.1459 -0.9893 -0.0008
vn -0.2034 -0.9791 -0.0008
vn -0.2588 -0.9659 0.0072
vn -0.2885 -0.9575 -0.0000
vn -0.4226 -0.9063 0.0073
vn -0.4019 -0.9157 0.0009
vn -0.3449 -0.9386 -0.0000
vn -0.6481 -0.7615 0.0002
vn -0.6014 -0.7989 0.0002
vn -0.5735 -0.8191 0.0091
vn -0.5281 -0.8492 0.0004
vn -0.4765 -0.8791 0.0004
vn -0.8192 -0.5736 0.0005
vn -0.8389 -0.5439 0.0189
vn -0.7993 -0.6009 0.0038
vn -0.7757 -0.6311 0.0003
vn -0.7071 -0.7071 0.0003
vn -0.7474 -0.6638 0.0283
vn -0.6958 -0.7182 0.0020
vn -0.9534 -0.3016 0.0000
vn -0.9337 -0.3580 0.0000
vn -0.9063 -0.4226 0.0075
vn -0.9038 -0.4279 0.0049
vn -0.8720 -0.4896 0.0005
vn -0.9718 -0.2351 0.0194
vn -0.9659 -0.2588 0.0080
vn -0.9817 -0.1904 0.0000
vn -0.9997 -0.0261 0.0000
vn -0.9962 -0.0871 0.0072
vn -0.9962 -0.0872 0.0071
vn -0.9871 -0.1599 -0.0000
vn -0.9981 0.0613 -0.0000
vn -0.9961 0.0871 0.0108
vn -0.9889 0.1484 0.0000
vn -0.9565 0.2919 0.0000
vn -0.9659 0.2588 0.0120
vn -0.9745 0.2241 0.0039
vn -0.9817 0.1906 0.0000
vn -0.9063 0.4226 0.0091
vn -0.9138 0.4062 0.0022
vn -0.9378 0.3471 0.0000
vn -0.7767 0.6299 0.0000
vn -0.8078 0.5894 0.0047
vn -0.8191 0.5736 0.0105
vn -0.8476 0.5306 0.0000
vn -0.8775 0.4795 0.0000
vn -0.7156 0.6985 0.0027
vn -0.7071 0.7071 0.0069
vn -0.6581 0.7529 0.0000
vn -0.6116 0.7912 0.0000
vn -0.5736 0.8191 0.0091
vn -0.5405 0.8414 0.0000
vn -0.4890 0.8723 0.0000
vn -0.4226 0.9063 0.0044
vn -0.4237 0.9058 0.0048
vn -0.2588 0.9659 0.0082
vn -0.2997 0.9540 0.0000
vn -0.3561 0.9345 0.0000
vn -0.0126 0.9999 -0.0000
vn -0.0833 0.9965 0.0037
vn -0.0872 0.9962 0.0049
vn -0.1577 0.9875 0.0000
vn -0.2153 0.9766 0.0000
vn 0.0452 0.9990 0.0000
vn 0.0872 0.9962 0.0080
vn 0.1324 0.9912 0.0000
vn 0.2588 0.9659 0.0054
vn 0.2525 0.9676 0.0034
vn 0.1853 0.9827 0.0000
vn 0.4226 0.9063 0.0085
vn 0.3799 0.9250 0.0000
vn 0.3253 0.9456 0.0000
vn 0.6260 0.7793 0.0287
vn 0.5694 0.8220 0.0039
vn 0.5104 0.8600 0.0000
vn 0.4590 0.8884 0.0000
vn 0.8604 0.5096 0.0000
vn 0.8191 0.5736 0.0049
vn 0.8214 0.5703 0.0067
vn 0.7763 0.6304 0.0000
vn 0.7347 0.6781 0.0190
vn 0.6757 0.7372 0.0000
vn 0.9063 0.4226 0.0000
vn 0.9243 0.3808 0.0254
vn 0.8894 0.4571 0.0000
vn 0.9668 0.2555 0.0096
vn 0.9659 0.2588 0.0080
vn 0.9804 0.1973 0.0008
vn 0.9979 -0.0641 0.0000
vn 0.9994 0.0354 -0.0000
vn 0.9961 0.0871 0.0127
vn 0.9924 0.1229 -0.0000
vn 0.9835 0.1807 -0.0000
usemtl None
s off
f 1//1 2//1 3//1
f 4//2 5//2 6//2
f 1//3 3//3 7//3
f 8//2 4//2 9//2
f 9//2 4//2 6//2
f 9//2 6//2 3//2
f 3//4 6//4 10//4
f 3//5 10//5 11//5
f 12//6 13//6 8//6
f 14//2 12//2 15//2
f 15//2 12//2 8//2
f 15//2 8//2 16//2
f 16//2 8//2 9//2
f 17//3 18//3 3//3
f 3//3 18//3 19//3
f 3//2 19//2 7//2
f 2//7 20//7 15//7
f 15//8 20//8 21//8
f 15//3 21//3 22//3
f 11//2 23//2 3//2
f 3//2 23//2 24//2
f 3//3 24//3 17//3
f 22//2 25//2 15//2
f 15//2 25//2 26//2
f 15//2 26//2 27//2
f 27//2 28//2 15//2
f 15//2 28//2 29//2
f 15//2 29//2 14//2
f 30//9 31//9 32//9
f 32//9 31//9 33//9
f 32//9 33//9 34//9
f 34//9 33//9 35//9
f 36//9 37//9 38//9
f 38//9 37//9 39//9
f 38//9 39//9 40//9
f 35//9 33//9 41//9
f 41//9 33//9 42//9
f 41//9 42//9 43//9
f 40//9 44//9 38//9
f 38//9 44//9 41//9
f 38//9 41//9 45//9
f 43//9 46//9 41//9
f 41//9 46//9 47//9
f 41//9 47//9 45//9
f 4//10 48//10 5//10
f 5//10 48//10 36//10
f 5//10 36//10 38//10
f 49//11 50//11 51//11
f 54//11 55//11 51//11
f 51//11 58//11 59//11
f 51//11 59//11 54//11
f 60//11 61//11 51//11
f 51//11 61//11 62//11
f 51//11 62//11 57//11
f 63//11 64//11 51//11
f 66//11 67//11 51//11
f 51//11 70//11 71//11
f 72//11 73//11 51//11
f 51//11 73//11 74//11
f 51//11 74//11 69//11
f 51//11 80//11 75//11
f 81//11 82//11 51//11
f 51//11 82//11 83//11
f 51//11 83//11 78//11
f 53//11 84//11 51//11
f 51//11 84//11 85//11
f 51//11 85//11 81//11
f 86//11 87//11 88//11
f 88//11 87//11 89//11
f 90//12 91//12 9//12
f 9//12 91//12 16//12
f 15//13 92//13 2//13
f 2//13 92//13 93//13
f 2//13 93//13 3//13
f 94//14 31//14 95//14
f 95//14 31//14 30//14
f 96//15 8//15 37//15
f 37//15 8//15 13//15
f 37//15 13//15 39//15
f 8//16 96//16 4//16
f 4//16 96//16 48//16
f 88//13 89//13 97//13
f 97//13 89//13 98//13
f 86//10 88//10 99//10
f 99//10 88//10 97//10
f 31//10 94//10 33//10
f 33//10 94//10 100//10
f 96//17 37//17 48//17
f 48//17 37//17 36//17
f 101//18 102//18 99//18
f 95//19 103//19 104//19
f 101//20 99//20 105//20
f 94//19 95//19 97//19
f 97//19 95//19 104//19
f 97//19 104//19 99//19
f 99//21 104//21 106//21
f 99//22 106//22 107//22
f 108//19 100//19 94//19
f 109//19 108//19 110//19
f 110//19 108//19 94//19
f 110//19 94//19 98//19
f 98//19 94//19 97//19
f 111//19 112//19 99//19
f 99//19 112//19 113//19
f 99//18 113//18 105//18
f 102//23 114//23 110//23
f 110//19 114//19 115//19
f 110//24 115//24 116//24
f 107//19 117//19 99//19
f 99//19 117//19 118//19
f 99//19 118//19 111//19
f 116//19 119//19 110//19
f 110//18 119//18 120//18
f 110//19 120//19 121//19
f 121//19 122//19 110//19
f 110//19 122//19 123//19
f 110//19 123//19 109//19
f 110//12 87//12 102//12
f 102//12 87//12 86//12
f 102//12 86//12 99//12
f 89//15 87//15 98//15
f 98//15 87//15 110//15
f 16//10 91//10 15//10
f 15//10 91//10 124//10
f 15//10 124//10 92//10
f 95//15 30//15 103//15
f 103//15 30//15 32//15
f 40//25 39//25 13//25
f 104//26 103//26 60//26
f 60//27 65//27 104//27
f 104//28 65//28 64//28
f 104//29 64//29 106//29
f 106//30 64//30 63//30
f 106//30 63//30 107//30
f 107//31 63//31 117//31
f 117//32 63//32 68//32
f 117//33 68//33 118//33
f 118//34 68//34 111//34
f 111//35 68//35 67//35
f 111//36 67//36 112//36
f 112//37 67//37 113//37
f 113//38 67//38 66//38
f 113//39 66//39 105//39
f 105//40 66//40 101//40
f 101//41 66//41 71//41
f 101//42 71//42 102//42
f 102//43 71//43 114//43
f 114//44 71//44 70//44
f 114//45 70//45 115//45
f 115//46 70//46 116//46
f 116//47 70//47 69//47
f 116//48 69//48 119//48
f 119//49 69//49 120//49
f 120//50 69//50 74//50
f 120//51 74//51 121//51
f 121//52 74//52 122//52
f 122//53 74//53 73//53
f 122//54 73//54 123//54
f 123//55 73//55 72//55
f 123//55 72//55 109//55
f 109//56 72//56 77//56
f 109//57 77//57 108//57
f 42//58 33//58 100//58
f 6//59 5//59 78//59
f 78//60 83//60 6//60
f 6//61 83//61 82//61
f 6//62 82//62 10//62
f 10//63 82//63 81//63
f 10//63 81//63 11//63
f 11//64 81//64 23//64
f 23//65 81//65 85//65
f 23//66 85//66 24//66
f 24//67 85//67 17//67
f 17//68 85//68 84//68
f 17//69 84//69 18//69
f 18//70 84//70 19//70
f 19//71 84//71 53//71
f 19//72 53//72 7//72
f 7//73 53//73 1//73
f 1//74 53//74 52//74
f 1//75 52//75 2//75
f 2//76 52//76 20//76
f 20//77 52//77 50//77
f 20//78 50//78 21//78
f 21//79 50//79 22//79
f 22//80 50//80 49//80
f 22//81 49//81 25//81
f 25//82 49//82 26//82
f 26//83 49//83 56//83
f 26//84 56//84 27//84
f 27//85 56//85 28//85
f 28//86 56//86 55//86
f 28//87 55//87 29//87
f 29//88 55//88 54//88
f 29//88 54//88 14//88
f 14//89 54//89 59//89
f 14//89 59//89 12//89
f 108//90 77//90 100//90
f 100//91 77//91 76//91
f 100//58 76//58 42//58
f 42//92 76//92 75//92
f 42//92 75//92 43//92
f 43//93 75//93 80//93
f 43//94 80//94 46//94
f 46//95 80//95 79//95
f 46//96 79//96 47//96
f 47//97 79//97 78//97
f 47//97 78//97 45//97
f 45//98 78//98 5//98
f 45//98 5//98 38//98
f 12//99 59//99 13//99
f 13//100 59//100 58//100
f 13//25 58//25 40//25
f 40//101 58//101 57//101
f 40//101 57//101 44//101
f 44//102 57//102 62//102
f 44//103 62//103 41//103
f 41//104 62//104 61//104
f 41//105 61//105 35//105
f 35//106 61//106 60//106
f 35//106 60//106 34//106
f 34//107 60//107 103//107
f 34//107 103//107 32//107
f 90//15 9//15 125//15
f 125//15 9//15 3//15
f 125//15 3//15 93//15
f 124//108 91//108 125//108
f 125//108 91//108 90//108
f 93//11 92//11 125//11
f 125//11 92//11 124//11
f 51//9 53//9 52//9
f 51//9 52//9 50//9
f 79//9 78//9 51//9
f 76//9 75//9 51//9
f 51//9 80//9 79//9
f 51//9 72//9 77//9
f 51//9 77//9 76//9
f 70//9 69//9 51//9
f 51//9 66//9 71//9
f 51//9 63//9 68//9
f 51//9 68//9 67//9
f 51//9 60//9 65//9
f 51//9 65//9 64//9
f 58//9 57//9 51//9
f 51//9 49//9 56//9
f 51//9 56//9 55//9
f 126//109 127//109 49//109
f 128//110 129//110 63//110
f 130//111 131//111 81//111
f 53//112 132//112 133//112
f 53//113 133//113 52//113
f 84//114 134//114 135//114
f 84//115 135//115 53//115
f 53//116 135//116 136//116
f 53//117 136//117 132//117
f 85//118 137//118 84//118
f 84//119 137//119 138//119
f 84//120 138//120 134//120
f 131//121 139//121 81//121
f 81//122 139//122 140//122
f 81//123 140//123 85//123
f 85//124 140//124 141//124
f 85//125 141//125 137//125
f 130//126 81//126 142//126
f 142//127 81//127 82//127
f 142//128 82//128 143//128
f 143//129 82//129 144//129
f 144//130 82//130 83//130
f 144//131 83//131 145//131
f 145//132 83//132 146//132
f 146//133 83//133 78//133
f 146//134 78//134 147//134
f 79//135 148//135 78//135
f 78//136 148//136 149//136
f 78//137 149//137 147//137
f 150//138 151//138 80//138
f 80//139 151//139 152//139
f 80//139 152//139 79//139
f 79//140 152//140 153//140
f 79//141 153//141 148//141
f 150//142 80//142 154//142
f 154//143 80//143 75//143
f 154//144 75//144 155//144
f 155//145 75//145 156//145
f 156//146 75//146 76//146
f 156//147 76//147 157//147
f 77//148 158//148 76//148
f 76//149 158//149 159//149
f 76//150 159//150 157//150
f 160//151 161//151 72//151
f 72//152 161//152 162//152
f 72//153 162//153 77//153
f 77//154 162//154 163//154
f 77//155 163//155 158//155
f 74//156 164//156 73//156
f 73//157 164//157 165//157
f 165//158 166//158 73//158
f 73//159 166//159 167//159
f 73//160 167//160 72//160
f 72//161 167//161 168//161
f 72//162 168//162 160//162
f 169//163 170//163 69//163
f 69//164 170//164 171//164
f 69//165 171//165 74//165
f 74//166 171//166 172//166
f 74//167 172//167 164//167
f 169//168 69//168 173//168
f 173//169 69//169 70//169
f 173//170 70//170 174//170
f 71//171 175//171 176//171
f 71//172 176//172 70//172
f 70//173 176//173 177//173
f 70//174 177//174 174//174
f 175//175 71//175 178//175
f 178//176 71//176 66//176
f 178//177 66//177 179//177
f 67//178 180//178 181//178
f 67//179 181//179 66//179
f 66//180 181//180 182//180
f 66//181 182//181 179//181
f 68//182 183//182 67//182
f 67//183 183//183 184//183
f 67//184 184//184 180//184
f 129//185 185//185 63//185
f 63//186 185//186 186//186
f 63//187 186//187 68//187
f 68//188 186//188 187//188
f 68//189 187//189 183//189
f 128//190 63//190 188//190
f 188//191 63//191 64//191
f 188//192 64//192 189//192
f 189//193 64//193 190//193
f 190//194 64//194 65//194
f 190//195 65//195 191//195
f 191//196 65//196 192//196
f 192//197 65//197 60//197
f 192//198 60//198 193//198
f 61//199 194//199 60//199
f 60//200 194//200 195//200
f 60//201 195//201 193//201
f 196//202 197//202 62//202
f 62//203 197//203 198//203
f 62//204 198//204 61//204
f 61//205 198//205 199//205
f 61//206 199//206 194//206
f 196//207 62//207 200//207
f 200//208 62//208 57//208
f 200//209 57//209 201//209
f 58//210 202//210 57//210
f 57//211 202//211 203//211
f 57//212 203//212 201//212
f 59//213 204//213 58//213
f 58//214 204//214 205//214
f 58//215 205//215 202//215
f 54//89 206//89 59//89
f 59//216 206//216 207//216
f 207//217 208//217 59//217
f 59//218 208//218 209//218
f 59//219 209//219 204//219
f 56//220 210//220 211//220
f 56//221 211//221 55//221
f 211//222 212//222 55//222
f 55//223 212//223 213//223
f 55//88 213//88 54//88
f 54//224 213//224 214//224
f 54//225 214//225 206//225
f 49//226 127//226 56//226
f 56//227 127//227 215//227
f 56//228 215//228 210//228
f 126//229 49//229 216//229
f 216//230 49//230 50//230
f 216//231 50//231 217//231
f 133//232 218//232 52//232
f 52//233 218//233 219//233
f 52//234 219//234 50//234
f 50//235 219//235 220//235
f 50//236 220//236 217//236
