# Blender v3.6.0 OBJ File: 'Valves.blend'
# www.blender.org
mtllib ValveElectric.mtl
o 14_ValveElectric_ValveElectric.001
v -0.140020 0.690000 0.125000
v -0.140020 0.690000 -0.125000
v -0.320020 0.690000 0.125000
v -0.320020 0.690000 -0.125000
v -0.140020 0.190000 -0.125000
v -0.320020 0.190000 -0.125000
v -0.140020 0.190000 0.125000
v -0.320020 0.190000 0.125000
v 0.319981 0.190000 -0.225000
v 0.319981 -0.140000 -0.225000
v -0.320020 0.190000 -0.225000
v -0.320020 -0.140000 -0.225000
v -0.320020 -0.016176 -0.091740
v -0.320020 -0.000000 -0.093155
v -0.320020 0.080675 -0.046578
v -0.320020 0.016176 -0.091740
v -0.320020 0.031861 -0.087537
v -0.320020 0.046577 -0.080675
v -0.320020 0.059879 -0.071361
v -0.320020 0.071361 -0.059879
v -0.320020 0.087537 -0.031861
v -0.320020 0.091740 -0.016176
v -0.320020 0.093155 -0.000000
v -0.320020 0.091740 0.016176
v -0.320020 0.087537 0.031861
v -0.320020 0.080675 0.046577
v -0.320020 0.071361 0.059879
v -0.320020 0.190000 0.225000
v -0.320020 0.059879 0.071361
v -0.320020 0.046577 0.080675
v -0.320020 -0.016176 0.091740
v -0.320020 -0.031861 0.087537
v -0.320020 -0.140000 0.225000
v -0.320020 -0.046578 0.080675
v -0.320020 -0.059879 0.071361
v -0.320020 -0.071361 0.059879
v -0.320020 -0.080675 0.046577
v -0.320020 -0.087537 0.031861
v -0.320020 -0.091740 0.016176
v -0.320020 -0.093155 0.000000
v -0.320020 -0.091740 -0.016176
v -0.320020 -0.087537 -0.031861
v -0.320020 -0.080675 -0.046578
v -0.320020 -0.071361 -0.059879
v -0.320020 -0.059879 -0.071361
v -0.320020 -0.046578 -0.080675
v -0.320020 -0.031861 -0.087537
v -0.320020 0.031861 0.087537
v -0.320020 0.016176 0.091740
v -0.320020 0.000000 0.093155
v 0.319981 0.190000 0.225000
v 0.319981 -0.140000 0.225000
v 0.319981 -0.093155 0.000000
v 0.319981 -0.091740 -0.016176
v 0.319981 -0.087537 -0.031861
v 0.319981 -0.080675 -0.046578
v 0.319981 -0.071361 -0.059879
v 0.319981 -0.059879 -0.071361
v 0.319981 -0.046578 -0.080675
v 0.319981 -0.031861 -0.087537
v 0.319981 -0.016176 -0.091740
v 0.319981 -0.000000 -0.093155
v 0.319981 0.016176 -0.091740
v 0.319981 0.031861 -0.087537
v 0.319981 0.046577 -0.080675
v 0.319981 0.059879 -0.071361
v 0.319981 0.071361 -0.059879
v 0.319981 0.080675 -0.046578
v 0.319981 0.087537 -0.031861
v 0.319981 0.091740 -0.016176
v 0.319981 0.093155 -0.000000
v 0.319981 0.091740 0.016176
v 0.319981 0.087537 0.031861
v 0.319981 0.080675 0.046577
v 0.319981 0.071361 0.059879
v 0.319981 0.059879 0.071361
v 0.319981 0.046577 0.080675
v 0.319981 0.031861 0.087537
v 0.319981 0.016176 0.091740
v 0.319981 0.000000 0.093155
v 0.319981 -0.016176 0.091740
v 0.319981 -0.031861 0.087537
v 0.319981 -0.046578 0.080675
v 0.319981 -0.059879 0.071361
v 0.319981 -0.071361 0.059879
v 0.319981 -0.080675 0.046577
v 0.319981 -0.087537 0.031861
v 0.319981 -0.091740 0.016176
vn 0.0000 1.0000 0.0000
vn 0.0000 -0.0000 -1.0000
vn 1.0000 0.0000 0.0000
vn 0.0000 0.0000 1.0000
vn -1.0000 0.0000 0.0000
vn 0.0000 -1.0000 0.0000
vn 0.0000 0.9962 0.0871
vn 0.0000 0.9659 0.2588
vn 0.0000 0.9063 0.4226
vn 0.0000 0.8191 0.5736
vn 0.0000 0.7071 0.7071
vn 0.0000 0.5736 0.8191
vn 0.0000 0.4226 0.9063
vn 0.0000 0.2588 0.9659
vn 0.0000 0.0871 0.9962
vn 0.0000 -0.0871 0.9962
vn 0.0000 -0.2588 0.9659
vn 0.0000 -0.4226 0.9063
vn 0.0000 -0.5736 0.8192
vn 0.0000 -0.7071 0.7071
vn 0.0000 -0.8191 0.5736
vn 0.0000 -0.9063 0.4226
vn 0.0000 -0.9659 0.2588
vn 0.0000 -0.9962 0.0871
vn 0.0000 -0.9962 -0.0871
vn 0.0000 -0.9659 -0.2588
vn 0.0000 -0.9063 -0.4226
vn 0.0000 -0.8192 -0.5736
vn 0.0000 -0.7071 -0.7071
vn 0.0000 -0.5736 -0.8192
vn 0.0000 -0.4226 -0.9063
vn 0.0000 -0.2588 -0.9659
vn 0.0000 -0.0871 -0.9962
vn 0.0000 0.0871 -0.9962
vn 0.0000 0.2588 -0.9659
vn 0.0000 0.4226 -0.9063
vn 0.0000 0.5736 -0.8191
vn 0.0000 0.7071 -0.7071
vn 0.0000 0.8192 -0.5736
vn 0.0000 0.9063 -0.4226
vn 0.0000 0.9659 -0.2588
vn 0.0000 0.9962 -0.0871
usemtl None.009
s 1
f 1//1 2//1 3//1
f 3//1 2//1 4//1
f 5//2 6//2 2//2
f 2//2 6//2 4//2
f 7//3 5//3 1//3
f 1//3 5//3 2//3
f 8//4 7//4 3//4
f 3//4 7//4 1//4
f 9//2 10//2 11//2
f 11//2 10//2 12//2
f 6//5 13//5 14//5
f 4//5 6//5 15//5
f 14//5 16//5 6//5
f 6//5 16//5 17//5
f 6//5 17//5 18//5
f 18//5 19//5 6//5
f 6//5 19//5 20//5
f 6//5 20//5 15//5
f 15//5 21//5 4//5
f 4//5 21//5 22//5
f 4//5 22//5 3//5
f 3//5 22//5 23//5
f 3//5 23//5 8//5
f 8//5 23//5 24//5
f 8//5 24//5 25//5
f 25//5 26//5 8//5
f 8//5 26//5 27//5
f 8//5 27//5 28//5
f 28//5 27//5 29//5
f 28//5 29//5 30//5
f 31//5 32//5 33//5
f 33//5 32//5 34//5
f 33//5 34//5 35//5
f 35//5 36//5 33//5
f 33//5 36//5 37//5
f 33//5 37//5 38//5
f 38//5 39//5 33//5
f 33//5 39//5 40//5
f 33//5 40//5 12//5
f 40//5 41//5 12//5
f 12//5 41//5 42//5
f 12//5 42//5 43//5
f 43//5 44//5 12//5
f 12//5 44//5 45//5
f 12//5 45//5 46//5
f 6//5 11//5 13//5
f 13//5 11//5 12//5
f 13//5 12//5 47//5
f 47//5 12//5 46//5
f 30//5 48//5 28//5
f 28//5 48//5 49//5
f 28//5 49//5 33//5
f 33//5 49//5 50//5
f 33//5 50//5 31//5
f 28//4 33//4 51//4
f 51//4 33//4 52//4
f 11//1 6//1 5//1
f 8//1 28//1 7//1
f 7//1 28//1 51//1
f 7//1 51//1 5//1
f 5//1 51//1 9//1
f 5//1 9//1 11//1
f 33//6 12//6 52//6
f 52//6 12//6 10//6
f 40//7 53//7 41//7
f 41//7 53//7 54//7
f 41//8 54//8 42//8
f 42//8 54//8 55//8
f 42//9 55//9 43//9
f 43//9 55//9 56//9
f 43//10 56//10 44//10
f 44//10 56//10 57//10
f 44//11 57//11 45//11
f 45//11 57//11 58//11
f 45//12 58//12 46//12
f 46//12 58//12 59//12
f 46//13 59//13 47//13
f 47//13 59//13 60//13
f 47//14 60//14 13//14
f 13//14 60//14 61//14
f 13//15 61//15 14//15
f 14//15 61//15 62//15
f 14//16 62//16 16//16
f 16//16 62//16 63//16
f 16//17 63//17 17//17
f 17//17 63//17 64//17
f 17//18 64//18 18//18
f 18//18 64//18 65//18
f 18//19 65//19 19//19
f 19//19 65//19 66//19
f 19//20 66//20 20//20
f 20//20 66//20 67//20
f 20//21 67//21 15//21
f 15//21 67//21 68//21
f 15//22 68//22 21//22
f 21//22 68//22 69//22
f 21//23 69//23 22//23
f 22//23 69//23 70//23
f 22//24 70//24 23//24
f 23//24 70//24 71//24
f 23//25 71//25 24//25
f 24//25 71//25 72//25
f 24//26 72//26 25//26
f 25//26 72//26 73//26
f 25//27 73//27 26//27
f 26//27 73//27 74//27
f 26//28 74//28 27//28
f 27//28 74//28 75//28
f 27//29 75//29 29//29
f 29//29 75//29 76//29
f 29//30 76//30 30//30
f 30//30 76//30 77//30
f 30//31 77//31 48//31
f 48//31 77//31 78//31
f 48//32 78//32 49//32
f 49//32 78//32 79//32
f 49//33 79//33 50//33
f 50//33 79//33 80//33
f 50//34 80//34 31//34
f 31//34 80//34 81//34
f 31//35 81//35 32//35
f 32//35 81//35 82//35
f 32//36 82//36 34//36
f 34//36 82//36 83//36
f 34//37 83//37 35//37
f 35//37 83//37 84//37
f 35//38 84//38 36//38
f 36//38 84//38 85//38
f 36//39 85//39 37//39
f 37//39 85//39 86//39
f 37//40 86//40 38//40
f 38//40 86//40 87//40
f 38//41 87//41 39//41
f 39//41 87//41 88//41
f 39//42 88//42 40//42
f 40//42 88//42 53//42
f 69//3 68//3 9//3
f 88//3 52//3 53//3
f 53//3 52//3 10//3
f 53//3 10//3 54//3
f 88//3 87//3 52//3
f 52//3 87//3 86//3
f 52//3 86//3 85//3
f 78//3 77//3 51//3
f 51//3 77//3 76//3
f 73//3 72//3 51//3
f 51//3 72//3 71//3
f 51//3 71//3 9//3
f 9//3 71//3 70//3
f 9//3 70//3 69//3
f 68//3 67//3 9//3
f 9//3 67//3 66//3
f 9//3 66//3 65//3
f 85//3 84//3 52//3
f 52//3 84//3 83//3
f 52//3 83//3 82//3
f 61//3 60//3 10//3
f 76//3 75//3 51//3
f 51//3 75//3 74//3
f 51//3 74//3 73//3
f 65//3 64//3 9//3
f 9//3 64//3 63//3
f 9//3 63//3 10//3
f 10//3 63//3 62//3
f 10//3 62//3 61//3
f 57//3 56//3 10//3
f 10//3 56//3 55//3
f 10//3 55//3 54//3
f 82//3 81//3 52//3
f 52//3 81//3 80//3
f 52//3 80//3 51//3
f 51//3 80//3 79//3
f 51//3 79//3 78//3
f 60//3 59//3 10//3
f 10//3 59//3 58//3
f 10//3 58//3 57//3
